<?xml version="1.0" encoding="UTF-8" standalone="no"?><svg width="372" height="709" viewBox="0 0 372 709" fill="none" xmlns="http://www.w3.org/2000/svg">
<mask id="mask0_79_9061" style="mask-type:alpha" maskUnits="userSpaceOnUse" x="106" y="122" width="348" height="435">
<path d="M420.86 127.08C433.955 116.586 453.372 125.912 453.367 142.693L453.247 536.256C453.243 550.982 437.863 560.654 424.588 554.278L117.591 406.828C104.316 400.452 102.251 382.402 113.743 373.192L420.86 127.08Z" fill="#C4C4C4"/>
</mask>
<g mask="url(#mask0_79_9061)">
<line x1="5.71455" y1="179.738" x2="1112.27" y2="-0.36286" stroke="#262727" stroke-width="2" stroke-linecap="round"/>
<line x1="8.92744" y1="199.479" x2="1115.49" y2="19.3774" stroke="#262727" stroke-width="2" stroke-linecap="round"/>
<line x1="12.1403" y1="219.219" x2="1118.7" y2="39.1176" stroke="#262727" stroke-width="2" stroke-linecap="round"/>
<line x1="15.3532" y1="238.959" x2="1121.91" y2="58.8578" stroke="#262727" stroke-width="2" stroke-linecap="round"/>
<line x1="18.5661" y1="258.699" x2="1125.13" y2="78.5981" stroke="#262727" stroke-width="2" stroke-linecap="round"/>
<line x1="21.779" y1="278.44" x2="1128.34" y2="98.3384" stroke="#262727" stroke-width="2" stroke-linecap="round"/>
<line x1="24.9919" y1="298.18" x2="1131.55" y2="118.079" stroke="#262727" stroke-width="2" stroke-linecap="round"/>
<line x1="28.2048" y1="317.92" x2="1134.76" y2="137.819" stroke="#262727" stroke-width="2" stroke-linecap="round"/>
<line x1="31.4176" y1="337.66" x2="1137.98" y2="157.559" stroke="#262727" stroke-width="2" stroke-linecap="round"/>
<line x1="34.6304" y1="357.401" x2="1141.19" y2="177.299" stroke="#262727" stroke-width="2" stroke-linecap="round"/>
<line x1="37.8433" y1="377.141" x2="1144.4" y2="197.04" stroke="#262727" stroke-width="2" stroke-linecap="round"/>
<line x1="41.0562" y1="396.881" x2="1147.62" y2="216.78" stroke="#262727" stroke-width="2" stroke-linecap="round"/>
<line x1="44.2691" y1="416.621" x2="1150.83" y2="236.52" stroke="#262727" stroke-width="2" stroke-linecap="round"/>
<line x1="47.482" y1="436.362" x2="1154.04" y2="256.26" stroke="#262727" stroke-width="2" stroke-linecap="round"/>
<line x1="50.6949" y1="456.102" x2="1157.25" y2="276.001" stroke="#262727" stroke-width="2" stroke-linecap="round"/>
<line x1="53.9078" y1="475.842" x2="1160.47" y2="295.741" stroke="#262727" stroke-width="2" stroke-linecap="round"/>
<line x1="57.1207" y1="495.582" x2="1163.68" y2="315.481" stroke="#262727" stroke-width="2" stroke-linecap="round"/>
<line x1="60.3336" y1="515.323" x2="1166.89" y2="335.221" stroke="#262727" stroke-width="2" stroke-linecap="round"/>
<line x1="63.5465" y1="535.063" x2="1170.11" y2="354.962" stroke="#262727" stroke-width="2" stroke-linecap="round"/>
<line x1="66.7594" y1="554.803" x2="1173.32" y2="374.702" stroke="#262727" stroke-width="2" stroke-linecap="round"/>
<line x1="69.9722" y1="574.543" x2="1176.53" y2="394.442" stroke="#262727" stroke-width="2" stroke-linecap="round"/>
<line x1="73.1851" y1="594.284" x2="1179.74" y2="414.182" stroke="#262727" stroke-width="2" stroke-linecap="round"/>
<line x1="76.3979" y1="614.024" x2="1182.96" y2="433.923" stroke="#262727" stroke-width="2" stroke-linecap="round"/>
<line x1="79.6108" y1="633.764" x2="1186.17" y2="453.663" stroke="#262727" stroke-width="2" stroke-linecap="round"/>
</g>
</svg>
