<?xml version="1.0" encoding="UTF-8" standalone="no"?>
<svg width="1920" height="1652" viewBox="0 0 1920 1652" fill="none" xmlns="http://www.w3.org/2000/svg">
<path opacity="0.6" d="M1773.08 1192.14C1767.9 1196.92 1769.16 1205.41 1775.5 1208.49L2011.22 1322.76C2018.46 1326.26 2026.66 1320.24 2025.48 1312.29L1982.16 1020.25C1980.98 1012.3 1971.38 1008.91 1965.48 1014.37L1773.08 1192.14Z" fill="#C0E5ED"/>
<path opacity="0.6" d="M1752.25 727.719C1748.07 728.353 1745.84 732.995 1747.96 736.654L1803.61 832.898C1806.03 837.071 1812.13 836.838 1814.21 832.492L1868.47 719.547C1870.56 715.201 1866.93 710.293 1862.17 711.017L1752.25 727.719Z" fill="#C0E5ED"/>
<path opacity="0.6" d="M1823.22 46.3595C1822.59 42.1801 1817.95 39.9461 1814.28 42.0588L1717.99 97.6289C1713.82 100.039 1714.04 106.14 1718.39 108.232L1831.28 162.592C1835.63 164.684 1840.54 161.057 1839.82 156.29L1823.22 46.3595Z" fill="#C0E5ED"/>
<path d="M1826.43 1484.3C1826.11 1481.5 1823.07 1479.9 1820.58 1481.22L1755.75 1515.49C1752.91 1516.99 1752.91 1521.07 1755.75 1522.57L1828.84 1561.16C1831.68 1562.66 1835.04 1560.36 1834.68 1557.17L1826.43 1484.3Z" fill="#FFB958"/>
<path d="M1857.15 432.645C1858.73 430.309 1857.46 427.119 1854.71 426.505L1803.37 415.038C1800.23 414.337 1797.59 417.435 1798.78 420.421L1820.71 475.505C1821.9 478.491 1825.94 478.926 1827.74 476.262L1857.15 432.645Z" fill="#FFB958"/>
<path opacity="0.6" d="M142.068 1492.36C141.437 1488.18 136.797 1485.94 133.136 1488.06L36.843 1543.63C32.6673 1546.04 32.8951 1552.14 37.2389 1554.23L150.136 1608.59C154.48 1610.68 159.392 1607.05 158.672 1602.29L142.068 1492.36Z" fill="#C0E5ED"/>
<path opacity="0.6" d="M47.9352 461.416C47.8263 465.642 52.0039 468.652 55.9778 467.212L142.135 435.985C146.667 434.342 147.509 428.295 143.598 425.476L59.8033 365.092C55.8919 362.274 50.4218 364.986 50.2975 369.806L47.9352 461.416Z" fill="#C0E5ED"/>
<path d="M129.691 59.9445C130.225 57.1778 127.808 54.7402 125.037 55.2518L77.6973 63.9912C74.5366 64.5747 73.3201 68.459 75.5832 70.7413L113.787 109.267C116.05 111.549 119.944 110.365 120.554 107.209L129.691 59.9445Z" fill="#FFB958"/>
<path d="M78.3417 1314.25C75.732 1313.19 72.8706 1315.09 72.8331 1317.91L72.1105 1372.19C72.0677 1375.4 75.641 1377.35 78.32 1375.57L129.317 1341.77C131.996 1340 131.592 1335.95 128.616 1334.73L78.3417 1314.25Z" fill="#FFB958"/>
<mask id="mask0_1887_1412" style="mask-type:alpha" maskUnits="userSpaceOnUse" x="-208" y="674" width="373" height="432">
<path d="M133.806 677.776C147.984 668.799 166.247 680.22 164.382 696.897L120.633 1088.02C118.996 1102.66 102.638 1110.56 90.1523 1102.75L-198.606 922.179C-211.092 914.371 -211.143 896.203 -198.701 888.325L133.806 677.776Z" fill="#C4C4C4"/>
</mask>
<g mask="url(#mask0_1887_1412)">
<line x1="-284.594" y1="684.588" x2="835.11" y2="628.269" stroke="#262727" stroke-width="2" stroke-linecap="round"/>
<line x1="-283.54" y1="705.561" x2="836.165" y2="649.243" stroke="#262727" stroke-width="2" stroke-linecap="round"/>
<line x1="-282.481" y1="726.535" x2="837.223" y2="670.216" stroke="#262727" stroke-width="2" stroke-linecap="round"/>
<line x1="-281.426" y1="747.508" x2="838.278" y2="691.19" stroke="#262727" stroke-width="2" stroke-linecap="round"/>
<line x1="-280.372" y1="768.482" x2="839.333" y2="712.163" stroke="#262727" stroke-width="2" stroke-linecap="round"/>
<line x1="-279.317" y1="789.455" x2="840.387" y2="733.137" stroke="#262727" stroke-width="2" stroke-linecap="round"/>
<line x1="-278.262" y1="810.429" x2="841.442" y2="754.11" stroke="#262727" stroke-width="2" stroke-linecap="round"/>
<line x1="-277.208" y1="831.402" x2="842.497" y2="775.084" stroke="#262727" stroke-width="2" stroke-linecap="round"/>
<line x1="-276.153" y1="852.376" x2="843.552" y2="796.057" stroke="#262727" stroke-width="2" stroke-linecap="round"/>
<line x1="-275.098" y1="873.349" x2="844.606" y2="817.031" stroke="#262727" stroke-width="2" stroke-linecap="round"/>
<line x1="-274.044" y1="894.322" x2="845.661" y2="838.004" stroke="#262727" stroke-width="2" stroke-linecap="round"/>
<line x1="-272.989" y1="915.296" x2="846.716" y2="858.978" stroke="#262727" stroke-width="2" stroke-linecap="round"/>
<line x1="-271.934" y1="936.269" x2="847.77" y2="879.951" stroke="#262727" stroke-width="2" stroke-linecap="round"/>
<line x1="-270.88" y1="957.243" x2="848.825" y2="900.925" stroke="#262727" stroke-width="2" stroke-linecap="round"/>
<line x1="-269.825" y1="978.216" x2="849.88" y2="921.898" stroke="#262727" stroke-width="2" stroke-linecap="round"/>
<line x1="-268.77" y1="999.19" x2="850.934" y2="942.872" stroke="#262727" stroke-width="2" stroke-linecap="round"/>
<line x1="-267.716" y1="1020.16" x2="851.989" y2="963.845" stroke="#262727" stroke-width="2" stroke-linecap="round"/>
<line x1="-266.661" y1="1041.14" x2="853.044" y2="984.819" stroke="#262727" stroke-width="2" stroke-linecap="round"/>
<line x1="-265.606" y1="1062.11" x2="854.098" y2="1005.79" stroke="#262727" stroke-width="2" stroke-linecap="round"/>
<line x1="-264.548" y1="1083.08" x2="855.157" y2="1026.77" stroke="#262727" stroke-width="2" stroke-linecap="round"/>
<line x1="-263.493" y1="1104.06" x2="856.212" y2="1047.74" stroke="#262727" stroke-width="2" stroke-linecap="round"/>
<line x1="-262.438" y1="1125.03" x2="857.266" y2="1068.71" stroke="#262727" stroke-width="2" stroke-linecap="round"/>
<line x1="-261.384" y1="1146" x2="858.321" y2="1089.69" stroke="#262727" stroke-width="2" stroke-linecap="round"/>
</g>
</svg>
