<?xml version="1.0" encoding="UTF-8" standalone="no"?>
<svg width="1920" height="438" viewBox="0 0 1920 438" fill="none" xmlns="http://www.w3.org/2000/svg">
<g opacity="0.3">
<path d="M1735.6 299.936C1734.27 300.17 1733.55 301.619 1734.17 302.817L1741.75 317.628C1742.5 319.089 1744.59 319.077 1745.32 317.607L1754.12 299.907C1754.85 298.437 1753.6 296.761 1751.99 297.047L1735.6 299.936Z" fill="#FFB958"/>
<path d="M1629.41 108.317C1630.15 107.195 1629.6 105.675 1628.31 105.295L1615.96 101.659C1614.38 101.196 1612.95 102.722 1613.51 104.263L1618.76 118.636C1619.32 120.177 1621.4 120.423 1622.3 119.054L1629.41 108.317Z" fill="#FFB958"/>
<path d="M1800.31 112.497C1798.97 112.4 1797.92 113.63 1798.22 114.941L1802.38 133.001C1802.75 134.6 1804.78 135.099 1805.85 133.853L1820.17 117.127C1821.24 115.881 1820.43 113.95 1818.8 113.832L1800.31 112.497Z" fill="#FFB958"/>
<circle r="5.87853" transform="matrix(0.58708 0.809529 0.809529 -0.58708 1909.02 242.877)" fill="#FFB958"/>
<circle r="4" transform="matrix(0.58708 0.809529 0.809529 -0.58708 1697 204.13)" fill="#FFB958"/>
<rect width="13.8601" height="13.8601" rx="3" transform="matrix(0.58708 0.809529 0.809529 -0.58708 1485.14 209.716)" fill="#FFB958"/>
</g>
<g opacity="0.3">
<path d="M260.424 299.936C259.099 300.17 258.378 301.619 258.991 302.817L266.572 317.628C267.32 319.089 269.412 319.077 270.143 317.607L278.948 299.907C279.679 298.437 278.426 296.761 276.809 297.047L260.424 299.936Z" fill="#FFB958"/>
<path d="M154.234 108.317C154.977 107.195 154.422 105.675 153.131 105.295L140.779 101.659C139.205 101.196 137.773 102.722 138.336 104.263L143.581 118.636C144.143 120.177 146.221 120.423 147.127 119.054L154.234 108.317Z" fill="#FFB958"/>
<path d="M325.136 112.497C323.794 112.4 322.741 113.63 323.043 114.941L327.204 133.001C327.572 134.6 329.604 135.099 330.672 133.853L344.996 117.127C346.063 115.881 345.258 113.95 343.621 113.832L325.136 112.497Z" fill="#FFB958"/>
<circle r="5.87853" transform="matrix(0.58708 0.809529 0.809529 -0.58708 433.843 242.877)" fill="#FFB958"/>
<circle r="4" transform="matrix(0.58708 0.809529 0.809529 -0.58708 221.829 204.13)" fill="#FFB958"/>
<rect width="13.8601" height="13.8601" rx="3" transform="matrix(0.58708 0.809529 0.809529 -0.58708 9.96875 209.716)" fill="#FFB958"/>
</g>
</svg>
