<?xml version="1.0" encoding="UTF-8" standalone="no"?>
<svg width="1920" height="857" viewBox="0 0 1920 857" fill="none" xmlns="http://www.w3.org/2000/svg">
<g opacity="0.3">
<path d="M1869.74 294.31C1869.98 295.633 1871.44 296.342 1872.63 295.719L1887.38 288.015C1888.83 287.255 1888.8 285.163 1887.33 284.444L1869.56 275.788C1868.08 275.069 1866.41 276.336 1866.71 277.949L1869.74 294.31Z" fill="#FFB958"/>
<path d="M1679.01 402.092C1677.88 401.358 1676.37 401.926 1676 403.22L1672.47 415.602C1672.02 417.18 1673.55 418.599 1675.09 418.023L1689.42 412.659C1690.96 412.084 1691.18 410.004 1689.81 409.109L1679.01 402.092Z" fill="#FFB958"/>
<path d="M1681.77 231.161C1681.68 232.504 1682.92 233.547 1684.23 233.234L1702.25 228.923C1703.85 228.541 1704.33 226.505 1703.08 225.448L1686.23 211.264C1684.98 210.206 1683.05 211.028 1682.95 212.666L1681.77 231.161Z" fill="#FFB958"/>
<circle r="5.87853" transform="matrix(0.804614 -0.593798 -0.593798 -0.804614 1811.24 121.373)" fill="#FFB958"/>
<circle r="4" transform="matrix(0.804614 -0.593798 -0.593798 -0.804614 1774.26 333.703)" fill="#FFB958"/>
<rect width="13.8601" height="13.8601" rx="3" transform="matrix(0.804614 -0.593798 -0.593798 -0.804614 1781.61 545.508)" fill="#FFB958"/>
</g>
<mask id="mask0_1801_31" style="mask-type:alpha" maskUnits="userSpaceOnUse" x="-228" y="277" width="383" height="430">
<path d="M-197.293 703.366C-211.872 711.675 -229.585 699.417 -226.946 682.845L-165.064 294.177C-162.748 279.634 -146.041 272.496 -133.931 280.876L146.121 474.678C158.231 483.059 157.437 501.209 144.643 508.501L-197.293 703.366Z" fill="#C4C4C4"/>
</mask>
<g mask="url(#mask0_1801_31)">
<line x1="220.898" y1="696.512" x2="-900.214" y2="700.721" stroke="#262727" stroke-width="2" stroke-linecap="round"/>
<line x1="220.822" y1="676.512" x2="-900.29" y2="680.721" stroke="#262727" stroke-width="2" stroke-linecap="round"/>
<line x1="220.748" y1="656.512" x2="-900.364" y2="660.721" stroke="#262727" stroke-width="2" stroke-linecap="round"/>
<line x1="220.672" y1="636.512" x2="-900.44" y2="640.722" stroke="#262727" stroke-width="2" stroke-linecap="round"/>
<line x1="220.598" y1="616.512" x2="-900.515" y2="620.722" stroke="#262727" stroke-width="2" stroke-linecap="round"/>
<line x1="220.521" y1="596.512" x2="-900.591" y2="600.722" stroke="#262727" stroke-width="2" stroke-linecap="round"/>
<line x1="220.447" y1="576.513" x2="-900.665" y2="580.722" stroke="#262727" stroke-width="2" stroke-linecap="round"/>
<line x1="220.371" y1="556.513" x2="-900.741" y2="560.722" stroke="#262727" stroke-width="2" stroke-linecap="round"/>
<line x1="220.297" y1="536.513" x2="-900.815" y2="540.722" stroke="#262727" stroke-width="2" stroke-linecap="round"/>
<line x1="220.223" y1="516.513" x2="-900.89" y2="520.722" stroke="#262727" stroke-width="2" stroke-linecap="round"/>
<line x1="220.146" y1="496.513" x2="-900.966" y2="500.723" stroke="#262727" stroke-width="2" stroke-linecap="round"/>
<line x1="220.072" y1="476.513" x2="-901.04" y2="480.723" stroke="#262727" stroke-width="2" stroke-linecap="round"/>
<line x1="219.996" y1="456.513" x2="-901.116" y2="460.723" stroke="#262727" stroke-width="2" stroke-linecap="round"/>
<line x1="219.922" y1="436.514" x2="-901.19" y2="440.723" stroke="#262727" stroke-width="2" stroke-linecap="round"/>
<line x1="219.846" y1="416.514" x2="-901.267" y2="420.723" stroke="#262727" stroke-width="2" stroke-linecap="round"/>
<line x1="219.771" y1="396.514" x2="-901.341" y2="400.723" stroke="#262727" stroke-width="2" stroke-linecap="round"/>
<line x1="219.695" y1="376.514" x2="-901.417" y2="380.723" stroke="#262727" stroke-width="2" stroke-linecap="round"/>
<line x1="219.621" y1="356.514" x2="-901.491" y2="360.724" stroke="#262727" stroke-width="2" stroke-linecap="round"/>
<line x1="219.545" y1="336.514" x2="-901.567" y2="340.724" stroke="#262727" stroke-width="2" stroke-linecap="round"/>
<line x1="219.471" y1="316.514" x2="-901.642" y2="320.724" stroke="#262727" stroke-width="2" stroke-linecap="round"/>
<line x1="219.396" y1="296.514" x2="-901.716" y2="300.724" stroke="#262727" stroke-width="2" stroke-linecap="round"/>
<line x1="219.32" y1="276.515" x2="-901.792" y2="280.724" stroke="#262727" stroke-width="2" stroke-linecap="round"/>
</g>
<path opacity="0.3" d="M45.9968 85.0198C44.7181 83.337 42.1469 83.4686 41.0467 85.2731L20.9678 118.205C19.713 120.264 21.2752 122.886 23.6826 122.763L67.0971 120.542C69.5045 120.418 70.7908 117.65 69.3324 115.731L45.9968 85.0198Z" fill="#FFB958"/>
<path opacity="0.3" d="M138.337 13.441C136.415 12.5611 134.211 13.8907 134.092 16.0008L132.739 40.1563C132.604 42.5631 135.22 44.138 137.284 42.893L160.633 28.8112C162.698 27.5663 162.525 24.5184 160.333 23.5147L138.337 13.441Z" fill="#FFB958"/>
<path opacity="0.3" d="M79.5838 309.592C80.762 312.151 84.1469 312.723 86.1003 310.692L136.263 258.541C138.491 256.225 137.215 252.36 134.046 251.824L53.6313 238.243C50.4621 237.707 47.9878 240.939 49.3315 243.859L79.5838 309.592Z" fill="#FFB958"/>
</svg>
