<svg width="1920" height="2003" viewBox="0 0 1920 2003" fill="none" xmlns="http://www.w3.org/2000/svg">
<g opacity="0.3">
<path d="M1301.1 1150.94C1301.57 1149.61 1303.23 1149.17 1304.3 1150.1L1316.37 1160.58C1317.58 1161.63 1317.12 1163.62 1315.57 1164.03L1298.12 1168.6C1296.56 1169.01 1295.19 1167.51 1295.73 1166L1301.1 1150.94Z" fill="#50C6DB"/>
<path d="M1332.46 698.003C1332.36 696.724 1333.47 695.68 1334.74 695.863L1346.1 697.497C1347.76 697.736 1348.41 699.787 1347.18 700.935L1336.74 710.74C1335.52 711.888 1333.51 711.113 1333.38 709.443L1332.46 698.003Z" fill="#50C6DB"/>
<path d="M446.925 1260.2C448.177 1260.49 448.841 1261.86 448.288 1263.01L443.337 1273.37C442.614 1274.88 440.463 1274.89 439.733 1273.38L433.49 1260.49C432.76 1258.98 434.098 1257.29 435.733 1257.66L446.925 1260.2Z" fill="#50C6DB"/>
<path d="M963.108 1260.24C964.356 1260.54 965.003 1261.92 964.435 1263.07L959.358 1273.36C958.617 1274.87 956.466 1274.85 955.754 1273.33L949.67 1260.36C948.958 1258.84 950.317 1257.18 951.947 1257.57L963.108 1260.24Z" fill="#50C6DB"/>
<path d="M1813.84 711.584C1815.09 711.883 1815.74 713.263 1815.17 714.414L1810.09 724.707C1809.35 726.21 1807.2 726.189 1806.49 724.672L1800.4 711.704C1799.69 710.187 1801.05 708.519 1802.68 708.91L1813.84 711.584Z" fill="#50C6DB"/>
<path d="M1498.62 1234.32C1499.87 1234.62 1500.52 1236 1499.95 1237.15L1494.87 1247.45C1494.13 1248.95 1491.98 1248.93 1491.27 1247.41L1485.19 1234.44C1484.47 1232.92 1485.83 1231.26 1487.46 1231.65L1498.62 1234.32Z" fill="#50C6DB"/>
<path d="M274.894 1104.73C273.697 1104.12 273.436 1102.52 274.375 1101.56L285.99 1089.64C287.136 1088.47 289.131 1089.1 289.396 1090.72L292.583 1110.23C292.848 1111.85 291.156 1113.08 289.696 1112.33L274.894 1104.73Z" fill="#50C6DB"/>
<path d="M80.1217 772.067C78.9246 771.453 78.6636 769.855 79.603 768.892L92.5406 755.622C93.6864 754.447 95.6819 755.076 95.9465 756.696L99.4965 778.428C99.7611 780.048 98.0696 781.28 96.6094 780.53L80.1217 772.067Z" fill="#50C6DB"/>
<circle cx="1834.36" cy="930.896" r="5.76681" transform="rotate(125.95 1834.36 930.896)" fill="#50C6DB"/>
<circle cx="1581.09" cy="1072.79" r="4" transform="rotate(125.95 1581.09 1072.79)" fill="#50C6DB"/>
<circle cx="129.321" cy="1223.46" r="5.87853" transform="rotate(125.95 129.321 1223.46)" fill="#50C6DB"/>
<circle cx="736.165" cy="1250.3" r="5.87853" transform="rotate(125.95 736.165 1250.3)" fill="#50C6DB"/>
<circle cx="197.312" cy="893.726" r="4" transform="rotate(125.95 197.312 893.726)" fill="#50C6DB"/>
<circle cx="491.289" cy="1126.49" r="4" transform="rotate(125.95 491.289 1126.49)" fill="#50C6DB"/>
<circle cx="625.125" cy="674.081" r="4" transform="rotate(125.95 625.125 674.081)" fill="#50C6DB"/>
<circle cx="1560.09" cy="760.241" r="4" transform="rotate(125.95 1560.09 760.241)" fill="#50C6DB"/>
<circle cx="1423.54" cy="496.135" r="5.22326" transform="rotate(125.95 1423.54 496.135)" fill="#50C6DB"/>
<rect x="1621.48" y="873.602" width="15.9832" height="15.9832" rx="3" transform="rotate(125.95 1621.48 873.602)" fill="#50C6DB"/>
<rect x="1841.88" y="1109.28" width="14.3528" height="14.3528" rx="3" transform="rotate(125.95 1841.88 1109.28)" fill="#50C6DB"/>
<rect x="974.195" y="676.926" width="12.3197" height="12.3197" rx="2" transform="rotate(125.95 974.195 676.926)" fill="#50C6DB"/>
<rect x="1119.78" y="1223.07" width="12.3197" height="12.3197" rx="2" transform="rotate(125.95 1119.78 1223.07)" fill="#50C6DB"/>
<rect x="84.6016" y="1022.62" width="13.8601" height="13.8601" rx="3" transform="rotate(125.95 84.6016 1022.62)" fill="#50C6DB"/>
<rect x="302.82" y="712.566" width="13.8601" height="13.8601" rx="3" transform="rotate(125.95 302.82 712.566)" fill="#50C6DB"/>
</g>
</svg>
