<svg width="64" height="30" viewBox="0 0 64 30" fill="none" xmlns="http://www.w3.org/2000/svg">
<path d="M2.03906 13.0752C0.934493 13.0752 0.0390625 13.9706 0.0390625 15.0752C0.0390625 16.1798 0.934493 17.0752 2.03906 17.0752V13.0752ZM63.2376 16.4894C64.0186 15.7084 64.0186 14.442 63.2376 13.661L50.5096 0.93306C49.7286 0.152011 48.4623 0.152011 47.6812 0.93306C46.9002 1.71411 46.9002 2.98044 47.6812 3.76149L58.9949 15.0752L47.6812 26.3889C46.9002 27.17 46.9002 28.4363 47.6812 29.2173C48.4623 29.9984 49.7286 29.9984 50.5096 29.2173L63.2376 16.4894ZM2.03906 17.0752H61.8234V13.0752H2.03906V17.0752Z" fill="#FFB958"/>
</svg>
