<svg width="33" height="31" viewBox="0 0 33 31" fill="none" xmlns="http://www.w3.org/2000/svg">
<path fill-rule="evenodd" clip-rule="evenodd" d="M0.734375 8.51416C0.734375 4.09589 4.3161 0.51416 8.73438 0.51416H24.8844C29.3027 0.51416 32.8844 4.09588 32.8844 8.51416V22.6011C32.8844 27.0194 29.3027 30.6012 24.8844 30.6012H8.73438C4.3161 30.6012 0.734375 27.0194 0.734375 22.6012V8.51416ZM17.5342 11.7218C16.5976 11.5917 15.6446 11.7427 14.8141 12.1462C13.9845 12.5494 13.3301 13.1782 12.9276 13.9271C12.5262 14.6741 12.3901 15.5114 12.5298 16.3244C12.6697 17.1384 13.0825 17.9063 13.7296 18.5123C14.3781 19.1196 15.2274 19.531 16.1617 19.6718C17.0962 19.8126 18.0514 19.6728 18.8877 19.2786C19.7231 18.8848 20.3863 18.2631 20.799 17.5182C21.2106 16.7752 21.3575 15.9393 21.2286 15.125C21.097 14.2935 20.681 13.5073 20.0209 12.8892C19.3594 12.2697 18.4893 11.8544 17.5342 11.7218ZM13.5029 9.44797C14.875 8.78118 16.4288 8.53946 17.9468 8.75029C19.4955 8.96536 20.9433 9.6428 22.0716 10.6995C23.2014 11.7576 23.9521 13.1424 24.1917 14.6558C24.4268 16.1404 24.1544 17.6522 23.4232 18.9721C22.693 20.2901 21.5479 21.3412 20.1669 21.9922C18.7866 22.6428 17.23 22.8667 15.7146 22.6383C14.199 22.4099 12.7851 21.738 11.6789 20.7019C10.5714 19.6647 9.82752 18.3129 9.57315 16.8324C9.31861 15.3509 9.57091 13.8358 10.2851 12.5069C10.9982 11.1799 12.1299 10.1152 13.5029 9.44797ZM24.9141 6.16455C23.8095 6.16455 22.9141 7.05998 22.9141 8.16455C22.9141 9.26912 23.8095 10.1646 24.9141 10.1646H24.929C26.0336 10.1646 26.929 9.26912 26.929 8.16455C26.929 7.05998 26.0336 6.16455 24.929 6.16455H24.9141Z" fill="#FFB958"/>
</svg>
