<svg width="33" height="31" viewBox="0 0 33 31" fill="none" xmlns="http://www.w3.org/2000/svg">
<path d="M17.2646 11.9488C16.3281 11.8188 15.3751 11.9697 14.5446 12.3733C13.715 12.7764 13.0606 13.4052 12.6581 14.1541C12.2566 14.9012 12.1206 15.7385 12.2603 16.5515C12.4001 17.3654 12.813 18.1333 13.4601 18.7394C14.1085 19.3467 14.9579 19.758 15.8921 19.8988C16.8267 20.0397 17.7819 19.8998 18.6181 19.5056C19.4536 19.1118 20.1168 18.4901 20.5295 17.7453C20.9411 17.0023 21.088 16.1663 20.9591 15.352C20.8274 14.5205 20.4114 13.7344 19.7514 13.1162C19.0899 12.4967 18.2198 12.0815 17.2646 11.9488Z" fill="#FFB958"/>
<path fill-rule="evenodd" clip-rule="evenodd" d="M0.464844 8.74122C0.464844 4.32294 4.04657 0.741211 8.46484 0.741211H24.6149C29.0332 0.741211 32.6149 4.32293 32.6149 8.74121V22.8282C32.6149 27.2465 29.0332 30.8282 24.6149 30.8282H8.46485C4.04657 30.8282 0.464844 27.2465 0.464844 22.8282V8.74122ZM13.2333 9.67502C14.6054 9.00823 16.1593 8.76651 17.6773 8.97734C19.2259 9.19241 20.6738 9.86985 21.8021 10.9266C22.9319 11.9847 23.6825 13.3694 23.9222 14.8829C24.1572 16.3674 23.8849 17.8793 23.1536 19.1991C22.4234 20.5171 21.2784 21.5682 19.8973 22.2192C18.5171 22.8699 16.9604 23.0937 15.4451 22.8653C13.9295 22.6369 12.5156 21.965 11.4094 20.929C10.3018 19.8917 9.55798 18.54 9.30361 17.0595C9.04907 15.578 9.30138 14.0628 10.0155 12.734C10.7287 11.407 11.8604 10.3422 13.2333 9.67502ZM24.6445 6.3916C23.54 6.3916 22.6445 7.28703 22.6445 8.3916C22.6445 9.49617 23.54 10.3916 24.6445 10.3916H24.6595C25.764 10.3916 26.6595 9.49617 26.6595 8.3916C26.6595 7.28703 25.764 6.3916 24.6595 6.3916H24.6445Z" fill="#FFB958"/>
</svg>
