<svg width="31" height="29" viewBox="0 0 31 29" fill="none" xmlns="http://www.w3.org/2000/svg">
<path d="M7.13672 9.53809V28.8936H0.691406V9.53809H7.13672ZM7.54688 3.56152C7.56641 5.41699 6.16016 6.90137 3.91406 6.90137H3.875C1.70703 6.90137 0.320312 5.41699 0.320312 3.56152C0.320312 1.66699 1.76562 0.22168 3.95312 0.22168C6.16016 0.22168 7.52734 1.66699 7.54688 3.56152ZM30.3203 17.7998V28.8936H23.8945V18.542C23.8945 15.9443 22.957 14.167 20.6328 14.167C18.8555 14.167 17.8008 15.3584 17.332 16.5107C17.1758 16.9404 17.1172 17.5068 17.1172 18.0928V28.8936H10.6914C10.7695 11.3545 10.6914 9.53809 10.6914 9.53809H17.1172V12.3506H17.0781C17.918 11.0225 19.4414 9.08887 22.918 9.08887C27.1562 9.08887 30.3203 11.8623 30.3203 17.7998Z" fill="#FFB958"/>
</svg>
