<svg width="27" height="27" viewBox="0 0 27 27" fill="none" xmlns="http://www.w3.org/2000/svg">
<path d="M22.252 18.7773C21.1053 18.7773 20.0704 19.2531 19.3317 20.0172L8.38827 14.5454C8.42163 14.3359 8.43945 14.1213 8.43945 13.9023C8.43945 13.6834 8.42163 13.4688 8.38827 13.2593L19.3317 7.78757C20.0704 8.55157 21.1053 9.02734 22.252 9.02734C24.4956 9.02734 26.3145 7.20851 26.3145 4.96484C26.3145 2.72118 24.4956 0.902344 22.252 0.902344C20.0083 0.902344 18.1895 2.72118 18.1895 4.96484C18.1895 5.18376 18.2073 5.39841 18.2406 5.60789L7.29718 11.0797C6.55852 10.3157 5.52359 9.83984 4.37695 9.83984C2.13329 9.83984 0.314453 11.6587 0.314453 13.9023C0.314453 16.1461 2.13329 17.9648 4.37695 17.9648C5.52359 17.9648 6.55852 17.4891 7.29718 16.7251L18.2406 22.1968C18.2073 22.4063 18.1895 22.6209 18.1895 22.8398C18.1895 25.0836 20.0083 26.9023 22.252 26.9023C24.4956 26.9023 26.3145 25.0836 26.3145 22.8398C26.3145 20.5962 24.4956 18.7773 22.252 18.7773Z" fill="#FFB958"/>
</svg>
