<svg width="31" height="35" viewBox="0 0 31 35" fill="none" xmlns="http://www.w3.org/2000/svg">
<path d="M16.7247 0.320757C18.6095 0.291992 20.48 0.306358 22.3504 0.291992C22.4655 2.49334 23.2568 4.73785 24.8683 6.29174C26.4797 7.88879 28.753 8.62257 30.9687 8.86716V14.6655C28.8969 14.5936 26.8106 14.1619 24.9258 13.2698C24.1057 12.8958 23.3432 12.421 22.595 11.9318C22.5806 16.133 22.6094 20.3343 22.5662 24.5212C22.4511 26.5354 21.7893 28.5354 20.6239 30.19C18.7391 32.9525 15.473 34.7509 12.1206 34.8085C10.0632 34.9236 8.0057 34.3625 6.25039 33.3265C3.34402 31.6144 1.30097 28.4778 0.998823 25.1111C0.970058 24.3917 0.955659 23.6723 0.984424 22.9673C1.24341 20.2336 2.59588 17.615 4.6965 15.8309C7.0849 13.759 10.4229 12.7662 13.545 13.3561C13.5738 15.4856 13.4875 17.6149 13.4875 19.7444C12.0631 19.284 10.3941 19.4135 9.14235 20.2767C8.23591 20.8666 7.5453 21.7731 7.18559 22.7946C6.88344 23.5284 6.96977 24.3341 6.98417 25.1111C7.32948 27.4707 9.60275 29.4562 12.0199 29.2404C13.6314 29.226 15.1709 28.2908 16.0054 26.9239C16.2787 26.4491 16.5809 25.9599 16.5953 25.3988C16.7391 22.8234 16.6816 20.2623 16.696 17.6869C16.7104 11.8886 16.6816 6.10465 16.7248 0.320723L16.7247 0.320757Z" fill="#FFB958"/>
</svg>
