<svg width="31" height="25" viewBox="0 0 31 25" fill="none" xmlns="http://www.w3.org/2000/svg">
<path d="M30.4922 3.25481C29.3908 3.7469 28.2016 4.07496 26.9597 4.22142C28.2309 3.45985 29.2034 2.25305 29.6662 0.817784C28.477 1.52077 27.1589 2.0363 25.7587 2.31163C24.634 1.11655 23.0347 0.372559 21.2655 0.372559C17.8677 0.372559 15.1143 3.12593 15.1143 6.5237C15.1143 7.00408 15.1671 7.47273 15.2725 7.92382C10.1583 7.66606 5.624 5.21732 2.58943 1.49148C2.06219 2.39951 1.75757 3.45985 1.75757 4.58463C1.75757 6.71702 2.84134 8.60337 4.49336 9.70472C3.48574 9.67543 2.53671 9.39423 1.70484 8.93729C1.70484 8.96072 1.70484 8.99002 1.70484 9.01345C1.70484 11.9953 3.82552 14.485 6.64333 15.0474C6.12781 15.188 5.58299 15.2642 5.0206 15.2642C4.62224 15.2642 4.24146 15.2232 3.86067 15.1529C4.64567 17.5958 6.91867 19.3767 9.6076 19.4294C7.49863 21.0814 4.85071 22.0656 1.9626 22.0656C1.46465 22.0656 0.978421 22.0363 0.492188 21.9777C3.22212 23.7293 6.45587 24.7428 9.9298 24.7428C21.2479 24.7428 27.4401 15.3638 27.4401 7.23255C27.4401 6.96307 27.4342 6.69945 27.4225 6.43583C28.6234 5.57467 29.6662 4.49089 30.4922 3.25481Z" fill="#FFB958"/>
</svg>
