<svg width="41" height="29" viewBox="0 0 41 29" fill="none" xmlns="http://www.w3.org/2000/svg">
<path d="M39.7188 6.56152C39.7188 6.56152 39.3281 3.80371 38.125 2.59277C36.6016 0.999024 34.8984 0.991211 34.1172 0.897461C28.5234 0.491211 20.125 0.491211 20.125 0.491211H20.1094C20.1094 0.491211 11.7109 0.491211 6.11719 0.897461C5.33594 0.991211 3.63281 0.999024 2.10938 2.59277C0.90625 3.80371 0.523438 6.56152 0.523438 6.56152C0.523438 6.56152 0.125 9.7959 0.125 13.0381V16.0693C0.125 19.3037 0.523438 22.5459 0.523438 22.5459C0.523438 22.5459 0.914063 25.3037 2.10938 26.5147C3.63281 28.1084 5.63281 28.0537 6.52344 28.2256C9.72656 28.5303 20.125 28.624 20.125 28.624C20.125 28.624 28.5313 28.6084 34.125 28.21C34.9062 28.1162 36.6094 28.1084 38.1328 26.5147C39.3359 25.3037 39.7266 22.5459 39.7266 22.5459C39.7266 22.5459 40.125 19.3115 40.125 16.0693V13.0381C40.1172 9.80371 39.7188 6.56152 39.7188 6.56152ZM15.9844 19.749V8.50684L26.7891 14.1475L15.9844 19.749Z" fill="#FFB958"/>
</svg>
