<?xml version="1.0" encoding="UTF-8" standalone="no"?><svg width="414" height="219" viewBox="0 0 414 219" fill="none" xmlns="http://www.w3.org/2000/svg">
<path d="M306.009 112.305V141.45C306.009 141.793 306.276 142.06 306.62 142.06H330.936C331.28 142.06 331.548 141.793 331.548 141.45V126.649C331.548 126.42 331.433 126.229 331.242 126.115L306.926 111.771C306.544 111.542 306.009 111.809 306.009 112.305ZM319.849 130.425C319.849 130.273 319.963 130.196 320.078 130.196H325.545C325.698 130.196 325.775 130.311 325.775 130.425V137.025C325.775 137.177 325.66 137.254 325.545 137.254H320.078C319.925 137.254 319.849 137.139 319.849 137.025V130.425ZM310.635 130.425C310.635 130.273 310.75 130.196 310.864 130.196H316.331C316.484 130.196 316.561 130.311 316.561 130.425V137.025C316.561 137.177 316.446 137.254 316.331 137.254H310.864C310.711 137.254 310.635 137.139 310.635 137.025V130.425Z" fill="#ECF5F9"/>
<path fill-rule="evenodd" clip-rule="evenodd" d="M305.856 145.15V173.99C305.856 174.257 306.085 174.486 306.353 174.486H359.534C359.801 174.486 360.031 174.257 360.031 173.99V145.15C360.031 144.883 359.801 144.655 359.534 144.655H306.353C306.085 144.655 305.856 144.883 305.856 145.15ZM346.841 163.27C346.841 163.118 346.955 163.041 347.07 163.041H354.143C354.296 163.041 354.372 163.156 354.372 163.27V169.87C354.372 170.022 354.258 170.099 354.143 170.099H347.07C346.917 170.099 346.841 169.984 346.841 169.87V163.27ZM346.841 151.941C346.841 151.788 346.955 151.712 347.07 151.712H354.143C354.296 151.712 354.372 151.826 354.372 151.941V158.54C354.372 158.693 354.258 158.769 354.143 158.769H347.07C346.917 158.769 346.841 158.655 346.841 158.54V151.941ZM335.256 163.27C335.256 163.118 335.371 163.041 335.486 163.041H342.559C342.711 163.041 342.788 163.156 342.788 163.27V169.87C342.788 170.022 342.673 170.099 342.559 170.099H335.486C335.333 170.099 335.256 169.984 335.256 169.87V163.27ZM335.256 151.941C335.256 151.788 335.371 151.712 335.486 151.712H342.559C342.711 151.712 342.788 151.826 342.788 151.941V158.54C342.788 158.693 342.673 158.769 342.559 158.769H335.486C335.333 158.769 335.256 158.655 335.256 158.54V151.941ZM323.366 163.27C323.366 163.118 323.481 163.041 323.595 163.041H330.668C330.821 163.041 330.898 163.156 330.898 163.27V169.87C330.898 170.022 330.783 170.099 330.668 170.099H323.595C323.443 170.099 323.366 169.984 323.366 169.87V163.27ZM323.366 151.941C323.366 151.788 323.481 151.712 323.595 151.712H330.668C330.821 151.712 330.898 151.826 330.898 151.941V158.54C330.898 158.693 330.783 158.769 330.668 158.769H323.595C323.443 158.769 323.366 158.655 323.366 158.54V151.941ZM311.094 163.27C311.094 163.118 311.208 163.041 311.323 163.041H318.396C318.549 163.041 318.625 163.156 318.625 163.27V169.87C318.625 170.022 318.511 170.099 318.396 170.099H311.323C311.17 170.099 311.094 169.984 311.094 169.87V163.27ZM311.094 151.941C311.094 151.788 311.208 151.712 311.323 151.712H318.396C318.549 151.712 318.625 151.826 318.625 151.941V158.54C318.625 158.693 318.511 158.769 318.396 158.769H311.323C311.17 158.769 311.094 158.655 311.094 158.54V151.941Z" fill="#ECF5F9"/>
<path fill-rule="evenodd" clip-rule="evenodd" d="M119.743 99.7549H76.8082V174.371H119.743C119.972 174.371 120.125 174.18 120.125 173.989V100.136C120.125 99.9075 119.972 99.7549 119.743 99.7549ZM92.6363 166.741C92.6363 166.856 92.5598 166.932 92.4451 166.932H86.0603C85.9457 166.932 85.8692 166.856 85.8692 166.741V152.322C85.8692 152.207 85.9457 152.131 86.0603 152.131H92.4451C92.5598 152.131 92.6363 152.207 92.6363 152.322V166.741ZM92.6363 144.845C92.6363 144.959 92.5598 145.035 92.4451 145.035H86.0603C85.9457 145.035 85.8692 144.959 85.8692 144.845V130.425C85.8692 130.311 85.9457 130.234 86.0603 130.234H92.4451C92.5598 130.234 92.6363 130.311 92.6363 130.425V144.845ZM92.6363 122.948C92.6363 123.063 92.5598 123.139 92.4451 123.139H86.0603C85.9457 123.139 85.8692 123.063 85.8692 122.948V108.529C85.8692 108.414 85.9457 108.338 86.0603 108.338H92.4451C92.5598 108.338 92.6363 108.414 92.6363 108.529V122.948ZM102.997 166.741C102.997 166.856 102.921 166.932 102.806 166.932H96.4212C96.3066 166.932 96.2301 166.856 96.2301 166.741V152.322C96.2301 152.207 96.3066 152.131 96.4212 152.131H102.806C102.921 152.131 102.997 152.207 102.997 152.322V166.741ZM102.997 144.845C102.997 144.959 102.921 145.035 102.806 145.035H96.4212C96.3066 145.035 96.2301 144.959 96.2301 144.845V130.425C96.2301 130.311 96.3066 130.234 96.4212 130.234H102.806C102.921 130.234 102.997 130.311 102.997 130.425V144.845ZM102.997 122.948C102.997 123.063 102.921 123.139 102.806 123.139H96.4212C96.3066 123.139 96.2301 123.063 96.2301 122.948V108.529C96.2301 108.414 96.3066 108.338 96.4212 108.338H102.806C102.921 108.338 102.997 108.414 102.997 108.529V122.948ZM113.626 166.741C113.626 166.856 113.549 166.932 113.434 166.932H107.05C106.935 166.932 106.859 166.856 106.859 166.741V152.322C106.859 152.207 106.935 152.131 107.05 152.131H113.434C113.549 152.131 113.626 152.207 113.626 152.322V166.741ZM113.626 144.845C113.626 144.959 113.549 145.035 113.434 145.035H107.05C106.935 145.035 106.859 144.959 106.859 144.845V130.425C106.859 130.311 106.935 130.234 107.05 130.234H113.434C113.549 130.234 113.626 130.311 113.626 130.425V144.845ZM113.626 122.948C113.626 123.063 113.549 123.139 113.434 123.139H107.05C106.935 123.139 106.859 123.063 106.859 122.948V108.529C106.859 108.414 106.935 108.338 107.05 108.338H113.434C113.549 108.338 113.626 108.414 113.626 108.529V122.948Z" fill="#ECF5F9"/>
<path fill-rule="evenodd" clip-rule="evenodd" d="M152.928 134.774H123.413C122.992 134.774 122.648 134.431 122.648 134.011V69.2376C122.648 68.8179 122.992 68.4746 123.413 68.4746H152.928V134.774Z" fill="#649FA9"/>
<path fill-rule="evenodd" clip-rule="evenodd" d="M184.699 134.774H152.928V68.4745L185.349 49.3628L185.425 134.011C185.464 134.431 185.119 134.774 184.699 134.774Z" fill="#50C6DB"/>
<path fill-rule="evenodd" clip-rule="evenodd" d="M164.971 89.2647H159.619C159.389 89.2647 159.236 89.1122 159.236 88.8833V76.4855C159.236 76.2566 159.389 76.104 159.619 76.104H164.971C165.201 76.104 165.353 76.2566 165.353 76.4855V88.8833C165.353 89.074 165.201 89.2647 164.971 89.2647Z" fill="white"/>
<path d="M164.971 89.6463H159.619C159.198 89.6463 158.854 89.303 158.854 88.8834V76.4856C158.854 76.066 159.198 75.7227 159.619 75.7227H164.971C165.392 75.7227 165.736 76.066 165.736 76.4856V88.8834C165.736 89.303 165.392 89.6463 164.971 89.6463ZM159.619 76.4474V88.8453H164.971V76.4474H159.619Z" fill="#262727"/>
<path fill-rule="evenodd" clip-rule="evenodd" d="M180.723 89.2647H175.37C175.141 89.2647 174.988 89.1122 174.988 88.8833V76.4855C174.988 76.2566 175.141 76.104 175.37 76.104H180.723C180.952 76.104 181.105 76.2566 181.105 76.4855V88.8833C181.105 89.074 180.914 89.2647 180.723 89.2647Z" fill="white"/>
<path d="M180.723 89.6463H175.37C174.95 89.6463 174.606 89.303 174.606 88.8834V76.4856C174.606 76.066 174.95 75.7227 175.37 75.7227H180.723C181.143 75.7227 181.487 76.066 181.487 76.4856V88.8834C181.487 89.303 181.143 89.6463 180.723 89.6463ZM175.37 76.4474V88.8453H180.723V76.4474H175.37Z" fill="#262727"/>
<path fill-rule="evenodd" clip-rule="evenodd" d="M164.971 108.72H159.619C159.389 108.72 159.236 108.568 159.236 108.339V95.941C159.236 95.7122 159.389 95.5596 159.619 95.5596H164.971C165.201 95.5596 165.353 95.7122 165.353 95.941V108.339C165.353 108.53 165.201 108.72 164.971 108.72Z" fill="white"/>
<path d="M164.971 109.101H159.619C159.198 109.101 158.854 108.758 158.854 108.338V95.9407C158.854 95.5211 159.198 95.1777 159.619 95.1777H164.971C165.392 95.1777 165.736 95.5211 165.736 95.9407V108.338C165.736 108.758 165.392 109.101 164.971 109.101ZM159.619 95.9407V108.338H164.971V95.9407H159.619Z" fill="#262727"/>
<path fill-rule="evenodd" clip-rule="evenodd" d="M180.723 108.72H175.37C175.141 108.72 174.988 108.568 174.988 108.339V95.941C174.988 95.7122 175.141 95.5596 175.37 95.5596H180.723C180.952 95.5596 181.105 95.7122 181.105 95.941V108.339C181.105 108.53 180.914 108.72 180.723 108.72Z" fill="white"/>
<path d="M180.723 109.101H175.37C174.95 109.101 174.606 108.758 174.606 108.338V95.9407C174.606 95.5211 174.95 95.1777 175.37 95.1777H180.723C181.143 95.1777 181.487 95.5211 181.487 95.9407V108.338C181.487 108.758 181.143 109.101 180.723 109.101ZM175.37 95.9407V108.338H180.723V95.9407H175.37Z" fill="#262727"/>
<path fill-rule="evenodd" clip-rule="evenodd" d="M164.971 128.174H159.619C159.389 128.174 159.236 128.022 159.236 127.793V115.395C159.236 115.166 159.389 115.014 159.619 115.014H164.971C165.201 115.014 165.353 115.166 165.353 115.395V127.793C165.353 128.022 165.201 128.174 164.971 128.174Z" fill="white"/>
<path d="M164.971 128.556H159.619C159.198 128.556 158.854 128.213 158.854 127.793V115.395C158.854 114.976 159.198 114.632 159.619 114.632H164.971C165.392 114.632 165.736 114.976 165.736 115.395V127.793C165.736 128.213 165.392 128.556 164.971 128.556ZM159.619 115.395V127.793H164.971V115.395H159.619Z" fill="#262727"/>
<path fill-rule="evenodd" clip-rule="evenodd" d="M180.723 128.174H175.37C175.141 128.174 174.988 128.022 174.988 127.793V115.395C174.988 115.166 175.141 115.014 175.37 115.014H180.723C180.952 115.014 181.105 115.166 181.105 115.395V127.793C181.105 128.022 180.914 128.174 180.723 128.174Z" fill="white"/>
<path d="M180.723 128.556H175.37C174.95 128.556 174.606 128.213 174.606 127.793V115.395C174.606 114.976 174.95 114.632 175.37 114.632H180.723C181.143 114.632 181.487 114.976 181.487 115.395V127.793C181.487 128.213 181.143 128.556 180.723 128.556ZM175.37 115.395V127.793H180.723V115.395H175.37Z" fill="#262727"/>
<path fill-rule="evenodd" clip-rule="evenodd" d="M140.732 89.2647H135.379C135.15 89.2647 134.997 89.1122 134.997 88.8833V76.4855C134.997 76.2566 135.15 76.104 135.379 76.104H140.732C140.961 76.104 141.114 76.2566 141.114 76.4855V88.8833C141.114 89.074 140.923 89.2647 140.732 89.2647Z" fill="white"/>
<path d="M140.732 89.6463H135.379C134.959 89.6463 134.615 89.303 134.615 88.8834V76.4856C134.615 76.066 134.959 75.7227 135.379 75.7227H140.732C141.152 75.7227 141.496 76.066 141.496 76.4856V88.8834C141.496 89.303 141.152 89.6463 140.732 89.6463ZM135.379 76.4474V88.8453H140.732V76.4474H135.379Z" fill="#262727"/>
<path fill-rule="evenodd" clip-rule="evenodd" d="M141.152 108.72H135.8C135.57 108.72 135.417 108.568 135.417 108.339V95.941C135.417 95.7122 135.57 95.5596 135.8 95.5596H141.152C141.382 95.5596 141.535 95.7122 141.535 95.941V108.339C141.535 108.53 141.382 108.72 141.152 108.72Z" fill="white"/>
<path d="M141.153 109.101H135.8C135.379 109.101 135.035 108.758 135.035 108.338V95.9407C135.035 95.5211 135.379 95.1777 135.8 95.1777H141.153C141.573 95.1777 141.917 95.5211 141.917 95.9407V108.338C141.917 108.758 141.573 109.101 141.153 109.101ZM135.8 95.9407V108.338H141.153V95.9407H135.8Z" fill="#262727"/>
<path fill-rule="evenodd" clip-rule="evenodd" d="M141.611 128.174H136.259C136.029 128.174 135.876 128.022 135.876 127.793V115.395C135.876 115.166 136.029 115.014 136.259 115.014H141.611C141.841 115.014 141.994 115.166 141.994 115.395V127.793C141.994 128.022 141.802 128.174 141.611 128.174Z" fill="white"/>
<path d="M141.611 128.556H136.259C135.838 128.556 135.494 128.213 135.494 127.793V115.395C135.494 114.976 135.838 114.632 136.259 114.632H141.611C142.032 114.632 142.376 114.976 142.376 115.395V127.793C142.376 128.213 142.032 128.556 141.611 128.556ZM136.259 115.395V127.793H141.611V115.395H136.259Z" fill="#262727"/>
<path d="M156.751 40.0544V44.5557C156.751 44.7083 156.675 44.8609 156.522 44.9754L153.157 46.959C153.119 46.959 153.119 46.9972 153.081 46.9972L120.698 66.0707C120.393 66.2614 119.972 66.0326 119.972 65.6892L119.857 61.1497C119.857 60.959 119.934 60.8064 120.087 60.7301L123.413 58.7846C123.451 58.7465 123.489 58.7465 123.528 58.7083L156.025 39.6348H156.484C156.636 39.7111 156.751 39.8637 156.751 40.0544Z" fill="#649FA9"/>
<path d="M187.986 39.6348L187.528 44.5939L152.66 66.1088H120.698L156.025 39.6348H187.986Z" fill="#649FA9"/>
<path d="M151.819 61.1504L151.934 65.6899C151.934 66.0714 152.354 66.2621 152.66 66.0714L185.043 46.9978C185.081 46.9978 185.081 46.9597 185.119 46.9597L188.484 44.976C188.636 44.8998 188.713 44.7472 188.713 44.5564V40.0551C188.713 39.6736 188.292 39.4447 187.987 39.6355L155.489 58.709C155.451 58.7471 155.413 58.7471 155.375 58.7853L152.049 60.7308C151.896 60.8071 151.819 60.9978 151.819 61.1504Z" fill="#A3DAE4"/>
<path d="M18.7515 174.523C18.5221 174.523 18.3691 174.37 18.3691 174.142V169.984C18.3691 169.755 18.5221 169.602 18.7515 169.602C18.9809 169.602 19.1338 169.755 19.1338 169.984V174.142C19.1338 174.332 18.9809 174.523 18.7515 174.523Z" fill="#262727"/>
<path d="M12.0991 159.493V159.798C12.0991 160.027 11.9079 160.218 11.6785 160.218H11.3727H11.3345C11.4109 159.798 11.5256 159.417 11.6785 159.035C11.9079 159.035 12.0991 159.226 12.0991 159.493Z" fill="#262727"/>
<path d="M12.0992 161.934V162.24C12.0992 162.468 11.908 162.659 11.6786 162.659H11.3728C11.2963 162.659 11.2198 162.621 11.1816 162.621C11.1434 162.392 11.1434 162.163 11.1434 161.896C11.1434 161.782 11.1434 161.667 11.1434 161.553C11.2198 161.515 11.2963 161.477 11.3728 161.477H11.6786C11.908 161.515 12.0992 161.705 12.0992 161.934Z" fill="#262727"/>
<path d="M12.0991 164.414V164.719C12.0991 164.91 11.9844 165.062 11.7932 165.139C11.6403 164.757 11.4874 164.376 11.3727 163.994H11.6403C11.9079 163.994 12.0991 164.185 12.0991 164.414Z" fill="#262727"/>
<path d="M14.1256 157.013V157.319C14.1256 157.547 13.9344 157.738 13.7051 157.738H13.3992C13.1698 157.738 12.9786 157.547 12.9786 157.319V157.013C12.9786 156.937 12.9786 156.861 13.0169 156.823C13.0551 156.785 13.0933 156.708 13.1316 156.67C13.208 156.632 13.2845 156.594 13.361 156.594H13.6668C13.9344 156.556 14.1256 156.785 14.1256 157.013Z" fill="#262727"/>
<path d="M14.1256 159.492V159.798C14.1256 160.026 13.9344 160.217 13.7051 160.217H13.3992C13.1698 160.217 12.9786 160.026 12.9786 159.798V159.492C12.9786 159.263 13.1698 159.073 13.3992 159.073H13.7051C13.9344 159.035 14.1256 159.225 14.1256 159.492Z" fill="#262727"/>
<path d="M14.1256 161.935V162.24C14.1256 162.469 13.9344 162.66 13.7051 162.66H13.3992C13.1698 162.66 12.9786 162.469 12.9786 162.24V161.935C12.9786 161.706 13.1698 161.515 13.3992 161.515H13.7051C13.9344 161.515 14.1256 161.706 14.1256 161.935Z" fill="#262727"/>
<path d="M14.1256 164.414V164.719C14.1256 164.948 13.9344 165.139 13.7051 165.139H13.3992C13.1698 165.139 12.9786 164.948 12.9786 164.719V164.414C12.9786 164.185 13.1698 163.994 13.3992 163.994H13.7051C13.9344 163.994 14.1256 164.185 14.1256 164.414Z" fill="#262727"/>
<path d="M14.1256 166.894V167.199C14.1256 167.428 13.9344 167.618 13.7051 167.618H13.5521C13.361 167.428 13.1316 167.199 12.9786 166.97V166.855C12.9786 166.627 13.1698 166.436 13.3992 166.436H13.7051C13.9344 166.474 14.1256 166.665 14.1256 166.894Z" fill="#262727"/>
<path d="M16.1901 169.335C15.9225 169.22 15.6166 169.106 15.3872 168.953C15.4254 168.953 15.4254 168.953 15.4637 168.953H15.7695C15.9607 168.953 16.1519 169.106 16.1901 169.335Z" fill="#262727"/>
<path d="M15.0813 155.068C15.4254 154.878 15.8077 154.687 16.19 154.534V154.801C16.19 155.03 15.9989 155.221 15.7695 155.221H15.4636C15.2725 155.259 15.1578 155.183 15.0813 155.068Z" fill="#262727"/>
<path d="M16.1899 157.013V157.319C16.1899 157.547 15.9988 157.738 15.7694 157.738H15.4635C15.2341 157.738 15.043 157.547 15.043 157.319V157.013C15.043 156.785 15.2341 156.594 15.4635 156.594H15.7694C15.9988 156.556 16.1899 156.785 16.1899 157.013Z" fill="#262727"/>
<path d="M16.1899 159.492V159.798C16.1899 160.026 15.9988 160.217 15.7694 160.217H15.4635C15.2341 160.217 15.043 160.026 15.043 159.798V159.492C15.043 159.263 15.2341 159.073 15.4635 159.073H15.7694C15.9988 159.035 16.1899 159.225 16.1899 159.492Z" fill="#262727"/>
<path d="M16.1899 161.935V162.24C16.1899 162.469 15.9988 162.66 15.7694 162.66H15.4635C15.2341 162.66 15.043 162.469 15.043 162.24V161.935C15.043 161.706 15.2341 161.515 15.4635 161.515H15.7694C15.9988 161.515 16.1899 161.706 16.1899 161.935Z" fill="#262727"/>
<path d="M16.1899 164.414V164.719C16.1899 164.948 15.9988 165.139 15.7694 165.139H15.4635C15.2341 165.139 15.043 164.948 15.043 164.719V164.414C15.043 164.185 15.2341 163.994 15.4635 163.994H15.7694C15.9988 163.994 16.1899 164.185 16.1899 164.414Z" fill="#262727"/>
<path d="M16.1899 166.894V167.199C16.1899 167.428 15.9988 167.619 15.7694 167.619H15.4635C15.2341 167.619 15.043 167.428 15.043 167.199V166.894C15.043 166.665 15.2341 166.474 15.4635 166.474H15.7694C15.9988 166.474 16.1899 166.665 16.1899 166.894Z" fill="#262727"/>
<path d="M18.2162 154.534V154.839C18.2162 155.068 18.025 155.259 17.7956 155.259H17.4898C17.2604 155.259 17.0692 155.068 17.0692 154.839V154.534C17.0692 154.419 17.1074 154.343 17.1839 154.229C17.4133 154.152 17.6427 154.114 17.9103 154.076C18.0632 154.152 18.2162 154.305 18.2162 154.534Z" fill="#262727"/>
<path d="M18.2162 157.013V157.319C18.2162 157.547 18.025 157.738 17.7956 157.738H17.4898C17.2604 157.738 17.0692 157.547 17.0692 157.319V157.013C17.0692 156.785 17.2604 156.594 17.4898 156.594H17.7956C18.025 156.556 18.2162 156.785 18.2162 157.013Z" fill="#262727"/>
<path d="M18.2162 159.492V159.798C18.2162 160.026 18.025 160.217 17.7956 160.217H17.4898C17.2604 160.217 17.0692 160.026 17.0692 159.798V159.492C17.0692 159.263 17.2604 159.073 17.4898 159.073H17.7956C18.025 159.035 18.2162 159.225 18.2162 159.492Z" fill="#262727"/>
<path d="M18.2162 161.935V162.24C18.2162 162.469 18.025 162.66 17.7956 162.66H17.4898C17.2604 162.66 17.0692 162.469 17.0692 162.24V161.935C17.0692 161.706 17.2604 161.515 17.4898 161.515H17.7956C18.025 161.515 18.2162 161.706 18.2162 161.935Z" fill="#262727"/>
<path d="M18.2162 164.414V164.719C18.2162 164.948 18.025 165.139 17.7956 165.139H17.4898C17.2604 165.139 17.0692 164.948 17.0692 164.719V164.414C17.0692 164.185 17.2604 163.994 17.4898 163.994H17.7956C18.025 163.994 18.2162 164.185 18.2162 164.414Z" fill="#262727"/>
<path d="M18.2162 166.894V167.199C18.2162 167.428 18.025 167.619 17.7956 167.619H17.4898C17.2604 167.619 17.0692 167.428 17.0692 167.199V166.894C17.0692 166.665 17.2604 166.474 17.4898 166.474H17.7956C18.025 166.474 18.2162 166.665 18.2162 166.894Z" fill="#262727"/>
<path d="M18.2163 169.373V169.678C18.2163 169.716 18.2163 169.754 18.1781 169.792C17.7958 169.754 17.4134 169.678 17.0311 169.602V169.373C17.0311 169.144 17.2223 168.953 17.4517 168.953H17.7575C18.0252 168.953 18.2163 169.144 18.2163 169.373Z" fill="#262727"/>
<path d="M20.2807 154.534V154.84C20.2807 155.068 20.0896 155.259 19.8602 155.259H19.5544C19.325 155.259 19.1338 155.068 19.1338 154.84V154.534C19.1338 154.305 19.325 154.115 19.5544 154.115H19.8602C20.0896 154.115 20.2807 154.305 20.2807 154.534Z" fill="#262727"/>
<path d="M20.2807 157.013V157.319C20.2807 157.547 20.0896 157.738 19.8602 157.738H19.5544C19.325 157.738 19.1338 157.547 19.1338 157.319V157.013C19.1338 156.785 19.325 156.594 19.5544 156.594H19.8602C20.0896 156.556 20.2807 156.785 20.2807 157.013Z" fill="#262727"/>
<path d="M20.2807 159.492V159.798C20.2807 160.026 20.0896 160.217 19.8602 160.217H19.5544C19.325 160.217 19.1338 160.026 19.1338 159.798V159.492C19.1338 159.263 19.325 159.073 19.5544 159.073H19.8602C20.0896 159.035 20.2807 159.225 20.2807 159.492Z" fill="#262727"/>
<path d="M20.2807 161.935V162.24C20.2807 162.469 20.0896 162.66 19.8602 162.66H19.5544C19.325 162.66 19.1338 162.469 19.1338 162.24V161.935C19.1338 161.706 19.325 161.515 19.5544 161.515H19.8602C20.0896 161.515 20.2807 161.706 20.2807 161.935Z" fill="#262727"/>
<path d="M20.2807 164.414V164.719C20.2807 164.948 20.0896 165.139 19.8602 165.139H19.5544C19.325 165.139 19.1338 164.948 19.1338 164.719V164.414C19.1338 164.185 19.325 163.994 19.5544 163.994H19.8602C20.0896 163.994 20.2807 164.185 20.2807 164.414Z" fill="#262727"/>
<path d="M20.2807 166.894V167.199C20.2807 167.428 20.0896 167.619 19.8602 167.619H19.5544C19.325 167.619 19.1338 167.428 19.1338 167.199V166.894C19.1338 166.665 19.325 166.474 19.5544 166.474H19.8602C20.0896 166.474 20.2807 166.665 20.2807 166.894Z" fill="#262727"/>
<path d="M20.2808 169.373V169.678C20.2808 169.716 20.2808 169.716 20.2808 169.754C19.8984 169.83 19.5161 169.831 19.1338 169.831C19.0956 169.792 19.0956 169.716 19.0956 169.678V169.373C19.0956 169.144 19.2867 168.953 19.5161 168.953H19.822C20.0896 168.953 20.2808 169.144 20.2808 169.373Z" fill="#262727"/>
<path d="M22.2687 169.182C21.8863 169.335 21.5423 169.487 21.1217 169.563V169.373C21.1217 169.144 21.3129 168.953 21.5423 168.953H21.8481C22.0393 168.953 22.1922 169.029 22.2687 169.182Z" fill="#262727"/>
<path d="M21.1985 154.305C21.5808 154.419 21.9631 154.534 22.3072 154.724V154.839C22.3072 155.068 22.116 155.258 21.8866 155.258H21.5808C21.3514 155.258 21.1602 155.068 21.1602 154.839V154.534C21.122 154.457 21.1602 154.381 21.1985 154.305Z" fill="#262727"/>
<path d="M22.3072 157.013V157.319C22.3072 157.547 22.1161 157.738 21.8867 157.738H21.5808C21.3514 157.738 21.1603 157.547 21.1603 157.319V157.013C21.1603 156.785 21.3514 156.594 21.5808 156.594H21.8867C22.1161 156.556 22.3072 156.785 22.3072 157.013Z" fill="#262727"/>
<path d="M22.3072 159.492V159.798C22.3072 160.026 22.1161 160.217 21.8867 160.217H21.5808C21.3514 160.217 21.1603 160.026 21.1603 159.798V159.492C21.1603 159.263 21.3514 159.073 21.5808 159.073H21.8867C22.1161 159.035 22.3072 159.225 22.3072 159.492Z" fill="#262727"/>
<path d="M22.3072 161.935V162.24C22.3072 162.469 22.1161 162.66 21.8867 162.66H21.5808C21.3514 162.66 21.1603 162.469 21.1603 162.24V161.935C21.1603 161.706 21.3514 161.515 21.5808 161.515H21.8867C22.1161 161.515 22.3072 161.706 22.3072 161.935Z" fill="#262727"/>
<path d="M22.3072 164.414V164.719C22.3072 164.948 22.1161 165.139 21.8867 165.139H21.5808C21.3514 165.139 21.1603 164.948 21.1603 164.719V164.414C21.1603 164.185 21.3514 163.994 21.5808 163.994H21.8867C22.1161 163.994 22.3072 164.185 22.3072 164.414Z" fill="#262727"/>
<path d="M22.3072 166.894V167.199C22.3072 167.428 22.1161 167.619 21.8867 167.619H21.5808C21.3514 167.619 21.1603 167.428 21.1603 167.199V166.894C21.1603 166.665 21.3514 166.474 21.5808 166.474H21.8867C22.1161 166.474 22.3072 166.665 22.3072 166.894Z" fill="#262727"/>
<path d="M24.3716 157.013V157.319C24.3716 157.547 24.1804 157.738 23.951 157.738H23.6452C23.4158 157.738 23.2246 157.547 23.2246 157.319V157.013C23.2246 156.785 23.4158 156.594 23.6452 156.594H23.951C24.1804 156.556 24.3716 156.785 24.3716 157.013Z" fill="#262727"/>
<path d="M24.3716 159.492V159.798C24.3716 160.026 24.1804 160.217 23.951 160.217H23.6452C23.4158 160.217 23.2246 160.026 23.2246 159.798V159.492C23.2246 159.263 23.4158 159.073 23.6452 159.073H23.951C24.1804 159.035 24.3716 159.225 24.3716 159.492Z" fill="#262727"/>
<path d="M24.3716 161.935V162.24C24.3716 162.469 24.1804 162.66 23.951 162.66H23.6452C23.4158 162.66 23.2246 162.469 23.2246 162.24V161.935C23.2246 161.706 23.4158 161.515 23.6452 161.515H23.951C24.1804 161.515 24.3716 161.706 24.3716 161.935Z" fill="#262727"/>
<path d="M24.3716 164.414V164.719C24.3716 164.948 24.1804 165.139 23.951 165.139H23.6452C23.4158 165.139 23.2246 164.948 23.2246 164.719V164.414C23.2246 164.185 23.4158 163.994 23.6452 163.994H23.951C24.1804 163.994 24.3716 164.185 24.3716 164.414Z" fill="#262727"/>
<path d="M24.3716 166.894V167.199C24.3716 167.428 24.1804 167.619 23.951 167.619H23.6452C23.4158 167.619 23.2246 167.428 23.2246 167.199V166.894C23.2246 166.665 23.4158 166.474 23.6452 166.474H23.951C24.1804 166.474 24.3716 166.665 24.3716 166.894Z" fill="#262727"/>
<path d="M25.5569 166.474C25.4422 166.627 25.3657 166.779 25.251 166.894C25.2128 166.703 25.3657 166.55 25.5569 166.474Z" fill="#262727"/>
<path d="M25.2128 157.319V157.014C25.2128 157.014 25.2128 157.014 25.2128 156.976C25.4039 157.205 25.5951 157.472 25.748 157.739H25.6333C25.4039 157.739 25.2128 157.548 25.2128 157.319Z" fill="#262727"/>
<path d="M26.3978 159.492V159.798C26.3978 160.026 26.2067 160.217 25.9773 160.217H25.6714C25.442 160.217 25.2509 160.026 25.2509 159.798V159.492C25.2509 159.263 25.442 159.073 25.6714 159.073H25.9773C26.2067 159.035 26.3978 159.225 26.3978 159.492Z" fill="#262727"/>
<path d="M26.3978 161.935V162.24C26.3978 162.469 26.2067 162.66 25.9773 162.66H25.6714C25.442 162.66 25.2509 162.469 25.2509 162.24V161.935C25.2509 161.706 25.442 161.515 25.6714 161.515H25.9773C26.2067 161.515 26.3978 161.706 26.3978 161.935Z" fill="#262727"/>
<path d="M26.3978 164.414V164.719C26.3978 164.948 26.2067 165.139 25.9773 165.139H25.6714C25.442 165.139 25.2509 164.948 25.2509 164.719V164.414C25.2509 164.185 25.442 163.994 25.6714 163.994H25.9773C26.2067 163.994 26.3978 164.185 26.3978 164.414Z" fill="#262727"/>
<path d="M81.2813 117.035L76.4259 112.076C76.3876 112.037 76.3877 112.037 76.3494 112.037C76.3494 112.037 76.3112 112.037 76.2729 112.076L71.7616 116.996L71.1881 116.462L75.6995 111.541C75.8524 111.351 76.0818 111.274 76.3112 111.274C76.5405 111.274 76.77 111.351 76.9229 111.541L81.7783 116.501L81.2813 117.035Z" fill="#262727"/>
<path d="M69.3529 116.348H79.9431C80.4784 116.348 80.8989 116.768 80.8989 117.302V127.869C80.8989 128.403 80.4784 128.822 79.9431 128.822H69.3529C68.8176 128.822 68.3971 128.403 68.3971 127.869V117.302C68.4353 116.768 68.8559 116.348 69.3529 116.348Z" fill="#649FA9"/>
<path d="M72.7172 116.348H82.7721C83.2309 116.348 83.6133 116.768 83.6133 117.302V127.869C83.6133 128.403 83.2309 128.822 82.7721 128.822H72.7172V116.348Z" fill="#A3DAE4"/>
<path d="M77.7258 103.416H74.8202V89.6831H77.7258V103.416ZM75.5848 102.653H76.9612V90.446H75.5848V102.653Z" fill="#262727"/>
<path d="M76.0818 89.912L48.2489 74.7294H43.6611L20.8749 89.8738L20.5308 89.4161L43.5082 74.1572H48.4019L48.4401 74.1954L76.3877 89.3779L76.0818 89.912Z" fill="#262727"/>
<path d="M49.9693 172.5H41.9406V94.7183H49.9693V172.5ZM42.514 171.928H49.3958V95.2905H42.514V171.928Z" fill="#262727"/>
<path d="M42.4805 94.8114L42.042 95.1802L49.5327 104.047L49.9712 103.678L42.4805 94.8114Z" fill="#262727"/>
<path d="M49.4321 94.8155L41.9391 103.681L42.3775 104.05L49.8705 95.1844L49.4321 94.8155Z" fill="#262727"/>
<path d="M49.7017 103.569H42.2083V104.141H49.7017V103.569Z" fill="#262727"/>
<path d="M42.4941 103.695L42.0557 104.063L49.5464 112.93L49.9849 112.562L42.4941 103.695Z" fill="#262727"/>
<path d="M49.4194 103.673L41.9264 112.538L42.3648 112.907L49.8578 104.042L49.4194 103.673Z" fill="#262727"/>
<path d="M49.7017 112.418H42.2083V112.991H49.7017V112.418Z" fill="#262727"/>
<path d="M42.4834 112.549L42.0449 112.918L49.5356 121.785L49.9741 121.416L42.4834 112.549Z" fill="#262727"/>
<path d="M49.4364 112.554L41.9434 121.42L42.3818 121.789L49.8748 112.923L49.4364 112.554Z" fill="#262727"/>
<path d="M49.7017 121.307H42.2083V121.88H49.7017V121.307Z" fill="#262727"/>
<path d="M42.4974 121.432L42.059 121.801L49.5497 130.668L49.9882 130.299L42.4974 121.432Z" fill="#262727"/>
<path d="M49.4239 121.41L41.9309 130.276L42.3693 130.645L49.8624 121.779L49.4239 121.41Z" fill="#262727"/>
<path d="M49.7017 130.157H42.2083V130.73H49.7017V130.157Z" fill="#262727"/>
<path d="M42.4867 130.287L42.0482 130.656L49.5389 139.523L49.9774 139.154L42.4867 130.287Z" fill="#262727"/>
<path d="M49.4411 130.291L41.9481 139.157L42.3865 139.526L49.8796 130.66L49.4411 130.291Z" fill="#262727"/>
<path d="M49.7017 139.007H42.2083V139.58H49.7017V139.007Z" fill="#262727"/>
<path d="M42.5005 139.169L42.062 139.538L49.5527 148.405L49.9912 148.036L42.5005 139.169Z" fill="#262727"/>
<path d="M49.4283 139.147L41.9353 148.012L42.3737 148.381L49.8668 139.516L49.4283 139.147Z" fill="#262727"/>
<path d="M49.7017 147.896H42.2083V148.468H49.7017V147.896Z" fill="#262727"/>
<path d="M42.4899 148.023L42.0514 148.392L49.5421 157.259L49.9806 156.89L42.4899 148.023Z" fill="#262727"/>
<path d="M49.4453 148.028L41.9523 156.894L42.3907 157.263L49.8837 148.397L49.4453 148.028Z" fill="#262727"/>
<path d="M49.7017 156.746H42.2083V157.318H49.7017V156.746Z" fill="#262727"/>
<path d="M42.4791 156.878L42.0406 157.247L49.5314 166.113L49.9698 165.745L42.4791 156.878Z" fill="#262727"/>
<path d="M49.4327 156.884L41.9397 165.75L42.3781 166.119L49.8712 157.253L49.4327 156.884Z" fill="#262727"/>
<path d="M49.7017 165.519H42.2083V166.282H49.7017V165.519Z" fill="#262727"/>
<path d="M48.4784 89.798H43.3553V74.1958H48.4784V89.798ZM43.9288 89.2257H47.905V74.768H43.9288V89.2257Z" fill="#262727"/>
<path d="M43.8911 74.3076L43.4521 74.6758L48.0036 80.0781L48.4426 79.7099L43.8911 74.3076Z" fill="#262727"/>
<path d="M47.8919 74.2945L43.3419 79.6982L43.781 80.0663L48.331 74.6626L47.8919 74.2945Z" fill="#262727"/>
<path d="M48.1723 79.5742H43.6227V80.1464H48.1723V79.5742Z" fill="#262727"/>
<path d="M43.9069 79.7187L43.4679 80.0869L48.0193 85.4892L48.4583 85.121L43.9069 79.7187Z" fill="#262727"/>
<path d="M47.9107 79.7032L43.3607 85.1069L43.7998 85.475L48.3498 80.0713L47.9107 79.7032Z" fill="#262727"/>
<path d="M48.1723 84.9917H43.6227V85.5639H48.1723V84.9917Z" fill="#262727"/>
<path d="M43.8977 85.1005L43.4587 85.4688L48.0102 90.871L48.4492 90.5028L43.8977 85.1005Z" fill="#262727"/>
<path d="M47.9002 85.0875L43.3502 90.4912L43.7893 90.8593L48.3393 85.4556L47.9002 85.0875Z" fill="#262727"/>
<path d="M48.1723 90.2935H43.6227V91.0564H48.1723V90.2935Z" fill="#262727"/>
<path d="M39.723 89.6445H41.7492C41.9022 89.6445 42.0169 90.0641 42.0169 90.5982V96.4729C42.0169 97.0069 41.9022 97.4265 41.7492 97.4265H39.723C39.57 97.4265 39.4553 97.0069 39.4553 96.4729V90.5982C39.4553 90.1023 39.57 89.6445 39.723 89.6445Z" fill="#649FA9"/>
<path d="M41.3291 89.6445H49.5872C50.1224 89.6445 50.543 90.0641 50.543 90.5982V96.4729C50.543 97.0069 50.1224 97.4265 49.5872 97.4265H41.3291V89.6445Z" fill="#50C6DB"/>
<path d="M19.8044 89.3403H76.7701C77.0759 89.3403 77.3053 89.5692 77.3053 89.8744C77.3053 90.1796 77.0759 90.4085 76.7701 90.4085H19.8044C19.4986 90.4085 19.2692 90.1796 19.2692 89.8744C19.2692 89.6074 19.4986 89.3403 19.8044 89.3403Z" fill="#FFB958"/>
<path d="M20.8365 91.3621C21.6388 91.3621 22.2893 90.7131 22.2893 89.9125C22.2893 89.1119 21.6388 88.4629 20.8365 88.4629C20.0341 88.4629 19.3837 89.1119 19.3837 89.9125C19.3837 90.7131 20.0341 91.3621 20.8365 91.3621Z" fill="white"/>
<path d="M20.8365 91.7051C19.8424 91.7051 19.0013 90.904 19.0013 89.874C19.0013 88.8441 19.8042 88.043 20.8365 88.043C21.8305 88.043 22.6716 88.8441 22.6716 89.874C22.6716 90.904 21.8305 91.7051 20.8365 91.7051ZM20.8365 88.8441C20.263 88.8441 19.766 89.3018 19.766 89.9122C19.766 90.5225 20.2248 90.9803 20.8365 90.9803C21.4482 90.9803 21.907 90.5225 21.907 89.9122C21.907 89.3018 21.41 88.8441 20.8365 88.8441Z" fill="#262727"/>
<path d="M76.2727 91.3621C77.0751 91.3621 77.7256 90.7131 77.7256 89.9125C77.7256 89.1119 77.0751 88.4629 76.2727 88.4629C75.4704 88.4629 74.8199 89.1119 74.8199 89.9125C74.8199 90.7131 75.4704 91.3621 76.2727 91.3621Z" fill="white"/>
<path d="M76.2729 91.7051C75.2788 91.7051 74.4377 90.904 74.4377 89.874C74.4377 88.8441 75.2406 88.043 76.2729 88.043C77.3051 88.043 78.108 88.8441 78.108 89.874C78.108 90.904 77.2669 91.7051 76.2729 91.7051ZM76.2729 88.8441C75.6994 88.8441 75.2024 89.3018 75.2024 89.9122C75.2024 90.5225 75.6611 90.9803 76.2729 90.9803C76.8846 90.9803 77.3434 90.5225 77.3434 89.9122C77.3434 89.3018 76.8463 88.8441 76.2729 88.8441Z" fill="#262727"/>
<path d="M74.7435 99.8303H77.8021V105.552C77.8021 106.392 77.1139 107.078 76.2728 107.078C75.4317 107.078 74.7435 106.392 74.7435 105.552V99.8303Z" fill="#50C6DB"/>
<path d="M76.655 107.04H75.8904V108.68H76.655V107.04Z" fill="#262727"/>
<path fill-rule="evenodd" clip-rule="evenodd" d="M76.5406 108.566C76.4641 108.566 76.4259 108.566 76.3494 108.566C75.3554 108.566 74.5525 109.367 74.5525 110.359C74.5525 111.351 75.3554 112.152 76.3494 112.152C77.1905 112.152 77.8787 111.58 78.1081 110.817H77.764C77.5728 111.427 76.9994 111.847 76.3494 111.847C75.5083 111.847 74.8584 111.198 74.8584 110.359C74.8584 109.558 75.5083 108.871 76.3494 108.871C76.4259 108.871 76.4641 108.871 76.5406 108.871V108.566Z" fill="#262727"/>
<path d="M36.9322 165.519H50.1223C50.6575 165.519 51.0781 165.977 51.0781 166.511V171.546C51.0781 172.118 50.6575 172.538 50.1223 172.538H36.9322C36.397 172.538 35.9764 172.08 35.9764 171.546V166.511C36.0147 165.977 36.4352 165.519 36.9322 165.519Z" fill="#649FA9"/>
<path d="M39.2262 165.519H52.4162C52.9515 165.519 53.372 165.977 53.372 166.511V171.546C53.372 172.118 52.9515 172.538 52.4162 172.538H39.2262C38.6909 172.538 38.2704 172.08 38.2704 171.546V166.511C38.3086 165.977 38.7292 165.519 39.2262 165.519Z" fill="#50C6DB"/>
<path d="M49.8546 174.408C50.8259 174.408 51.6133 173.622 51.6133 172.653C51.6133 171.684 50.8259 170.898 49.8546 170.898C48.8833 170.898 48.0959 171.684 48.0959 172.653C48.0959 173.622 48.8833 174.408 49.8546 174.408Z" fill="#FFB958"/>
<path d="M41.8639 174.408C42.8352 174.408 43.6226 173.622 43.6226 172.653C43.6226 171.684 42.8352 170.898 41.8639 170.898C40.8926 170.898 40.1052 171.684 40.1052 172.653C40.1052 173.622 40.8926 174.408 41.8639 174.408Z" fill="#FFB958"/>
<mask id="mask0_183_1425" style="mask-type:alpha" maskUnits="userSpaceOnUse" x="260" y="152" width="19" height="19">
<path d="M269.765 170.365C274.832 170.365 278.94 166.266 278.94 161.21C278.94 156.153 274.832 152.054 269.765 152.054C264.697 152.054 260.589 156.153 260.589 161.21C260.589 166.266 264.697 170.365 269.765 170.365Z" fill="#8CE1E7"/>
</mask>
<g mask="url(#mask0_183_1425)">
<path d="M260.857 152.169H261.201C261.468 152.169 261.698 152.398 261.698 152.665V153.008C261.698 153.275 261.468 153.504 261.201 153.504H260.857C260.589 153.504 260.36 153.275 260.36 153.008V152.665C260.36 152.398 260.589 152.169 260.857 152.169Z" fill="#262727"/>
<path d="M263.227 152.169H263.571C263.839 152.169 264.068 152.398 264.068 152.665V153.008C264.068 153.275 263.839 153.504 263.571 153.504H263.227C262.959 153.504 262.73 153.275 262.73 153.008V152.665C262.73 152.398 262.921 152.169 263.227 152.169Z" fill="#262727"/>
<path d="M265.597 152.169H265.941C266.209 152.169 266.438 152.398 266.438 152.665V153.008C266.438 153.275 266.209 153.504 265.941 153.504H265.597C265.33 153.504 265.1 153.275 265.1 153.008V152.665C265.062 152.398 265.292 152.169 265.597 152.169Z" fill="#262727"/>
<path d="M267.93 152.169H268.274C268.541 152.169 268.771 152.398 268.771 152.665V153.008C268.771 153.275 268.541 153.504 268.274 153.504H267.93C267.662 153.504 267.433 153.275 267.433 153.008V152.665C267.433 152.398 267.662 152.169 267.93 152.169Z" fill="#262727"/>
<path d="M270.3 152.169H270.644C270.912 152.169 271.141 152.398 271.141 152.665V153.008C271.141 153.275 270.912 153.504 270.644 153.504H270.3C270.032 153.504 269.803 153.275 269.803 153.008V152.665C269.803 152.398 270.032 152.169 270.3 152.169Z" fill="#262727"/>
<path d="M272.67 152.169H273.014C273.282 152.169 273.511 152.398 273.511 152.665V153.008C273.511 153.275 273.282 153.504 273.014 153.504H272.67C272.403 153.504 272.173 153.275 272.173 153.008V152.665C272.173 152.398 272.403 152.169 272.67 152.169Z" fill="#262727"/>
<path d="M275.041 152.169H275.385C275.652 152.169 275.882 152.398 275.882 152.665V153.008C275.882 153.275 275.652 153.504 275.385 153.504H275.041C274.773 153.504 274.544 153.275 274.544 153.008V152.665C274.544 152.398 274.773 152.169 275.041 152.169Z" fill="#262727"/>
<path d="M277.411 152.169H277.755C278.023 152.169 278.252 152.398 278.252 152.665V153.008C278.252 153.275 278.023 153.504 277.755 153.504H277.411C277.143 153.504 276.914 153.275 276.914 153.008V152.665C276.914 152.398 277.143 152.169 277.411 152.169Z" fill="#262727"/>
<path d="M260.857 155.031H261.201C261.468 155.031 261.698 155.259 261.698 155.526V155.87C261.698 156.137 261.468 156.366 261.201 156.366H260.857C260.589 156.366 260.36 156.137 260.36 155.87V155.526C260.36 155.259 260.589 155.031 260.857 155.031Z" fill="#262727"/>
<path d="M263.227 155.031H263.571C263.839 155.031 264.068 155.259 264.068 155.526V155.87C264.068 156.137 263.839 156.366 263.571 156.366H263.227C262.959 156.366 262.73 156.137 262.73 155.87V155.526C262.73 155.259 262.921 155.031 263.227 155.031Z" fill="#262727"/>
<path d="M265.597 155.031H265.941C266.209 155.031 266.438 155.259 266.438 155.526V155.87C266.438 156.137 266.209 156.366 265.941 156.366H265.597C265.33 156.366 265.1 156.137 265.1 155.87V155.526C265.062 155.259 265.292 155.031 265.597 155.031Z" fill="#262727"/>
<path d="M267.93 155.031H268.274C268.541 155.031 268.771 155.259 268.771 155.526V155.87C268.771 156.137 268.541 156.366 268.274 156.366H267.93C267.662 156.366 267.433 156.137 267.433 155.87V155.526C267.433 155.259 267.662 155.031 267.93 155.031Z" fill="#262727"/>
<path d="M270.3 155.031H270.644C270.912 155.031 271.141 155.259 271.141 155.526V155.87C271.141 156.137 270.912 156.366 270.644 156.366H270.3C270.032 156.366 269.803 156.137 269.803 155.87V155.526C269.803 155.259 270.032 155.031 270.3 155.031Z" fill="#262727"/>
<path d="M272.67 155.031H273.014C273.282 155.031 273.511 155.259 273.511 155.526V155.87C273.511 156.137 273.282 156.366 273.014 156.366H272.67C272.403 156.366 272.173 156.137 272.173 155.87V155.526C272.173 155.259 272.403 155.031 272.67 155.031Z" fill="#262727"/>
<path d="M275.041 155.031H275.385C275.652 155.031 275.882 155.259 275.882 155.526V155.87C275.882 156.137 275.652 156.366 275.385 156.366H275.041C274.773 156.366 274.544 156.137 274.544 155.87V155.526C274.544 155.259 274.773 155.031 275.041 155.031Z" fill="#262727"/>
<path d="M277.411 155.031H277.755C278.023 155.031 278.252 155.259 278.252 155.526V155.87C278.252 156.137 278.023 156.366 277.755 156.366H277.411C277.143 156.366 276.914 156.137 276.914 155.87V155.526C276.914 155.259 277.143 155.031 277.411 155.031Z" fill="#262727"/>
<path d="M260.857 157.891H261.201C261.468 157.891 261.698 158.12 261.698 158.387V158.73C261.698 158.997 261.468 159.226 261.201 159.226H260.857C260.589 159.226 260.36 158.997 260.36 158.73V158.387C260.36 158.12 260.589 157.891 260.857 157.891Z" fill="#262727"/>
<path d="M263.227 157.891H263.571C263.839 157.891 264.068 158.12 264.068 158.387V158.73C264.068 158.997 263.839 159.226 263.571 159.226H263.227C262.959 159.226 262.73 158.997 262.73 158.73V158.387C262.73 158.12 262.921 157.891 263.227 157.891Z" fill="#262727"/>
<path d="M265.597 157.891H265.941C266.209 157.891 266.438 158.12 266.438 158.387V158.73C266.438 158.997 266.209 159.226 265.941 159.226H265.597C265.33 159.226 265.1 158.997 265.1 158.73V158.387C265.062 158.12 265.292 157.891 265.597 157.891Z" fill="#262727"/>
<path d="M267.93 157.891H268.274C268.541 157.891 268.771 158.12 268.771 158.387V158.73C268.771 158.997 268.541 159.226 268.274 159.226H267.93C267.662 159.226 267.433 158.997 267.433 158.73V158.387C267.433 158.12 267.662 157.891 267.93 157.891Z" fill="#262727"/>
<path d="M270.3 157.891H270.644C270.912 157.891 271.141 158.12 271.141 158.387V158.73C271.141 158.997 270.912 159.226 270.644 159.226H270.3C270.032 159.226 269.803 158.997 269.803 158.73V158.387C269.803 158.12 270.032 157.891 270.3 157.891Z" fill="#262727"/>
<path d="M272.67 157.891H273.014C273.282 157.891 273.511 158.12 273.511 158.387V158.73C273.511 158.997 273.282 159.226 273.014 159.226H272.67C272.403 159.226 272.173 158.997 272.173 158.73V158.387C272.173 158.12 272.403 157.891 272.67 157.891Z" fill="#262727"/>
<path d="M275.041 157.891H275.385C275.652 157.891 275.882 158.12 275.882 158.387V158.73C275.882 158.997 275.652 159.226 275.385 159.226H275.041C274.773 159.226 274.544 158.997 274.544 158.73V158.387C274.544 158.12 274.773 157.891 275.041 157.891Z" fill="#262727"/>
<path d="M277.411 157.891H277.755C278.023 157.891 278.252 158.12 278.252 158.387V158.73C278.252 158.997 278.023 159.226 277.755 159.226H277.411C277.143 159.226 276.914 158.997 276.914 158.73V158.387C276.914 158.12 277.143 157.891 277.411 157.891Z" fill="#262727"/>
<path d="M260.857 160.752H261.201C261.468 160.752 261.698 160.981 261.698 161.248V161.591C261.698 161.858 261.468 162.087 261.201 162.087H260.857C260.589 162.087 260.36 161.858 260.36 161.591V161.248C260.36 160.981 260.589 160.752 260.857 160.752Z" fill="#262727"/>
<path d="M263.227 160.752H263.571C263.839 160.752 264.068 160.981 264.068 161.248V161.591C264.068 161.858 263.839 162.087 263.571 162.087H263.227C262.959 162.087 262.73 161.858 262.73 161.591V161.248C262.73 160.981 262.921 160.752 263.227 160.752Z" fill="#262727"/>
<path d="M265.597 160.752H265.941C266.209 160.752 266.438 160.981 266.438 161.248V161.591C266.438 161.858 266.209 162.087 265.941 162.087H265.597C265.33 162.087 265.1 161.858 265.1 161.591V161.248C265.062 160.981 265.292 160.752 265.597 160.752Z" fill="#262727"/>
<path d="M267.93 160.752H268.274C268.541 160.752 268.771 160.981 268.771 161.248V161.591C268.771 161.858 268.541 162.087 268.274 162.087H267.93C267.662 162.087 267.433 161.858 267.433 161.591V161.248C267.433 160.981 267.662 160.752 267.93 160.752Z" fill="#262727"/>
<path d="M270.3 160.752H270.644C270.912 160.752 271.141 160.981 271.141 161.248V161.591C271.141 161.858 270.912 162.087 270.644 162.087H270.3C270.032 162.087 269.803 161.858 269.803 161.591V161.248C269.803 160.981 270.032 160.752 270.3 160.752Z" fill="#262727"/>
<path d="M272.67 160.752H273.014C273.282 160.752 273.511 160.981 273.511 161.248V161.591C273.511 161.858 273.282 162.087 273.014 162.087H272.67C272.403 162.087 272.173 161.858 272.173 161.591V161.248C272.173 160.981 272.403 160.752 272.67 160.752Z" fill="#262727"/>
<path d="M275.041 160.752H275.385C275.652 160.752 275.882 160.981 275.882 161.248V161.591C275.882 161.858 275.652 162.087 275.385 162.087H275.041C274.773 162.087 274.544 161.858 274.544 161.591V161.248C274.544 160.981 274.773 160.752 275.041 160.752Z" fill="#262727"/>
<path d="M277.411 160.752H277.755C278.023 160.752 278.252 160.981 278.252 161.248V161.591C278.252 161.858 278.023 162.087 277.755 162.087H277.411C277.143 162.087 276.914 161.858 276.914 161.591V161.248C276.914 160.981 277.143 160.752 277.411 160.752Z" fill="#262727"/>
<path d="M260.857 163.614H261.201C261.468 163.614 261.698 163.843 261.698 164.11V164.453C261.698 164.72 261.468 164.949 261.201 164.949H260.857C260.589 164.949 260.36 164.72 260.36 164.453V164.11C260.36 163.843 260.589 163.614 260.857 163.614Z" fill="#262727"/>
<path d="M263.227 163.614H263.571C263.839 163.614 264.068 163.843 264.068 164.11V164.453C264.068 164.72 263.839 164.949 263.571 164.949H263.227C262.959 164.949 262.73 164.72 262.73 164.453V164.11C262.73 163.843 262.921 163.614 263.227 163.614Z" fill="#262727"/>
<path d="M265.597 163.614H265.941C266.209 163.614 266.438 163.843 266.438 164.11V164.453C266.438 164.72 266.209 164.949 265.941 164.949H265.597C265.33 164.949 265.1 164.72 265.1 164.453V164.11C265.062 163.843 265.292 163.614 265.597 163.614Z" fill="#262727"/>
<path d="M267.93 163.614H268.274C268.541 163.614 268.771 163.843 268.771 164.11V164.453C268.771 164.72 268.541 164.949 268.274 164.949H267.93C267.662 164.949 267.433 164.72 267.433 164.453V164.11C267.433 163.843 267.662 163.614 267.93 163.614Z" fill="#262727"/>
<path d="M270.3 163.614H270.644C270.912 163.614 271.141 163.843 271.141 164.11V164.453C271.141 164.72 270.912 164.949 270.644 164.949H270.3C270.032 164.949 269.803 164.72 269.803 164.453V164.11C269.803 163.843 270.032 163.614 270.3 163.614Z" fill="#262727"/>
<path d="M272.67 163.614H273.014C273.282 163.614 273.511 163.843 273.511 164.11V164.453C273.511 164.72 273.282 164.949 273.014 164.949H272.67C272.403 164.949 272.173 164.72 272.173 164.453V164.11C272.173 163.843 272.403 163.614 272.67 163.614Z" fill="#262727"/>
<path d="M275.041 163.614H275.385C275.652 163.614 275.882 163.843 275.882 164.11V164.453C275.882 164.72 275.652 164.949 275.385 164.949H275.041C274.773 164.949 274.544 164.72 274.544 164.453V164.11C274.544 163.843 274.773 163.614 275.041 163.614Z" fill="#262727"/>
<path d="M277.411 163.614H277.755C278.023 163.614 278.252 163.843 278.252 164.11V164.453C278.252 164.72 278.023 164.949 277.755 164.949H277.411C277.143 164.949 276.914 164.72 276.914 164.453V164.11C276.914 163.843 277.143 163.614 277.411 163.614Z" fill="#262727"/>
<path d="M260.857 166.474H261.201C261.468 166.474 261.698 166.703 261.698 166.97V167.313C261.698 167.58 261.468 167.809 261.201 167.809H260.857C260.589 167.809 260.36 167.58 260.36 167.313V166.97C260.36 166.703 260.589 166.474 260.857 166.474Z" fill="#262727"/>
<path d="M263.227 166.474H263.571C263.839 166.474 264.068 166.703 264.068 166.97V167.313C264.068 167.58 263.839 167.809 263.571 167.809H263.227C262.959 167.809 262.73 167.58 262.73 167.313V166.97C262.73 166.703 262.921 166.474 263.227 166.474Z" fill="#262727"/>
<path d="M265.597 166.474H265.941C266.209 166.474 266.438 166.703 266.438 166.97V167.313C266.438 167.58 266.209 167.809 265.941 167.809H265.597C265.33 167.809 265.1 167.58 265.1 167.313V166.97C265.062 166.703 265.292 166.474 265.597 166.474Z" fill="#262727"/>
<path d="M267.93 166.474H268.274C268.541 166.474 268.771 166.703 268.771 166.97V167.313C268.771 167.58 268.541 167.809 268.274 167.809H267.93C267.662 167.809 267.433 167.58 267.433 167.313V166.97C267.433 166.703 267.662 166.474 267.93 166.474Z" fill="#262727"/>
<path d="M270.3 166.474H270.644C270.912 166.474 271.141 166.703 271.141 166.97V167.313C271.141 167.58 270.912 167.809 270.644 167.809H270.3C270.032 167.809 269.803 167.58 269.803 167.313V166.97C269.803 166.703 270.032 166.474 270.3 166.474Z" fill="#262727"/>
<path d="M272.67 166.474H273.014C273.282 166.474 273.511 166.703 273.511 166.97V167.313C273.511 167.58 273.282 167.809 273.014 167.809H272.67C272.403 167.809 272.173 167.58 272.173 167.313V166.97C272.173 166.703 272.403 166.474 272.67 166.474Z" fill="#262727"/>
<path d="M275.041 166.474H275.385C275.652 166.474 275.882 166.703 275.882 166.97V167.313C275.882 167.58 275.652 167.809 275.385 167.809H275.041C274.773 167.809 274.544 167.58 274.544 167.313V166.97C274.544 166.703 274.773 166.474 275.041 166.474Z" fill="#262727"/>
<path d="M277.411 166.474H277.755C278.023 166.474 278.252 166.703 278.252 166.97V167.313C278.252 167.58 278.023 167.809 277.755 167.809H277.411C277.143 167.809 276.914 167.58 276.914 167.313V166.97C276.914 166.703 277.143 166.474 277.411 166.474Z" fill="#262727"/>
<path d="M260.857 169.335H261.201C261.468 169.335 261.698 169.564 261.698 169.831V170.174C261.698 170.441 261.468 170.67 261.201 170.67H260.857C260.589 170.67 260.36 170.441 260.36 170.174V169.831C260.36 169.564 260.589 169.335 260.857 169.335Z" fill="#262727"/>
<path d="M263.227 169.335H263.571C263.839 169.335 264.068 169.564 264.068 169.831V170.174C264.068 170.441 263.839 170.67 263.571 170.67H263.227C262.959 170.67 262.73 170.441 262.73 170.174V169.831C262.73 169.564 262.921 169.335 263.227 169.335Z" fill="#262727"/>
<path d="M265.597 169.335H265.941C266.209 169.335 266.438 169.564 266.438 169.831V170.174C266.438 170.441 266.209 170.67 265.941 170.67H265.597C265.33 170.67 265.1 170.441 265.1 170.174V169.831C265.062 169.564 265.292 169.335 265.597 169.335Z" fill="#262727"/>
<path d="M267.93 169.335H268.274C268.541 169.335 268.771 169.564 268.771 169.831V170.174C268.771 170.441 268.541 170.67 268.274 170.67H267.93C267.662 170.67 267.433 170.441 267.433 170.174V169.831C267.433 169.564 267.662 169.335 267.93 169.335Z" fill="#262727"/>
<path d="M270.3 169.335H270.644C270.912 169.335 271.141 169.564 271.141 169.831V170.174C271.141 170.441 270.912 170.67 270.644 170.67H270.3C270.032 170.67 269.803 170.441 269.803 170.174V169.831C269.803 169.564 270.032 169.335 270.3 169.335Z" fill="#262727"/>
<path d="M272.67 169.335H273.014C273.282 169.335 273.511 169.564 273.511 169.831V170.174C273.511 170.441 273.282 170.67 273.014 170.67H272.67C272.403 170.67 272.173 170.441 272.173 170.174V169.831C272.173 169.564 272.403 169.335 272.67 169.335Z" fill="#262727"/>
<path d="M275.041 169.335H275.385C275.652 169.335 275.882 169.564 275.882 169.831V170.174C275.882 170.441 275.652 170.67 275.385 170.67H275.041C274.773 170.67 274.544 170.441 274.544 170.174V169.831C274.544 169.564 274.773 169.335 275.041 169.335Z" fill="#262727"/>
<path d="M277.411 169.335H277.755C278.023 169.335 278.252 169.564 278.252 169.831V170.174C278.252 170.441 278.023 170.67 277.755 170.67H277.411C277.143 170.67 276.914 170.441 276.914 170.174V169.831C276.914 169.564 277.143 169.335 277.411 169.335Z" fill="#262727"/>
</g>
<path d="M205.535 86.7471H190.663C190.242 86.7471 189.898 86.4038 189.898 85.9842V35.0959C189.898 34.6763 190.242 34.333 190.663 34.333H205.535V86.7471Z" fill="#649FA9"/>
<path d="M243.117 86.7471H205.497V34.333H243.117C243.538 34.333 243.882 34.6763 243.882 35.0959V85.946C243.882 86.4038 243.538 86.7471 243.117 86.7471Z" fill="#50C6DB"/>
<path d="M298.095 73.0899L298.554 72.6321L294.769 68.7411C294.654 68.5885 294.463 68.5122 294.272 68.5122C294.081 68.5122 293.889 68.5885 293.775 68.7411L290.257 72.5558L290.754 73.0136L294.272 69.1989H294.348L298.095 73.0899Z" fill="#ECF5F9"/>
<path d="M290.219 72.5557H298.477C298.898 72.5557 299.203 72.899 299.203 73.2805V81.5202C299.203 81.9398 298.859 82.245 298.477 82.245H290.219C289.798 82.245 289.493 81.9017 289.493 81.5202V73.2805C289.454 72.899 289.798 72.5557 290.219 72.5557Z" fill="#ECF5F9"/>
<path d="M293.048 57.9072H295.38V62.8663H293.048V57.9072ZM294.692 58.5557H293.698V62.0653H294.692V58.5557Z" fill="#ECF5F9"/>
<path d="M294.004 58.1742L294.348 57.602L272.518 45.7383H268.656L268.542 45.7764L250.725 57.6402L251.07 58.1742L268.847 46.3868H272.327L294.004 58.1742Z" fill="#ECF5F9"/>
<path d="M267.356 61.7217H273.817V125.008H267.356V61.7217ZM273.167 62.4083H268.006V124.359H273.167V62.4083Z" fill="#ECF5F9"/>
<path d="M267.948 61.8589L267.451 62.2769L273.29 69.1895L273.787 68.7715L267.948 61.8589Z" fill="#ECF5F9"/>
<path d="M273.216 61.8525L267.376 68.7651L267.873 69.1831L273.713 62.2705L273.216 61.8525Z" fill="#ECF5F9"/>
<path d="M273.511 68.626H267.662V69.2745H273.511V68.626Z" fill="#ECF5F9"/>
<path d="M267.945 68.7637L267.448 69.1816L273.287 76.0943L273.784 75.6763L267.945 68.7637Z" fill="#ECF5F9"/>
<path d="M273.208 68.7539L267.368 75.6665L267.865 76.0845L273.705 69.1718L273.208 68.7539Z" fill="#ECF5F9"/>
<path d="M273.511 75.5303H267.662V76.1788H273.511V75.5303Z" fill="#ECF5F9"/>
<path d="M267.941 75.6704L267.444 76.0884L273.284 83.001L273.781 82.583L267.941 75.6704Z" fill="#ECF5F9"/>
<path d="M273.204 75.6601L267.364 82.5728L267.861 82.9907L273.701 76.0781L273.204 75.6601Z" fill="#ECF5F9"/>
<path d="M273.511 82.4746H267.662V83.1231H273.511V82.4746Z" fill="#ECF5F9"/>
<path d="M267.963 82.605L267.466 83.0229L273.306 89.9356L273.803 89.5176L267.963 82.605Z" fill="#ECF5F9"/>
<path d="M273.2 82.5664L267.361 89.479L267.858 89.897L273.697 82.9843L273.2 82.5664Z" fill="#ECF5F9"/>
<path d="M273.511 89.3789H267.662V90.0274H273.511V89.3789Z" fill="#ECF5F9"/>
<path d="M267.96 89.5102L267.463 89.9282L273.303 96.8409L273.8 96.4229L267.96 89.5102Z" fill="#ECF5F9"/>
<path d="M273.226 89.497L267.386 96.4097L267.883 96.8276L273.723 89.915L273.226 89.497Z" fill="#ECF5F9"/>
<path d="M273.511 96.283H267.662V96.9315H273.511V96.283Z" fill="#ECF5F9"/>
<path d="M267.957 96.4163L267.46 96.8342L273.3 103.747L273.797 103.329L267.957 96.4163Z" fill="#ECF5F9"/>
<path d="M273.222 96.4038L267.383 103.316L267.88 103.734L273.719 96.8217L273.222 96.4038Z" fill="#ECF5F9"/>
<path d="M273.511 103.187H267.662V103.836H273.511V103.187Z" fill="#ECF5F9"/>
<path d="M267.954 103.322L267.457 103.74L273.297 110.652L273.794 110.234L267.954 103.322Z" fill="#ECF5F9"/>
<path d="M273.219 103.311L267.379 110.224L267.876 110.642L273.716 103.729L273.219 103.311Z" fill="#ECF5F9"/>
<path d="M273.511 110.093H267.662V110.742H273.511V110.093Z" fill="#ECF5F9"/>
<path d="M267.951 110.228L267.454 110.646L273.293 117.558L273.79 117.14L267.951 110.228Z" fill="#ECF5F9"/>
<path d="M273.219 110.222L267.379 117.135L267.876 117.553L273.716 110.64L273.219 110.222Z" fill="#ECF5F9"/>
<path d="M267.957 117.207L267.46 117.625L273.3 124.537L273.797 124.119L267.957 117.207Z" fill="#ECF5F9"/>
<path d="M273.227 117.199L267.387 124.112L267.884 124.53L273.724 117.617L273.227 117.199Z" fill="#ECF5F9"/>
<path d="M273.511 116.998H267.662V117.646H273.511V116.998Z" fill="#ECF5F9"/>
<path d="M268.465 45.7769H272.67V58.1365H268.465V45.7769ZM271.982 46.4254H269.115V57.488H271.982V46.4254Z" fill="#ECF5F9"/>
<path d="M269.074 45.9251L268.577 46.3423L272.119 50.5473L272.616 50.1301L269.074 45.9251Z" fill="#ECF5F9"/>
<path d="M272.029 45.8658L268.486 50.0708L268.984 50.4881L272.526 46.2831L272.029 45.8658Z" fill="#ECF5F9"/>
<path d="M272.326 49.9727H268.771V50.6212H272.326V49.9727Z" fill="#ECF5F9"/>
<path d="M269.07 50.1223L268.573 50.5396L272.115 54.7446L272.612 54.3273L269.07 50.1223Z" fill="#ECF5F9"/>
<path d="M272.016 50.0572L268.474 54.2622L268.971 54.6795L272.514 50.4745L272.016 50.0572Z" fill="#ECF5F9"/>
<path d="M272.326 54.1689H268.771V54.8174H272.326V54.1689Z" fill="#ECF5F9"/>
<path d="M269.066 54.3196L268.568 54.7368L272.11 58.9418L272.608 58.5246L269.066 54.3196Z" fill="#ECF5F9"/>
<path d="M272.019 54.2627L268.477 58.4678L268.974 58.8851L272.517 54.68L272.019 54.2627Z" fill="#ECF5F9"/>
<path d="M272.326 58.3652H268.771V59.0137H272.326V58.3652Z" fill="#ECF5F9"/>
<path d="M267.7 57.9072H273.397C273.817 57.9072 274.123 58.2505 274.123 58.632V63.2097C274.123 63.6293 273.779 63.9345 273.397 63.9345H267.7C267.28 63.9345 266.974 63.5911 266.974 63.2097V58.632C266.974 58.2505 267.28 57.9072 267.7 57.9072Z" fill="#ECF5F9"/>
<path d="M250.19 57.6782H294.577C294.807 57.6782 294.998 57.869 294.998 58.0978C294.998 58.3267 294.807 58.5175 294.577 58.5175H250.19C249.961 58.5175 249.77 58.3267 249.77 58.0978C249.77 57.869 249.961 57.6782 250.19 57.6782Z" fill="#ECF5F9"/>
<path d="M250.993 59.2052C251.605 59.2052 252.102 58.7099 252.102 58.0989C252.102 57.488 251.605 56.9927 250.993 56.9927C250.381 56.9927 249.884 57.488 249.884 58.0989C249.884 58.7099 250.381 59.2052 250.993 59.2052Z" fill="#ECF5F9"/>
<path d="M249.54 58.0985C249.54 57.2974 250.19 56.6489 250.993 56.6489C251.796 56.6489 252.446 57.2974 252.446 58.0985C252.446 58.8996 251.796 59.5481 250.993 59.5481C250.19 59.5481 249.54 58.8996 249.54 58.0985ZM250.19 58.0985C250.19 58.5181 250.534 58.8996 250.993 58.8996C251.413 58.8996 251.796 58.5563 251.796 58.0985C251.796 57.6789 251.452 57.2974 250.993 57.2974C250.572 57.2974 250.19 57.6789 250.19 58.0985Z" fill="#ECF5F9"/>
<path d="M294.195 59.2052C294.807 59.2052 295.304 58.7099 295.304 58.0989C295.304 57.488 294.807 56.9927 294.195 56.9927C293.583 56.9927 293.086 57.488 293.086 58.0989C293.086 58.7099 293.583 59.2052 294.195 59.2052Z" fill="#ECF5F9"/>
<path d="M292.742 58.0985C292.742 57.2974 293.392 56.6489 294.195 56.6489C294.998 56.6489 295.648 57.2974 295.648 58.0985C295.648 58.8996 294.998 59.5481 294.195 59.5481C293.392 59.5481 292.742 58.8996 292.742 58.0985ZM293.43 58.0985C293.43 58.5181 293.775 58.8996 294.233 58.8996C294.654 58.8996 295.036 58.5563 295.036 58.0985C295.036 57.6789 294.692 57.2974 294.233 57.2974C293.775 57.2974 293.43 57.6789 293.43 58.0985Z" fill="#ECF5F9"/>
<path d="M293.01 59.6626H295.419V64.1258C295.419 64.7743 294.883 65.3084 294.233 65.3084C293.583 65.3084 293.048 64.7743 293.048 64.1258V59.6626H293.01Z" fill="#ECF5F9"/>
<path d="M294.539 65.3076H293.889V66.6046H294.539V65.3076Z" fill="#ECF5F9"/>
<path fill-rule="evenodd" clip-rule="evenodd" d="M294.004 70.038C294.883 70.038 295.648 69.4276 295.877 68.5884L295.992 68.1688H295.036L294.96 68.3977C294.807 68.8173 294.424 69.0843 294.004 69.0843C293.469 69.0843 293.01 68.6265 293.01 68.0925C293.01 67.5584 293.469 67.1006 294.004 67.1006C294.042 67.1006 294.08 67.1006 294.157 67.1006L294.539 67.1388V66.1851L294.233 66.147C294.157 66.147 294.08 66.147 294.004 66.147C292.933 66.147 292.054 67.0244 292.054 68.0925C292.092 69.1606 292.933 70.038 294.004 70.038Z" fill="#ECF5F9"/>
<path d="M265.368 124.97H275.614C276.035 124.97 276.341 125.313 276.341 125.695V129.357C276.341 129.777 275.997 130.082 275.614 130.082H265.368C264.948 130.082 264.642 129.738 264.642 129.357V125.695C264.604 125.313 264.948 124.97 265.368 124.97Z" fill="#ECF5F9"/>
<path d="M273.626 131.721C274.386 131.721 275.003 131.107 275.003 130.348C275.003 129.59 274.386 128.975 273.626 128.975C272.866 128.975 272.25 129.59 272.25 130.348C272.25 131.107 272.866 131.721 273.626 131.721Z" fill="#ECF5F9"/>
<path d="M267.662 131.721C268.422 131.721 269.038 131.107 269.038 130.348C269.038 129.59 268.422 128.975 267.662 128.975C266.902 128.975 266.286 129.59 266.286 130.348C266.286 131.107 266.902 131.721 267.662 131.721Z" fill="#ECF5F9"/>
<path d="M413.632 181.198V218.086H389.622V212.326C389.622 198.441 372.8 186.691 349.517 182.61H274.85C251.566 186.691 234.744 198.441 234.744 212.326V218.086H213.449V212.326C213.449 198.441 196.627 186.691 173.344 182.61H98.6767C75.3935 186.691 58.5714 198.441 58.5714 212.326V218.086H40.1054V212.326C40.1054 198.441 23.2833 186.691 0 182.61C0 182.61 106.884 182.61 0.114798 182.61L0.000102679 181.198H413.632Z" fill="#FFF0D1"/>
<path d="M413.632 176.087H0.504822V184.212H413.632V176.087Z" fill="#FFD67E"/>
<path d="M68.3972 149.459H96.5359C97.0712 149.459 97.4917 149.879 97.4917 150.413V173.416C97.4917 173.95 97.0712 174.369 96.5359 174.369H68.3972C67.862 174.369 67.4414 173.95 67.4414 173.416V150.413C67.4414 149.879 67.862 149.459 68.3972 149.459Z" fill="#649FA9"/>
<path d="M88.66 135.231H92.1391V147.896H88.66C88.2395 147.896 87.8954 147.552 87.8954 147.133V135.956C87.8954 135.574 88.2395 135.231 88.66 135.231Z" fill="#649FA9"/>
<path d="M74.3995 149.459H102.538C103.074 149.459 103.494 149.879 103.494 150.413V173.415C103.494 173.949 103.074 174.369 102.538 174.369H74.3995C73.8643 174.369 73.4437 173.949 73.4437 173.415V150.413C73.4437 149.879 73.8643 149.459 74.3995 149.459Z" fill="#50C6DB"/>
<path d="M92.0245 135.231H102.615C103.112 135.231 103.494 135.65 103.494 136.184V146.942C103.494 147.476 103.112 147.896 102.615 147.896H92.0245V135.231Z" fill="#A3DAE4"/>
<path d="M105.941 161.743H109.114V174.446H105.941C105.52 174.446 105.176 174.103 105.176 173.683V162.506C105.176 162.086 105.52 161.743 105.941 161.743Z" fill="#649FA9"/>
<path d="M109.305 161.743H119.895C120.392 161.743 120.775 162.163 120.775 162.697V173.454C120.775 173.988 120.392 174.408 119.895 174.408H109.305V161.743Z" fill="#A3DAE4"/>
<path fill-rule="evenodd" clip-rule="evenodd" d="M274.544 174.523H248.126C247.705 174.523 247.361 174.18 247.361 173.76V146.828C247.361 146.409 247.705 146.065 248.126 146.065H274.544V174.523Z" fill="#649FA9"/>
<path fill-rule="evenodd" clip-rule="evenodd" d="M274.353 144.577H247.934C247.514 144.577 247.17 144.234 247.17 143.814V95.0625C247.17 94.6429 247.514 94.2996 247.934 94.2996H274.353V144.577Z" fill="#649FA9"/>
<path fill-rule="evenodd" clip-rule="evenodd" d="M302.797 144.577H274.391V94.2996H302.797C303.217 94.2996 303.562 94.6429 303.562 95.0625V143.776C303.562 144.234 303.217 144.577 302.797 144.577Z" fill="#A3DAE4"/>
<path fill-rule="evenodd" clip-rule="evenodd" d="M302.797 174.523H274.391V146.065H302.797C303.217 146.065 303.562 146.409 303.562 146.828V173.76C303.562 174.18 303.217 174.523 302.797 174.523Z" fill="#50C6DB"/>
<path fill-rule="evenodd" clip-rule="evenodd" d="M284.637 110.055H280.852C280.623 110.055 280.47 109.903 280.47 109.674V100.442C280.47 100.213 280.623 100.061 280.852 100.061H284.637C284.867 100.061 285.019 100.213 285.019 100.442V109.674C285.019 109.903 284.867 110.055 284.637 110.055Z" fill="white"/>
<path d="M284.637 110.436H280.852C280.431 110.436 280.087 110.093 280.087 109.673V100.441C280.087 100.022 280.431 99.6785 280.852 99.6785H284.637C285.058 99.6785 285.402 100.022 285.402 100.441V109.673C285.402 110.093 285.058 110.436 284.637 110.436ZM280.852 100.48V109.711H284.637V100.48H280.852Z" fill="#262727"/>
<path fill-rule="evenodd" clip-rule="evenodd" d="M291.633 110.056H287.849C287.619 110.056 287.466 109.903 287.466 109.674V100.443C287.466 100.214 287.619 100.061 287.849 100.061H291.633C291.863 100.061 292.016 100.214 292.016 100.443V109.674C292.016 109.903 291.825 110.056 291.633 110.056Z" fill="white"/>
<path d="M291.634 110.436H287.849C287.428 110.436 287.084 110.093 287.084 109.673V100.442C287.084 100.022 287.428 99.6787 287.849 99.6787H291.634C292.054 99.6787 292.398 100.022 292.398 100.442V109.673C292.398 110.093 292.054 110.436 291.634 110.436ZM287.849 100.48V109.711H291.634V100.48H287.849Z" fill="#262727"/>
<path fill-rule="evenodd" clip-rule="evenodd" d="M298.783 110.056H294.998C294.769 110.056 294.616 109.903 294.616 109.674V100.443C294.616 100.214 294.769 100.061 294.998 100.061H298.783C299.012 100.061 299.165 100.214 299.165 100.443V109.674C299.165 109.903 298.974 110.056 298.783 110.056Z" fill="white"/>
<path d="M298.783 110.436H294.998C294.577 110.436 294.233 110.093 294.233 109.673V100.442C294.233 100.022 294.577 99.6787 294.998 99.6787H298.783C299.204 99.6787 299.548 100.022 299.548 100.442V109.673C299.548 110.093 299.204 110.436 298.783 110.436ZM294.96 100.48V109.711H298.745V100.48H294.96Z" fill="#262727"/>
<path fill-rule="evenodd" clip-rule="evenodd" d="M262.004 110.055H258.219C257.989 110.055 257.836 109.903 257.836 109.674V100.442C257.836 100.213 257.989 100.061 258.219 100.061H262.004C262.233 100.061 262.386 100.213 262.386 100.442V109.674C262.386 109.903 262.233 110.055 262.004 110.055Z" fill="white"/>
<path d="M262.004 110.436H258.219C257.798 110.436 257.454 110.093 257.454 109.673V100.441C257.454 100.022 257.798 99.6785 258.219 99.6785H262.004C262.424 99.6785 262.768 100.022 262.768 100.441V109.673C262.768 110.093 262.424 110.436 262.004 110.436ZM258.219 100.48V109.711H262.004V100.48H258.219Z" fill="#262727"/>
<path fill-rule="evenodd" clip-rule="evenodd" d="M199.839 56.1532H196.054C195.824 56.1532 195.671 56.0006 195.671 55.7718V46.5402C195.671 46.3113 195.824 46.1587 196.054 46.1587H199.839C200.068 46.1587 200.221 46.3113 200.221 46.5402V55.7718C200.221 56.0006 200.03 56.1532 199.839 56.1532Z" fill="white"/>
<path d="M199.839 56.5338H196.054C195.633 56.5338 195.289 56.1905 195.289 55.7709V46.5393C195.289 46.1197 195.633 45.7764 196.054 45.7764H199.839C200.259 45.7764 200.603 46.1197 200.603 46.5393V55.7709C200.603 56.1905 200.259 56.5338 199.839 56.5338ZM196.015 46.5393V55.7709H199.8V46.5393H196.015Z" fill="#262727"/>
<path fill-rule="evenodd" clip-rule="evenodd" d="M199.838 75.8363H196.053C195.824 75.8363 195.671 75.6838 195.671 75.4549V66.2233C195.671 65.9944 195.824 65.8418 196.053 65.8418H199.838C200.068 65.8418 200.221 65.9944 200.221 66.2233V75.4549C200.221 75.6456 200.03 75.8363 199.838 75.8363Z" fill="white"/>
<path d="M199.839 76.2174H196.054C195.633 76.2174 195.289 75.8741 195.289 75.4545V66.2229C195.289 65.8033 195.633 65.46 196.054 65.46H199.839C200.259 65.46 200.603 65.8033 200.603 66.2229V75.4545C200.603 75.8741 200.259 76.2174 199.839 76.2174ZM196.015 66.2229V75.4545H199.8V66.2229H196.015Z" fill="#262727"/>
<path fill-rule="evenodd" clip-rule="evenodd" d="M284.637 124.817H280.852C280.623 124.817 280.47 124.664 280.47 124.436V115.204C280.47 114.975 280.623 114.823 280.852 114.823H284.637C284.867 114.823 285.019 114.975 285.019 115.204V124.436C285.019 124.664 284.867 124.817 284.637 124.817Z" fill="white"/>
<path d="M284.637 125.199H280.852C280.431 125.199 280.087 124.855 280.087 124.436V115.204C280.087 114.784 280.431 114.441 280.852 114.441H284.637C285.058 114.441 285.402 114.784 285.402 115.204V124.436C285.402 124.855 285.058 125.199 284.637 125.199ZM280.852 115.204V124.436H284.637V115.204H280.852Z" fill="#262727"/>
<path fill-rule="evenodd" clip-rule="evenodd" d="M291.633 124.817H287.849C287.619 124.817 287.466 124.664 287.466 124.436V115.204C287.466 114.975 287.619 114.823 287.849 114.823H291.633C291.863 114.823 292.016 114.975 292.016 115.204V124.436C292.016 124.664 291.825 124.817 291.633 124.817Z" fill="white"/>
<path d="M291.634 125.199H287.849C287.428 125.199 287.084 124.855 287.084 124.436V115.204C287.084 114.784 287.428 114.441 287.849 114.441H291.634C292.054 114.441 292.398 114.784 292.398 115.204V124.436C292.398 124.855 292.054 125.199 291.634 125.199ZM287.849 115.204V124.436H291.634V115.204H287.849Z" fill="#262727"/>
<path fill-rule="evenodd" clip-rule="evenodd" d="M298.783 124.817H294.998C294.769 124.817 294.616 124.664 294.616 124.436V115.204C294.616 114.975 294.769 114.823 294.998 114.823H298.783C299.012 114.823 299.165 114.975 299.165 115.204V124.436C299.165 124.664 298.974 124.817 298.783 124.817Z" fill="white"/>
<path d="M298.783 125.199H294.998C294.577 125.199 294.233 124.855 294.233 124.436V115.204C294.233 114.784 294.577 114.441 294.998 114.441H298.783C299.204 114.441 299.548 114.784 299.548 115.204V124.436C299.548 124.855 299.204 125.199 298.783 125.199ZM294.96 115.204V124.436H298.745V115.204H294.96Z" fill="#262727"/>
<path fill-rule="evenodd" clip-rule="evenodd" d="M262.348 124.817H258.563C258.334 124.817 258.181 124.664 258.181 124.436V115.204C258.181 114.975 258.334 114.823 258.563 114.823H262.348C262.577 114.823 262.73 114.975 262.73 115.204V124.436C262.73 124.664 262.577 124.817 262.348 124.817Z" fill="white"/>
<path d="M262.348 125.199H258.563C258.142 125.199 257.798 124.855 257.798 124.436V115.204C257.798 114.784 258.142 114.441 258.563 114.441H262.348C262.769 114.441 263.113 114.784 263.113 115.204V124.436C263.113 124.855 262.769 125.199 262.348 125.199ZM258.563 115.204V124.436H262.348V115.204H258.563Z" fill="#262727"/>
<path fill-rule="evenodd" clip-rule="evenodd" d="M284.637 139.581H280.852C280.623 139.581 280.47 139.428 280.47 139.199V129.968C280.47 129.739 280.623 129.586 280.852 129.586H284.637C284.867 129.586 285.019 129.739 285.019 129.968V139.199C285.019 139.39 284.867 139.581 284.637 139.581Z" fill="white"/>
<path d="M284.637 139.962H280.852C280.431 139.962 280.087 139.619 280.087 139.199V129.968C280.087 129.548 280.431 129.205 280.852 129.205H284.637C285.058 129.205 285.402 129.548 285.402 129.968V139.199C285.402 139.619 285.058 139.962 284.637 139.962ZM280.852 129.968V139.199H284.637V129.968H280.852Z" fill="#262727"/>
<path fill-rule="evenodd" clip-rule="evenodd" d="M291.633 139.58H287.849C287.619 139.58 287.466 139.428 287.466 139.199V129.967C287.466 129.739 287.619 129.586 287.849 129.586H291.633C291.863 129.586 292.016 129.739 292.016 129.967V139.199C292.016 139.39 291.825 139.58 291.633 139.58Z" fill="white"/>
<path d="M291.634 139.962H287.849C287.428 139.962 287.084 139.619 287.084 139.199V129.967C287.084 129.548 287.428 129.204 287.849 129.204H291.634C292.054 129.204 292.398 129.548 292.398 129.967V139.199C292.398 139.619 292.054 139.962 291.634 139.962ZM287.849 129.967V139.199H291.634V129.967H287.849Z" fill="#262727"/>
<path fill-rule="evenodd" clip-rule="evenodd" d="M298.783 139.58H294.998C294.769 139.58 294.616 139.428 294.616 139.199V129.967C294.616 129.739 294.769 129.586 294.998 129.586H298.783C299.012 129.586 299.165 129.739 299.165 129.967V139.199C299.165 139.39 298.974 139.58 298.783 139.58Z" fill="white"/>
<path d="M298.783 139.962H294.998C294.577 139.962 294.233 139.619 294.233 139.199V129.967C294.233 129.548 294.577 129.204 294.998 129.204H298.783C299.204 129.204 299.548 129.548 299.548 129.967V139.199C299.548 139.619 299.204 139.962 298.783 139.962ZM294.96 129.967V139.199H298.745V129.967H294.96Z" fill="#262727"/>
<path fill-rule="evenodd" clip-rule="evenodd" d="M262.692 139.581H258.907C258.677 139.581 258.525 139.428 258.525 139.199V129.968C258.525 129.739 258.677 129.586 258.907 129.586H262.692C262.921 129.586 263.074 129.739 263.074 129.968V139.199C263.074 139.39 262.883 139.581 262.692 139.581Z" fill="white"/>
<path d="M262.692 139.962H258.907C258.486 139.962 258.142 139.619 258.142 139.199V129.968C258.142 129.548 258.486 129.205 258.907 129.205H262.692C263.112 129.205 263.457 129.548 263.457 129.968V139.199C263.457 139.619 263.112 139.962 262.692 139.962ZM258.907 129.968V139.199H262.692V129.968H258.907Z" fill="#262727"/>
<path fill-rule="evenodd" clip-rule="evenodd" d="M262.692 165.329H258.907C258.677 165.329 258.525 165.176 258.525 164.947V155.715C258.525 155.487 258.677 155.334 258.907 155.334H262.692C262.921 155.334 263.074 155.487 263.074 155.715V164.947C263.074 165.138 262.883 165.329 262.692 165.329Z" fill="white"/>
<path d="M262.692 165.71H258.907C258.486 165.71 258.142 165.367 258.142 164.947V155.715C258.142 155.296 258.486 154.952 258.907 154.952H262.692C263.112 154.952 263.457 155.296 263.457 155.715V164.947C263.457 165.367 263.112 165.71 262.692 165.71ZM258.907 155.715V164.947H262.692V155.715H258.907Z" fill="#262727"/>
<path fill-rule="evenodd" clip-rule="evenodd" d="M297.559 173.95H280.317C279.896 173.95 279.552 173.607 279.552 173.187V161.629C279.552 161.209 279.896 160.866 280.317 160.866H297.559C297.98 160.866 298.324 161.209 298.324 161.629V173.187C298.324 173.607 297.98 173.95 297.559 173.95Z" fill="white"/>
<path d="M297.559 174.332H280.317C279.667 174.332 279.17 173.836 279.17 173.187V161.629C279.17 160.98 279.667 160.484 280.317 160.484H297.559C298.209 160.484 298.706 160.98 298.706 161.629V173.187C298.706 173.836 298.209 174.332 297.559 174.332ZM280.355 161.247C280.126 161.247 279.973 161.4 279.973 161.629V173.187C279.973 173.416 280.126 173.569 280.355 173.569H297.598C297.827 173.569 297.98 173.416 297.98 173.187V161.629C297.98 161.4 297.827 161.247 297.598 161.247H280.355Z" fill="#262727"/>
<path d="M289.798 160.79H289.034V174.027H289.798V160.79Z" fill="#262727"/>
<path fill-rule="evenodd" clip-rule="evenodd" d="M304.594 92.6974H247.093C246.673 92.6974 246.329 92.3541 246.329 91.9345V90.0271C246.329 89.6075 246.673 89.2642 247.093 89.2642H304.594C305.015 89.2642 305.359 89.6075 305.359 90.0271V91.9345C305.359 92.3922 305.015 92.6974 304.594 92.6974Z" fill="#649FA9"/>
<path fill-rule="evenodd" clip-rule="evenodd" d="M304.632 92.6979H273.894V89.2646H304.632C305.053 89.2646 305.397 89.608 305.397 90.0276V91.9349C305.397 92.3546 305.053 92.6979 304.632 92.6979Z" fill="#A3DAE4"/>
<path d="M291.29 170.441C291.691 170.441 292.016 170.116 292.016 169.716C292.016 169.316 291.691 168.991 291.29 168.991C290.888 168.991 290.563 169.316 290.563 169.716C290.563 170.116 290.888 170.441 291.29 170.441Z" fill="#FFB958"/>
<path d="M287.428 170.441C287.829 170.441 288.154 170.116 288.154 169.716C288.154 169.316 287.829 168.991 287.428 168.991C287.027 168.991 286.701 169.316 286.701 169.716C286.701 170.116 287.027 170.441 287.428 170.441Z" fill="#FFB958"/>
<path fill-rule="evenodd" clip-rule="evenodd" d="M221.172 52.7958H215.628C215.399 52.7958 215.246 52.6432 215.246 52.4143V43.1827C215.246 42.9539 215.399 42.8013 215.628 42.8013H221.172C221.401 42.8013 221.554 42.9539 221.554 43.1827V52.4143C221.554 52.6051 221.401 52.7958 221.172 52.7958Z" fill="white"/>
<path d="M221.172 53.1769H215.628C215.208 53.1769 214.864 52.8336 214.864 52.414V43.1824C214.864 42.7628 215.208 42.4194 215.628 42.4194H221.172C221.592 42.4194 221.937 42.7628 221.937 43.1824V52.414C221.937 52.8336 221.592 53.1769 221.172 53.1769ZM215.628 43.1824V52.414H221.172V43.1824H215.628Z" fill="#262727"/>
<path fill-rule="evenodd" clip-rule="evenodd" d="M235.089 52.7958H229.545C229.316 52.7958 229.163 52.6432 229.163 52.4143V43.1827C229.163 42.9539 229.316 42.8013 229.545 42.8013H235.089C235.318 42.8013 235.471 42.9539 235.471 43.1827V52.4143C235.471 52.6051 235.318 52.7958 235.089 52.7958Z" fill="white"/>
<path d="M235.089 53.1769H229.545C229.124 53.1769 228.78 52.8336 228.78 52.414V43.1824C228.78 42.7628 229.124 42.4194 229.545 42.4194H235.089C235.509 42.4194 235.853 42.7628 235.853 43.1824V52.414C235.853 52.8336 235.509 53.1769 235.089 53.1769ZM229.545 43.1824V52.414H235.089V43.1824H229.545Z" fill="#262727"/>
<path fill-rule="evenodd" clip-rule="evenodd" d="M221.172 67.5209H215.628C215.399 67.5209 215.246 67.3683 215.246 67.1394V57.9078C215.246 57.679 215.399 57.5264 215.628 57.5264H221.172C221.401 57.5264 221.554 57.679 221.554 57.9078V67.1394C221.554 67.3683 221.401 67.5209 221.172 67.5209Z" fill="white"/>
<path d="M221.172 67.902H215.628C215.208 67.902 214.864 67.5587 214.864 67.1391V57.9075C214.864 57.4879 215.208 57.1445 215.628 57.1445H221.172C221.592 57.1445 221.937 57.4879 221.937 57.9075V67.1391C221.937 67.5587 221.592 67.902 221.172 67.902ZM215.628 57.9456V67.1772H221.172V57.9456H215.628Z" fill="#262727"/>
<path fill-rule="evenodd" clip-rule="evenodd" d="M235.089 67.5209H229.545C229.316 67.5209 229.163 67.3683 229.163 67.1394V57.9078C229.163 57.679 229.316 57.5264 229.545 57.5264H235.089C235.318 57.5264 235.471 57.679 235.471 57.9078V67.1394C235.471 67.3683 235.318 67.5209 235.089 67.5209Z" fill="white"/>
<path d="M235.089 67.902H229.545C229.124 67.902 228.78 67.5587 228.78 67.1391V57.9075C228.78 57.4879 229.124 57.1445 229.545 57.1445H235.089C235.509 57.1445 235.853 57.4879 235.853 57.9075V67.1391C235.853 67.5587 235.509 67.902 235.089 67.902ZM229.545 57.9456V67.1772H235.089V57.9456H229.545Z" fill="#262727"/>
<path fill-rule="evenodd" clip-rule="evenodd" d="M221.172 82.2841H215.628C215.399 82.2841 215.246 82.1315 215.246 81.9026V72.671C215.246 72.4421 215.399 72.2896 215.628 72.2896H221.172C221.401 72.2896 221.554 72.4421 221.554 72.671V81.9026C221.554 82.1315 221.401 82.2841 221.172 82.2841Z" fill="white"/>
<path d="M221.172 82.6652H215.628C215.208 82.6652 214.864 82.3219 214.864 81.9023V72.6707C214.864 72.251 215.208 71.9077 215.628 71.9077H221.172C221.592 71.9077 221.937 72.251 221.937 72.6707V81.9023C221.937 82.3219 221.592 82.6652 221.172 82.6652ZM215.628 72.6707V81.9023H221.172V72.6707H215.628Z" fill="#262727"/>
<path fill-rule="evenodd" clip-rule="evenodd" d="M235.089 82.2841H229.545C229.316 82.2841 229.163 82.1315 229.163 81.9026V72.671C229.163 72.4421 229.316 72.2896 229.545 72.2896H235.089C235.318 72.2896 235.471 72.4421 235.471 72.671V81.9026C235.471 82.1315 235.318 82.2841 235.089 82.2841Z" fill="white"/>
<path d="M235.089 82.6652H229.545C229.124 82.6652 228.78 82.3219 228.78 81.9023V72.6707C228.78 72.251 229.124 71.9077 229.545 71.9077H235.089C235.509 71.9077 235.853 72.251 235.853 72.6707V81.9023C235.853 82.3219 235.509 82.6652 235.089 82.6652ZM229.545 72.6707V81.9023H235.089V72.6707H229.545Z" fill="#262727"/>
<path d="M326.96 148.202C327.648 145.989 330.821 145.989 331.509 148.202L339.576 174.371H318.816L326.96 148.202Z" fill="#FFF0D1"/>
<path d="M335.141 174.37H334.377V141.907C334.377 140.801 333.497 139.924 332.389 139.924H331.586C330.477 139.924 329.598 140.801 329.598 141.907V146.523H328.833V141.907C328.833 140.381 330.056 139.161 331.586 139.161H332.389C333.918 139.161 335.141 140.381 335.141 141.907V174.37Z" fill="#262727"/>
<path d="M329.216 150.68C330.292 150.68 331.165 149.809 331.165 148.735C331.165 147.66 330.292 146.789 329.216 146.789C328.139 146.789 327.266 147.66 327.266 148.735C327.266 149.809 328.139 150.68 329.216 150.68Z" fill="#FFD67E"/>
<path fill-rule="evenodd" clip-rule="evenodd" d="M331.815 149.269C331.815 149.231 331.815 149.193 331.815 149.155C331.815 147.705 330.63 146.561 329.215 146.561C327.801 146.561 326.616 147.743 326.616 149.155C326.616 149.193 326.616 149.231 326.616 149.269H331.815Z" fill="#FFB958"/>
<path d="M332.197 149.308C332.006 147.82 330.745 146.714 329.215 146.714C327.686 146.714 326.424 147.82 326.233 149.308L325.469 149.232C325.698 147.362 327.304 145.951 329.215 145.951C331.127 145.951 332.694 147.362 332.962 149.232L332.197 149.308Z" fill="#262727"/>
<path d="M205.917 32.3868H190.586C190.166 32.3868 189.822 32.0434 189.822 31.6238V20.6375C189.822 20.2178 190.166 19.8745 190.586 19.8745H205.917V32.3868Z" fill="#649FA9"/>
<path d="M243.117 32.3868H205.803V19.8745H243.117C243.538 19.8745 243.882 20.2178 243.882 20.6375V31.6238C243.882 32.0434 243.538 32.3868 243.117 32.3868Z" fill="#A3DAE4"/>
<path fill-rule="evenodd" clip-rule="evenodd" d="M217.157 29.4115H211.155C210.926 29.4115 210.773 29.2589 210.773 29.03V23.4606C210.773 23.2317 210.926 23.0791 211.155 23.0791H217.157C217.387 23.0791 217.54 23.2317 217.54 23.4606V29.0682C217.54 29.2589 217.387 29.4115 217.157 29.4115Z" fill="white"/>
<path d="M217.158 29.7931H211.155C210.735 29.7931 210.391 29.4498 210.391 29.0302V23.4607C210.391 23.0411 210.735 22.6978 211.155 22.6978H217.158C217.578 22.6978 217.922 23.0411 217.922 23.4607V29.0683C217.922 29.4498 217.578 29.7931 217.158 29.7931ZM211.155 23.4607V29.0683H217.158V23.4607H211.155Z" fill="#262727"/>
<path fill-rule="evenodd" clip-rule="evenodd" d="M227.557 29.4115H221.554C221.325 29.4115 221.172 29.2589 221.172 29.03V23.4606C221.172 23.2317 221.325 23.0791 221.554 23.0791H227.557C227.786 23.0791 227.939 23.2317 227.939 23.4606V29.0682C227.939 29.2589 227.748 29.4115 227.557 29.4115Z" fill="white"/>
<path d="M227.557 29.7931H221.554C221.134 29.7931 220.79 29.4498 220.79 29.0302V23.4607C220.79 23.0411 221.134 22.6978 221.554 22.6978H227.557C227.977 22.6978 228.321 23.0411 228.321 23.4607V29.0683C228.321 29.4498 227.977 29.7931 227.557 29.7931ZM221.516 23.4607V29.0683H227.518V23.4607H221.516Z" fill="#262727"/>
<path fill-rule="evenodd" clip-rule="evenodd" d="M238.185 29.4115H232.183C231.953 29.4115 231.8 29.2589 231.8 29.03V23.4606C231.8 23.2317 231.953 23.0791 232.183 23.0791H238.185C238.414 23.0791 238.567 23.2317 238.567 23.4606V29.0682C238.567 29.2589 238.376 29.4115 238.185 29.4115Z" fill="white"/>
<path d="M238.185 29.7931H232.183C231.762 29.7931 231.418 29.4498 231.418 29.0302V23.4607C231.418 23.0411 231.762 22.6978 232.183 22.6978H238.185C238.606 22.6978 238.95 23.0411 238.95 23.4607V29.0683C238.95 29.4498 238.606 29.7931 238.185 29.7931ZM232.145 23.4607V29.0683H238.147V23.4607H232.145Z" fill="#262727"/>
<path fill-rule="evenodd" clip-rule="evenodd" d="M297.177 157.434H280.317C279.897 157.434 279.552 157.091 279.552 156.671V152.093C279.552 151.674 279.897 151.33 280.317 151.33H297.177C297.598 151.33 297.942 151.674 297.942 152.093V156.671C297.942 157.091 297.598 157.434 297.177 157.434Z" fill="white"/>
<path d="M297.177 157.815H280.317C279.667 157.815 279.17 157.319 279.17 156.671V152.093C279.17 151.444 279.667 150.948 280.317 150.948H297.177C297.827 150.948 298.324 151.444 298.324 152.093V156.671C298.324 157.319 297.827 157.815 297.177 157.815ZM280.317 151.711C280.088 151.711 279.935 151.864 279.935 152.093V156.671C279.935 156.899 280.088 157.052 280.317 157.052H297.177C297.407 157.052 297.56 156.899 297.56 156.671V152.093C297.56 151.864 297.407 151.711 297.177 151.711H280.317Z" fill="#262727"/>
<path fill-rule="evenodd" clip-rule="evenodd" d="M153.119 174.065H123.604C123.183 174.065 122.839 173.722 122.839 173.302V137.292C122.839 136.872 123.183 136.529 123.604 136.529H153.119V174.065Z" fill="#649FA9"/>
<path fill-rule="evenodd" clip-rule="evenodd" d="M184.699 174.027H152.928V136.49H184.699C185.119 136.49 185.463 136.834 185.463 137.253V173.264C185.463 173.684 185.119 174.027 184.699 174.027Z" fill="#A3DAE4"/>
<path fill-rule="evenodd" clip-rule="evenodd" d="M170.4 155.411H158.471C158.051 155.411 157.707 155.068 157.707 154.648V141.297C157.707 140.877 158.051 140.534 158.471 140.534H170.4C170.82 140.534 171.164 140.877 171.164 141.297V154.648C171.164 155.068 170.82 155.411 170.4 155.411Z" fill="white"/>
<path d="M170.4 155.793H158.472C157.822 155.793 157.325 155.297 157.325 154.648V141.297C157.325 140.648 157.822 140.152 158.472 140.152H170.4C171.05 140.152 171.547 140.648 171.547 141.297V154.648C171.547 155.259 171.012 155.793 170.4 155.793ZM158.472 140.915C158.242 140.915 158.089 141.068 158.089 141.297V154.648C158.089 154.877 158.242 155.03 158.472 155.03H170.4C170.629 155.03 170.782 154.877 170.782 154.648V141.297C170.782 141.068 170.629 140.915 170.4 140.915H158.472Z" fill="#262727"/>
<path fill-rule="evenodd" clip-rule="evenodd" d="M144.402 162.278H132.474C132.053 162.278 131.709 161.934 131.709 161.515V148.163C131.709 147.743 132.053 147.4 132.474 147.4H144.402C144.823 147.4 145.167 147.743 145.167 148.163V161.515C145.167 161.934 144.823 162.278 144.402 162.278Z" fill="white"/>
<path d="M144.402 162.659H132.474C131.824 162.659 131.327 162.163 131.327 161.514V148.163C131.327 147.514 131.824 147.019 132.474 147.019H144.402C145.052 147.019 145.549 147.514 145.549 148.163V161.514C145.549 162.125 145.014 162.659 144.402 162.659ZM132.474 147.781C132.244 147.781 132.091 147.934 132.091 148.163V161.514C132.091 161.743 132.244 161.896 132.474 161.896H144.402C144.632 161.896 144.784 161.743 144.784 161.514V148.163C144.784 147.934 144.632 147.781 144.402 147.781H132.474Z" fill="#262727"/>
<path fill-rule="evenodd" clip-rule="evenodd" d="M170.4 172.693H158.471C158.051 172.693 157.707 172.349 157.707 171.93V161.401C157.707 160.982 158.051 160.638 158.471 160.638H170.4C170.82 160.638 171.164 160.982 171.164 161.401V171.93C171.164 172.349 170.82 172.693 170.4 172.693Z" fill="white"/>
<path d="M170.4 173.074H158.472C157.822 173.074 157.325 172.578 157.325 171.929V161.401C157.325 160.752 157.822 160.256 158.472 160.256H170.4C171.05 160.256 171.547 160.752 171.547 161.401V171.929C171.547 172.578 171.012 173.074 170.4 173.074ZM158.472 161.019C158.242 161.019 158.089 161.172 158.089 161.401V171.929C158.089 172.158 158.242 172.311 158.472 172.311H170.4C170.629 172.311 170.782 172.158 170.782 171.929V161.401C170.782 161.172 170.629 161.019 170.4 161.019H158.472Z" fill="#262727"/>
<path fill-rule="evenodd" clip-rule="evenodd" d="M182.71 155.411H175.331C174.911 155.411 174.567 155.068 174.567 154.648V141.373C174.567 140.954 174.911 140.61 175.331 140.61H182.71C183.131 140.61 183.475 140.954 183.475 141.373V154.648C183.475 155.068 183.131 155.411 182.71 155.411Z" fill="white"/>
<path d="M182.71 155.793H175.332C174.682 155.793 174.185 155.297 174.185 154.648V141.373C174.185 140.724 174.682 140.229 175.332 140.229H182.71C183.36 140.229 183.857 140.724 183.857 141.373V154.648C183.857 155.258 183.36 155.793 182.71 155.793ZM175.332 140.991C175.102 140.991 174.949 141.144 174.949 141.373V154.648C174.949 154.877 175.102 155.03 175.332 155.03H182.71C182.94 155.03 183.093 154.877 183.093 154.648V141.373C183.093 141.144 182.94 140.991 182.71 140.991H175.332Z" fill="#262727"/>
<path fill-rule="evenodd" clip-rule="evenodd" d="M182.978 172.959H175.599C175.179 172.959 174.835 172.616 174.835 172.196V164.948C174.835 162.507 176.823 160.485 179.308 160.485C181.755 160.485 183.781 162.469 183.781 164.948V172.196C183.743 172.616 183.399 172.959 182.978 172.959Z" fill="white"/>
<path d="M182.978 173.34H175.599C174.95 173.34 174.453 172.844 174.453 172.196V164.948C174.453 162.278 176.632 160.103 179.308 160.103C181.984 160.103 184.163 162.278 184.163 164.948V172.196C184.125 172.806 183.59 173.34 182.978 173.34ZM179.27 160.866C177.014 160.866 175.179 162.697 175.179 164.948V172.196C175.179 172.425 175.332 172.577 175.561 172.577H182.94C183.169 172.577 183.322 172.425 183.322 172.196V164.948C183.361 162.697 181.525 160.866 179.27 160.866Z" fill="#262727"/>
<path d="M181.64 169.716C182.041 169.716 182.367 169.392 182.367 168.991C182.367 168.591 182.041 168.267 181.64 168.267C181.239 168.267 180.914 168.591 180.914 168.991C180.914 169.392 181.239 169.716 181.64 169.716Z" fill="#FFB958"/>
<path d="M189.095 18.3103H205.994V14.8389H189.095C188.675 14.8389 188.331 15.1822 188.331 15.6018V17.5473C188.331 17.9669 188.675 18.3103 189.095 18.3103Z" fill="#649FA9"/>
<path d="M205.917 18.3103H244.952C245.373 18.3103 245.717 17.9669 245.717 17.5473V15.6018C245.717 15.1822 245.373 14.8389 244.952 14.8389H205.917V18.3103Z" fill="#A3DAE4"/>
<path d="M372.239 116.883L384.856 98.9535C384.97 98.7628 384.741 98.572 384.588 98.7246L371.474 112.381C371.436 112.419 371.436 112.458 371.436 112.534L371.933 116.806C371.971 116.959 372.163 117.035 372.239 116.883Z" fill="#50C6DB"/>
<path d="M372.774 124.016L382.524 143.662C382.6 143.853 382.906 143.738 382.829 143.548L377.056 125.542C377.056 125.504 377.018 125.466 376.942 125.428L372.927 123.826C372.851 123.711 372.698 123.864 372.774 124.016Z" fill="#50C6DB"/>
<path d="M365.74 119.973L343.795 118.905C343.565 118.905 343.527 119.21 343.756 119.248L362.337 123.024C362.375 123.024 362.452 123.024 362.49 122.986L365.854 120.278C365.969 120.202 365.893 120.011 365.74 119.973Z" fill="#50C6DB"/>
<path d="M371.819 174.104H368.339L368.722 123.902L371.016 123.864L371.819 174.104Z" fill="#A3DAE4"/>
<path d="M369.945 122.987C371.128 122.987 372.086 122.03 372.086 120.851C372.086 119.671 371.128 118.714 369.945 118.714C368.763 118.714 367.804 119.671 367.804 120.851C367.804 122.03 368.763 122.987 369.945 122.987Z" fill="#FFB958"/>
<path d="M369.869 123.864L370.022 174.103H368.339L368.722 123.902L369.869 123.864Z" fill="#8EB8BA"/>
<path d="M386.882 173.837C386.882 173.951 386.882 174.065 386.844 174.142H369.104C368.989 173.684 368.913 173.226 368.913 172.73C368.913 172.196 368.989 171.7 369.142 171.243C369.525 169.984 370.366 168.916 371.474 168.229C372.277 167.771 373.195 167.504 374.151 167.504C376.368 167.504 378.241 168.877 379.006 170.785C379.58 170.365 380.306 170.098 381.071 170.098C382.485 170.098 383.67 170.937 384.244 172.12C384.473 172.044 384.703 171.967 384.97 171.967C386.041 171.967 386.882 172.807 386.882 173.837Z" fill="#50C6DB"/>
<path d="M365.166 168.229C364.057 168.878 363.216 169.984 362.834 171.243C362.681 171.701 362.605 172.196 362.605 172.73C362.605 173.226 362.681 173.722 362.796 174.142H352.053C351.938 173.875 351.9 173.57 351.9 173.265C351.9 171.891 353.008 170.785 354.385 170.785C354.691 170.785 354.996 170.823 355.264 170.938C355.226 170.785 355.226 170.632 355.226 170.48C355.226 168.763 356.602 167.39 358.323 167.39C358.896 167.39 359.393 167.542 359.852 167.81C360.196 166.703 361.228 165.902 362.452 165.902C363.866 165.864 365.013 166.894 365.166 168.229Z" fill="#649FA9"/>
<path d="M377.553 173.837C377.553 173.951 377.553 174.065 377.515 174.142H359.776C359.661 173.684 359.584 173.226 359.584 172.73C359.584 172.196 359.661 171.7 359.814 171.243C360.196 169.984 361.037 168.916 362.146 168.229C362.949 167.771 363.866 167.504 364.822 167.504C367.04 167.504 368.913 168.877 369.678 170.785C370.251 170.365 370.978 170.098 371.742 170.098C373.157 170.098 374.342 170.937 374.915 172.12C375.145 172.044 375.374 171.967 375.642 171.967C376.712 171.967 377.553 172.807 377.553 173.837Z" fill="#50C6DB"/>
<path d="M361.916 173.531C361.84 173.226 361.764 172.883 361.764 172.539C361.764 172.196 361.802 171.853 361.916 171.509C362.184 170.632 362.758 169.907 363.522 169.449C364.096 169.106 364.707 168.953 365.357 168.953C366.695 168.953 367.919 169.678 368.531 170.823C368.875 170.67 369.257 170.556 369.639 170.556C370.633 170.556 371.513 171.128 371.933 172.005L371.245 172.31C370.939 171.7 370.328 171.28 369.639 171.28C369.257 171.28 368.875 171.395 368.569 171.624L368.187 171.929L367.995 171.471C367.575 170.365 366.504 169.678 365.357 169.678C364.86 169.678 364.325 169.831 363.905 170.098C363.293 170.479 362.834 171.051 362.643 171.738C362.566 172.005 362.528 172.272 362.528 172.539C362.528 172.806 362.566 173.073 362.643 173.302L361.916 173.531Z" fill="#262727"/>
<path d="M216.775 166.588H216.24V167.962H216.775V166.588Z" fill="white"/>
<path d="M205.229 174.218H190.548C190.128 174.218 189.784 173.874 189.784 173.455V89.4168C189.784 88.9971 190.128 88.6538 190.548 88.6538H205.229V174.218Z" fill="#649FA9"/>
<path d="M243.117 174.218H205.306V88.6543H243.117C243.538 88.6543 243.882 88.9976 243.882 89.4172V173.455C243.882 173.875 243.538 174.218 243.117 174.218Z" fill="#A3DAE4"/>
<path d="M235.356 88.6543H214.979V174.218H235.356V88.6543Z" fill="#FFF0D1"/>
<path fill-rule="evenodd" clip-rule="evenodd" d="M200.297 104.104H194.257C194.027 104.104 193.874 103.951 193.874 103.722V94.4906C193.874 94.2617 194.027 94.1091 194.257 94.1091H200.297C200.527 94.1091 200.68 94.2617 200.68 94.4906V103.722C200.68 103.951 200.527 104.104 200.297 104.104Z" fill="white"/>
<path d="M200.297 104.485H194.257C193.836 104.485 193.492 104.142 193.492 103.722V94.4905C193.492 94.0709 193.836 93.7275 194.257 93.7275H200.297C200.718 93.7275 201.062 94.0709 201.062 94.4905V103.722C201.062 104.142 200.718 104.485 200.297 104.485ZM194.257 94.5286V103.76H200.297V94.5286H194.257Z" fill="#262727"/>
<path fill-rule="evenodd" clip-rule="evenodd" d="M200.297 119.745H194.257C194.027 119.745 193.874 119.592 193.874 119.363V110.131C193.874 109.903 194.027 109.75 194.257 109.75H200.297C200.527 109.75 200.68 109.903 200.68 110.131V119.363C200.68 119.592 200.527 119.745 200.297 119.745Z" fill="white"/>
<path d="M200.297 120.126H194.257C193.836 120.126 193.492 119.782 193.492 119.363V110.131C193.492 109.711 193.836 109.368 194.257 109.368H200.297C200.718 109.368 201.062 109.711 201.062 110.131V119.363C201.062 119.782 200.718 120.126 200.297 120.126ZM194.257 110.169V119.401H200.297V110.169H194.257Z" fill="#262727"/>
<path fill-rule="evenodd" clip-rule="evenodd" d="M200.297 136.528H194.257C194.027 136.528 193.874 136.376 193.874 136.147V126.915C193.874 126.687 194.027 126.534 194.257 126.534H200.297C200.527 126.534 200.68 126.687 200.68 126.915V136.147C200.68 136.376 200.527 136.528 200.297 136.528Z" fill="white"/>
<path d="M200.297 136.91H194.257C193.836 136.91 193.492 136.567 193.492 136.147V126.916C193.492 126.496 193.836 126.153 194.257 126.153H200.297C200.718 126.153 201.062 126.496 201.062 126.916V136.147C201.062 136.567 200.718 136.91 200.297 136.91ZM194.257 126.954V136.185H200.297V126.954H194.257Z" fill="#262727"/>
<path fill-rule="evenodd" clip-rule="evenodd" d="M200.297 151.94H194.257C194.027 151.94 193.874 151.788 193.874 151.559V142.327C193.874 142.098 194.027 141.946 194.257 141.946H200.297C200.527 141.946 200.68 142.098 200.68 142.327V151.559C200.68 151.75 200.527 151.94 200.297 151.94Z" fill="white"/>
<path d="M200.297 152.321H194.257C193.836 152.321 193.492 151.978 193.492 151.558V142.327C193.492 141.907 193.836 141.564 194.257 141.564H200.297C200.718 141.564 201.062 141.907 201.062 142.327V151.558C201.062 151.978 200.718 152.321 200.297 152.321ZM194.257 142.327V151.558H200.297V142.327H194.257Z" fill="#262727"/>
<path fill-rule="evenodd" clip-rule="evenodd" d="M230.424 104.104H219.91C219.681 104.104 219.528 103.951 219.528 103.722V94.4906C219.528 94.2617 219.681 94.1091 219.91 94.1091H230.424C230.653 94.1091 230.806 94.2617 230.806 94.4906V103.722C230.806 103.951 230.653 104.104 230.424 104.104Z" fill="white"/>
<path d="M230.424 104.485H219.911C219.49 104.485 219.146 104.142 219.146 103.722V94.4905C219.146 94.0709 219.49 93.7275 219.911 93.7275H230.424C230.845 93.7275 231.189 94.0709 231.189 94.4905V103.722C231.189 104.142 230.845 104.485 230.424 104.485ZM219.911 94.5286V103.76H230.424V94.5286H219.911Z" fill="#262727"/>
<path fill-rule="evenodd" clip-rule="evenodd" d="M230.424 119.744H219.91C219.681 119.744 219.528 119.591 219.528 119.362V110.13C219.528 109.902 219.681 109.749 219.91 109.749H230.424C230.653 109.749 230.806 109.902 230.806 110.13V119.362C230.806 119.591 230.653 119.744 230.424 119.744Z" fill="white"/>
<path d="M230.424 120.125H219.911C219.49 120.125 219.146 119.781 219.146 119.362V110.13C219.146 109.711 219.49 109.367 219.911 109.367H230.424C230.845 109.367 231.189 109.711 231.189 110.13V119.362C231.189 119.781 230.845 120.125 230.424 120.125ZM219.911 110.168V119.4H230.424V110.168H219.911Z" fill="#262727"/>
<path fill-rule="evenodd" clip-rule="evenodd" d="M230.424 136.528H219.91C219.681 136.528 219.528 136.376 219.528 136.147V126.915C219.528 126.686 219.681 126.534 219.91 126.534H230.424C230.653 126.534 230.806 126.686 230.806 126.915V136.147C230.806 136.376 230.653 136.528 230.424 136.528Z" fill="white"/>
<path d="M230.424 136.91H219.911C219.49 136.91 219.146 136.567 219.146 136.147V126.915C219.146 126.496 219.49 126.152 219.911 126.152H230.424C230.845 126.152 231.189 126.496 231.189 126.915V136.147C231.189 136.567 230.845 136.91 230.424 136.91ZM219.911 126.953V136.185H230.424V126.953H219.911Z" fill="#262727"/>
<path fill-rule="evenodd" clip-rule="evenodd" d="M230.424 151.94H219.91C219.681 151.94 219.528 151.788 219.528 151.559V142.327C219.528 142.098 219.681 141.946 219.91 141.946H230.424C230.653 141.946 230.806 142.098 230.806 142.327V151.559C230.806 151.749 230.653 151.94 230.424 151.94Z" fill="white"/>
<path d="M230.424 152.321H219.911C219.49 152.321 219.146 151.978 219.146 151.558V142.326C219.146 141.907 219.49 141.563 219.911 141.563H230.424C230.845 141.563 231.189 141.907 231.189 142.326V151.558C231.189 151.978 230.845 152.321 230.424 152.321ZM219.911 142.326V151.558H230.424V142.326H219.911Z" fill="#262727"/>
<path fill-rule="evenodd" clip-rule="evenodd" d="M223.389 172.578H216.393C216.164 172.578 216.011 172.426 216.011 172.197V160.867C216.011 160.638 216.164 160.486 216.393 160.486H223.389C223.619 160.486 223.772 160.638 223.772 160.867V172.197C223.772 172.387 223.619 172.578 223.389 172.578Z" fill="white"/>
<path d="M223.39 172.959H216.393C215.973 172.959 215.628 172.616 215.628 172.196V160.866C215.628 160.447 215.973 160.103 216.393 160.103H223.39C223.81 160.103 224.154 160.447 224.154 160.866V172.196C224.154 172.616 223.81 172.959 223.39 172.959ZM216.393 160.866V172.196H223.39V160.866H216.393Z" fill="#262727"/>
<path fill-rule="evenodd" clip-rule="evenodd" d="M233.865 172.578H226.869C226.639 172.578 226.486 172.426 226.486 172.197V160.867C226.486 160.638 226.639 160.486 226.869 160.486H233.865C234.094 160.486 234.247 160.638 234.247 160.867V172.197C234.247 172.387 234.056 172.578 233.865 172.578Z" fill="white"/>
<path d="M233.865 172.959H226.869C226.448 172.959 226.104 172.616 226.104 172.196V160.866C226.104 160.447 226.448 160.103 226.869 160.103H233.865C234.286 160.103 234.63 160.447 234.63 160.866V172.196C234.63 172.616 234.286 172.959 233.865 172.959ZM226.83 160.866V172.196H233.827V160.866H226.83Z" fill="#262727"/>
<path d="M228.551 168.229C228.36 168.229 228.169 168.076 228.169 167.848V167.237C228.169 167.046 228.322 166.856 228.551 166.856C228.742 166.856 228.933 167.008 228.933 167.237V167.848C228.933 168.038 228.78 168.229 228.551 168.229Z" fill="#FFB958"/>
<path d="M221.822 168.229C221.631 168.229 221.44 168.076 221.44 167.848V167.237C221.44 167.046 221.593 166.856 221.822 166.856C222.013 166.856 222.204 167.008 222.204 167.237V167.848C222.166 168.038 222.013 168.229 221.822 168.229Z" fill="#FFB958"/>
<path d="M315.376 17.3188C320.169 17.3188 324.054 13.4418 324.054 8.65939C324.054 3.87694 320.169 0 315.376 0C310.583 0 306.697 3.87694 306.697 8.65939C306.697 13.4418 310.583 17.3188 315.376 17.3188Z" fill="#FFB958"/>
<path d="M277.985 19.6847H296.757C297.712 18.8836 298.362 17.7011 298.362 16.3659C298.362 14.0008 296.451 12.0935 294.08 12.0935C293.851 12.0935 293.621 12.0935 293.43 12.1316C293.163 9.80463 291.213 8.01172 288.804 8.01172C286.931 8.01172 285.325 9.11798 284.599 10.682C284.484 10.682 284.408 10.682 284.293 10.682C282.917 10.682 281.77 11.6357 281.54 12.9327C281.196 12.8183 280.814 12.7801 280.431 12.7801C278.29 12.7801 276.57 14.4967 276.57 16.633C276.532 17.8537 277.105 18.9599 277.985 19.6847Z" fill="white"/>
<path d="M296.871 20.0662H277.832L277.717 19.9899C276.685 19.1888 276.111 17.9681 276.111 16.6711C276.111 14.3441 278.023 12.4368 280.355 12.4368C280.623 12.4368 280.929 12.4749 281.196 12.5131C281.617 11.2161 282.917 10.3005 284.331 10.3387C285.211 8.73651 286.893 7.70654 288.766 7.70654C291.175 7.70654 293.239 9.42316 293.698 11.7883C293.813 11.7883 293.927 11.7883 294.042 11.7883C296.604 11.7883 298.706 13.8864 298.706 16.4422C298.706 17.8537 298.095 19.1507 296.986 20.0662H296.871ZM278.138 19.3033H296.604C297.445 18.5785 297.942 17.5103 297.942 16.3659C297.942 14.2297 296.183 12.4749 294.042 12.4749C293.851 12.4749 293.622 12.4749 293.43 12.5131L293.048 12.5894L293.01 12.2079C292.78 10.0717 290.945 8.43134 288.766 8.43134C287.122 8.43134 285.593 9.38501 284.905 10.8728L284.79 11.1016L284.522 11.0635C284.446 11.0635 284.331 11.0635 284.255 11.0635C283.108 11.0635 282.076 11.9027 281.884 13.009L281.808 13.4286L281.387 13.3142C281.043 13.1997 280.737 13.1616 280.393 13.1616C278.482 13.1616 276.914 14.7256 276.914 16.633C276.914 17.6629 277.335 18.6166 278.138 19.3033Z" fill="#262727"/>
<path d="M332.504 21.9742C331.165 20.7917 330.286 19.0751 330.286 17.1296C330.286 13.7345 332.962 10.9497 336.327 10.7208C336.977 7.55463 339.768 5.15137 343.17 5.15137C346.841 5.15137 349.861 7.97425 350.129 11.5601C351.887 11.9797 353.302 13.2386 353.875 14.917C354.372 14.7263 354.908 14.6118 355.443 14.6118C357.89 14.6118 359.878 16.5955 359.878 19.0369C359.878 20.1432 359.457 21.1731 358.769 21.9361H332.504V21.9742Z" fill="white"/>
<path d="M358.96 22.3548H332.389L332.274 22.2785C330.783 20.9815 329.942 19.1123 329.942 17.1668C329.942 13.6954 332.58 10.7581 336.021 10.4148C336.824 7.1341 339.768 4.80713 343.17 4.80713C346.917 4.80713 350.052 7.63001 350.473 11.3303C352.117 11.788 353.417 12.9706 354.105 14.5346C354.564 14.4202 354.984 14.3439 355.443 14.3439C358.081 14.3439 360.26 16.4801 360.26 19.1504C360.26 20.2948 359.84 21.4393 359.075 22.2785L358.96 22.3548ZM332.657 21.5918H358.578C359.151 20.8671 359.457 19.9897 359.457 19.0741C359.457 16.8616 357.66 15.0305 355.405 15.0305C354.908 15.0305 354.411 15.1068 353.952 15.2976L353.57 15.4502L353.455 15.0687C352.881 13.5047 351.581 12.3221 349.976 11.9406L349.708 11.8643L349.67 11.5973C349.402 8.20222 346.535 5.53192 343.094 5.53192C339.959 5.53192 337.244 7.74445 336.633 10.7962L336.556 11.1014H336.25C333.077 11.2921 330.592 13.9243 330.592 17.1286C330.669 18.8071 331.395 20.4474 332.657 21.5918Z" fill="#262727"/>
</svg>
