<?xml version="1.0" encoding="utf-8"?>
<!-- Generator: Adobe Illustrator 25.4.1, SVG Export Plug-In . SVG Version: 6.00 Build 0)  -->
<svg version="1.1" id="Layer_1" xmlns="http://www.w3.org/2000/svg" xmlns:xlink="http://www.w3.org/1999/xlink" x="0px" y="0px"
	 viewBox="0 0 1920 581" style="enable-background:new 0 0 1920 581;" xml:space="preserve">
<style type="text/css">
	.st0{fill:#262727;}
	.st1{fill:none;}
	.st2{fill:#ECF5F9;}
	.st3{fill-rule:evenodd;clip-rule:evenodd;fill:#ECF5F9;}
	.st4{fill-rule:evenodd;clip-rule:evenodd;fill:#649FA9;}
	.st5{fill-rule:evenodd;clip-rule:evenodd;fill:#50C6DB;}
	.st6{fill-rule:evenodd;clip-rule:evenodd;fill:#FFFFFF;}
	.st7{fill:#649FA9;}
	.st8{fill:#A3DAE4;}
	.st9{fill:#50C6DB;}
	.st10{fill:#FFB958;}
	.st11{fill:#FFFFFF;}
	.st12{fill-rule:evenodd;clip-rule:evenodd;fill:#262727;}
	.st13{fill:#8CE1E7;filter:url(#Adobe_OpacityMaskFilter);}
	.st14{mask:url(#mask1_1919_1293_00000023998825559377360640000014261145996843993489_);}
	.st15{fill:#FFF0D1;}
	.st16{fill:#FFD67E;}
	.st17{fill-rule:evenodd;clip-rule:evenodd;fill:#A3DAE4;}
	.st18{fill-rule:evenodd;clip-rule:evenodd;fill:#FFB958;}
	.st19{fill-rule:evenodd;clip-rule:evenodd;fill:#FFFFFF;stroke:#262727;stroke-width:2;}
	.st20{fill:#8EB8BA;}
	.st21{fill-rule:evenodd;clip-rule:evenodd;fill:#FFF0D1;}
</style>
<g>
	<g>
		<g>
			<polygon class="st0" points="340.9,407.5 256.4,466.5 252.9,466.5 339.3,406.2 			"/>
		</g>
	</g>
	<g>
		<g>
			<polygon class="st0" points="347.2,412.3 269.5,466.5 266,466.5 345.5,411 			"/>
		</g>
	</g>
	<g>
		<g>
			<polygon class="st0" points="353.4,417.1 282.6,466.5 279.1,466.5 351.7,415.8 			"/>
		</g>
	</g>
	<g>
		<g>
			<polygon class="st0" points="359.6,421.9 295.7,466.5 292.2,466.5 358,420.6 			"/>
		</g>
	</g>
	<g>
		<g>
			<polygon class="st0" points="365.8,426.7 308.8,466.5 305.2,466.5 364.2,425.4 			"/>
		</g>
	</g>
	<g>
		<g>
			<polygon class="st0" points="372,431.5 321.8,466.5 318.3,466.5 370.4,430.2 			"/>
		</g>
	</g>
	<g>
		<g>
			<polygon class="st0" points="378.3,436.2 334.9,466.5 331.4,466.5 376.6,435 			"/>
		</g>
	</g>
	<g>
		<g>
			<polygon class="st0" points="384.5,441 348,466.5 344.5,466.5 382.8,439.8 			"/>
		</g>
	</g>
	<g>
		<g>
			<polygon class="st0" points="390.7,445.8 361.1,466.5 357.6,466.5 389,444.5 			"/>
		</g>
	</g>
	<g>
		<g>
			<polygon class="st0" points="396.9,450.6 374.2,466.5 370.7,466.5 395.3,449.3 			"/>
		</g>
	</g>
	<g>
		<g>
			<polygon class="st0" points="403.2,455.4 387.3,466.5 383.8,466.5 401.5,454.1 			"/>
		</g>
	</g>
	<g>
		<g>
			<polygon class="st0" points="409.4,460.2 400.4,466.5 396.9,466.5 407.7,458.9 			"/>
		</g>
	</g>
	<g>
		<g>
			<polygon class="st0" points="415.6,465 413.5,466.5 410,466.5 413.9,463.7 			"/>
		</g>
	</g>
	<g>
		<g>
			<polygon class="st1" points="417.5,466.5 248.2,466.5 334.9,402.8 339.3,406.2 340.9,407.5 345.5,411 347.2,412.3 351.7,415.8 
				353.4,417.1 358,420.6 359.6,421.9 364.2,425.4 365.8,426.7 370.4,430.2 372,431.5 376.6,435 378.3,436.2 382.8,439.8 384.5,441 
				389,444.5 390.7,445.8 395.3,449.3 396.9,450.6 401.5,454.1 403.2,455.4 407.7,458.9 409.4,460.2 413.9,463.7 415.6,465 			"/>
		</g>
	</g>
	<g>
		<path class="st2" d="M338.9,466.9h324.7L504.7,356.5c-7.6-5.3-17.8-5-25.1,0.7L338.9,466.9z"/>
	</g>
	<g>
		<path class="st2" d="M860.9,466.8H583.1l103.7-82.6c5.5-4.3,10.7-6.5,16.2-3.5L860.9,466.8z"/>
	</g>
	<g>
		<g>
			<path class="st2" d="M1638.5,303.7v76.4c0,0.9,0.7,1.6,1.6,1.6h63.6c0.9,0,1.6-0.7,1.6-1.6v-38.8c0-0.6-0.3-1.1-0.8-1.4
				l-63.6-37.6C1639.9,301.7,1638.5,302.4,1638.5,303.7z M1674.7,351.2c0-0.4,0.3-0.6,0.6-0.6h14.3c0.4,0,0.6,0.3,0.6,0.6v17.3
				c0,0.4-0.3,0.6-0.6,0.6h-14.3c-0.4,0-0.6-0.3-0.6-0.6V351.2z M1650.6,351.2c0-0.4,0.3-0.6,0.6-0.6h14.3c0.4,0,0.6,0.3,0.6,0.6
				v17.3c0,0.4-0.3,0.6-0.6,0.6h-14.3c-0.4,0-0.6-0.3-0.6-0.6V351.2z"/>
		</g>
		<g>
			<path class="st3" d="M1638.1,389.8v75.6c0,0.7,0.6,1.3,1.3,1.3h139.1c0.7,0,1.3-0.6,1.3-1.3v-75.6c0-0.7-0.6-1.3-1.3-1.3h-139.1
				C1638.7,388.5,1638.1,389.1,1638.1,389.8z M1745.3,437.3c0-0.4,0.3-0.6,0.6-0.6h18.5c0.4,0,0.6,0.3,0.6,0.6v17.3
				c0,0.4-0.3,0.6-0.6,0.6h-18.5c-0.4,0-0.6-0.3-0.6-0.6V437.3z M1745.3,407.6c0-0.4,0.3-0.6,0.6-0.6h18.5c0.4,0,0.6,0.3,0.6,0.6
				v17.3c0,0.4-0.3,0.6-0.6,0.6h-18.5c-0.4,0-0.6-0.3-0.6-0.6V407.6z M1715,437.3c0-0.4,0.3-0.6,0.6-0.6h18.5c0.4,0,0.6,0.3,0.6,0.6
				v17.3c0,0.4-0.3,0.6-0.6,0.6h-18.5c-0.4,0-0.6-0.3-0.6-0.6V437.3z M1715,407.6c0-0.4,0.3-0.6,0.6-0.6h18.5c0.4,0,0.6,0.3,0.6,0.6
				v17.3c0,0.4-0.3,0.6-0.6,0.6h-18.5c-0.4,0-0.6-0.3-0.6-0.6V407.6z M1683.9,437.3c0-0.4,0.3-0.6,0.6-0.6h18.5
				c0.4,0,0.6,0.3,0.6,0.6v17.3c0,0.4-0.3,0.6-0.6,0.6h-18.5c-0.4,0-0.6-0.3-0.6-0.6V437.3z M1683.9,407.6c0-0.4,0.3-0.6,0.6-0.6
				h18.5c0.4,0,0.6,0.3,0.6,0.6v17.3c0,0.4-0.3,0.6-0.6,0.6h-18.5c-0.4,0-0.6-0.3-0.6-0.6V407.6z M1651.8,437.3
				c0-0.4,0.3-0.6,0.6-0.6h18.5c0.4,0,0.6,0.3,0.6,0.6v17.3c0,0.4-0.3,0.6-0.6,0.6h-18.5c-0.4,0-0.6-0.3-0.6-0.6V437.3z
				 M1651.8,407.6c0-0.4,0.3-0.6,0.6-0.6h18.5c0.4,0,0.6,0.3,0.6,0.6v17.3c0,0.4-0.3,0.6-0.6,0.6h-18.5c-0.4,0-0.6-0.3-0.6-0.6
				V407.6z"/>
		</g>
	</g>
	<g>
		<path class="st3" d="M1151.3,270.8H1039v195.6h112.3c0.6,0,1-0.5,1-1V271.8C1152.3,271.2,1151.9,270.8,1151.3,270.8z
			 M1080.4,446.4c0,0.3-0.2,0.5-0.5,0.5h-16.7c-0.3,0-0.5-0.2-0.5-0.5v-37.8c0-0.3,0.2-0.5,0.5-0.5h16.7c0.3,0,0.5,0.2,0.5,0.5
			V446.4z M1080.4,389c0,0.3-0.2,0.5-0.5,0.5h-16.7c-0.3,0-0.5-0.2-0.5-0.5v-37.8c0-0.3,0.2-0.5,0.5-0.5h16.7c0.3,0,0.5,0.2,0.5,0.5
			V389z M1080.4,331.6c0,0.3-0.2,0.5-0.5,0.5h-16.7c-0.3,0-0.5-0.2-0.5-0.5v-37.8c0-0.3,0.2-0.5,0.5-0.5h16.7c0.3,0,0.5,0.2,0.5,0.5
			V331.6z M1107.5,446.4c0,0.3-0.2,0.5-0.5,0.5h-16.7c-0.3,0-0.5-0.2-0.5-0.5v-37.8c0-0.3,0.2-0.5,0.5-0.5h16.7
			c0.3,0,0.5,0.2,0.5,0.5V446.4z M1107.5,389c0,0.3-0.2,0.5-0.5,0.5h-16.7c-0.3,0-0.5-0.2-0.5-0.5v-37.8c0-0.3,0.2-0.5,0.5-0.5h16.7
			c0.3,0,0.5,0.2,0.5,0.5V389z M1107.5,331.6c0,0.3-0.2,0.5-0.5,0.5h-16.7c-0.3,0-0.5-0.2-0.5-0.5v-37.8c0-0.3,0.2-0.5,0.5-0.5h16.7
			c0.3,0,0.5,0.2,0.5,0.5V331.6z M1135.3,446.4c0,0.3-0.2,0.5-0.5,0.5h-16.7c-0.3,0-0.5-0.2-0.5-0.5v-37.8c0-0.3,0.2-0.5,0.5-0.5
			h16.7c0.3,0,0.5,0.2,0.5,0.5V446.4z M1135.3,389c0,0.3-0.2,0.5-0.5,0.5h-16.7c-0.3,0-0.5-0.2-0.5-0.5v-37.8c0-0.3,0.2-0.5,0.5-0.5
			h16.7c0.3,0,0.5,0.2,0.5,0.5V389z M1135.3,331.6c0,0.3-0.2,0.5-0.5,0.5h-16.7c-0.3,0-0.5-0.2-0.5-0.5v-37.8c0-0.3,0.2-0.5,0.5-0.5
			h16.7c0.3,0,0.5,0.2,0.5,0.5V331.6z"/>
	</g>
	<g>
		<g>
			<path class="st4" d="M1238.1,362.6h-77.2c-1.1,0-2-0.9-2-2V190.8c0-1.1,0.9-2,2-2h77.2V362.6z"/>
		</g>
		<g>
			<path class="st5" d="M1321.2,362.6h-83.1V188.8l84.8-50.1l0.2,221.9C1323.2,361.7,1322.3,362.6,1321.2,362.6z"/>
		</g>
		<g>
			<g>
				<path class="st6" d="M1269.6,243.3h-14c-0.6,0-1-0.4-1-1v-32.5c0-0.6,0.4-1,1-1h14c0.6,0,1,0.4,1,1v32.5
					C1270.6,242.8,1270.2,243.3,1269.6,243.3z"/>
				<path class="st0" d="M1269.6,244.3h-14c-1.1,0-2-0.9-2-2v-32.5c0-1.1,0.9-2,2-2h14c1.1,0,2,0.9,2,2v32.5
					C1271.6,243.4,1270.7,244.3,1269.6,244.3z M1255.6,209.7v32.5h14l0-32.5H1255.6z"/>
			</g>
			<g>
				<path class="st6" d="M1310.8,243.3h-14c-0.6,0-1-0.4-1-1v-32.5c0-0.6,0.4-1,1-1h14c0.6,0,1,0.4,1,1v32.5
					C1311.8,242.8,1311.3,243.3,1310.8,243.3z"/>
				<path class="st0" d="M1310.8,244.3h-14c-1.1,0-2-0.9-2-2v-32.5c0-1.1,0.9-2,2-2h14c1.1,0,2,0.9,2,2v32.5
					C1312.8,243.4,1311.9,244.3,1310.8,244.3z M1296.8,209.7v32.5h14l0-32.5H1296.8z"/>
			</g>
			<g>
				<path class="st6" d="M1269.6,294.3h-14c-0.6,0-1-0.4-1-1v-32.5c0-0.6,0.4-1,1-1h14c0.6,0,1,0.4,1,1v32.5
					C1270.6,293.8,1270.2,294.3,1269.6,294.3z"/>
				<path class="st0" d="M1269.6,295.3h-14c-1.1,0-2-0.9-2-2v-32.5c0-1.1,0.9-2,2-2h14c1.1,0,2,0.9,2,2v32.5
					C1271.6,294.4,1270.7,295.3,1269.6,295.3z M1255.6,260.8v32.5h14l0-32.5H1255.6z"/>
			</g>
			<g>
				<path class="st6" d="M1310.8,294.3h-14c-0.6,0-1-0.4-1-1v-32.5c0-0.6,0.4-1,1-1h14c0.6,0,1,0.4,1,1v32.5
					C1311.8,293.8,1311.3,294.3,1310.8,294.3z"/>
				<path class="st0" d="M1310.8,295.3h-14c-1.1,0-2-0.9-2-2v-32.5c0-1.1,0.9-2,2-2h14c1.1,0,2,0.9,2,2v32.5
					C1312.8,294.4,1311.9,295.3,1310.8,295.3z M1296.8,260.8v32.5h14l0-32.5H1296.8z"/>
			</g>
			<g>
				<path class="st6" d="M1269.6,345.3h-14c-0.6,0-1-0.4-1-1v-32.5c0-0.6,0.4-1,1-1h14c0.6,0,1,0.4,1,1v32.5
					C1270.6,344.9,1270.2,345.3,1269.6,345.3z"/>
				<path class="st0" d="M1269.6,346.3h-14c-1.1,0-2-0.9-2-2v-32.5c0-1.1,0.9-2,2-2h14c1.1,0,2,0.9,2,2v32.5
					C1271.6,345.4,1270.7,346.3,1269.6,346.3z M1255.6,311.8v32.5h14l0-32.5H1255.6z"/>
			</g>
			<g>
				<path class="st6" d="M1310.8,345.3h-14c-0.6,0-1-0.4-1-1v-32.5c0-0.6,0.4-1,1-1h14c0.6,0,1,0.4,1,1v32.5
					C1311.8,344.9,1311.3,345.3,1310.8,345.3z"/>
				<path class="st0" d="M1310.8,346.3h-14c-1.1,0-2-0.9-2-2v-32.5c0-1.1,0.9-2,2-2h14c1.1,0,2,0.9,2,2v32.5
					C1312.8,345.4,1311.9,346.3,1310.8,346.3z M1296.8,311.8v32.5h14l0-32.5H1296.8z"/>
			</g>
		</g>
		<g>
			<g>
				<g>
					<path class="st6" d="M1206.2,243.3h-14c-0.6,0-1-0.4-1-1v-32.5c0-0.6,0.4-1,1-1h14c0.6,0,1,0.4,1,1v32.5
						C1207.2,242.8,1206.7,243.3,1206.2,243.3z"/>
					<path class="st0" d="M1206.2,244.3h-14c-1.1,0-2-0.9-2-2v-32.5c0-1.1,0.9-2,2-2h14c1.1,0,2,0.9,2,2v32.5
						C1208.2,243.4,1207.3,244.3,1206.2,244.3z M1192.2,209.7v32.5h14l0-32.5H1192.2z"/>
				</g>
			</g>
			<g>
				<g>
					<path class="st6" d="M1207.3,294.3h-14c-0.6,0-1-0.4-1-1v-32.5c0-0.6,0.4-1,1-1h14c0.6,0,1,0.4,1,1v32.5
						C1208.3,293.8,1207.9,294.3,1207.3,294.3z"/>
					<path class="st0" d="M1207.3,295.3h-14c-1.1,0-2-0.9-2-2v-32.5c0-1.1,0.9-2,2-2h14c1.1,0,2,0.9,2,2v32.5
						C1209.3,294.4,1208.4,295.3,1207.3,295.3z M1193.3,260.8v32.5h14l0-32.5H1193.3z"/>
				</g>
			</g>
			<g>
				<g>
					<path class="st6" d="M1208.5,345.3h-14c-0.6,0-1-0.4-1-1v-32.5c0-0.6,0.4-1,1-1h14c0.6,0,1,0.4,1,1v32.5
						C1209.5,344.9,1209,345.3,1208.5,345.3z"/>
					<path class="st0" d="M1208.5,346.3h-14c-1.1,0-2-0.9-2-2v-32.5c0-1.1,0.9-2,2-2h14c1.1,0,2,0.9,2,2v32.5
						C1210.5,345.4,1209.6,346.3,1208.5,346.3z M1194.5,311.8v32.5h14l0-32.5H1194.5z"/>
				</g>
			</g>
		</g>
	</g>
	<g>
		<g>
			<path class="st7" d="M1248.1,114.3v11.8c0,0.4-0.2,0.8-0.6,1.1l-8.8,5.2c-0.1,0-0.1,0.1-0.2,0.1l-84.7,50c-0.8,0.5-1.9-0.1-1.9-1
				l-0.3-11.9c0-0.5,0.2-0.9,0.6-1.1l8.7-5.1c0,0,0,0,0,0c0.1-0.1,0.2-0.1,0.3-0.2l85-50h1.2
				C1247.8,113.4,1248.1,113.8,1248.1,114.3z"/>
		</g>
		<g>
			<polygon class="st7" points="1329.8,113.2 1328.6,126.2 1237.4,182.6 1153.8,182.6 1246.2,113.2 			"/>
		</g>
		<g>
			<path class="st8" d="M1235.2,169.6l0.3,11.9c0,1,1.1,1.5,1.9,1l84.7-50c0.1,0,0.1-0.1,0.2-0.1l8.8-5.2c0.4-0.2,0.6-0.6,0.6-1.1
				v-11.8c0-1-1.1-1.6-1.9-1.1l-85,50c-0.1,0.1-0.2,0.1-0.3,0.2c0,0,0,0,0,0l-8.7,5.1C1235.4,168.7,1235.2,169.2,1235.2,169.6z"/>
		</g>
	</g>
	<g>
		<g>
			<g>
				<path class="st0" d="M777.6,466.8L777.6,466.8c-0.6,0-1-0.4-1-1l0-10.9c0-0.6,0.4-1,1-1l0,0c0.6,0,1,0.4,1,1l0,10.9
					C778.6,466.3,778.2,466.8,777.6,466.8z"/>
			</g>
		</g>
		<g>
			<path class="st0" d="M760.2,427.4v0.8c0,0.6-0.5,1.1-1.1,1.1h-0.8c0,0-0.1,0-0.1,0c0.2-1.1,0.5-2.1,0.9-3.1
				C759.7,426.2,760.2,426.7,760.2,427.4z"/>
		</g>
		<g>
			<path class="st0" d="M760.2,433.8v0.8c0,0.6-0.5,1.1-1.1,1.1h-0.8c-0.2,0-0.4-0.1-0.5-0.1c-0.1-0.6-0.1-1.2-0.1-1.9
				c0-0.3,0-0.6,0-0.9c0.2-0.1,0.4-0.2,0.6-0.2h0.8C759.7,432.7,760.2,433.2,760.2,433.8z"/>
		</g>
		<g>
			<path class="st0" d="M760.2,440.3v0.8c0,0.5-0.3,0.9-0.8,1.1c-0.4-1-0.8-2-1.1-3h0.7C759.7,439.2,760.2,439.7,760.2,440.3z"/>
		</g>
		<g>
			<path class="st0" d="M765.5,420.9v0.8c0,0.6-0.5,1.1-1.1,1.1h-0.8c-0.6,0-1.1-0.5-1.1-1.1v-0.8c0-0.2,0-0.4,0.1-0.5
				c0.1-0.1,0.2-0.3,0.3-0.4c0,0,0,0,0,0c0.2-0.1,0.4-0.2,0.6-0.2h0.8C765,419.7,765.5,420.3,765.5,420.9z"/>
		</g>
		<g>
			<path class="st0" d="M765.5,427.4v0.8c0,0.6-0.5,1.1-1.1,1.1h-0.8c-0.6,0-1.1-0.5-1.1-1.1v-0.8c0-0.6,0.5-1.1,1.1-1.1h0.8
				C765,426.2,765.5,426.7,765.5,427.4z"/>
		</g>
		<g>
			<path class="st0" d="M765.5,433.8v0.8c0,0.6-0.5,1.1-1.1,1.1h-0.8c-0.6,0-1.1-0.5-1.1-1.1v-0.8c0-0.6,0.5-1.1,1.1-1.1h0.8
				C765,432.7,765.5,433.2,765.5,433.8z"/>
		</g>
		<g>
			<path class="st0" d="M765.5,440.3v0.8c0,0.6-0.5,1.1-1.1,1.1h-0.8c-0.6,0-1.1-0.5-1.1-1.1v-0.8c0-0.6,0.5-1.1,1.1-1.1h0.8
				C765,439.2,765.5,439.7,765.5,440.3z"/>
		</g>
		<g>
			<path class="st0" d="M765.5,446.8v0.8c0,0.6-0.5,1.1-1.1,1.1H764c-0.5-0.5-1.1-1.1-1.5-1.7v-0.3c0-0.6,0.5-1.1,1.1-1.1h0.8
				C765,445.7,765.5,446.2,765.5,446.8z"/>
		</g>
		<g>
			<path class="st0" d="M770.9,453.2c-0.7-0.3-1.5-0.6-2.1-1c0.1,0,0.1,0,0.2,0h0.8C770.3,452.2,770.8,452.6,770.9,453.2z"/>
		</g>
		<g>
			<path class="st0" d="M768,415.8c0.9-0.5,1.9-1,2.9-1.4v0.7c0,0.6-0.5,1.1-1.1,1.1h-0.8C768.5,416.3,768.2,416.1,768,415.8z"/>
		</g>
		<g>
			<path class="st0" d="M770.9,420.9v0.8c0,0.6-0.5,1.1-1.1,1.1h-0.8c-0.6,0-1.1-0.5-1.1-1.1v-0.8c0-0.6,0.5-1.1,1.1-1.1h0.8
				C770.4,419.7,770.9,420.3,770.9,420.9z"/>
		</g>
		<g>
			<path class="st0" d="M770.9,427.4v0.8c0,0.6-0.5,1.1-1.1,1.1h-0.8c-0.6,0-1.1-0.5-1.1-1.1v-0.8c0-0.6,0.5-1.1,1.1-1.1h0.8
				C770.4,426.2,770.9,426.7,770.9,427.4z"/>
		</g>
		<g>
			<path class="st0" d="M770.9,433.8v0.8c0,0.6-0.5,1.1-1.1,1.1h-0.8c-0.6,0-1.1-0.5-1.1-1.1v-0.8c0-0.6,0.5-1.1,1.1-1.1h0.8
				C770.4,432.7,770.9,433.2,770.9,433.8z"/>
		</g>
		<g>
			<path class="st0" d="M770.9,440.3v0.8c0,0.6-0.5,1.1-1.1,1.1h-0.8c-0.6,0-1.1-0.5-1.1-1.1v-0.8c0-0.6,0.5-1.1,1.1-1.1h0.8
				C770.4,439.2,770.9,439.7,770.9,440.3z"/>
		</g>
		<g>
			<path class="st0" d="M770.9,446.8v0.8c0,0.6-0.5,1.1-1.1,1.1h-0.8c-0.6,0-1.1-0.5-1.1-1.1v-0.8c0-0.6,0.5-1.1,1.1-1.1h0.8
				C770.4,445.7,770.9,446.2,770.9,446.8z"/>
		</g>
		<g>
			<path class="st0" d="M776.2,414.4v0.8c0,0.6-0.5,1.1-1.1,1.1h-0.8c-0.6,0-1.1-0.5-1.1-1.1v-0.8c0-0.3,0.1-0.5,0.3-0.8
				c0.6-0.2,1.2-0.3,1.9-0.4c0,0,0,0,0,0C775.8,413.4,776.2,413.8,776.2,414.4z"/>
		</g>
		<g>
			<path class="st0" d="M776.2,420.9v0.8c0,0.6-0.5,1.1-1.1,1.1h-0.8c-0.6,0-1.1-0.5-1.1-1.1v-0.8c0-0.6,0.5-1.1,1.1-1.1h0.8
				C775.7,419.7,776.2,420.3,776.2,420.9z"/>
		</g>
		<g>
			<path class="st0" d="M776.2,427.4v0.8c0,0.6-0.5,1.1-1.1,1.1h-0.8c-0.6,0-1.1-0.5-1.1-1.1v-0.8c0-0.6,0.5-1.1,1.1-1.1h0.8
				C775.7,426.2,776.2,426.7,776.2,427.4z"/>
		</g>
		<g>
			<path class="st0" d="M776.2,433.8v0.8c0,0.6-0.5,1.1-1.1,1.1h-0.8c-0.6,0-1.1-0.5-1.1-1.1v-0.8c0-0.6,0.5-1.1,1.1-1.1h0.8
				C775.7,432.7,776.2,433.2,776.2,433.8z"/>
		</g>
		<g>
			<path class="st0" d="M776.2,440.3v0.8c0,0.6-0.5,1.1-1.1,1.1h-0.8c-0.6,0-1.1-0.5-1.1-1.1v-0.8c0-0.6,0.5-1.1,1.1-1.1h0.8
				C775.7,439.2,776.2,439.7,776.2,440.3z"/>
		</g>
		<g>
			<path class="st0" d="M776.2,446.8v0.8c0,0.6-0.5,1.1-1.1,1.1h-0.8c-0.6,0-1.1-0.5-1.1-1.1v-0.8c0-0.6,0.5-1.1,1.1-1.1h0.8
				C775.7,445.7,776.2,446.2,776.2,446.8z"/>
		</g>
		<g>
			<path class="st0" d="M776.2,453.3v0.8c0,0.1,0,0.2-0.1,0.3c-1-0.1-2-0.3-3-0.5v-0.6c0-0.6,0.5-1.1,1.1-1.1h0.8
				C775.7,452.2,776.2,452.7,776.2,453.3z"/>
		</g>
		<g>
			<path class="st0" d="M781.6,414.4v0.8c0,0.6-0.5,1.1-1.1,1.1h-0.8c-0.6,0-1.1-0.5-1.1-1.1v-0.8c0-0.6,0.5-1.1,1.1-1.1h0.8
				C781.1,413.3,781.6,413.8,781.6,414.4z"/>
		</g>
		<g>
			<path class="st0" d="M781.6,420.9v0.8c0,0.6-0.5,1.1-1.1,1.1h-0.8c-0.6,0-1.1-0.5-1.1-1.1v-0.8c0-0.6,0.5-1.1,1.1-1.1h0.8
				C781.1,419.7,781.6,420.3,781.6,420.9z"/>
		</g>
		<g>
			<path class="st0" d="M781.6,427.4v0.8c0,0.6-0.5,1.1-1.1,1.1h-0.8c-0.6,0-1.1-0.5-1.1-1.1v-0.8c0-0.6,0.5-1.1,1.1-1.1h0.8
				C781.1,426.2,781.6,426.7,781.6,427.4z"/>
		</g>
		<g>
			<path class="st0" d="M781.6,433.8v0.8c0,0.6-0.5,1.1-1.1,1.1h-0.8c-0.6,0-1.1-0.5-1.1-1.1v-0.8c0-0.6,0.5-1.1,1.1-1.1h0.8
				C781.1,432.7,781.6,433.2,781.6,433.8z"/>
		</g>
		<g>
			<path class="st0" d="M781.6,440.3v0.8c0,0.6-0.5,1.1-1.1,1.1h-0.8c-0.6,0-1.1-0.5-1.1-1.1v-0.8c0-0.6,0.5-1.1,1.1-1.1h0.8
				C781.1,439.2,781.6,439.7,781.6,440.3z"/>
		</g>
		<g>
			<path class="st0" d="M781.6,446.8v0.8c0,0.6-0.5,1.1-1.1,1.1h-0.8c-0.6,0-1.1-0.5-1.1-1.1v-0.8c0-0.6,0.5-1.1,1.1-1.1h0.8
				C781.1,445.7,781.6,446.2,781.6,446.8z"/>
		</g>
		<g>
			<path class="st0" d="M781.6,453.3v0.8c0,0.1,0,0.1,0,0.2c-1,0.2-2,0.2-3,0.2c-0.1-0.1-0.1-0.3-0.1-0.4v-0.8
				c0-0.6,0.5-1.1,1.1-1.1h0.8C781.1,452.2,781.6,452.7,781.6,453.3z"/>
		</g>
		<g>
			<path class="st0" d="M786.8,452.8c-1,0.4-1.9,0.8-3,1v-0.5c0-0.6,0.5-1.1,1.1-1.1h0.8C786.2,452.2,786.6,452.4,786.8,452.8z"/>
		</g>
		<g>
			<path class="st0" d="M784,413.8c1,0.3,2,0.6,2.9,1.1v0.3c0,0.6-0.5,1.1-1.1,1.1H785c-0.6,0-1.1-0.5-1.1-1.1v-0.8
				C783.8,414.2,783.9,414,784,413.8z"/>
		</g>
		<g>
			<path class="st0" d="M786.9,420.9v0.8c0,0.6-0.5,1.1-1.1,1.1H785c-0.6,0-1.1-0.5-1.1-1.1v-0.8c0-0.6,0.5-1.1,1.1-1.1h0.8
				C786.4,419.7,786.9,420.3,786.9,420.9z"/>
		</g>
		<g>
			<path class="st0" d="M786.9,427.4v0.8c0,0.6-0.5,1.1-1.1,1.1H785c-0.6,0-1.1-0.5-1.1-1.1v-0.8c0-0.6,0.5-1.1,1.1-1.1h0.8
				C786.4,426.2,786.9,426.7,786.9,427.4z"/>
		</g>
		<g>
			<path class="st0" d="M786.9,433.8v0.8c0,0.6-0.5,1.1-1.1,1.1H785c-0.6,0-1.1-0.5-1.1-1.1v-0.8c0-0.6,0.5-1.1,1.1-1.1h0.8
				C786.4,432.7,786.9,433.2,786.9,433.8z"/>
		</g>
		<g>
			<path class="st0" d="M786.9,440.3v0.8c0,0.6-0.5,1.1-1.1,1.1H785c-0.6,0-1.1-0.5-1.1-1.1v-0.8c0-0.6,0.5-1.1,1.1-1.1h0.8
				C786.4,439.2,786.9,439.7,786.9,440.3z"/>
		</g>
		<g>
			<path class="st0" d="M786.9,446.8v0.8c0,0.6-0.5,1.1-1.1,1.1H785c-0.6,0-1.1-0.5-1.1-1.1v-0.8c0-0.6,0.5-1.1,1.1-1.1h0.8
				C786.4,445.7,786.9,446.2,786.9,446.8z"/>
		</g>
		<g>
			<path class="st0" d="M792.3,420.9v0.8c0,0.6-0.5,1.1-1.1,1.1h-0.8c-0.6,0-1.1-0.5-1.1-1.1v-0.8c0-0.6,0.5-1.1,1.1-1.1h0.8
				C791.8,419.7,792.3,420.3,792.3,420.9z"/>
		</g>
		<g>
			<path class="st0" d="M792.3,427.4v0.8c0,0.6-0.5,1.1-1.1,1.1h-0.8c-0.6,0-1.1-0.5-1.1-1.1v-0.8c0-0.6,0.5-1.1,1.1-1.1h0.8
				C791.8,426.2,792.3,426.7,792.3,427.4z"/>
		</g>
		<g>
			<path class="st0" d="M792.3,433.8v0.8c0,0.6-0.5,1.1-1.1,1.1h-0.8c-0.6,0-1.1-0.5-1.1-1.1v-0.8c0-0.6,0.5-1.1,1.1-1.1h0.8
				C791.8,432.7,792.3,433.2,792.3,433.8z"/>
		</g>
		<g>
			<path class="st0" d="M792.3,440.3v0.8c0,0.6-0.5,1.1-1.1,1.1h-0.8c-0.6,0-1.1-0.5-1.1-1.1v-0.8c0-0.6,0.5-1.1,1.1-1.1h0.8
				C791.8,439.2,792.3,439.7,792.3,440.3z"/>
		</g>
		<g>
			<path class="st0" d="M792.3,446.8v0.8c0,0.6-0.5,1.1-1.1,1.1h-0.8c-0.6,0-1.1-0.5-1.1-1.1v-0.8c0-0.6,0.5-1.1,1.1-1.1h0.8
				C791.8,445.7,792.3,446.2,792.3,446.8z"/>
		</g>
		<g>
			<path class="st0" d="M795.4,445.7c-0.3,0.4-0.5,0.8-0.8,1.1v0C794.5,446.3,794.9,445.9,795.4,445.7z"/>
		</g>
		<g>
			<path class="st0" d="M794.5,421.7v-0.8c0,0,0,0,0-0.1c0.5,0.6,1,1.3,1.4,2h-0.3C795,422.8,794.5,422.3,794.5,421.7z"/>
		</g>
		<g>
			<path class="st0" d="M797.6,427.4v0.8c0,0.6-0.5,1.1-1.1,1.1h-0.8c-0.6,0-1.1-0.5-1.1-1.1v-0.8c0-0.6,0.5-1.1,1.1-1.1h0.8
				C797.1,426.2,797.6,426.7,797.6,427.4z"/>
		</g>
		<g>
			<path class="st0" d="M797.6,433.8v0.8c0,0.6-0.5,1.1-1.1,1.1h-0.8c-0.6,0-1.1-0.5-1.1-1.1v-0.8c0-0.6,0.5-1.1,1.1-1.1h0.8
				C797.1,432.7,797.6,433.2,797.6,433.8z"/>
		</g>
		<g>
			<path class="st0" d="M797.6,440.3v0.8c0,0.6-0.5,1.1-1.1,1.1h-0.8c-0.6,0-1.1-0.5-1.1-1.1v-0.8c0-0.6,0.5-1.1,1.1-1.1h0.8
				C797.1,439.2,797.6,439.7,797.6,440.3z"/>
		</g>
	</g>
	<g>
		<g>
			<g>
				<path class="st0" d="M130.1,466.8L130.1,466.8c-0.6,0-1-0.4-1-1l0-10.9c0-0.6,0.4-1,1-1l0,0c0.6,0,1,0.4,1,1l0,10.9
					C131.1,466.3,130.7,466.8,130.1,466.8z"/>
			</g>
		</g>
		<g>
			<path class="st0" d="M112.7,427.4v0.8c0,0.6-0.5,1.1-1.1,1.1h-0.8c0,0-0.1,0-0.1,0c0.2-1.1,0.5-2.1,0.9-3.1
				C112.2,426.2,112.7,426.7,112.7,427.4z"/>
		</g>
		<g>
			<path class="st0" d="M112.7,433.8v0.8c0,0.6-0.5,1.1-1.1,1.1h-0.8c-0.2,0-0.4-0.1-0.5-0.1c-0.1-0.6-0.1-1.2-0.1-1.9
				c0-0.3,0-0.6,0-0.9c0.2-0.1,0.4-0.2,0.6-0.2h0.8C112.2,432.7,112.7,433.2,112.7,433.8z"/>
		</g>
		<g>
			<path class="st0" d="M112.7,440.3v0.8c0,0.5-0.3,0.9-0.8,1.1c-0.4-1-0.8-2-1.1-3h0.7C112.2,439.2,112.7,439.7,112.7,440.3z"/>
		</g>
		<g>
			<path class="st0" d="M118,420.9v0.8c0,0.6-0.5,1.1-1.1,1.1h-0.8c-0.6,0-1.1-0.5-1.1-1.1v-0.8c0-0.2,0-0.4,0.1-0.5
				c0.1-0.1,0.2-0.3,0.3-0.4c0,0,0,0,0,0c0.2-0.1,0.4-0.2,0.6-0.2h0.8C117.5,419.7,118,420.3,118,420.9z"/>
		</g>
		<g>
			<path class="st0" d="M118,427.4v0.8c0,0.6-0.5,1.1-1.1,1.1h-0.8c-0.6,0-1.1-0.5-1.1-1.1v-0.8c0-0.6,0.5-1.1,1.1-1.1h0.8
				C117.5,426.2,118,426.7,118,427.4z"/>
		</g>
		<g>
			<path class="st0" d="M118,433.8v0.8c0,0.6-0.5,1.1-1.1,1.1h-0.8c-0.6,0-1.1-0.5-1.1-1.1v-0.8c0-0.6,0.5-1.1,1.1-1.1h0.8
				C117.5,432.7,118,433.2,118,433.8z"/>
		</g>
		<g>
			<path class="st0" d="M118,440.3v0.8c0,0.6-0.5,1.1-1.1,1.1h-0.8c-0.6,0-1.1-0.5-1.1-1.1v-0.8c0-0.6,0.5-1.1,1.1-1.1h0.8
				C117.5,439.2,118,439.7,118,440.3z"/>
		</g>
		<g>
			<path class="st0" d="M118,446.8v0.8c0,0.6-0.5,1.1-1.1,1.1h-0.4c-0.5-0.5-1.1-1.1-1.5-1.7v-0.3c0-0.6,0.5-1.1,1.1-1.1h0.8
				C117.5,445.7,118,446.2,118,446.8z"/>
		</g>
		<g>
			<path class="st0" d="M123.4,453.2c-0.7-0.3-1.5-0.6-2.1-1c0.1,0,0.1,0,0.2,0h0.8C122.8,452.2,123.3,452.6,123.4,453.2z"/>
		</g>
		<g>
			<path class="st0" d="M120.5,415.8c0.9-0.5,1.9-1,2.9-1.4v0.7c0,0.6-0.5,1.1-1.1,1.1h-0.8C121,416.3,120.7,416.1,120.5,415.8z"/>
		</g>
		<g>
			<path class="st0" d="M123.4,420.9v0.8c0,0.6-0.5,1.1-1.1,1.1h-0.8c-0.6,0-1.1-0.5-1.1-1.1v-0.8c0-0.6,0.5-1.1,1.1-1.1h0.8
				C122.9,419.7,123.4,420.3,123.4,420.9z"/>
		</g>
		<g>
			<path class="st0" d="M123.4,427.4v0.8c0,0.6-0.5,1.1-1.1,1.1h-0.8c-0.6,0-1.1-0.5-1.1-1.1v-0.8c0-0.6,0.5-1.1,1.1-1.1h0.8
				C122.9,426.2,123.4,426.7,123.4,427.4z"/>
		</g>
		<g>
			<path class="st0" d="M123.4,433.8v0.8c0,0.6-0.5,1.1-1.1,1.1h-0.8c-0.6,0-1.1-0.5-1.1-1.1v-0.8c0-0.6,0.5-1.1,1.1-1.1h0.8
				C122.9,432.7,123.4,433.2,123.4,433.8z"/>
		</g>
		<g>
			<path class="st0" d="M123.4,440.3v0.8c0,0.6-0.5,1.1-1.1,1.1h-0.8c-0.6,0-1.1-0.5-1.1-1.1v-0.8c0-0.6,0.5-1.1,1.1-1.1h0.8
				C122.9,439.2,123.4,439.7,123.4,440.3z"/>
		</g>
		<g>
			<path class="st0" d="M123.4,446.8v0.8c0,0.6-0.5,1.1-1.1,1.1h-0.8c-0.6,0-1.1-0.5-1.1-1.1v-0.8c0-0.6,0.5-1.1,1.1-1.1h0.8
				C122.9,445.7,123.4,446.2,123.4,446.8z"/>
		</g>
		<g>
			<path class="st0" d="M128.7,414.4v0.8c0,0.6-0.5,1.1-1.1,1.1h-0.8c-0.6,0-1.1-0.5-1.1-1.1v-0.8c0-0.3,0.1-0.5,0.3-0.8
				c0.6-0.2,1.2-0.3,1.9-0.4c0,0,0,0,0,0C128.3,413.4,128.7,413.8,128.7,414.4z"/>
		</g>
		<g>
			<path class="st0" d="M128.7,420.9v0.8c0,0.6-0.5,1.1-1.1,1.1h-0.8c-0.6,0-1.1-0.5-1.1-1.1v-0.8c0-0.6,0.5-1.1,1.1-1.1h0.8
				C128.2,419.7,128.7,420.3,128.7,420.9z"/>
		</g>
		<g>
			<path class="st0" d="M128.7,427.4v0.8c0,0.6-0.5,1.1-1.1,1.1h-0.8c-0.6,0-1.1-0.5-1.1-1.1v-0.8c0-0.6,0.5-1.1,1.1-1.1h0.8
				C128.2,426.2,128.7,426.7,128.7,427.4z"/>
		</g>
		<g>
			<path class="st0" d="M128.7,433.8v0.8c0,0.6-0.5,1.1-1.1,1.1h-0.8c-0.6,0-1.1-0.5-1.1-1.1v-0.8c0-0.6,0.5-1.1,1.1-1.1h0.8
				C128.2,432.7,128.7,433.2,128.7,433.8z"/>
		</g>
		<g>
			<path class="st0" d="M128.7,440.3v0.8c0,0.6-0.5,1.1-1.1,1.1h-0.8c-0.6,0-1.1-0.5-1.1-1.1v-0.8c0-0.6,0.5-1.1,1.1-1.1h0.8
				C128.2,439.2,128.7,439.7,128.7,440.3z"/>
		</g>
		<g>
			<path class="st0" d="M128.7,446.8v0.8c0,0.6-0.5,1.1-1.1,1.1h-0.8c-0.6,0-1.1-0.5-1.1-1.1v-0.8c0-0.6,0.5-1.1,1.1-1.1h0.8
				C128.2,445.7,128.7,446.2,128.7,446.8z"/>
		</g>
		<g>
			<path class="st0" d="M128.7,453.3v0.8c0,0.1,0,0.2-0.1,0.3c-1-0.1-2-0.3-3-0.5v-0.6c0-0.6,0.5-1.1,1.1-1.1h0.8
				C128.2,452.2,128.7,452.7,128.7,453.3z"/>
		</g>
		<g>
			<path class="st0" d="M134.1,414.4v0.8c0,0.6-0.5,1.1-1.1,1.1h-0.8c-0.6,0-1.1-0.5-1.1-1.1v-0.8c0-0.6,0.5-1.1,1.1-1.1h0.8
				C133.6,413.3,134.1,413.8,134.1,414.4z"/>
		</g>
		<g>
			<path class="st0" d="M134.1,420.9v0.8c0,0.6-0.5,1.1-1.1,1.1h-0.8c-0.6,0-1.1-0.5-1.1-1.1v-0.8c0-0.6,0.5-1.1,1.1-1.1h0.8
				C133.6,419.7,134.1,420.3,134.1,420.9z"/>
		</g>
		<g>
			<path class="st0" d="M134.1,427.4v0.8c0,0.6-0.5,1.1-1.1,1.1h-0.8c-0.6,0-1.1-0.5-1.1-1.1v-0.8c0-0.6,0.5-1.1,1.1-1.1h0.8
				C133.6,426.2,134.1,426.7,134.1,427.4z"/>
		</g>
		<g>
			<path class="st0" d="M134.1,433.8v0.8c0,0.6-0.5,1.1-1.1,1.1h-0.8c-0.6,0-1.1-0.5-1.1-1.1v-0.8c0-0.6,0.5-1.1,1.1-1.1h0.8
				C133.6,432.7,134.1,433.2,134.1,433.8z"/>
		</g>
		<g>
			<path class="st0" d="M134.1,440.3v0.8c0,0.6-0.5,1.1-1.1,1.1h-0.8c-0.6,0-1.1-0.5-1.1-1.1v-0.8c0-0.6,0.5-1.1,1.1-1.1h0.8
				C133.6,439.2,134.1,439.7,134.1,440.3z"/>
		</g>
		<g>
			<path class="st0" d="M134.1,446.8v0.8c0,0.6-0.5,1.1-1.1,1.1h-0.8c-0.6,0-1.1-0.5-1.1-1.1v-0.8c0-0.6,0.5-1.1,1.1-1.1h0.8
				C133.6,445.7,134.1,446.2,134.1,446.8z"/>
		</g>
		<g>
			<path class="st0" d="M134.1,453.3v0.8c0,0.1,0,0.1,0,0.2c-1,0.2-2,0.2-3,0.2c-0.1-0.1-0.1-0.3-0.1-0.4v-0.8
				c0-0.6,0.5-1.1,1.1-1.1h0.8C133.6,452.2,134.1,452.7,134.1,453.3z"/>
		</g>
		<g>
			<path class="st0" d="M139.3,452.8c-1,0.4-1.9,0.8-3,1v-0.5c0-0.6,0.5-1.1,1.1-1.1h0.8C138.7,452.2,139.1,452.4,139.3,452.8z"/>
		</g>
		<g>
			<path class="st0" d="M136.5,413.8c1,0.3,2,0.6,2.9,1.1v0.3c0,0.6-0.5,1.1-1.1,1.1h-0.8c-0.6,0-1.1-0.5-1.1-1.1v-0.8
				C136.3,414.2,136.4,414,136.5,413.8z"/>
		</g>
		<g>
			<path class="st0" d="M139.4,420.9v0.8c0,0.6-0.5,1.1-1.1,1.1h-0.8c-0.6,0-1.1-0.5-1.1-1.1v-0.8c0-0.6,0.5-1.1,1.1-1.1h0.8
				C138.9,419.7,139.4,420.3,139.4,420.9z"/>
		</g>
		<g>
			<path class="st0" d="M139.4,427.4v0.8c0,0.6-0.5,1.1-1.1,1.1h-0.8c-0.6,0-1.1-0.5-1.1-1.1v-0.8c0-0.6,0.5-1.1,1.1-1.1h0.8
				C138.9,426.2,139.4,426.7,139.4,427.4z"/>
		</g>
		<g>
			<path class="st0" d="M139.4,433.8v0.8c0,0.6-0.5,1.1-1.1,1.1h-0.8c-0.6,0-1.1-0.5-1.1-1.1v-0.8c0-0.6,0.5-1.1,1.1-1.1h0.8
				C138.9,432.7,139.4,433.2,139.4,433.8z"/>
		</g>
		<g>
			<path class="st0" d="M139.4,440.3v0.8c0,0.6-0.5,1.1-1.1,1.1h-0.8c-0.6,0-1.1-0.5-1.1-1.1v-0.8c0-0.6,0.5-1.1,1.1-1.1h0.8
				C138.9,439.2,139.4,439.7,139.4,440.3z"/>
		</g>
		<g>
			<path class="st0" d="M139.4,446.8v0.8c0,0.6-0.5,1.1-1.1,1.1h-0.8c-0.6,0-1.1-0.5-1.1-1.1v-0.8c0-0.6,0.5-1.1,1.1-1.1h0.8
				C138.9,445.7,139.4,446.2,139.4,446.8z"/>
		</g>
		<g>
			<path class="st0" d="M144.8,420.9v0.8c0,0.6-0.5,1.1-1.1,1.1h-0.8c-0.6,0-1.1-0.5-1.1-1.1v-0.8c0-0.6,0.5-1.1,1.1-1.1h0.8
				C144.3,419.7,144.8,420.3,144.8,420.9z"/>
		</g>
		<g>
			<path class="st0" d="M144.8,427.4v0.8c0,0.6-0.5,1.1-1.1,1.1h-0.8c-0.6,0-1.1-0.5-1.1-1.1v-0.8c0-0.6,0.5-1.1,1.1-1.1h0.8
				C144.3,426.2,144.8,426.7,144.8,427.4z"/>
		</g>
		<g>
			<path class="st0" d="M144.8,433.8v0.8c0,0.6-0.5,1.1-1.1,1.1h-0.8c-0.6,0-1.1-0.5-1.1-1.1v-0.8c0-0.6,0.5-1.1,1.1-1.1h0.8
				C144.3,432.7,144.8,433.2,144.8,433.8z"/>
		</g>
		<g>
			<path class="st0" d="M144.8,440.3v0.8c0,0.6-0.5,1.1-1.1,1.1h-0.8c-0.6,0-1.1-0.5-1.1-1.1v-0.8c0-0.6,0.5-1.1,1.1-1.1h0.8
				C144.3,439.2,144.8,439.7,144.8,440.3z"/>
		</g>
		<g>
			<path class="st0" d="M144.8,446.8v0.8c0,0.6-0.5,1.1-1.1,1.1h-0.8c-0.6,0-1.1-0.5-1.1-1.1v-0.8c0-0.6,0.5-1.1,1.1-1.1h0.8
				C144.3,445.7,144.8,446.2,144.8,446.8z"/>
		</g>
		<g>
			<path class="st0" d="M147.9,445.7c-0.3,0.4-0.5,0.8-0.8,1.1v0C147,446.3,147.4,445.9,147.9,445.7z"/>
		</g>
		<g>
			<path class="st0" d="M147,421.7v-0.8c0,0,0,0,0-0.1c0.5,0.6,1,1.3,1.4,2h-0.3C147.5,422.8,147,422.3,147,421.7z"/>
		</g>
		<g>
			<path class="st0" d="M150.1,427.4v0.8c0,0.6-0.5,1.1-1.1,1.1h-0.8c-0.6,0-1.1-0.5-1.1-1.1v-0.8c0-0.6,0.5-1.1,1.1-1.1h0.8
				C149.6,426.2,150.1,426.7,150.1,427.4z"/>
		</g>
		<g>
			<path class="st0" d="M150.1,433.8v0.8c0,0.6-0.5,1.1-1.1,1.1h-0.8c-0.6,0-1.1-0.5-1.1-1.1v-0.8c0-0.6,0.5-1.1,1.1-1.1h0.8
				C149.6,432.7,150.1,433.2,150.1,433.8z"/>
		</g>
		<g>
			<path class="st0" d="M150.1,440.3v0.8c0,0.6-0.5,1.1-1.1,1.1h-0.8c-0.6,0-1.1-0.5-1.1-1.1v-0.8c0-0.6,0.5-1.1,1.1-1.1h0.8
				C149.6,439.2,150.1,439.7,150.1,440.3z"/>
		</g>
	</g>
	<g>
		<g>
			<path class="st0" d="M1050.7,316.1l-12.7-13c-0.1-0.1-0.1-0.1-0.2-0.1c0,0-0.1,0-0.2,0.1l-11.8,12.9l-1.5-1.4l11.8-12.9
				c0.4-0.5,1-0.7,1.6-0.7c0,0,0,0,0,0c0.6,0,1.2,0.2,1.6,0.7l12.7,13L1050.7,316.1z"/>
		</g>
		<g>
			<path class="st7" d="M1019.5,314.3h27.7c1.4,0,2.5,1.1,2.5,2.5v27.7c0,1.4-1.1,2.5-2.5,2.5h-27.7c-1.4,0-2.5-1.1-2.5-2.5v-27.7
				C1017.1,315.4,1018.2,314.3,1019.5,314.3z"/>
		</g>
		<g>
			<path class="st8" d="M1028.3,314.3h26.3c1.2,0,2.2,1.1,2.2,2.5v27.7c0,1.4-1,2.5-2.2,2.5h-26.3V314.3z"/>
		</g>
		<g>
			<path class="st0" d="M1041.4,280.4h-7.6v-36h7.6V280.4z M1035.8,278.4h3.6v-32h-3.6V278.4z"/>
		</g>
		<g>
			<polygon class="st0" points="1037.1,245 964.3,205.2 952.3,205.2 892.7,244.9 891.8,243.7 951.9,203.7 964.7,203.7 964.8,203.8 
				1037.9,243.6 			"/>
		</g>
		<g>
			<path class="st0" d="M968.8,461.5h-21V257.6h21V461.5z M949.3,460h18V259.1h-18V460z"/>
		</g>
		<g>
			
				<rect x="957.7" y="254.7" transform="matrix(0.7646 -0.6445 0.6445 0.7646 51.6533 681.3041)" class="st0" width="1.5" height="30.4"/>
		</g>
		<g>
			
				<rect x="942.9" y="269.2" transform="matrix(0.6447 -0.7645 0.7645 0.6447 134.1044 828.3911)" class="st0" width="30.4" height="1.5"/>
		</g>
		<g>
			<rect x="948.5" y="280.8" class="st0" width="19.6" height="1.5"/>
		</g>
		<g>
			
				<rect x="957.7" y="278" transform="matrix(0.7646 -0.6445 0.6445 0.7646 36.6728 686.7757)" class="st0" width="1.5" height="30.4"/>
		</g>
		<g>
			
				<rect x="942.9" y="292.4" transform="matrix(0.6447 -0.7645 0.7645 0.6447 116.3356 836.6503)" class="st0" width="30.4" height="1.5"/>
		</g>
		<g>
			<rect x="948.5" y="304" class="st0" width="19.6" height="1.5"/>
		</g>
		<g>
			
				<rect x="957.7" y="301.2" transform="matrix(0.7646 -0.6445 0.6445 0.7646 21.6923 692.2473)" class="st0" width="1.5" height="30.4"/>
		</g>
		<g>
			
				<rect x="942.9" y="315.7" transform="matrix(0.6447 -0.7645 0.7645 0.6447 98.5669 844.9096)" class="st0" width="30.4" height="1.5"/>
		</g>
		<g>
			<rect x="948.5" y="327.3" class="st0" width="19.6" height="1.5"/>
		</g>
		<g>
			
				<rect x="957.7" y="324.5" transform="matrix(0.7646 -0.6445 0.6445 0.7646 6.7118 697.7188)" class="st0" width="1.5" height="30.4"/>
		</g>
		<g>
			
				<rect x="942.9" y="338.9" transform="matrix(0.6447 -0.7645 0.7645 0.6447 80.7981 853.1689)" class="st0" width="30.4" height="1.5"/>
		</g>
		<g>
			<rect x="948.5" y="350.5" class="st0" width="19.6" height="1.5"/>
		</g>
		<g>
			
				<rect x="957.7" y="347.7" transform="matrix(0.7646 -0.6445 0.6445 0.7646 -8.2687 703.1904)" class="st0" width="1.5" height="30.4"/>
		</g>
		<g>
			
				<rect x="942.9" y="362.2" transform="matrix(0.6447 -0.7645 0.7645 0.6447 63.0294 861.4282)" class="st0" width="30.4" height="1.5"/>
		</g>
		<g>
			<rect x="948.5" y="373.7" class="st0" width="19.6" height="1.5"/>
		</g>
		<g>
			
				<rect x="957.7" y="371" transform="matrix(0.7646 -0.6445 0.6445 0.7646 -23.2492 708.662)" class="st0" width="1.5" height="30.4"/>
		</g>
		<g>
			
				<rect x="942.9" y="385.4" transform="matrix(0.6447 -0.7645 0.7645 0.6447 45.2606 869.6875)" class="st0" width="30.4" height="1.5"/>
		</g>
		<g>
			<rect x="948.5" y="397" class="st0" width="19.6" height="1.5"/>
		</g>
		<g>
			
				<rect x="957.7" y="394.2" transform="matrix(0.7646 -0.6445 0.6445 0.7646 -38.2297 714.1336)" class="st0" width="1.5" height="30.4"/>
		</g>
		<g>
			
				<rect x="942.9" y="408.7" transform="matrix(0.6447 -0.7645 0.7645 0.6447 27.4919 877.9468)" class="st0" width="30.4" height="1.5"/>
		</g>
		<g>
			<rect x="948.5" y="420.2" class="st0" width="19.6" height="1.5"/>
		</g>
		<g>
			
				<rect x="957.7" y="417.4" transform="matrix(0.7646 -0.6445 0.6445 0.7646 -53.2102 719.6052)" class="st0" width="1.5" height="30.4"/>
		</g>
		<g>
			
				<rect x="942.9" y="431.9" transform="matrix(0.6447 -0.7645 0.7645 0.6447 9.7231 886.2061)" class="st0" width="30.4" height="1.5"/>
		</g>
		<g>
			<rect x="948.5" y="443.2" class="st0" width="19.6" height="2"/>
		</g>
		<g>
			<path class="st0" d="M964.9,244.7h-13.4v-40.9h13.4V244.7z M953,243.2h10.4v-37.9H953V243.2z"/>
		</g>
		<g>
			
				<rect x="957.5" y="202.4" transform="matrix(0.7655 -0.6435 0.6435 0.7655 88.5431 666.2734)" class="st0" width="1.5" height="18.5"/>
		</g>
		<g>
			
				<rect x="948.7" y="210.9" transform="matrix(0.6433 -0.7657 0.7657 0.6433 179.681 808.9709)" class="st0" width="18.5" height="1.5"/>
		</g>
		<g>
			<rect x="952.2" y="217.9" class="st0" width="11.9" height="1.5"/>
		</g>
		<g>
			
				<rect x="957.5" y="216.6" transform="matrix(0.7655 -0.6435 0.6435 0.7655 79.446 669.589)" class="st0" width="1.5" height="18.5"/>
		</g>
		<g>
			
				<rect x="948.7" y="225.1" transform="matrix(0.6433 -0.7657 0.7657 0.6433 168.8564 814.0145)" class="st0" width="18.5" height="1.5"/>
		</g>
		<g>
			<rect x="952.2" y="232.1" class="st0" width="11.9" height="1.5"/>
		</g>
		<g>
			
				<rect x="957.5" y="230.7" transform="matrix(0.7655 -0.6435 0.6435 0.7655 70.3492 672.9045)" class="st0" width="1.5" height="18.5"/>
		</g>
		<g>
			
				<rect x="948.7" y="239.2" transform="matrix(0.6433 -0.7657 0.7657 0.6433 158.0322 819.0579)" class="st0" width="18.5" height="1.5"/>
		</g>
		<g>
			<rect x="952.2" y="246" class="st0" width="11.9" height="2"/>
		</g>
		<g>
			<path class="st7" d="M942,244.3h5.3c0.4,0,0.7,1.1,0.7,2.5v15.4c0,1.4-0.3,2.5-0.7,2.5H942c-0.4,0-0.7-1.1-0.7-2.5v-15.4
				C941.3,245.5,941.6,244.3,942,244.3z"/>
		</g>
		<g>
			<path class="st9" d="M946.2,244.3h21.6c1.4,0,2.5,1.1,2.5,2.5v15.4c0,1.4-1.1,2.5-2.5,2.5h-21.6V244.3z"/>
		</g>
		<g>
			<path class="st10" d="M889.9,243.5h149c0.8,0,1.4,0.6,1.4,1.4v0c0,0.8-0.6,1.4-1.4,1.4h-149c-0.8,0-1.4-0.6-1.4-1.4v0
				C888.5,244.2,889.1,243.5,889.9,243.5z"/>
		</g>
		<g>
			<circle class="st11" cx="892.6" cy="245" r="3.8"/>
			<path class="st0" d="M892.6,249.7c-2.6,0-4.8-2.1-4.8-4.8s2.1-4.8,4.8-4.8c2.6,0,4.8,2.1,4.8,4.8S895.2,249.7,892.6,249.7z
				 M892.6,242.2c-1.5,0-2.8,1.2-2.8,2.8s1.2,2.8,2.8,2.8s2.8-1.2,2.8-2.8S894.1,242.2,892.6,242.2z"/>
		</g>
		<g>
			<circle class="st11" cx="1037.6" cy="245" r="3.8"/>
			<path class="st0" d="M1037.6,249.7c-2.6,0-4.8-2.1-4.8-4.8s2.1-4.8,4.8-4.8s4.8,2.1,4.8,4.8S1040.2,249.7,1037.6,249.7z
				 M1037.6,242.2c-1.5,0-2.8,1.2-2.8,2.8s1.2,2.8,2.8,2.8s2.8-1.2,2.8-2.8S1039.1,242.2,1037.6,242.2z"/>
		</g>
		<g>
			<path class="st9" d="M1033.6,271h8v15c0,2.2-1.8,4-4,4s-4-1.8-4-4V271z"/>
		</g>
		<g>
			<rect x="1036.6" y="289.9" class="st0" width="2" height="4.3"/>
		</g>
		<g>
			<path class="st12" d="M1038.3,293.9c-0.2,0-0.3,0-0.5,0c-2.6,0-4.7,2.1-4.7,4.7c0,2.6,2.1,4.7,4.7,4.7c2.2,0,4-1.5,4.6-3.5h-0.9
				c-0.5,1.6-2,2.7-3.7,2.7c-2.2,0-3.9-1.7-3.9-3.9c0-2.1,1.7-3.9,3.9-3.9c0.2,0,0.3,0,0.5,0V293.9z"/>
		</g>
		<g>
			<path class="st7" d="M934.7,443.2h34.5c1.4,0,2.5,1.2,2.5,2.6V459c0,1.5-1.1,2.6-2.5,2.6h-34.5c-1.4,0-2.5-1.2-2.5-2.6v-13.2
				C932.3,444.4,933.4,443.2,934.7,443.2z"/>
		</g>
		<g>
			<path class="st9" d="M940.7,443.2h34.5c1.4,0,2.5,1.2,2.5,2.6V459c0,1.5-1.1,2.6-2.5,2.6h-34.5c-1.4,0-2.5-1.2-2.5-2.6v-13.2
				C938.3,444.4,939.4,443.2,940.7,443.2z"/>
		</g>
		<g>
			<circle class="st10" cx="968.5" cy="461.9" r="4.6"/>
		</g>
		<g>
			<circle class="st10" cx="947.6" cy="461.9" r="4.6"/>
		</g>
	</g>
	<g>
		<defs>
			<filter id="Adobe_OpacityMaskFilter" filterUnits="userSpaceOnUse" x="1519.1" y="408.2" width="46.9" height="48.6">
				<feColorMatrix  type="matrix" values="1 0 0 0 0  0 1 0 0 0  0 0 1 0 0  0 0 0 1 0"/>
			</filter>
		</defs>
		
			<mask maskUnits="userSpaceOnUse" x="1519.1" y="408.2" width="46.9" height="48.6" id="mask1_1919_1293_00000023998825559377360640000014261145996843993489_">
			<circle class="st13" cx="1543.7" cy="431.9" r="24"/>
		</mask>
		<g class="st14">
			<g>
				<path class="st0" d="M1520.4,408.2h0.9c0.7,0,1.3,0.6,1.3,1.3v0.9c0,0.7-0.6,1.3-1.3,1.3h-0.9c-0.7,0-1.3-0.6-1.3-1.3v-0.9
					C1519.1,408.8,1519.7,408.2,1520.4,408.2z"/>
			</g>
			<g>
				<path class="st0" d="M1526.6,408.2h0.9c0.7,0,1.3,0.6,1.3,1.3v0.9c0,0.7-0.6,1.3-1.3,1.3h-0.9c-0.7,0-1.3-0.6-1.3-1.3v-0.9
					C1525.3,408.8,1525.8,408.2,1526.6,408.2z"/>
			</g>
			<g>
				<path class="st0" d="M1532.8,408.2h0.9c0.7,0,1.3,0.6,1.3,1.3v0.9c0,0.7-0.6,1.3-1.3,1.3h-0.9c-0.7,0-1.3-0.6-1.3-1.3v-0.9
					C1531.4,408.8,1532,408.2,1532.8,408.2z"/>
			</g>
			<g>
				<path class="st0" d="M1538.9,408.2h0.9c0.7,0,1.3,0.6,1.3,1.3v0.9c0,0.7-0.6,1.3-1.3,1.3h-0.9c-0.7,0-1.3-0.6-1.3-1.3v-0.9
					C1537.6,408.8,1538.2,408.2,1538.9,408.2z"/>
			</g>
			<g>
				<path class="st0" d="M1545.1,408.2h0.9c0.7,0,1.3,0.6,1.3,1.3v0.9c0,0.7-0.6,1.3-1.3,1.3h-0.9c-0.7,0-1.3-0.6-1.3-1.3v-0.9
					C1543.8,408.8,1544.4,408.2,1545.1,408.2z"/>
			</g>
			<g>
				<path class="st0" d="M1551.3,408.2h0.9c0.7,0,1.3,0.6,1.3,1.3v0.9c0,0.7-0.6,1.3-1.3,1.3h-0.9c-0.7,0-1.3-0.6-1.3-1.3v-0.9
					C1550,408.8,1550.6,408.2,1551.3,408.2z"/>
			</g>
			<g>
				<path class="st0" d="M1557.5,408.2h0.9c0.7,0,1.3,0.6,1.3,1.3v0.9c0,0.7-0.6,1.3-1.3,1.3h-0.9c-0.7,0-1.3-0.6-1.3-1.3v-0.9
					C1556.2,408.8,1556.8,408.2,1557.5,408.2z"/>
			</g>
			<g>
				<path class="st0" d="M1563.7,408.2h0.9c0.7,0,1.3,0.6,1.3,1.3v0.9c0,0.7-0.6,1.3-1.3,1.3h-0.9c-0.7,0-1.3-0.6-1.3-1.3v-0.9
					C1562.4,408.8,1563,408.2,1563.7,408.2z"/>
			</g>
			<g>
				<path class="st0" d="M1520.4,415.7h0.9c0.7,0,1.3,0.6,1.3,1.3v0.9c0,0.7-0.6,1.3-1.3,1.3h-0.9c-0.7,0-1.3-0.6-1.3-1.3V417
					C1519.1,416.3,1519.7,415.7,1520.4,415.7z"/>
			</g>
			<g>
				<path class="st0" d="M1526.6,415.7h0.9c0.7,0,1.3,0.6,1.3,1.3v0.9c0,0.7-0.6,1.3-1.3,1.3h-0.9c-0.7,0-1.3-0.6-1.3-1.3V417
					C1525.3,416.3,1525.8,415.7,1526.6,415.7z"/>
			</g>
			<g>
				<path class="st0" d="M1532.8,415.7h0.9c0.7,0,1.3,0.6,1.3,1.3v0.9c0,0.7-0.6,1.3-1.3,1.3h-0.9c-0.7,0-1.3-0.6-1.3-1.3V417
					C1531.4,416.3,1532,415.7,1532.8,415.7z"/>
			</g>
			<g>
				<path class="st0" d="M1538.9,415.7h0.9c0.7,0,1.3,0.6,1.3,1.3v0.9c0,0.7-0.6,1.3-1.3,1.3h-0.9c-0.7,0-1.3-0.6-1.3-1.3V417
					C1537.6,416.3,1538.2,415.7,1538.9,415.7z"/>
			</g>
			<g>
				<path class="st0" d="M1545.1,415.7h0.9c0.7,0,1.3,0.6,1.3,1.3v0.9c0,0.7-0.6,1.3-1.3,1.3h-0.9c-0.7,0-1.3-0.6-1.3-1.3V417
					C1543.8,416.3,1544.4,415.7,1545.1,415.7z"/>
			</g>
			<g>
				<path class="st0" d="M1551.3,415.7h0.9c0.7,0,1.3,0.6,1.3,1.3v0.9c0,0.7-0.6,1.3-1.3,1.3h-0.9c-0.7,0-1.3-0.6-1.3-1.3V417
					C1550,416.3,1550.6,415.7,1551.3,415.7z"/>
			</g>
			<g>
				<path class="st0" d="M1557.5,415.7h0.9c0.7,0,1.3,0.6,1.3,1.3v0.9c0,0.7-0.6,1.3-1.3,1.3h-0.9c-0.7,0-1.3-0.6-1.3-1.3V417
					C1556.2,416.3,1556.8,415.7,1557.5,415.7z"/>
			</g>
			<g>
				<path class="st0" d="M1563.7,415.7h0.9c0.7,0,1.3,0.6,1.3,1.3v0.9c0,0.7-0.6,1.3-1.3,1.3h-0.9c-0.7,0-1.3-0.6-1.3-1.3V417
					C1562.4,416.3,1563,415.7,1563.7,415.7z"/>
			</g>
			<g>
				<path class="st0" d="M1520.4,423.2h0.9c0.7,0,1.3,0.6,1.3,1.3v0.9c0,0.7-0.6,1.3-1.3,1.3h-0.9c-0.7,0-1.3-0.6-1.3-1.3v-0.9
					C1519.1,423.8,1519.7,423.2,1520.4,423.2z"/>
			</g>
			<g>
				<path class="st0" d="M1526.6,423.2h0.9c0.7,0,1.3,0.6,1.3,1.3v0.9c0,0.7-0.6,1.3-1.3,1.3h-0.9c-0.7,0-1.3-0.6-1.3-1.3v-0.9
					C1525.3,423.8,1525.8,423.2,1526.6,423.2z"/>
			</g>
			<g>
				<path class="st0" d="M1532.8,423.2h0.9c0.7,0,1.3,0.6,1.3,1.3v0.9c0,0.7-0.6,1.3-1.3,1.3h-0.9c-0.7,0-1.3-0.6-1.3-1.3v-0.9
					C1531.4,423.8,1532,423.2,1532.8,423.2z"/>
			</g>
			<g>
				<path class="st0" d="M1538.9,423.2h0.9c0.7,0,1.3,0.6,1.3,1.3v0.9c0,0.7-0.6,1.3-1.3,1.3h-0.9c-0.7,0-1.3-0.6-1.3-1.3v-0.9
					C1537.6,423.8,1538.2,423.2,1538.9,423.2z"/>
			</g>
			<g>
				<path class="st0" d="M1545.1,423.2h0.9c0.7,0,1.3,0.6,1.3,1.3v0.9c0,0.7-0.6,1.3-1.3,1.3h-0.9c-0.7,0-1.3-0.6-1.3-1.3v-0.9
					C1543.8,423.8,1544.4,423.2,1545.1,423.2z"/>
			</g>
			<g>
				<path class="st0" d="M1551.3,423.2h0.9c0.7,0,1.3,0.6,1.3,1.3v0.9c0,0.7-0.6,1.3-1.3,1.3h-0.9c-0.7,0-1.3-0.6-1.3-1.3v-0.9
					C1550,423.8,1550.6,423.2,1551.3,423.2z"/>
			</g>
			<g>
				<path class="st0" d="M1557.5,423.2h0.9c0.7,0,1.3,0.6,1.3,1.3v0.9c0,0.7-0.6,1.3-1.3,1.3h-0.9c-0.7,0-1.3-0.6-1.3-1.3v-0.9
					C1556.2,423.8,1556.8,423.2,1557.5,423.2z"/>
			</g>
			<g>
				<path class="st0" d="M1563.7,423.2h0.9c0.7,0,1.3,0.6,1.3,1.3v0.9c0,0.7-0.6,1.3-1.3,1.3h-0.9c-0.7,0-1.3-0.6-1.3-1.3v-0.9
					C1562.4,423.8,1563,423.2,1563.7,423.2z"/>
			</g>
			<g>
				<path class="st0" d="M1520.4,430.7h0.9c0.7,0,1.3,0.6,1.3,1.3v0.9c0,0.7-0.6,1.3-1.3,1.3h-0.9c-0.7,0-1.3-0.6-1.3-1.3V432
					C1519.1,431.3,1519.7,430.7,1520.4,430.7z"/>
			</g>
			<g>
				<path class="st0" d="M1526.6,430.7h0.9c0.7,0,1.3,0.6,1.3,1.3v0.9c0,0.7-0.6,1.3-1.3,1.3h-0.9c-0.7,0-1.3-0.6-1.3-1.3V432
					C1525.3,431.3,1525.8,430.7,1526.6,430.7z"/>
			</g>
			<g>
				<path class="st0" d="M1532.8,430.7h0.9c0.7,0,1.3,0.6,1.3,1.3v0.9c0,0.7-0.6,1.3-1.3,1.3h-0.9c-0.7,0-1.3-0.6-1.3-1.3V432
					C1531.4,431.3,1532,430.7,1532.8,430.7z"/>
			</g>
			<g>
				<path class="st0" d="M1538.9,430.7h0.9c0.7,0,1.3,0.6,1.3,1.3v0.9c0,0.7-0.6,1.3-1.3,1.3h-0.9c-0.7,0-1.3-0.6-1.3-1.3V432
					C1537.6,431.3,1538.2,430.7,1538.9,430.7z"/>
			</g>
			<g>
				<path class="st0" d="M1545.1,430.7h0.9c0.7,0,1.3,0.6,1.3,1.3v0.9c0,0.7-0.6,1.3-1.3,1.3h-0.9c-0.7,0-1.3-0.6-1.3-1.3V432
					C1543.8,431.3,1544.4,430.7,1545.1,430.7z"/>
			</g>
			<g>
				<path class="st0" d="M1551.3,430.7h0.9c0.7,0,1.3,0.6,1.3,1.3v0.9c0,0.7-0.6,1.3-1.3,1.3h-0.9c-0.7,0-1.3-0.6-1.3-1.3V432
					C1550,431.3,1550.6,430.7,1551.3,430.7z"/>
			</g>
			<g>
				<path class="st0" d="M1557.5,430.7h0.9c0.7,0,1.3,0.6,1.3,1.3v0.9c0,0.7-0.6,1.3-1.3,1.3h-0.9c-0.7,0-1.3-0.6-1.3-1.3V432
					C1556.2,431.3,1556.8,430.7,1557.5,430.7z"/>
			</g>
			<g>
				<path class="st0" d="M1563.7,430.7h0.9c0.7,0,1.3,0.6,1.3,1.3v0.9c0,0.7-0.6,1.3-1.3,1.3h-0.9c-0.7,0-1.3-0.6-1.3-1.3V432
					C1562.4,431.3,1563,430.7,1563.7,430.7z"/>
			</g>
			<g>
				<path class="st0" d="M1520.4,438.2h0.9c0.7,0,1.3,0.6,1.3,1.3v0.9c0,0.7-0.6,1.3-1.3,1.3h-0.9c-0.7,0-1.3-0.6-1.3-1.3v-0.9
					C1519.1,438.8,1519.7,438.2,1520.4,438.2z"/>
			</g>
			<g>
				<path class="st0" d="M1526.6,438.2h0.9c0.7,0,1.3,0.6,1.3,1.3v0.9c0,0.7-0.6,1.3-1.3,1.3h-0.9c-0.7,0-1.3-0.6-1.3-1.3v-0.9
					C1525.3,438.8,1525.8,438.2,1526.6,438.2z"/>
			</g>
			<g>
				<path class="st0" d="M1532.8,438.2h0.9c0.7,0,1.3,0.6,1.3,1.3v0.9c0,0.7-0.6,1.3-1.3,1.3h-0.9c-0.7,0-1.3-0.6-1.3-1.3v-0.9
					C1531.4,438.8,1532,438.2,1532.8,438.2z"/>
			</g>
			<g>
				<path class="st0" d="M1538.9,438.2h0.9c0.7,0,1.3,0.6,1.3,1.3v0.9c0,0.7-0.6,1.3-1.3,1.3h-0.9c-0.7,0-1.3-0.6-1.3-1.3v-0.9
					C1537.6,438.8,1538.2,438.2,1538.9,438.2z"/>
			</g>
			<g>
				<path class="st0" d="M1545.1,438.2h0.9c0.7,0,1.3,0.6,1.3,1.3v0.9c0,0.7-0.6,1.3-1.3,1.3h-0.9c-0.7,0-1.3-0.6-1.3-1.3v-0.9
					C1543.8,438.8,1544.4,438.2,1545.1,438.2z"/>
			</g>
			<g>
				<path class="st0" d="M1551.3,438.2h0.9c0.7,0,1.3,0.6,1.3,1.3v0.9c0,0.7-0.6,1.3-1.3,1.3h-0.9c-0.7,0-1.3-0.6-1.3-1.3v-0.9
					C1550,438.8,1550.6,438.2,1551.3,438.2z"/>
			</g>
			<g>
				<path class="st0" d="M1557.5,438.2h0.9c0.7,0,1.3,0.6,1.3,1.3v0.9c0,0.7-0.6,1.3-1.3,1.3h-0.9c-0.7,0-1.3-0.6-1.3-1.3v-0.9
					C1556.2,438.8,1556.8,438.2,1557.5,438.2z"/>
			</g>
			<g>
				<path class="st0" d="M1563.7,438.2h0.9c0.7,0,1.3,0.6,1.3,1.3v0.9c0,0.7-0.6,1.3-1.3,1.3h-0.9c-0.7,0-1.3-0.6-1.3-1.3v-0.9
					C1562.4,438.8,1563,438.2,1563.7,438.2z"/>
			</g>
			<g>
				<path class="st0" d="M1520.4,445.7h0.9c0.7,0,1.3,0.6,1.3,1.3v0.9c0,0.7-0.6,1.3-1.3,1.3h-0.9c-0.7,0-1.3-0.6-1.3-1.3V447
					C1519.1,446.3,1519.7,445.7,1520.4,445.7z"/>
			</g>
			<g>
				<path class="st0" d="M1526.6,445.7h0.9c0.7,0,1.3,0.6,1.3,1.3v0.9c0,0.7-0.6,1.3-1.3,1.3h-0.9c-0.7,0-1.3-0.6-1.3-1.3V447
					C1525.3,446.3,1525.8,445.7,1526.6,445.7z"/>
			</g>
			<g>
				<path class="st0" d="M1532.8,445.7h0.9c0.7,0,1.3,0.6,1.3,1.3v0.9c0,0.7-0.6,1.3-1.3,1.3h-0.9c-0.7,0-1.3-0.6-1.3-1.3V447
					C1531.4,446.3,1532,445.7,1532.8,445.7z"/>
			</g>
			<g>
				<path class="st0" d="M1538.9,445.7h0.9c0.7,0,1.3,0.6,1.3,1.3v0.9c0,0.7-0.6,1.3-1.3,1.3h-0.9c-0.7,0-1.3-0.6-1.3-1.3V447
					C1537.6,446.3,1538.2,445.7,1538.9,445.7z"/>
			</g>
			<g>
				<path class="st0" d="M1545.1,445.7h0.9c0.7,0,1.3,0.6,1.3,1.3v0.9c0,0.7-0.6,1.3-1.3,1.3h-0.9c-0.7,0-1.3-0.6-1.3-1.3V447
					C1543.8,446.3,1544.4,445.7,1545.1,445.7z"/>
			</g>
			<g>
				<path class="st0" d="M1551.3,445.7h0.9c0.7,0,1.3,0.6,1.3,1.3v0.9c0,0.7-0.6,1.3-1.3,1.3h-0.9c-0.7,0-1.3-0.6-1.3-1.3V447
					C1550,446.3,1550.6,445.7,1551.3,445.7z"/>
			</g>
			<g>
				<path class="st0" d="M1557.5,445.7h0.9c0.7,0,1.3,0.6,1.3,1.3v0.9c0,0.7-0.6,1.3-1.3,1.3h-0.9c-0.7,0-1.3-0.6-1.3-1.3V447
					C1556.2,446.3,1556.8,445.7,1557.5,445.7z"/>
			</g>
			<g>
				<path class="st0" d="M1563.7,445.7h0.9c0.7,0,1.3,0.6,1.3,1.3v0.9c0,0.7-0.6,1.3-1.3,1.3h-0.9c-0.7,0-1.3-0.6-1.3-1.3V447
					C1562.4,446.3,1563,445.7,1563.7,445.7z"/>
			</g>
			<g>
				<path class="st0" d="M1520.4,453.2h0.9c0.7,0,1.3,0.6,1.3,1.3v0.9c0,0.7-0.6,1.3-1.3,1.3h-0.9c-0.7,0-1.3-0.6-1.3-1.3v-0.9
					C1519.1,453.8,1519.7,453.2,1520.4,453.2z"/>
			</g>
			<g>
				<path class="st0" d="M1526.6,453.2h0.9c0.7,0,1.3,0.6,1.3,1.3v0.9c0,0.7-0.6,1.3-1.3,1.3h-0.9c-0.7,0-1.3-0.6-1.3-1.3v-0.9
					C1525.3,453.8,1525.8,453.2,1526.6,453.2z"/>
			</g>
			<g>
				<path class="st0" d="M1532.8,453.2h0.9c0.7,0,1.3,0.6,1.3,1.3v0.9c0,0.7-0.6,1.3-1.3,1.3h-0.9c-0.7,0-1.3-0.6-1.3-1.3v-0.9
					C1531.4,453.8,1532,453.2,1532.8,453.2z"/>
			</g>
			<g>
				<path class="st0" d="M1538.9,453.2h0.9c0.7,0,1.3,0.6,1.3,1.3v0.9c0,0.7-0.6,1.3-1.3,1.3h-0.9c-0.7,0-1.3-0.6-1.3-1.3v-0.9
					C1537.6,453.8,1538.2,453.2,1538.9,453.2z"/>
			</g>
			<g>
				<path class="st0" d="M1545.1,453.2h0.9c0.7,0,1.3,0.6,1.3,1.3v0.9c0,0.7-0.6,1.3-1.3,1.3h-0.9c-0.7,0-1.3-0.6-1.3-1.3v-0.9
					C1543.8,453.8,1544.4,453.2,1545.1,453.2z"/>
			</g>
			<g>
				<path class="st0" d="M1551.3,453.2h0.9c0.7,0,1.3,0.6,1.3,1.3v0.9c0,0.7-0.6,1.3-1.3,1.3h-0.9c-0.7,0-1.3-0.6-1.3-1.3v-0.9
					C1550,453.8,1550.6,453.2,1551.3,453.2z"/>
			</g>
			<g>
				<path class="st0" d="M1557.5,453.2h0.9c0.7,0,1.3,0.6,1.3,1.3v0.9c0,0.7-0.6,1.3-1.3,1.3h-0.9c-0.7,0-1.3-0.6-1.3-1.3v-0.9
					C1556.2,453.8,1556.8,453.2,1557.5,453.2z"/>
			</g>
			<g>
				<path class="st0" d="M1563.7,453.2h0.9c0.7,0,1.3,0.6,1.3,1.3v0.9c0,0.7-0.6,1.3-1.3,1.3h-0.9c-0.7,0-1.3-0.6-1.3-1.3v-0.9
					C1562.4,453.8,1563,453.2,1563.7,453.2z"/>
			</g>
		</g>
	</g>
	<g>
		<path class="st7" d="M1375.7,236.7h-38.9c-1.1,0-2-0.9-2-2V101.3c0-1.1,0.9-2,2-2h38.9V236.7z"/>
	</g>
	<g>
		<path class="st9" d="M1474,236.7h-98.4V99.3h98.4c1.1,0,2,0.9,2,2v133.3C1476,235.8,1475.1,236.7,1474,236.7z"/>
	</g>
	<g>
		<g>
			<g>
				<path class="st2" d="M1617.8,200.9l1.2-1.2l-9.9-10.2c-0.3-0.4-0.8-0.6-1.3-0.6c0,0,0,0,0,0c-0.5,0-1,0.2-1.3,0.6l-9.2,10
					l1.3,1.2l9.2-10l0.2,0L1617.8,200.9z"/>
			</g>
		</g>
		<g>
			<g>
				<path class="st2" d="M1597.2,199.5h21.6c1.1,0,1.9,0.9,1.9,1.9V223c0,1.1-0.9,1.9-1.9,1.9h-21.6c-1.1,0-1.9-0.9-1.9-1.9v-21.6
					C1595.2,200.4,1596.1,199.5,1597.2,199.5z"/>
			</g>
		</g>
		<g>
			<g>
				<path class="st2" d="M1604.6,161.1h6.1v13h-6.1V161.1z M1608.9,162.8h-2.6v9.2h2.6V162.8z"/>
			</g>
		</g>
		<g>
			<g>
				<polygon class="st2" points="1607.1,161.8 1608,160.3 1550.9,129.2 1540.8,129.2 1540.5,129.3 1493.9,160.4 1494.8,161.8 
					1541.3,130.9 1550.4,130.9 				"/>
			</g>
		</g>
		<g>
			<g>
				<path class="st2" d="M1537.4,171.1h16.9V337h-16.9V171.1z M1552.6,172.9h-13.5v162.4h13.5V172.9z"/>
			</g>
		</g>
		<g>
			<g>
				
					<rect x="1545.1" y="169.2" transform="matrix(0.7646 -0.6445 0.6445 0.7646 247.2135 1039.0001)" class="st2" width="1.7" height="23.7"/>
			</g>
		</g>
		<g>
			<g>
				
					<rect x="1533.9" y="180.2" transform="matrix(0.6445 -0.7646 0.7646 0.6445 411.0734 1246.2458)" class="st2" width="23.7" height="1.7"/>
			</g>
		</g>
		<g>
			<g>
				<rect x="1538.2" y="189.2" class="st2" width="15.3" height="1.7"/>
			</g>
		</g>
		<g>
			<g>
				
					<rect x="1545.1" y="187.3" transform="matrix(0.7646 -0.6445 0.6445 0.7646 235.5401 1043.2637)" class="st2" width="1.7" height="23.7"/>
			</g>
		</g>
		<g>
			<g>
				
					<rect x="1533.9" y="198.3" transform="matrix(0.6445 -0.7646 0.7646 0.6445 397.2122 1252.672)" class="st2" width="23.7" height="1.7"/>
			</g>
		</g>
		<g>
			<g>
				<rect x="1538.2" y="207.3" class="st2" width="15.3" height="1.7"/>
			</g>
		</g>
		<g>
			<g>
				
					<rect x="1545.1" y="205.4" transform="matrix(0.7646 -0.6445 0.6445 0.7646 223.8667 1047.5272)" class="st2" width="1.7" height="23.7"/>
			</g>
		</g>
		<g>
			<g>
				
					<rect x="1533.9" y="216.4" transform="matrix(0.6445 -0.7646 0.7646 0.6445 383.3633 1259.1111)" class="st2" width="23.7" height="1.7"/>
			</g>
		</g>
		<g>
			<g>
				<rect x="1538.2" y="225.5" class="st2" width="15.3" height="1.7"/>
			</g>
		</g>
		<g>
			<g>
				
					<rect x="1545.1" y="223.6" transform="matrix(0.7646 -0.6445 0.6445 0.7646 212.1933 1051.7908)" class="st2" width="1.7" height="23.7"/>
			</g>
		</g>
		<g>
			<g>
				
					<rect x="1533.9" y="234.5" transform="matrix(0.6445 -0.7646 0.7646 0.6445 369.5143 1265.5502)" class="st2" width="23.7" height="1.7"/>
			</g>
		</g>
		<g>
			<g>
				<rect x="1538.2" y="243.6" class="st2" width="15.3" height="1.7"/>
			</g>
		</g>
		<g>
			<g>
				
					<rect x="1545.1" y="241.7" transform="matrix(0.7646 -0.6445 0.6445 0.7646 200.5199 1056.0542)" class="st2" width="1.7" height="23.7"/>
			</g>
		</g>
		<g>
			<g>
				
					<rect x="1533.9" y="252.7" transform="matrix(0.6445 -0.7646 0.7646 0.6445 355.6654 1271.9893)" class="st2" width="23.7" height="1.7"/>
			</g>
		</g>
		<g>
			<g>
				<rect x="1538.2" y="261.7" class="st2" width="15.3" height="1.7"/>
			</g>
		</g>
		<g>
			<g>
				
					<rect x="1545.1" y="259.8" transform="matrix(0.7646 -0.6445 0.6445 0.7646 188.8463 1060.3179)" class="st2" width="1.7" height="23.7"/>
			</g>
		</g>
		<g>
			<g>
				
					<rect x="1533.9" y="270.8" transform="matrix(0.6445 -0.7646 0.7646 0.6445 341.8162 1278.4285)" class="st2" width="23.7" height="1.7"/>
			</g>
		</g>
		<g>
			<g>
				<rect x="1538.2" y="279.8" class="st2" width="15.3" height="1.7"/>
			</g>
		</g>
		<g>
			<g>
				
					<rect x="1545.1" y="277.9" transform="matrix(0.7646 -0.6445 0.6445 0.7646 177.1729 1064.5814)" class="st2" width="1.7" height="23.7"/>
			</g>
		</g>
		<g>
			<g>
				
					<rect x="1533.9" y="288.9" transform="matrix(0.6445 -0.7646 0.7646 0.6445 327.9673 1284.8676)" class="st2" width="23.7" height="1.7"/>
			</g>
		</g>
		<g>
			<g>
				<rect x="1538.2" y="297.9" class="st2" width="15.3" height="1.7"/>
			</g>
		</g>
		<g>
			<g>
				
					<rect x="1545.1" y="296" transform="matrix(0.7646 -0.6445 0.6445 0.7646 165.4994 1068.845)" class="st2" width="1.7" height="23.7"/>
			</g>
		</g>
		<g>
			<g>
				
					<rect x="1533.9" y="307" transform="matrix(0.6445 -0.7646 0.7646 0.6445 314.1295 1291.3208)" class="st2" width="23.7" height="1.7"/>
			</g>
		</g>
		<g>
			<g>
				
					<rect x="1545.1" y="314.3" transform="matrix(0.7646 -0.6445 0.6445 0.7646 153.7228 1073.1462)" class="st2" width="1.7" height="23.7"/>
			</g>
		</g>
		<g>
			<g>
				
					<rect x="1533.9" y="325.3" transform="matrix(0.6445 -0.7646 0.7646 0.6445 300.1579 1297.817)" class="st2" width="23.7" height="1.7"/>
			</g>
		</g>
		<g>
			<g>
				<rect x="1538.2" y="316" class="st2" width="15.3" height="1.7"/>
			</g>
		</g>
		<g>
			<g>
				<path class="st2" d="M1540.3,129.3h11v32.4h-11V129.3z M1549.5,131h-7.5v29h7.5V131z"/>
			</g>
		</g>
		<g>
			<g>
				
					<rect x="1545" y="128.5" transform="matrix(0.7655 -0.6434 0.6434 0.7655 275.2184 1026.4679)" class="st2" width="1.7" height="14.4"/>
			</g>
		</g>
		<g>
			<g>
				
					<rect x="1538.4" y="134.8" transform="matrix(0.6435 -0.7655 0.7655 0.6435 447.2056 1231.4587)" class="st2" width="14.4" height="1.7"/>
			</g>
		</g>
		<g>
			<g>
				<rect x="1541.1" y="140.3" class="st2" width="9.3" height="1.7"/>
			</g>
		</g>
		<g>
			<g>
				
					<rect x="1545" y="139.5" transform="matrix(0.7655 -0.6434 0.6434 0.7655 268.1297 1029.0515)" class="st2" width="1.7" height="14.4"/>
			</g>
		</g>
		<g>
			<g>
				
					<rect x="1538.4" y="145.8" transform="matrix(0.6435 -0.7655 0.7655 0.6435 438.752 1235.3658)" class="st2" width="14.4" height="1.7"/>
			</g>
		</g>
		<g>
			<g>
				<rect x="1541.1" y="151.3" class="st2" width="9.3" height="1.7"/>
			</g>
		</g>
		<g>
			<g>
				
					<rect x="1545" y="150.5" transform="matrix(0.7655 -0.6434 0.6434 0.7655 261.041 1031.635)" class="st2" width="1.7" height="14.4"/>
			</g>
		</g>
		<g>
			<g>
				
					<rect x="1538.4" y="156.8" transform="matrix(0.6435 -0.7655 0.7655 0.6435 430.3394 1239.3146)" class="st2" width="14.4" height="1.7"/>
			</g>
		</g>
		<g>
			<g>
				<rect x="1541.1" y="162.3" class="st2" width="9.3" height="1.7"/>
			</g>
		</g>
		<g>
			<g>
				<path class="st2" d="M1538.3,161.1h14.9c1.1,0,1.9,0.9,1.9,1.9v12c0,1.1-0.9,1.9-1.9,1.9h-14.9c-1.1,0-1.9-0.9-1.9-1.9v-12
					C1536.4,162,1537.2,161.1,1538.3,161.1z"/>
			</g>
		</g>
		<g>
			<g>
				<path class="st2" d="M1492.5,160.5h116.1c0.6,0,1.1,0.5,1.1,1.1l0,0c0,0.6-0.5,1.1-1.1,1.1h-116.1c-0.6,0-1.1-0.5-1.1-1.1l0,0
					C1491.4,161,1491.9,160.5,1492.5,160.5z"/>
			</g>
		</g>
		<g>
			<g>
				<circle class="st2" cx="1494.6" cy="161.6" r="2.9"/>
			</g>
			<g>
				<path class="st2" d="M1490.8,161.6c0-2.1,1.7-3.8,3.8-3.8c2.1,0,3.8,1.7,3.8,3.8c0,2.1-1.7,3.8-3.8,3.8
					C1492.5,165.4,1490.8,163.7,1490.8,161.6z M1492.5,161.6c0,1.1,0.9,2.1,2.1,2.1c1.1,0,2.1-0.9,2.1-2.1c0-1.1-0.9-2.1-2.1-2.1
					C1493.5,159.5,1492.5,160.5,1492.5,161.6z"/>
			</g>
		</g>
		<g>
			<g>
				<circle class="st2" cx="1607.6" cy="161.6" r="2.9"/>
			</g>
			<g>
				<path class="st2" d="M1603.8,161.6c0-2.1,1.7-3.8,3.8-3.8c2.1,0,3.8,1.7,3.8,3.8c0,2.1-1.7,3.8-3.8,3.8
					C1605.5,165.4,1603.8,163.7,1603.8,161.6z M1605.6,161.6c0,1.1,0.9,2.1,2.1,2.1c1.1,0,2.1-0.9,2.1-2.1c0-1.1-0.9-2.1-2.1-2.1
					C1606.5,159.5,1605.6,160.5,1605.6,161.6z"/>
			</g>
		</g>
		<g>
			<g>
				<path class="st2" d="M1604.5,165.7h6.3v11.7c0,1.7-1.4,3.1-3.1,3.1s-3.1-1.4-3.1-3.1V165.7z"/>
			</g>
		</g>
		<g>
			<g>
				<rect x="1606.8" y="180.5" class="st2" width="1.7" height="3.4"/>
			</g>
		</g>
		<g>
			<g>
				<path class="st3" d="M1607.1,192.9c2.3,0,4.3-1.6,4.9-3.8l0.3-1.1h-2.5l-0.2,0.6c-0.4,1.1-1.4,1.8-2.5,1.8
					c-1.4,0-2.6-1.2-2.6-2.6c0-1.4,1.2-2.6,2.6-2.6c0.1,0,0.2,0,0.4,0l1,0.1v-2.5l-0.8-0.1c-0.2,0-0.4,0-0.6,0
					c-2.8,0-5.1,2.3-5.1,5.1C1602.1,190.6,1604.3,192.9,1607.1,192.9z"/>
			</g>
		</g>
		<g>
			<g>
				<path class="st2" d="M1532.2,336.9h26.8c1.1,0,1.9,0.9,1.9,1.9v9.6c0,1.1-0.9,1.9-1.9,1.9h-26.8c-1.1,0-1.9-0.9-1.9-1.9v-9.6
					C1530.2,337.8,1531.1,336.9,1532.2,336.9z"/>
			</g>
		</g>
		<g>
			<g>
				<circle class="st2" cx="1553.8" cy="351" r="3.6"/>
			</g>
		</g>
		<g>
			<g>
				<circle class="st2" cx="1538.2" cy="351" r="3.6"/>
			</g>
		</g>
	</g>
	<g>
		<path class="st15" d="M1920,484.3V581h-62.8v-15.1c0-36.4-44-67.2-104.9-77.9h-195.3c-60.9,10.7-104.9,41.5-104.9,77.9V581h-55.7
			v-15.1c0-36.4-44-67.2-104.9-77.9h-195.3c-60.9,10.7-104.9,41.5-104.9,77.9V581H943v-15.1c0-36.4-44-67.2-104.9-77.9H642.8
			c-60.9,10.7-104.9,41.5-104.9,77.9V581h-53.2v-15.1c0-36.4-44-67.2-104.9-77.9H184.5c-60.9,10.7-104.9,41.5-104.9,77.9V581H0.3
			C0.1,531.8,0,484.3,0,484.3H1920z"/>
	</g>
	<g>
		<rect y="470.9" class="st16" width="1920" height="21.3"/>
	</g>
	<g>
		<g>
			<g>
				<path class="st7" d="M1017,401.1h73.6c1.4,0,2.5,1.1,2.5,2.5v60.3c0,1.4-1.1,2.5-2.5,2.5H1017c-1.4,0-2.5-1.1-2.5-2.5v-60.3
					C1014.5,402.2,1015.6,401.1,1017,401.1z"/>
			</g>
			<g>
				<path class="st7" d="M1070,363.8h9.1V397h-9.1c-1.1,0-2-0.9-2-2v-29.3C1068,364.7,1068.9,363.8,1070,363.8z"/>
			</g>
		</g>
		<g>
			<path class="st9" d="M1032.7,401.1h73.6c1.4,0,2.5,1.1,2.5,2.5v60.3c0,1.4-1.1,2.5-2.5,2.5h-73.6c-1.4,0-2.5-1.1-2.5-2.5v-60.3
				C1030.2,402.2,1031.3,401.1,1032.7,401.1z"/>
		</g>
	</g>
	<g>
		<path class="st8" d="M1078.8,363.8h27.7c1.3,0,2.3,1.1,2.3,2.5v28.2c0,1.4-1,2.5-2.3,2.5h-27.7V363.8z"/>
	</g>
	<g>
		<g>
			<path class="st7" d="M1115.2,433.3h8.3v33.3h-8.3c-1.1,0-2-0.9-2-2v-29.3C1113.2,434.2,1114.1,433.3,1115.2,433.3z"/>
		</g>
		<g>
			<path class="st8" d="M1124,433.3h27.7c1.3,0,2.3,1.1,2.3,2.5V464c0,1.4-1,2.5-2.3,2.5H1124V433.3z"/>
		</g>
	</g>
	<g>
		<g>
			<path class="st4" d="M1556.2,466.8h-69.1c-1.1,0-2-0.9-2-2v-70.6c0-1.1,0.9-2,2-2h69.1V466.8z"/>
		</g>
		<g>
			<path class="st4" d="M1555.7,388.3h-69.1c-1.1,0-2-0.9-2-2V258.5c0-1.1,0.9-2,2-2h69.1V388.3z"/>
		</g>
		<g>
			<path class="st17" d="M1630.1,388.3h-74.3V256.5h74.3c1.1,0,2,0.9,2,2v127.7C1632.1,387.4,1631.2,388.3,1630.1,388.3z"/>
		</g>
		<g>
			<path class="st5" d="M1630.1,466.8h-74.3v-74.6h74.3c1.1,0,2,0.9,2,2v70.6C1632.1,465.9,1631.2,466.8,1630.1,466.8z"/>
		</g>
		<g>
			<g>
				<path class="st6" d="M1582.6,297.8h-9.9c-0.6,0-1-0.4-1-1v-24.2c0-0.6,0.4-1,1-1h9.9c0.6,0,1,0.4,1,1v24.2
					C1583.6,297.4,1583.2,297.8,1582.6,297.8z"/>
				<path class="st0" d="M1582.6,298.8h-9.9c-1.1,0-2-0.9-2-2v-24.2c0-1.1,0.9-2,2-2h9.9c1.1,0,2,0.9,2,2v24.2
					C1584.6,297.9,1583.7,298.8,1582.6,298.8z M1572.7,272.7v24.2h9.9l0-24.2H1572.7z"/>
			</g>
			<g>
				<path class="st6" d="M1600.9,297.8h-9.9c-0.6,0-1-0.4-1-1v-24.2c0-0.6,0.4-1,1-1h9.9c0.6,0,1,0.4,1,1v24.2
					C1601.9,297.4,1601.4,297.8,1600.9,297.8z"/>
				<path class="st0" d="M1600.9,298.8h-9.9c-1.1,0-2-0.9-2-2v-24.2c0-1.1,0.9-2,2-2h9.9c1.1,0,2,0.9,2,2v24.2
					C1602.9,297.9,1602,298.8,1600.9,298.8z M1591,272.7v24.2h9.9l0-24.2H1591z"/>
			</g>
			<g>
				<path class="st6" d="M1619.6,297.8h-9.9c-0.6,0-1-0.4-1-1v-24.2c0-0.6,0.4-1,1-1h9.9c0.6,0,1,0.4,1,1v24.2
					C1620.6,297.4,1620.1,297.8,1619.6,297.8z"/>
				<path class="st0" d="M1619.6,298.8h-9.9c-1.1,0-2-0.9-2-2v-24.2c0-1.1,0.9-2,2-2h9.9c1.1,0,2,0.9,2,2v24.2
					C1621.6,297.9,1620.7,298.8,1619.6,298.8z M1609.6,272.7v24.2h9.9l0-24.2H1609.6z"/>
			</g>
		</g>
		<g>
			<g>
				<path class="st6" d="M1523.4,297.8h-9.9c-0.6,0-1-0.4-1-1v-24.2c0-0.6,0.4-1,1-1h9.9c0.6,0,1,0.4,1,1v24.2
					C1524.4,297.4,1524,297.8,1523.4,297.8z"/>
				<path class="st0" d="M1523.4,298.8h-9.9c-1.1,0-2-0.9-2-2v-24.2c0-1.1,0.9-2,2-2h9.9c1.1,0,2,0.9,2,2v24.2
					C1525.4,297.9,1524.5,298.8,1523.4,298.8z M1513.5,272.7v24.2h9.9l0-24.2H1513.5z"/>
			</g>
		</g>
		<g>
			<g>
				<path class="st6" d="M1360.8,156.5h-9.9c-0.6,0-1-0.4-1-1v-24.2c0-0.6,0.4-1,1-1h9.9c0.6,0,1,0.4,1,1v24.2
					C1361.8,156.1,1361.3,156.5,1360.8,156.5z"/>
				<path class="st0" d="M1360.8,157.5h-9.9c-1.1,0-2-0.9-2-2v-24.2c0-1.1,0.9-2,2-2h9.9c1.1,0,2,0.9,2,2v24.2
					C1362.8,156.6,1361.9,157.5,1360.8,157.5z M1350.8,131.3v24.2h9.9l0-24.2H1350.8z"/>
			</g>
		</g>
		<g>
			<g>
				<path class="st6" d="M1360.8,208.1h-9.9c-0.6,0-1-0.4-1-1v-24.2c0-0.6,0.4-1,1-1h9.9c0.6,0,1,0.4,1,1v24.2
					C1361.8,207.6,1361.3,208.1,1360.8,208.1z"/>
				<path class="st0" d="M1360.8,209.1h-9.9c-1.1,0-2-0.9-2-2v-24.2c0-1.1,0.9-2,2-2h9.9c1.1,0,2,0.9,2,2v24.2
					C1362.8,208.2,1361.9,209.1,1360.8,209.1z M1350.8,182.9v24.2h9.9l0-24.2H1350.8z"/>
			</g>
		</g>
		<g>
			<g>
				<path class="st6" d="M1582.6,336.5h-9.9c-0.6,0-1-0.4-1-1v-24.2c0-0.6,0.4-1,1-1h9.9c0.6,0,1,0.4,1,1v24.2
					C1583.6,336.1,1583.2,336.5,1582.6,336.5z"/>
				<path class="st0" d="M1582.6,337.5h-9.9c-1.1,0-2-0.9-2-2v-24.2c0-1.1,0.9-2,2-2h9.9c1.1,0,2,0.9,2,2v24.2
					C1584.6,336.6,1583.7,337.5,1582.6,337.5z M1572.7,311.3v24.2h9.9l0-24.2H1572.7z"/>
			</g>
			<g>
				<path class="st6" d="M1600.9,336.5h-9.9c-0.6,0-1-0.4-1-1v-24.2c0-0.6,0.4-1,1-1h9.9c0.6,0,1,0.4,1,1v24.2
					C1601.9,336.1,1601.4,336.5,1600.9,336.5z"/>
				<path class="st0" d="M1600.9,337.5h-9.9c-1.1,0-2-0.9-2-2v-24.2c0-1.1,0.9-2,2-2h9.9c1.1,0,2,0.9,2,2v24.2
					C1602.9,336.6,1602,337.5,1600.9,337.5z M1591,311.3v24.2h9.9l0-24.2H1591z"/>
			</g>
			<g>
				<path class="st6" d="M1619.6,336.5h-9.9c-0.6,0-1-0.4-1-1v-24.2c0-0.6,0.4-1,1-1h9.9c0.6,0,1,0.4,1,1v24.2
					C1620.6,336.1,1620.1,336.5,1619.6,336.5z"/>
				<path class="st0" d="M1619.6,337.5h-9.9c-1.1,0-2-0.9-2-2v-24.2c0-1.1,0.9-2,2-2h9.9c1.1,0,2,0.9,2,2v24.2
					C1621.6,336.6,1620.7,337.5,1619.6,337.5z M1609.6,311.3v24.2h9.9l0-24.2H1609.6z"/>
			</g>
		</g>
		<g>
			<g>
				<path class="st6" d="M1524.3,336.5h-9.9c-0.6,0-1-0.4-1-1v-24.2c0-0.6,0.4-1,1-1h9.9c0.6,0,1,0.4,1,1v24.2
					C1525.3,336.1,1524.9,336.5,1524.3,336.5z"/>
				<path class="st0" d="M1524.3,337.5h-9.9c-1.1,0-2-0.9-2-2v-24.2c0-1.1,0.9-2,2-2h9.9c1.1,0,2,0.9,2,2v24.2
					C1526.3,336.6,1525.4,337.5,1524.3,337.5z M1514.4,311.3v24.2h9.9l0-24.2H1514.4z"/>
			</g>
		</g>
		<g>
			<g>
				<path class="st6" d="M1582.6,375.2h-9.9c-0.6,0-1-0.4-1-1V350c0-0.6,0.4-1,1-1h9.9c0.6,0,1,0.4,1,1v24.2
					C1583.6,374.7,1583.2,375.2,1582.6,375.2z"/>
				<path class="st0" d="M1582.6,376.2h-9.9c-1.1,0-2-0.9-2-2V350c0-1.1,0.9-2,2-2h9.9c1.1,0,2,0.9,2,2v24.2
					C1584.6,375.3,1583.7,376.2,1582.6,376.2z M1572.7,350v24.2h9.9l0-24.2H1572.7z"/>
			</g>
			<g>
				<path class="st6" d="M1600.9,375.2h-9.9c-0.6,0-1-0.4-1-1V350c0-0.6,0.4-1,1-1h9.9c0.6,0,1,0.4,1,1v24.2
					C1601.9,374.7,1601.4,375.2,1600.9,375.2z"/>
				<path class="st0" d="M1600.9,376.2h-9.9c-1.1,0-2-0.9-2-2V350c0-1.1,0.9-2,2-2h9.9c1.1,0,2,0.9,2,2v24.2
					C1602.9,375.3,1602,376.2,1600.9,376.2z M1591,350v24.2h9.9l0-24.2H1591z"/>
			</g>
			<g>
				<path class="st6" d="M1619.6,375.2h-9.9c-0.6,0-1-0.4-1-1V350c0-0.6,0.4-1,1-1h9.9c0.6,0,1,0.4,1,1v24.2
					C1620.6,374.7,1620.1,375.2,1619.6,375.2z"/>
				<path class="st0" d="M1619.6,376.2h-9.9c-1.1,0-2-0.9-2-2V350c0-1.1,0.9-2,2-2h9.9c1.1,0,2,0.9,2,2v24.2
					C1621.6,375.3,1620.7,376.2,1619.6,376.2z M1609.6,350v24.2h9.9l0-24.2H1609.6z"/>
			</g>
		</g>
		<g>
			<g>
				<path class="st6" d="M1525.2,375.2h-9.9c-0.6,0-1-0.4-1-1V350c0-0.6,0.4-1,1-1h9.9c0.6,0,1,0.4,1,1v24.2
					C1526.2,374.7,1525.7,375.2,1525.2,375.2z"/>
				<path class="st0" d="M1525.2,376.2h-9.9c-1.1,0-2-0.9-2-2V350c0-1.1,0.9-2,2-2h9.9c1.1,0,2,0.9,2,2v24.2
					C1527.2,375.3,1526.3,376.2,1525.2,376.2z M1515.3,350v24.2h9.9l0-24.2H1515.3z"/>
			</g>
		</g>
		<g>
			<g>
				<path class="st6" d="M1525.2,442.7h-9.9c-0.6,0-1-0.4-1-1v-24.2c0-0.6,0.4-1,1-1h9.9c0.6,0,1,0.4,1,1v24.2
					C1526.2,442.2,1525.7,442.7,1525.2,442.7z"/>
				<path class="st0" d="M1525.2,443.7h-9.9c-1.1,0-2-0.9-2-2v-24.2c0-1.1,0.9-2,2-2h9.9c1.1,0,2,0.9,2,2v24.2
					C1527.2,442.8,1526.3,443.7,1525.2,443.7z M1515.3,417.5v24.2h9.9l0-24.2H1515.3z"/>
			</g>
		</g>
		<g>
			<path class="st6" d="M1616.4,465.3h-45.1c-1.1,0-2-0.9-2-2V433c0-1.1,0.9-2,2-2h45.1c1.1,0,2,0.9,2,2v30.3
				C1618.4,464.4,1617.5,465.3,1616.4,465.3z"/>
			<path class="st0" d="M1616.4,466.3h-45.1c-1.7,0-3-1.3-3-3V433c0-1.7,1.3-3,3-3h45.1c1.7,0,3,1.3,3,3v30.3
				C1619.4,465,1618.1,466.3,1616.4,466.3z M1571.4,432c-0.6,0-1,0.4-1,1v30.3c0,0.6,0.4,1,1,1h45.1c0.6,0,1-0.4,1-1V433
				c0-0.6-0.4-1-1-1H1571.4z"/>
		</g>
		<g>
			<line class="st6" x1="1595.1" y1="430.8" x2="1595.1" y2="465.5"/>
			<rect x="1594.1" y="430.8" class="st0" width="2" height="34.7"/>
		</g>
		<g>
			<g>
				<path class="st4" d="M1634.8,252.3h-150.4c-1.1,0-2-0.9-2-2v-5c0-1.1,0.9-2,2-2h150.4c1.1,0,2,0.9,2,2v5
					C1636.8,251.5,1635.9,252.3,1634.8,252.3z"/>
			</g>
			<g>
				<path class="st17" d="M1634.9,252.3h-80.4v-9h80.4c1.1,0,2,0.9,2,2v5C1636.9,251.4,1636,252.3,1634.9,252.3z"/>
			</g>
		</g>
		<g>
			<g>
				<ellipse class="st10" cx="1600" cy="454.2" rx="1.9" ry="1.9"/>
			</g>
			<g>
				<ellipse class="st10" cx="1589.9" cy="454.2" rx="1.9" ry="1.9"/>
			</g>
		</g>
	</g>
	<g>
		<path class="st6" d="M1416.6,147.7h-14.5c-0.6,0-1-0.4-1-1v-24.2c0-0.6,0.4-1,1-1h14.5c0.6,0,1,0.4,1,1v24.2
			C1417.6,147.2,1417.2,147.7,1416.6,147.7z"/>
		<path class="st0" d="M1416.6,148.7h-14.5c-1.1,0-2-0.9-2-2v-24.2c0-1.1,0.9-2,2-2h14.5c1.1,0,2,0.9,2,2v24.2
			C1418.6,147.8,1417.7,148.7,1416.6,148.7z M1402.1,122.5v24.2h14.5l0-24.2H1402.1z"/>
	</g>
	<g>
		<path class="st6" d="M1453,147.7h-14.5c-0.6,0-1-0.4-1-1v-24.2c0-0.6,0.4-1,1-1h14.5c0.6,0,1,0.4,1,1v24.2
			C1454,147.2,1453.6,147.7,1453,147.7z"/>
		<path class="st0" d="M1453,148.7h-14.5c-1.1,0-2-0.9-2-2v-24.2c0-1.1,0.9-2,2-2h14.5c1.1,0,2,0.9,2,2v24.2
			C1455,147.8,1454.1,148.7,1453,148.7z M1438.5,122.5v24.2h14.5l0-24.2H1438.5z"/>
	</g>
	<g>
		<path class="st6" d="M1416.6,186.3h-14.5c-0.6,0-1-0.4-1-1v-24.2c0-0.6,0.4-1,1-1h14.5c0.6,0,1,0.4,1,1v24.2
			C1417.6,185.9,1417.2,186.3,1416.6,186.3z"/>
		<path class="st0" d="M1416.6,187.3h-14.5c-1.1,0-2-0.9-2-2v-24.2c0-1.1,0.9-2,2-2h14.5c1.1,0,2,0.9,2,2v24.2
			C1418.6,186.4,1417.7,187.3,1416.6,187.3z M1402.1,161.2v24.2h14.5l0-24.2H1402.1z"/>
	</g>
	<g>
		<path class="st6" d="M1453,186.3h-14.5c-0.6,0-1-0.4-1-1v-24.2c0-0.6,0.4-1,1-1h14.5c0.6,0,1,0.4,1,1v24.2
			C1454,185.9,1453.6,186.3,1453,186.3z"/>
		<path class="st0" d="M1453,187.3h-14.5c-1.1,0-2-0.9-2-2v-24.2c0-1.1,0.9-2,2-2h14.5c1.1,0,2,0.9,2,2v24.2
			C1455,186.4,1454.1,187.3,1453,187.3z M1438.5,161.2v24.2h14.5l0-24.2H1438.5z"/>
	</g>
	<g>
		<path class="st6" d="M1416.6,225h-14.5c-0.6,0-1-0.4-1-1v-24.2c0-0.6,0.4-1,1-1h14.5c0.6,0,1,0.4,1,1V224
			C1417.6,224.6,1417.2,225,1416.6,225z"/>
		<path class="st0" d="M1416.6,226h-14.5c-1.1,0-2-0.9-2-2v-24.2c0-1.1,0.9-2,2-2h14.5c1.1,0,2,0.9,2,2V224
			C1418.6,225.1,1417.7,226,1416.6,226z M1402.1,199.8V224h14.5l0-24.2H1402.1z"/>
	</g>
	<g>
		<path class="st6" d="M1453,225h-14.5c-0.6,0-1-0.4-1-1v-24.2c0-0.6,0.4-1,1-1h14.5c0.6,0,1,0.4,1,1V224
			C1454,224.6,1453.6,225,1453,225z"/>
		<path class="st0" d="M1453,226h-14.5c-1.1,0-2-0.9-2-2v-24.2c0-1.1,0.9-2,2-2h14.5c1.1,0,2,0.9,2,2V224
			C1455,225.1,1454.1,226,1453,226z M1438.5,199.8V224h14.5l0-24.2H1438.5z"/>
	</g>
	<g>
		<g>
			<path class="st15" d="M1715.3,397.8c1.8-5.8,10.1-5.8,11.9,0l21.1,68.6H1694L1715.3,397.8z"/>
		</g>
		<g>
			<path class="st0" d="M1736.7,466.4h-2v-85.1c0-2.9-2.3-5.2-5.2-5.2h-2.1c-2.9,0-5.2,2.3-5.2,5.2v12.1h-2v-12.1
				c0-4,3.2-7.2,7.2-7.2h2.1c4,0,7.2,3.2,7.2,7.2V466.4z"/>
		</g>
		<g>
			<circle class="st16" cx="1721.2" cy="399.2" r="5.1"/>
		</g>
		<g>
			<path class="st18" d="M1728,400.6c0-0.1,0-0.2,0-0.3c0-3.8-3.1-6.8-6.8-6.8s-6.8,3.1-6.8,6.8c0,0.1,0,0.2,0,0.3H1728z"/>
		</g>
		<g>
			<path class="st0" d="M1729,400.7c-0.5-3.9-3.8-6.8-7.8-6.8s-7.3,2.9-7.8,6.8l-2-0.2c0.6-4.9,4.8-8.6,9.8-8.6s9.1,3.7,9.8,8.6
				L1729,400.7z"/>
		</g>
	</g>
	<g>
		<path class="st18" d="M1463.4,42.7c0.1-0.6,0.1-1.3,0.1-1.9c0-22-25.4-39.8-56.7-39.8c-31.3,0-56.7,17.8-56.7,39.8
			c0,0.6,0,1.3,0.1,1.9H1463.4z"/>
	</g>
	<g>
		<g>
			<g>
				<path class="st7" d="M1376.7,94.2h-40.1c-1.1,0-2-0.9-2-2V63.4c0-1.1,0.9-2,2-2h40.1V94.2z"/>
			</g>
			<g>
				<path class="st8" d="M1474,94.2h-97.6V61.4h97.6c1.1,0,2,0.9,2,2v28.8C1476,93.3,1475.1,94.2,1474,94.2z"/>
			</g>
		</g>
		<g>
			<g>
				<path class="st6" d="M1406.1,86.4h-15.7c-0.6,0-1-0.4-1-1V70.8c0-0.6,0.4-1,1-1h15.7c0.6,0,1,0.4,1,1v14.7
					C1407.1,86,1406.7,86.4,1406.1,86.4z"/>
				<path class="st0" d="M1406.1,87.4h-15.7c-1.1,0-2-0.9-2-2V70.8c0-1.1,0.9-2,2-2h15.7c1.1,0,2,0.9,2,2v14.7
					C1408.1,86.5,1407.2,87.4,1406.1,87.4z M1390.4,70.8v14.7h15.7l0-14.7H1390.4z"/>
			</g>
			<g>
				<path class="st6" d="M1433.3,86.4h-15.7c-0.6,0-1-0.4-1-1V70.8c0-0.6,0.4-1,1-1h15.7c0.6,0,1,0.4,1,1v14.7
					C1434.3,86,1433.8,86.4,1433.3,86.4z"/>
				<path class="st0" d="M1433.3,87.4h-15.7c-1.1,0-2-0.9-2-2V70.8c0-1.1,0.9-2,2-2h15.7c1.1,0,2,0.9,2,2v14.7
					C1435.3,86.5,1434.4,87.4,1433.3,87.4z M1417.5,70.8v14.7h15.7l0-14.7H1417.5z"/>
			</g>
			<g>
				<path class="st6" d="M1461.1,86.4h-15.7c-0.6,0-1-0.4-1-1V70.8c0-0.6,0.4-1,1-1h15.7c0.6,0,1,0.4,1,1v14.7
					C1462.1,86,1461.6,86.4,1461.1,86.4z"/>
				<path class="st0" d="M1461.1,87.4h-15.7c-1.1,0-2-0.9-2-2V70.8c0-1.1,0.9-2,2-2h15.7c1.1,0,2,0.9,2,2v14.7
					C1463.1,86.5,1462.2,87.4,1461.1,87.4z M1445.3,70.8v14.7h15.7l0-14.7H1445.3z"/>
			</g>
		</g>
	</g>
	<g>
		<path class="st6" d="M1615.4,422h-44.1c-1.1,0-2-0.9-2-2v-12c0-1.1,0.9-2,2-2h44.1c1.1,0,2,0.9,2,2v12
			C1617.4,421.1,1616.5,422,1615.4,422z"/>
		<path class="st0" d="M1615.4,423h-44.1c-1.7,0-3-1.3-3-3v-12c0-1.7,1.3-3,3-3h44.1c1.7,0,3,1.3,3,3v12
			C1618.4,421.7,1617.1,423,1615.4,423z M1571.3,407c-0.6,0-1,0.4-1,1v12c0,0.6,0.4,1,1,1h44.1c0.6,0,1-0.4,1-1v-12c0-0.6-0.4-1-1-1
			H1571.3z"/>
	</g>
	<g>
		<g>
			<path class="st4" d="M1238.6,465.6h-77.2c-1.1,0-2-0.9-2-2v-94.4c0-1.1,0.9-2,2-2h77.2V465.6z"/>
		</g>
		<g>
			<path class="st17" d="M1321.2,465.5h-83.1v-98.4h83.1c1.1,0,2,0.9,2,2v94.4C1323.2,464.6,1322.3,465.5,1321.2,465.5z"/>
		</g>
		<g>
			<path class="st6" d="M1283.8,416.7h-31.2c-1.1,0-2-0.9-2-2v-35c0-1.1,0.9-2,2-2h31.2c1.1,0,2,0.9,2,2v35
				C1285.8,415.8,1284.9,416.7,1283.8,416.7z"/>
			<path class="st0" d="M1283.8,417.7h-31.2c-1.7,0-3-1.3-3-3v-35c0-1.7,1.3-3,3-3h31.2c1.7,0,3,1.3,3,3v35
				C1286.8,416.3,1285.4,417.7,1283.8,417.7z M1252.6,378.7c-0.6,0-1,0.4-1,1v35c0,0.6,0.4,1,1,1h31.2c0.6,0,1-0.4,1-1v-35
				c0-0.6-0.4-1-1-1H1252.6z"/>
		</g>
		<g>
			<path class="st6" d="M1215.8,434.7h-31.2c-1.1,0-2-0.9-2-2v-35c0-1.1,0.9-2,2-2h31.2c1.1,0,2,0.9,2,2v35
				C1217.8,433.8,1216.9,434.7,1215.8,434.7z"/>
			<path class="st0" d="M1215.8,435.7h-31.2c-1.7,0-3-1.3-3-3v-35c0-1.7,1.3-3,3-3h31.2c1.7,0,3,1.3,3,3v35
				C1218.8,434.3,1217.4,435.7,1215.8,435.7z M1184.6,396.7c-0.6,0-1,0.4-1,1v35c0,0.6,0.4,1,1,1h31.2c0.6,0,1-0.4,1-1v-35
				c0-0.6-0.4-1-1-1H1184.6z"/>
		</g>
		<g>
			<path class="st6" d="M1283.8,462h-31.2c-1.1,0-2-0.9-2-2v-27.6c0-1.1,0.9-2,2-2h31.2c1.1,0,2,0.9,2,2V460
				C1285.8,461.1,1284.9,462,1283.8,462z"/>
			<path class="st0" d="M1283.8,463h-31.2c-1.7,0-3-1.3-3-3v-27.6c0-1.7,1.3-3,3-3h31.2c1.7,0,3,1.3,3,3V460
				C1286.8,461.7,1285.4,463,1283.8,463z M1252.6,431.4c-0.6,0-1,0.4-1,1V460c0,0.6,0.4,1,1,1h31.2c0.6,0,1-0.4,1-1v-27.6
				c0-0.6-0.4-1-1-1H1252.6z"/>
		</g>
		<g>
			<path class="st6" d="M1316,416.7h-19.3c-1.1,0-2-0.9-2-2v-34.8c0-1.1,0.9-2,2-2h19.3c1.1,0,2,0.9,2,2v34.8
				C1318,415.8,1317.1,416.7,1316,416.7z"/>
			<path class="st0" d="M1316,417.7h-19.3c-1.7,0-3-1.3-3-3v-34.8c0-1.7,1.3-3,3-3h19.3c1.7,0,3,1.3,3,3v34.8
				C1319,416.3,1317.7,417.7,1316,417.7z M1296.7,378.9c-0.6,0-1,0.4-1,1v34.8c0,0.6,0.4,1,1,1h19.3c0.6,0,1-0.4,1-1v-34.8
				c0-0.6-0.4-1-1-1H1296.7z"/>
		</g>
		<g>
			<g>
				<path class="st6" d="M1316.7,462.7h-19.3c-1.1,0-2-0.9-2-2v-19c0-6.4,5.2-11.7,11.7-11.7l0,0c6.4,0,11.7,5.2,11.7,11.7v19
					C1318.7,461.8,1317.8,462.7,1316.7,462.7z"/>
				<path class="st0" d="M1316.7,463.7h-19.3c-1.7,0-3-1.3-3-3v-19c0-7,5.7-12.7,12.7-12.7s12.7,5.7,12.7,12.7v19
					C1319.7,462.3,1318.3,463.7,1316.7,463.7z M1307,431c-5.9,0-10.7,4.8-10.7,10.7v19c0,0.6,0.4,1,1,1h19.3c0.6,0,1-0.4,1-1v-19
					C1317.7,435.8,1312.9,431,1307,431z"/>
			</g>
			<g>
				<circle class="st10" cx="1313.2" cy="452.3" r="1.9"/>
			</g>
		</g>
	</g>
	<g>
		<g>
			<path class="st7" d="M1332.7,57.3h44.2v-9.1h-44.2c-1.1,0-2,0.9-2,2v5.1C1330.7,56.4,1331.6,57.3,1332.7,57.3z"/>
		</g>
		<g>
			<path class="st8" d="M1376.7,57.3h102.1c1.1,0,2-0.9,2-2v-5.1c0-1.1-0.9-2-2-2h-102.1V57.3z"/>
		</g>
	</g>
	<g>
		<path class="st19" d="M1339.3,277.3"/>
	</g>
	<g>
		<g>
			<g>
				<path class="st9" d="M1850.4,315.7l33-47c0.3-0.5-0.3-1-0.7-0.6l-34.3,35.8c-0.1,0.1-0.1,0.2-0.1,0.4l1.3,11.2
					C1849.7,315.9,1850.2,316.1,1850.4,315.7z"/>
			</g>
			<g>
				<path class="st9" d="M1851.8,334.4l25.5,51.5c0.2,0.5,1,0.2,0.8-0.3l-15.1-47.2c0-0.1-0.1-0.2-0.3-0.3l-10.5-4.2
					C1852,333.6,1851.6,334,1851.8,334.4z"/>
			</g>
			<g>
				<path class="st9" d="M1833.4,323.8L1776,321c-0.6,0-0.7,0.8-0.1,0.9l48.6,9.9c0.1,0,0.3,0,0.4-0.1l8.8-7.1
					C1834,324.4,1833.8,323.9,1833.4,323.8z"/>
			</g>
			<g>
				<polygon class="st8" points="1849.3,465.7 1840.2,465.7 1841.2,334.1 1847.2,334 				"/>
			</g>
			<g>
				<circle class="st10" cx="1844.4" cy="326.1" r="5.6"/>
			</g>
		</g>
		<g>
			<polygon class="st20" points="1844.2,334 1844.6,465.7 1840.2,465.7 1841.2,334.1 			"/>
		</g>
	</g>
	<g>
		<g>
			<path class="st9" d="M1888.7,465c0,0.3,0,0.6-0.1,0.8h-46.4c-0.3-1.2-0.5-2.4-0.5-3.7c0-1.4,0.2-2.7,0.6-3.9
				c1-3.3,3.2-6.1,6.1-7.9c2.1-1.2,4.5-1.9,7-1.9c5.8,0,10.7,3.6,12.7,8.6c1.5-1.1,3.4-1.8,5.4-1.8c3.7,0,6.8,2.2,8.3,5.3
				c0.6-0.2,1.2-0.4,1.9-0.4C1886.5,460.1,1888.7,462.3,1888.7,465z"/>
		</g>
		<g>
			<path class="st7" d="M1831.9,450.3c-2.9,1.7-5.1,4.6-6.1,7.9c-0.4,1.2-0.6,2.5-0.6,3.9c0,1.3,0.2,2.6,0.5,3.7h-28.1
				c-0.3-0.7-0.4-1.5-0.4-2.3c0-3.6,2.9-6.5,6.5-6.5c0.8,0,1.6,0.1,2.3,0.4c-0.1-0.4-0.1-0.8-0.1-1.2c0-4.5,3.6-8.1,8.1-8.1
				c1.5,0,2.8,0.4,4,1.1c0.9-2.9,3.6-5,6.8-5C1828.5,444.1,1831.5,446.8,1831.9,450.3z"/>
		</g>
		<g>
			<path class="st9" d="M1864.3,465c0,0.3,0,0.6-0.1,0.8h-46.4c-0.3-1.2-0.5-2.4-0.5-3.7c0-1.4,0.2-2.7,0.6-3.9
				c1-3.3,3.2-6.1,6.1-7.9c2.1-1.2,4.5-1.9,7-1.9c5.8,0,10.7,3.6,12.7,8.6c1.5-1.1,3.4-1.8,5.4-1.8c3.7,0,6.8,2.2,8.3,5.3
				c0.6-0.2,1.2-0.4,1.9-0.4C1862.1,460.1,1864.3,462.3,1864.3,465z"/>
		</g>
		<g>
			<path class="st0" d="M1823.4,464.2c-0.2-0.8-0.4-1.7-0.4-2.6c0-0.9,0.1-1.8,0.4-2.7c0.7-2.3,2.2-4.2,4.2-5.4
				c1.5-0.9,3.1-1.3,4.8-1.3c3.5,0,6.7,1.9,8.3,4.9c0.9-0.4,1.9-0.7,2.9-0.7c2.6,0,4.9,1.5,6,3.8l-1.8,0.8c-0.8-1.6-2.4-2.7-4.2-2.7
				c-1,0-2,0.3-2.8,0.9l-1,0.8l-0.5-1.2c-1.1-2.9-3.9-4.7-6.9-4.7c-1.3,0-2.7,0.4-3.8,1.1c-1.6,1-2.8,2.5-3.3,4.3
				c-0.2,0.7-0.3,1.4-0.3,2.1c0,0.7,0.1,1.4,0.3,2L1823.4,464.2z"/>
		</g>
	</g>
	<g>
		<path class="st9" d="M577.8,466.1c0,0.3,0,0.6-0.1,0.8h-46.4c-0.3-1.2-0.5-2.4-0.5-3.7c0-1.4,0.2-2.7,0.6-3.9
			c1-3.3,3.2-6.1,6.1-7.9c2.1-1.2,4.5-1.9,7-1.9c5.8,0,10.7,3.6,12.7,8.6c1.5-1.1,3.4-1.8,5.4-1.8c3.7,0,6.8,2.2,8.3,5.3
			c0.6-0.2,1.2-0.4,1.9-0.4C575.6,461.2,577.8,463.4,577.8,466.1z"/>
	</g>
	<g>
		<path class="st15" d="M509.1,466.1c0,0.3,0,0.6,0.1,0.8h46.4c0.3-1.2,0.5-2.4,0.5-3.7c0-1.4-0.2-2.7-0.6-3.9
			c-1-3.3-3.2-6.1-6.1-7.9c-2.1-1.2-4.5-1.9-7-1.9c-5.8,0-10.7,3.6-12.7,8.6c-1.5-1.1-3.4-1.8-5.4-1.8c-3.7,0-6.8,2.2-8.3,5.3
			c-0.6-0.2-1.2-0.4-1.9-0.4C511.3,461.2,509.1,463.4,509.1,466.1z"/>
	</g>
	<g>
		<g>
			<path class="st0" d="M558,462.9c0,0,0,0.1,0,0.1h-2c0,0,0-0.1,0-0.1c0-1.3-0.2-2.6-0.5-3.8c-1-3.2-3.1-5.9-6-7.6
				c-2-1.2-4.4-1.9-6.8-1.9c-5.5,0-10.3,3.3-12.4,8.4l-0.5,1.2l-1-0.8c-1.5-1.1-3.2-1.7-5.1-1.7c-3.3,0-6.3,1.9-7.7,4.9l-0.4,0.9
				l-0.9-0.4c-0.5-0.2-1-0.3-1.6-0.3c-2.3,0-4.1,1.8-4.1,4.1c0,0.2,0,0.5,0.1,0.7c0,0.1,0,0.2,0,0.3h-2c-0.1-0.3-0.1-0.7-0.1-1
				c0-3.4,2.7-6.1,6.1-6.1c0.5,0,1,0.1,1.5,0.2c1.9-3.2,5.4-5.3,9.1-5.3c1.9,0,3.7,0.5,5.2,1.4c2.6-5.2,7.8-8.5,13.7-8.5
				c2.8,0,5.4,0.8,7.8,2.2c3.3,2,5.8,5.1,6.8,8.8C557.8,459.9,558,461.4,558,462.9z"/>
		</g>
	</g>
	<g>
		<rect x="1403.7" y="446" class="st11" width="1.4" height="3.6"/>
	</g>
	<g>
		<g>
			<g>
				<g>
					<path class="st7" d="M1374.9,466h-38.4c-1.1,0-2-0.9-2-2V243.7c0-1.1,0.9-2,2-2h38.4V466z"/>
				</g>
				<g>
					<path class="st8" d="M1474,466h-98.9V241.7h98.9c1.1,0,2,0.9,2,2V464C1476,465.1,1475.1,466,1474,466z"/>
				</g>
				<g>
					<rect x="1400.4" y="241.7" class="st21" width="53.3" height="224.3"/>
				</g>
				<g>
					<path class="st6" d="M1362,282.2h-15.8c-0.6,0-1-0.4-1-1v-24.2c0-0.6,0.4-1,1-1h15.8c0.6,0,1,0.4,1,1v24.2
						C1363,281.8,1362.6,282.2,1362,282.2z"/>
					<path class="st0" d="M1362,283.2h-15.8c-1.1,0-2-0.9-2-2v-24.2c0-1.1,0.9-2,2-2h15.8c1.1,0,2,0.9,2,2v24.2
						C1364,282.3,1363.1,283.2,1362,283.2z M1346.2,257.1v24.2h15.8l0-24.2H1346.2z"/>
				</g>
				<g>
					<path class="st6" d="M1362,323.2h-15.8c-0.6,0-1-0.4-1-1v-24.2c0-0.6,0.4-1,1-1h15.8c0.6,0,1,0.4,1,1v24.2
						C1363,322.8,1362.6,323.2,1362,323.2z"/>
					<path class="st0" d="M1362,324.2h-15.8c-1.1,0-2-0.9-2-2v-24.2c0-1.1,0.9-2,2-2h15.8c1.1,0,2,0.9,2,2v24.2
						C1364,323.3,1363.1,324.2,1362,324.2z M1346.2,298.1v24.2h15.8l0-24.2H1346.2z"/>
				</g>
				<g>
					<path class="st6" d="M1362,367.2h-15.8c-0.6,0-1-0.4-1-1v-24.2c0-0.6,0.4-1,1-1h15.8c0.6,0,1,0.4,1,1v24.2
						C1363,366.8,1362.6,367.2,1362,367.2z"/>
					<path class="st0" d="M1362,368.2h-15.8c-1.1,0-2-0.9-2-2v-24.2c0-1.1,0.9-2,2-2h15.8c1.1,0,2,0.9,2,2v24.2
						C1364,367.3,1363.1,368.2,1362,368.2z M1346.2,342.1v24.2h15.8l0-24.2H1346.2z"/>
				</g>
				<g>
					<path class="st6" d="M1362,407.6h-15.8c-0.6,0-1-0.4-1-1v-24.2c0-0.6,0.4-1,1-1h15.8c0.6,0,1,0.4,1,1v24.2
						C1363,407.1,1362.6,407.6,1362,407.6z"/>
					<path class="st0" d="M1362,408.6h-15.8c-1.1,0-2-0.9-2-2v-24.2c0-1.1,0.9-2,2-2h15.8c1.1,0,2,0.9,2,2v24.2
						C1364,407.7,1363.1,408.6,1362,408.6z M1346.2,382.4v24.2h15.8l0-24.2H1346.2z"/>
				</g>
			</g>
			<g>
				<g>
					<path class="st6" d="M1440.8,282.2h-27.5c-0.6,0-1-0.4-1-1v-24.2c0-0.6,0.4-1,1-1h27.5c0.6,0,1,0.4,1,1v24.2
						C1441.8,281.8,1441.4,282.2,1440.8,282.2z"/>
					<path class="st0" d="M1440.8,283.2h-27.5c-1.1,0-2-0.9-2-2v-24.2c0-1.1,0.9-2,2-2h27.5c1.1,0,2,0.9,2,2v24.2
						C1442.8,282.3,1441.9,283.2,1440.8,283.2z M1413.3,257.1v24.2h27.5l0-24.2H1413.3z"/>
				</g>
				<g>
					<path class="st6" d="M1440.8,323.2h-27.5c-0.6,0-1-0.4-1-1v-24.2c0-0.6,0.4-1,1-1h27.5c0.6,0,1,0.4,1,1v24.2
						C1441.8,322.8,1441.4,323.2,1440.8,323.2z"/>
					<path class="st0" d="M1440.8,324.2h-27.5c-1.1,0-2-0.9-2-2v-24.2c0-1.1,0.9-2,2-2h27.5c1.1,0,2,0.9,2,2v24.2
						C1442.8,323.3,1441.9,324.2,1440.8,324.2z M1413.3,298.1v24.2h27.5l0-24.2H1413.3z"/>
				</g>
				<g>
					<path class="st6" d="M1440.8,367.2h-27.5c-0.6,0-1-0.4-1-1v-24.2c0-0.6,0.4-1,1-1h27.5c0.6,0,1,0.4,1,1v24.2
						C1441.8,366.8,1441.4,367.2,1440.8,367.2z"/>
					<path class="st0" d="M1440.8,368.2h-27.5c-1.1,0-2-0.9-2-2v-24.2c0-1.1,0.9-2,2-2h27.5c1.1,0,2,0.9,2,2v24.2
						C1442.8,367.3,1441.9,368.2,1440.8,368.2z M1413.3,342.1v24.2h27.5l0-24.2H1413.3z"/>
				</g>
				<g>
					<path class="st6" d="M1440.8,407.6h-27.5c-0.6,0-1-0.4-1-1v-24.2c0-0.6,0.4-1,1-1h27.5c0.6,0,1,0.4,1,1v24.2
						C1441.8,407.1,1441.4,407.6,1440.8,407.6z"/>
					<path class="st0" d="M1440.8,408.6h-27.5c-1.1,0-2-0.9-2-2v-24.2c0-1.1,0.9-2,2-2h27.5c1.1,0,2,0.9,2,2v24.2
						C1442.8,407.7,1441.9,408.6,1440.8,408.6z M1413.3,382.4v24.2h27.5l0-24.2H1413.3z"/>
				</g>
				<g>
					<path class="st6" d="M1422.4,461.7h-18.3c-0.6,0-1-0.4-1-1V431c0-0.6,0.4-1,1-1h18.3c0.6,0,1,0.4,1,1v29.7
						C1423.4,461.2,1423,461.7,1422.4,461.7z"/>
					<path class="st0" d="M1422.4,462.7h-18.3c-1.1,0-2-0.9-2-2V431c0-1.1,0.9-2,2-2h18.3c1.1,0,2,0.9,2,2v29.7
						C1424.4,461.8,1423.5,462.7,1422.4,462.7z M1404.1,431v29.7h18.3l0-29.7H1404.1z"/>
				</g>
				<g>
					<path class="st6" d="M1449.8,461.7h-18.3c-0.6,0-1-0.4-1-1V431c0-0.6,0.4-1,1-1h18.3c0.6,0,1,0.4,1,1v29.7
						C1450.8,461.2,1450.3,461.7,1449.8,461.7z"/>
					<path class="st0" d="M1449.8,462.7h-18.3c-1.1,0-2-0.9-2-2V431c0-1.1,0.9-2,2-2h18.3c1.1,0,2,0.9,2,2v29.7
						C1451.8,461.8,1450.9,462.7,1449.8,462.7z M1431.4,431v29.7h18.3l0-29.7H1431.4z"/>
				</g>
			</g>
		</g>
		<g>
			<path class="st10" d="M1435.9,450.3L1435.9,450.3c-0.5,0-1-0.4-1-1v-1.6c0-0.5,0.4-1,1-1l0,0c0.5,0,1,0.4,1,1v1.6
				C1436.9,449.8,1436.5,450.3,1435.9,450.3z"/>
		</g>
		<g>
			<path class="st10" d="M1418.3,450.3L1418.3,450.3c-0.5,0-1-0.4-1-1v-1.6c0-0.5,0.4-1,1-1l0,0c0.5,0,1,0.4,1,1v1.6
				C1419.2,449.8,1418.8,450.3,1418.3,450.3z"/>
		</g>
	</g>
	<g>
		<g>
			<circle class="st10" cx="1663" cy="32" r="22.7"/>
		</g>
		<g>
			<path class="st11" d="M1565.2,60.9h49.1c2.5-2.1,4.2-5.2,4.2-8.7c0-6.2-5-11.2-11.2-11.2c-0.6,0-1.2,0-1.7,0.1
				c-0.7-6.1-5.8-10.8-12.1-10.8c-4.9,0-9.1,2.9-11,7c-0.3,0-0.5,0-0.8,0c-3.6,0-6.6,2.5-7.2,5.9c-0.9-0.3-1.9-0.4-2.9-0.4
				c-5.6,0-10.1,4.5-10.1,10.1C1561.4,56.1,1562.9,59,1565.2,60.9z"/>
			<path class="st0" d="M1614.6,61.9h-49.8l-0.3-0.2c-2.7-2.1-4.2-5.3-4.2-8.7c0-6.1,5-11.1,11.1-11.1c0.7,0,1.5,0.1,2.2,0.2
				c1.1-3.4,4.5-5.8,8.2-5.7c2.3-4.2,6.7-6.9,11.6-6.9c6.3,0,11.7,4.5,12.9,10.7c0.3,0,0.6,0,0.9,0c6.7,0,12.2,5.5,12.2,12.2
				c0,3.7-1.6,7.1-4.5,9.5L1614.6,61.9z M1565.6,59.9h48.3c2.2-1.9,3.5-4.7,3.5-7.7c0-5.6-4.6-10.2-10.2-10.2c-0.5,0-1.1,0-1.6,0.1
				l-1,0.2l-0.1-1c-0.6-5.6-5.4-9.9-11.1-9.9c-4.3,0-8.3,2.5-10.1,6.4l-0.3,0.6l-0.7-0.1c-0.2,0-0.5,0-0.7,0c-3,0-5.7,2.2-6.2,5.1
				l-0.2,1.1l-1.1-0.3c-0.9-0.3-1.7-0.4-2.6-0.4c-5,0-9.1,4.1-9.1,9.1C1562.4,55.6,1563.5,58.1,1565.6,59.9z"/>
		</g>
		<g>
			<path class="st11" d="M1707.8,66.9c-3.5-3.1-5.8-7.6-5.8-12.7c0-8.9,7-16.2,15.8-16.8c1.7-8.3,9-14.6,17.9-14.6
				c9.6,0,17.5,7.4,18.2,16.8c4.6,1.1,8.3,4.4,9.8,8.8c1.3-0.5,2.7-0.8,4.1-0.8c6.4,0,11.6,5.2,11.6,11.6c0,2.9-1.1,5.6-2.9,7.6
				H1707.8z"/>
			<path class="st0" d="M1777,67.9h-69.5l-0.3-0.2c-3.9-3.4-6.1-8.3-6.1-13.4c0-9.1,6.9-16.8,15.9-17.7c2.1-8.6,9.8-14.7,18.7-14.7
				c9.8,0,18,7.4,19.1,17.1c4.3,1.2,7.7,4.3,9.5,8.4c1.2-0.3,2.3-0.5,3.5-0.5c6.9,0,12.6,5.6,12.6,12.6c0,3-1.1,6-3.1,8.2L1777,67.9
				z M1708.2,65.9h67.8c1.5-1.9,2.3-4.2,2.3-6.6c0-5.8-4.7-10.6-10.6-10.6c-1.3,0-2.6,0.2-3.8,0.7l-1,0.4l-0.3-1
				c-1.5-4.1-4.9-7.2-9.1-8.2l-0.7-0.2l-0.1-0.7c-0.7-8.9-8.2-15.9-17.2-15.9c-8.2,0-15.3,5.8-16.9,13.8l-0.2,0.8l-0.8,0
				c-8.3,0.5-14.8,7.4-14.8,15.8C1703,58.6,1704.9,62.9,1708.2,65.9z"/>
		</g>
	</g>
</g>
</svg>
