<?xml version="1.0" encoding="UTF-8" standalone="no"?>
<svg width="1920" height="1405" viewBox="0 0 1920 1405" fill="none" xmlns="http://www.w3.org/2000/svg">
<g opacity="0.3">
<path d="M1775.6 448C1776.08 446.674 1777.73 446.239 1778.8 447.162L1790.87 457.645C1792.09 458.699 1791.62 460.682 1790.07 461.09L1772.62 465.667C1771.07 466.075 1769.69 464.574 1770.23 463.06L1775.6 448Z" fill="#50C6DB"/>
<path d="M1359.63 160.922C1359.52 159.643 1360.63 158.6 1361.9 158.783L1373.26 160.417C1374.92 160.656 1375.57 162.707 1374.35 163.855L1363.91 173.66C1362.69 174.808 1360.68 174.033 1360.54 172.363L1359.63 160.922Z" fill="#50C6DB"/>
<path d="M248.154 575.036C246.957 574.422 246.696 572.824 247.636 571.861L259.251 559.948C260.397 558.773 262.392 559.402 262.657 561.022L265.844 580.532C266.108 582.152 264.417 583.384 262.957 582.634L248.154 575.036Z" fill="#50C6DB"/>
<path d="M42.4391 240.152C41.242 239.538 40.981 237.94 41.9204 236.977L54.858 223.707C56.0038 222.532 57.9993 223.161 58.2639 224.781L61.8139 246.513C62.0785 248.133 60.387 249.364 58.9268 248.615L42.4391 240.152Z" fill="#50C6DB"/>
<circle cx="1879" cy="314.545" r="5.76681" transform="rotate(125.95 1879 314.545)" fill="#50C6DB"/>
<circle cx="1554.36" cy="579.995" r="4" transform="rotate(125.95 1554.36 579.995)" fill="#50C6DB"/>
<circle cx="52.0615" cy="531.185" r="5.87853" transform="rotate(125.95 52.0615 531.185)" fill="#50C6DB"/>
<circle cx="241.955" cy="277.374" r="4" transform="rotate(125.95 241.955 277.374)" fill="#50C6DB"/>
<circle cx="1604.73" cy="143.893" r="4" transform="rotate(125.95 1604.73 143.893)" fill="#50C6DB"/>
<rect x="1797.31" y="131.844" width="15.9832" height="15.9832" rx="3" transform="rotate(125.95 1797.31 131.844)" fill="#50C6DB"/>
<rect x="1840.01" y="585.638" width="14.3528" height="14.3528" rx="3" transform="rotate(125.95 1840.01 585.638)" fill="#50C6DB"/>
<rect x="1109.08" y="143.413" width="12.3197" height="12.3197" rx="2" transform="rotate(125.95 1109.08 143.413)" fill="#50C6DB"/>
<rect x="129.238" y="406.271" width="13.8601" height="13.8601" rx="3" transform="rotate(125.95 129.238 406.271)" fill="#50C6DB"/>
</g>
</svg>
