<?xml version="1.0" encoding="UTF-8" standalone="no"?><svg width="300" height="287" viewBox="0 0 300 287" fill="none" xmlns="http://www.w3.org/2000/svg">
<rect x="7.83923" y="219.219" width="122.508" height="67.7206" rx="6" fill="#50C6DB"/>
<rect x="23.8015" y="231.705" width="40.8769" height="28.1769" rx="9" fill="white" stroke="#363636" stroke-width="2"/>
<rect x="73.506" y="231.705" width="40.8769" height="28.1769" rx="9" fill="white" stroke="#363636" stroke-width="2"/>
<path d="M16.9749 151.593C17.9981 147.879 22.2068 146.078 25.6002 147.902L126.098 201.924C131.59 204.877 129.492 213.209 123.257 213.209H7.87647C3.91382 213.209 1.03951 209.436 2.09198 205.616L16.9749 151.593Z" fill="#649FA9"/>
<rect x="144.131" y="202.653" width="134.95" height="83.4244" rx="6" fill="#A3DAE4"/>
<path d="M144.131 44.9881C144.131 40.3421 149.184 37.459 153.184 39.8228L276.134 112.488C277.96 113.567 279.081 115.531 279.081 117.653V191.654C279.081 194.968 276.395 197.654 273.081 197.654H150.131C146.817 197.654 144.131 194.968 144.131 191.654V44.9881Z" fill="#50C6DB"/>
<path d="M137.988 6.98998C137.988 3.89713 141.348 1.97439 144.015 3.54132L286.561 87.3048C287.819 88.0439 288.575 89.4092 288.533 90.8675L288.07 107.121C287.983 110.167 284.659 112.001 282.036 110.451L139.953 26.4657C138.735 25.7459 137.988 24.4367 137.988 23.0222L137.988 6.98998Z" fill="#649FA9"/>
<rect x="203.292" y="124.404" width="28.9824" height="60.5682" rx="9" fill="white" stroke="#363636" stroke-width="2"/>
<path d="M155.764 106.158C155.764 99.2304 163.262 94.9 169.262 98.3619L180.246 104.7C183.032 106.307 184.748 109.279 184.748 112.495V175.973C184.748 180.944 180.718 184.973 175.748 184.973H164.765C159.795 184.973 155.765 180.944 155.765 175.973L155.764 106.158Z" fill="white" stroke="#363636" stroke-width="2"/>
<rect x="238.549" y="124.404" width="28.9824" height="60.5682" rx="9" fill="white" stroke="#363636" stroke-width="2"/>
<rect x="155.918" y="216.639" width="27.7924" height="35.5404" rx="9" fill="white" stroke="#363636" stroke-width="2"/>
<rect x="238.703" y="216.639" width="27.7924" height="35.5404" rx="9" fill="white" stroke="#363636" stroke-width="2"/>
<rect x="197.221" y="216.639" width="29.9323" height="62.738" rx="9" fill="white" stroke="#363636" stroke-width="2"/>
<rect x="188.72" y="244.365" width="19.1828" height="9.13439" rx="4.56719" fill="#FFB958"/>
</svg>
