<?xml version="1.0" encoding="UTF-8" standalone="no"?>
<svg width="490" height="731" viewBox="0 0 490 731" fill="none" xmlns="http://www.w3.org/2000/svg">
<mask id="mask0_676_1111" style="mask-type:alpha" maskUnits="userSpaceOnUse" x="-98" y="164" width="399" height="423">
<path d="M271.729 166.457C286.967 159.429 303.564 173.16 299.514 189.445L204.535 571.375C200.98 585.666 183.723 591.346 172.376 581.958L-90.0277 364.857C-101.374 355.47 -99.0274 337.454 -85.6547 331.286L271.729 166.457Z" fill="#C4C4C4"/>
</mask>
<g mask="url(#mask0_676_1111)">
<line x1="-143.456" y1="117.604" x2="973.888" y2="209.536" stroke="#262727" stroke-width="2" stroke-linecap="round"/>
<line x1="-145.096" y1="137.537" x2="972.248" y2="229.469" stroke="#262727" stroke-width="2" stroke-linecap="round"/>
<line x1="-146.736" y1="157.469" x2="970.609" y2="249.401" stroke="#262727" stroke-width="2" stroke-linecap="round"/>
<line x1="-148.376" y1="177.402" x2="968.969" y2="269.334" stroke="#262727" stroke-width="2" stroke-linecap="round"/>
<line x1="-150.016" y1="197.334" x2="967.328" y2="289.267" stroke="#262727" stroke-width="2" stroke-linecap="round"/>
<line x1="-151.656" y1="217.267" x2="965.688" y2="309.199" stroke="#262727" stroke-width="2" stroke-linecap="round"/>
<line x1="-153.296" y1="237.2" x2="964.049" y2="329.132" stroke="#262727" stroke-width="2" stroke-linecap="round"/>
<line x1="-154.936" y1="257.132" x2="962.408" y2="349.064" stroke="#262727" stroke-width="2" stroke-linecap="round"/>
<line x1="-156.576" y1="277.065" x2="960.768" y2="368.997" stroke="#262727" stroke-width="2" stroke-linecap="round"/>
<line x1="-158.216" y1="296.998" x2="959.128" y2="388.93" stroke="#262727" stroke-width="2" stroke-linecap="round"/>
<line x1="-159.856" y1="316.931" x2="957.489" y2="408.863" stroke="#262727" stroke-width="2" stroke-linecap="round"/>
<line x1="-161.496" y1="336.863" x2="955.848" y2="428.795" stroke="#262727" stroke-width="2" stroke-linecap="round"/>
<line x1="-163.136" y1="356.796" x2="954.208" y2="448.728" stroke="#262727" stroke-width="2" stroke-linecap="round"/>
<line x1="-164.776" y1="376.728" x2="952.568" y2="468.661" stroke="#262727" stroke-width="2" stroke-linecap="round"/>
<line x1="-166.416" y1="396.661" x2="950.928" y2="488.593" stroke="#262727" stroke-width="2" stroke-linecap="round"/>
<line x1="-168.056" y1="416.594" x2="949.288" y2="508.526" stroke="#262727" stroke-width="2" stroke-linecap="round"/>
<line x1="-169.696" y1="436.526" x2="947.648" y2="528.458" stroke="#262727" stroke-width="2" stroke-linecap="round"/>
<line x1="-171.336" y1="456.459" x2="946.009" y2="548.391" stroke="#262727" stroke-width="2" stroke-linecap="round"/>
<line x1="-172.976" y1="476.392" x2="944.368" y2="568.324" stroke="#262727" stroke-width="2" stroke-linecap="round"/>
<line x1="-174.616" y1="496.324" x2="942.728" y2="588.256" stroke="#262727" stroke-width="2" stroke-linecap="round"/>
<line x1="-176.256" y1="516.257" x2="941.088" y2="608.189" stroke="#262727" stroke-width="2" stroke-linecap="round"/>
<line x1="-177.896" y1="536.189" x2="939.448" y2="628.122" stroke="#262727" stroke-width="2" stroke-linecap="round"/>
<line x1="-179.536" y1="556.122" x2="937.808" y2="648.054" stroke="#262727" stroke-width="2" stroke-linecap="round"/>
<line x1="-181.176" y1="576.055" x2="936.168" y2="667.987" stroke="#262727" stroke-width="2" stroke-linecap="round"/>
</g>
</svg>
