<?xml version="1.0" encoding="UTF-8" standalone="no"?>
<svg width="353" height="533" viewBox="0 0 353 533" fill="none" xmlns="http://www.w3.org/2000/svg">
<rect x="196.126" y="401.969" width="156.346" height="129.931" rx="6" fill="#50C6DB"/>
<rect x="196.12" y="327.708" width="66.1682" height="66.1682" rx="6" fill="#A3DAE4"/>
<path d="M273.128 228.963L300.944 198.656C302.11 197.387 304.102 197.357 305.304 198.592L335.177 229.283" stroke="#262727" stroke-width="2"/>
<rect x="297.458" y="84.2751" width="10.9445" height="68.6275" stroke="#262727" stroke-width="2"/>
<path d="M8.4082 81.9119L129.719 1.19238H154.794L302.748 81.9119" stroke="#262727" stroke-width="2"/>
<rect x="122.654" y="110.48" width="39.2578" height="409.782" stroke="#262727" stroke-width="2"/>
<line y1="-1" x2="61.5986" y2="-1" transform="matrix(0.644505 0.7646 -0.42365 0.905826 122.433 111.092)" stroke="#262727" stroke-width="2"/>
<line y1="-1" x2="61.5986" y2="-1" transform="matrix(-0.644505 0.7646 0.42365 0.905826 162.134 111.092)" stroke="#262727" stroke-width="2"/>
<line x1="122.433" y1="157.19" x2="162.133" y2="157.19" stroke="#262727" stroke-width="2"/>
<line y1="-1" x2="61.5986" y2="-1" transform="matrix(0.644505 0.7646 -0.42365 0.905826 122.433 158.19)" stroke="#262727" stroke-width="2"/>
<line y1="-1" x2="61.5986" y2="-1" transform="matrix(-0.644505 0.7646 0.42365 0.905826 162.134 158.19)" stroke="#262727" stroke-width="2"/>
<line x1="122.433" y1="204.289" x2="162.133" y2="204.289" stroke="#262727" stroke-width="2"/>
<line y1="-1" x2="61.5986" y2="-1" transform="matrix(0.644505 0.7646 -0.42365 0.905826 122.433 205.289)" stroke="#262727" stroke-width="2"/>
<line y1="-1" x2="61.5986" y2="-1" transform="matrix(-0.644505 0.7646 0.42365 0.905826 162.134 205.289)" stroke="#262727" stroke-width="2"/>
<line x1="122.433" y1="251.387" x2="162.133" y2="251.387" stroke="#262727" stroke-width="2"/>
<line y1="-1" x2="61.5986" y2="-1" transform="matrix(0.644505 0.7646 -0.42365 0.905826 122.433 252.387)" stroke="#262727" stroke-width="2"/>
<line y1="-1" x2="61.5986" y2="-1" transform="matrix(-0.644505 0.7646 0.42365 0.905826 162.134 252.387)" stroke="#262727" stroke-width="2"/>
<line x1="122.433" y1="298.485" x2="162.133" y2="298.485" stroke="#262727" stroke-width="2"/>
<line y1="-1" x2="61.5986" y2="-1" transform="matrix(0.644505 0.7646 -0.42365 0.905826 122.433 299.485)" stroke="#262727" stroke-width="2"/>
<line y1="-1" x2="61.5986" y2="-1" transform="matrix(-0.644505 0.7646 0.42365 0.905826 162.134 299.485)" stroke="#262727" stroke-width="2"/>
<line x1="122.433" y1="345.584" x2="162.133" y2="345.584" stroke="#262727" stroke-width="2"/>
<line y1="-1" x2="61.5986" y2="-1" transform="matrix(0.644505 0.7646 -0.42365 0.905826 122.433 346.584)" stroke="#262727" stroke-width="2"/>
<line y1="-1" x2="61.5986" y2="-1" transform="matrix(-0.644505 0.7646 0.42365 0.905826 162.134 346.584)" stroke="#262727" stroke-width="2"/>
<line x1="122.433" y1="392.682" x2="162.133" y2="392.682" stroke="#262727" stroke-width="2"/>
<line y1="-1" x2="61.5986" y2="-1" transform="matrix(0.644505 0.7646 -0.42365 0.905826 122.433 393.682)" stroke="#262727" stroke-width="2"/>
<line y1="-1" x2="61.5986" y2="-1" transform="matrix(-0.644505 0.7646 0.42365 0.905826 162.134 393.682)" stroke="#262727" stroke-width="2"/>
<line x1="122.433" y1="439.781" x2="162.133" y2="439.781" stroke="#262727" stroke-width="2"/>
<line y1="-1" x2="61.5986" y2="-1" transform="matrix(0.644505 0.7646 -0.42365 0.905826 122.433 440.781)" stroke="#262727" stroke-width="2"/>
<line y1="-1" x2="61.5986" y2="-1" transform="matrix(-0.644505 0.7646 0.42365 0.905826 162.134 440.781)" stroke="#262727" stroke-width="2"/>
<line x1="122.433" y1="486.879" x2="162.133" y2="486.879" stroke="#262727" stroke-width="2"/>
<rect x="130.164" y="1.56421" width="23.7698" height="79.5524" stroke="#262727" stroke-width="2"/>
<line y1="-1" x2="35.9839" y2="-1" transform="matrix(0.643479 0.765463 -0.422705 0.906267 130.857 2.23584)" stroke="#262727" stroke-width="2"/>
<line y1="-1" x2="35.9839" y2="-1" transform="matrix(-0.643479 0.765463 0.422705 0.906267 154.013 2.23584)" stroke="#262727" stroke-width="2"/>
<line x1="130.857" y1="28.78" x2="154.012" y2="28.78" stroke="#262727" stroke-width="2"/>
<line y1="-1" x2="35.9839" y2="-1" transform="matrix(0.643479 0.765463 -0.422705 0.906267 130.857 29.7802)" stroke="#262727" stroke-width="2"/>
<line y1="-1" x2="35.9839" y2="-1" transform="matrix(-0.643479 0.765463 0.422705 0.906267 154.013 29.7802)" stroke="#262727" stroke-width="2"/>
<line x1="130.857" y1="56.3248" x2="154.012" y2="56.3248" stroke="#262727" stroke-width="2"/>
<line y1="-1" x2="35.9839" y2="-1" transform="matrix(0.643479 0.765463 -0.422705 0.906267 130.857 57.3248)" stroke="#262727" stroke-width="2"/>
<line y1="-1" x2="35.9839" y2="-1" transform="matrix(-0.643479 0.765463 0.422705 0.906267 154.013 57.3248)" stroke="#262727" stroke-width="2"/>
<line x1="130.857" y1="83.8695" x2="154.012" y2="83.8695" stroke="#262727" stroke-width="2"/>
<rect x="117.651" y="82.0225" width="48.796" height="41.2516" rx="6" fill="#50C6DB"/>
<rect x="0.777344" y="80.3916" width="307.741" height="5.76714" rx="2.88357" fill="#FFB958"/>
<circle cx="9.02438" cy="83.2754" r="7.43551" fill="white" stroke="#262727" stroke-width="2"/>
<circle cx="302.93" cy="83.2754" r="7.43551" fill="white" stroke="#262727" stroke-width="2"/>
<path d="M294.797 135.937H311.061V166.245C311.061 170.736 307.42 174.377 302.929 174.377C298.438 174.377 294.797 170.736 294.797 166.245V135.937Z" fill="#50C6DB"/>
<path d="M302.93 174.377L302.93 183.178" stroke="#262727" stroke-width="2"/>
<path fill-rule="evenodd" clip-rule="evenodd" d="M304.439 182.476C304.096 182.438 303.747 182.419 303.393 182.419C298.115 182.419 293.837 186.698 293.837 191.975C293.837 197.253 298.115 201.532 303.393 201.532C307.83 201.532 311.561 198.508 312.637 194.409H310.549C309.536 197.388 306.715 199.532 303.393 199.532C299.22 199.532 295.837 196.149 295.837 191.975C295.837 187.802 299.22 184.419 303.393 184.419C303.748 184.419 304.097 184.444 304.439 184.491V182.476Z" fill="#262727"/>
<rect x="101.666" y="486.154" width="79.8517" height="35.1078" rx="6" fill="#50C6DB"/>
<circle cx="162.913" cy="522.775" r="9.41659" fill="#FFB958"/>
<circle cx="122.433" cy="522.775" r="9.41659" fill="#FFB958"/>
<rect x="270.681" y="223.84" width="66.1682" height="66.1682" rx="6" fill="#FFB958"/>
</svg>
