<?xml version="1.0" encoding="UTF-8" standalone="no"?>
<svg width="60" height="90" viewBox="0 0 60 90" fill="none" xmlns="http://www.w3.org/2000/svg">
<ellipse cx="29.973" cy="28.5675" rx="29.1723" ry="28.3388" fill="#50C6DB"/>
<path fill-rule="evenodd" clip-rule="evenodd" d="M9.65527 54.2167V87.0781C9.65527 88.5474 11.1866 89.5152 12.5137 88.8845L30.3463 80.4102L47.4042 88.8207C48.7333 89.476 50.2887 88.5088 50.2887 87.0269V54.2043C45.1061 58.9236 37.9145 61.8471 29.9652 61.8471C22.0228 61.8471 14.8368 58.9287 9.65527 54.2167Z" fill="#A3DAE4"/>
<path d="M44.0079 29.0463C44.0079 36.5328 37.7521 42.651 29.9737 42.651C22.1953 42.651 15.9395 36.5328 15.9395 29.0463C15.9395 21.5598 22.1953 15.4417 29.9737 15.4417C37.7521 15.4417 44.0079 21.5598 44.0079 29.0463Z" fill="white" stroke="#262727" stroke-width="2"/>
</svg>
