<?xml version="1.0" encoding="UTF-8" standalone="no"?>
<svg width="1864" height="524" viewBox="0 0 1864 524" fill="none" xmlns="http://www.w3.org/2000/svg">
<g opacity="0.2">
<path d="M1798.06 69.4816C1800.34 69.3238 1801.95 71.6642 1800.99 73.7348L1790.69 95.9855C1789.71 98.0938 1786.81 98.3402 1785.49 96.4269L1771.34 75.8713C1770.02 73.958 1771.28 71.3373 1773.6 71.1766L1798.06 69.4816Z" fill="#A3DAE4"/>
<path d="M232.791 66.3789C232.747 64.9741 234.127 63.9631 235.453 64.429L256.159 71.7045C257.677 72.2379 257.975 74.2541 256.677 75.2049L236.663 89.865C235.365 90.8157 233.533 89.9226 233.482 88.3145L232.791 66.3789Z" fill="#A3DAE4"/>
<path d="M565.207 50.9244C565.395 49.5921 566.819 48.8224 568.037 49.3946L583.097 56.4686C584.582 57.1665 584.641 59.2579 583.197 60.0383L565.806 69.438C564.362 70.2184 562.644 69.0233 562.874 67.3982L565.207 50.9244Z" fill="#50C6DB"/>
<path d="M1722.22 496.39C1722.41 495.058 1723.83 494.289 1725.05 494.861L1740.11 501.935C1741.6 502.633 1741.66 504.724 1740.21 505.504L1722.82 514.904C1721.38 515.684 1719.66 514.489 1719.89 512.864L1722.22 496.39Z" fill="#50C6DB"/>
<path d="M1452.92 77.6843C1453.11 76.352 1454.53 75.5823 1455.75 76.1545L1470.81 83.2285C1472.29 83.9264 1472.35 86.0178 1470.91 86.7982L1453.52 96.1979C1452.07 96.9783 1450.36 95.7832 1450.59 94.1581L1452.92 77.6843Z" fill="#50C6DB"/>
<path d="M925.722 472.741C927.053 472.545 928.194 473.693 927.99 475.023L925.468 491.469C925.219 493.091 923.23 493.74 922.072 492.576L908.135 478.556C906.977 477.392 907.638 475.406 909.261 475.167L925.722 472.741Z" fill="#50C6DB"/>
<path d="M29.5919 329.809C30.1178 331.047 29.2952 332.441 27.9567 332.58L11.4069 334.291C9.77425 334.46 8.64457 332.699 9.47871 331.285L19.5257 314.259C20.3599 312.846 22.4476 312.983 23.0891 314.494L29.5919 329.809Z" fill="#50C6DB"/>
<circle cx="408.644" cy="154.239" r="5.5" fill="#A3DAE4"/>
<circle cx="1286.67" cy="45.8976" r="5.25735" fill="#A3DAE4"/>
<circle cx="975.522" cy="5.92979" r="5.60655" fill="#A3DAE4"/>
<circle cx="1583.63" cy="397.92" r="5.60655" fill="#A3DAE4"/>
<circle cx="606.404" cy="475.553" r="5.60655" fill="#A3DAE4"/>
<circle cx="1362.68" cy="476.583" r="5.60655" fill="#A3DAE4"/>
<circle r="7" transform="matrix(-1 0 0 1 1856.35 341.284)" fill="#A3DAE4"/>
<rect x="162.312" y="441.883" width="17.3333" height="17.3333" rx="3" transform="rotate(-34.551 162.312 441.883)" fill="#50C6DB"/>
<rect x="1641.85" y="213.322" width="15.3723" height="15.3723" rx="3" transform="rotate(20.5161 1641.85 213.322)" fill="#50C6DB"/>
</g>
</svg>
