<?xml version="1.0" encoding="UTF-8" standalone="no"?>
<svg width="435" height="416" viewBox="0 0 435 416" fill="none" xmlns="http://www.w3.org/2000/svg">
<rect x="11.9609" y="317.354" width="177.061" height="97.8765" rx="6" fill="#50C6DB"/>
<rect x="34.5859" y="334.955" width="59.97" height="41.6146" rx="9" fill="white" stroke="#363636" stroke-width="2"/>
<rect x="106.424" y="334.955" width="59.97" height="41.6146" rx="9" fill="white" stroke="#363636" stroke-width="2"/>
<path d="M26.0545 216.385C27.0777 212.67 31.2864 210.869 34.6798 212.693L192.228 297.384C197.72 300.336 195.623 308.669 189.387 308.669H8.50733C4.54468 308.669 1.67037 304.895 2.72284 301.075L26.0545 216.385Z" fill="#649FA9"/>
<rect x="208.943" y="293.411" width="195.043" height="120.573" rx="6" fill="#A3DAE4"/>
<path d="M208.943 60.8562C208.943 56.2102 213.996 53.327 217.996 55.6908L401.04 163.871C402.866 164.951 403.987 166.915 403.987 169.037V280.187C403.987 283.5 401.301 286.187 397.987 286.187H214.943C211.63 286.187 208.943 283.5 208.943 280.187V60.8562Z" fill="#50C6DB"/>
<path d="M200.065 7.50732C200.065 4.41447 203.425 2.49172 206.092 4.05865L415.706 127.233C416.964 127.972 417.719 129.337 417.678 130.795L416.892 158.36C416.805 161.405 413.481 163.24 410.858 161.689L202.03 38.2511C200.812 37.5313 200.065 36.2221 200.065 34.8076L200.065 7.50732Z" fill="#649FA9"/>
<rect x="294.004" y="179.873" width="42.7788" height="88.4298" rx="9" fill="white" stroke="#363636" stroke-width="2"/>
<path d="M225.311 146.236C225.311 139.309 232.809 134.979 238.809 138.441L263.59 152.739C266.376 154.347 268.092 157.318 268.092 160.535V259.304C268.092 264.275 264.063 268.304 259.092 268.304H234.313C229.343 268.304 225.313 264.275 225.313 259.304L225.311 146.236Z" fill="white" stroke="#363636" stroke-width="2"/>
<rect x="344.96" y="179.873" width="42.7788" height="88.4298" rx="9" fill="white" stroke="#363636" stroke-width="2"/>
<rect x="225.534" y="313.181" width="41.059" height="52.2571" rx="9" fill="white" stroke="#363636" stroke-width="2"/>
<rect x="345.184" y="313.181" width="41.059" height="52.2571" rx="9" fill="white" stroke="#363636" stroke-width="2"/>
<rect x="285.229" y="313.181" width="44.1518" height="91.5658" rx="9" fill="white" stroke="#363636" stroke-width="2"/>
<rect x="273.388" y="353.698" width="27.7249" height="13.2019" rx="6" fill="#FFB958"/>
</svg>
