<?xml version="1.0" encoding="UTF-8" standalone="no"?>
<svg width="1920" height="645" viewBox="0 0 1920 645" fill="none" xmlns="http://www.w3.org/2000/svg">
<rect y="121.249" width="1920" height="384" fill="#ECF5F9"/>
<mask id="mask0_1094_3976" style="mask-type:alpha" maskUnits="userSpaceOnUse" x="1726" y="194" width="425" height="373">
<path d="M1742.26 281.635C1725.89 285.316 1721.06 306.308 1734.17 316.778L2041.74 562.323C2053.25 571.511 2070.41 565.531 2073.71 551.179L2150.12 219.289C2153.42 204.938 2140.61 192.059 2126.24 195.29L1742.26 281.635Z" fill="#C4C4C4"/>
</mask>
<g mask="url(#mask0_1094_3976)">
<line x1="1" y1="-1" x2="1122.12" y2="-1" transform="matrix(-0.741547 0.670901 0.670901 0.741547 2043.93 -9.78662)" stroke="#262727" stroke-width="2" stroke-linecap="round"/>
<line x1="1" y1="-1" x2="1122.12" y2="-1" transform="matrix(-0.741547 0.670901 0.670901 0.741547 2057.35 5.04443)" stroke="#262727" stroke-width="2" stroke-linecap="round"/>
<line x1="1" y1="-1" x2="1122.12" y2="-1" transform="matrix(-0.741547 0.670901 0.670901 0.741547 2070.77 19.8752)" stroke="#262727" stroke-width="2" stroke-linecap="round"/>
<line x1="1" y1="-1" x2="1122.12" y2="-1" transform="matrix(-0.741547 0.670901 0.670901 0.741547 2084.18 34.7063)" stroke="#262727" stroke-width="2" stroke-linecap="round"/>
<line x1="1" y1="-1" x2="1122.12" y2="-1" transform="matrix(-0.741547 0.670901 0.670901 0.741547 2097.6 49.5371)" stroke="#262727" stroke-width="2" stroke-linecap="round"/>
<line x1="1" y1="-1" x2="1122.12" y2="-1" transform="matrix(-0.741547 0.670901 0.670901 0.741547 2111.02 64.3682)" stroke="#262727" stroke-width="2" stroke-linecap="round"/>
<line x1="1" y1="-1" x2="1122.12" y2="-1" transform="matrix(-0.741547 0.670901 0.670901 0.741547 2124.44 79.199)" stroke="#262727" stroke-width="2" stroke-linecap="round"/>
<line x1="1" y1="-1" x2="1122.12" y2="-1" transform="matrix(-0.741547 0.670901 0.670901 0.741547 2137.86 94.03)" stroke="#262727" stroke-width="2" stroke-linecap="round"/>
<line x1="1" y1="-1" x2="1122.12" y2="-1" transform="matrix(-0.741547 0.670901 0.670901 0.741547 2151.27 108.861)" stroke="#262727" stroke-width="2" stroke-linecap="round"/>
<line x1="1" y1="-1" x2="1122.12" y2="-1" transform="matrix(-0.741547 0.670901 0.670901 0.741547 2164.69 123.692)" stroke="#262727" stroke-width="2" stroke-linecap="round"/>
<line x1="1" y1="-1" x2="1122.12" y2="-1" transform="matrix(-0.741547 0.670901 0.670901 0.741547 2178.11 138.523)" stroke="#262727" stroke-width="2" stroke-linecap="round"/>
<line x1="1" y1="-1" x2="1122.12" y2="-1" transform="matrix(-0.741547 0.670901 0.670901 0.741547 2191.53 153.354)" stroke="#262727" stroke-width="2" stroke-linecap="round"/>
<line x1="1" y1="-1" x2="1122.12" y2="-1" transform="matrix(-0.741547 0.670901 0.670901 0.741547 2204.95 168.185)" stroke="#262727" stroke-width="2" stroke-linecap="round"/>
<line x1="1" y1="-1" x2="1122.12" y2="-1" transform="matrix(-0.741547 0.670901 0.670901 0.741547 2218.36 183.016)" stroke="#262727" stroke-width="2" stroke-linecap="round"/>
<line x1="1" y1="-1" x2="1122.12" y2="-1" transform="matrix(-0.741547 0.670901 0.670901 0.741547 2231.78 197.847)" stroke="#262727" stroke-width="2" stroke-linecap="round"/>
<line x1="1" y1="-1" x2="1122.12" y2="-1" transform="matrix(-0.741547 0.670901 0.670901 0.741547 2245.2 212.677)" stroke="#262727" stroke-width="2" stroke-linecap="round"/>
<line x1="1" y1="-1" x2="1122.12" y2="-1" transform="matrix(-0.741547 0.670901 0.670901 0.741547 2258.62 227.509)" stroke="#262727" stroke-width="2" stroke-linecap="round"/>
<line x1="1" y1="-1" x2="1122.12" y2="-1" transform="matrix(-0.741547 0.670901 0.670901 0.741547 2272.04 242.339)" stroke="#262727" stroke-width="2" stroke-linecap="round"/>
<line x1="1" y1="-1" x2="1122.12" y2="-1" transform="matrix(-0.741547 0.670901 0.670901 0.741547 2285.45 257.17)" stroke="#262727" stroke-width="2" stroke-linecap="round"/>
<line x1="1" y1="-1" x2="1122.12" y2="-1" transform="matrix(-0.741547 0.670901 0.670901 0.741547 2298.87 272.001)" stroke="#262727" stroke-width="2" stroke-linecap="round"/>
<line x1="1" y1="-1" x2="1122.12" y2="-1" transform="matrix(-0.741547 0.670901 0.670901 0.741547 2312.29 286.832)" stroke="#262727" stroke-width="2" stroke-linecap="round"/>
<line x1="1" y1="-1" x2="1122.12" y2="-1" transform="matrix(-0.741547 0.670901 0.670901 0.741547 2325.71 301.663)" stroke="#262727" stroke-width="2" stroke-linecap="round"/>
<line x1="1" y1="-1" x2="1122.12" y2="-1" transform="matrix(-0.741547 0.670901 0.670901 0.741547 2339.13 316.494)" stroke="#262727" stroke-width="2" stroke-linecap="round"/>
<line x1="1" y1="-1" x2="1122.12" y2="-1" transform="matrix(-0.741547 0.670901 0.670901 0.741547 2352.54 331.325)" stroke="#262727" stroke-width="2" stroke-linecap="round"/>
</g>
<path opacity="0.6" d="M1467.27 398.328C1469.99 399.069 1472.61 396.843 1472.3 394.041L1465.86 334.154C1465.52 330.959 1461.74 329.453 1459.29 331.538L1407.63 375.568C1405.18 377.653 1406.07 381.626 1409.17 382.472L1467.27 398.328Z" fill="#C0E5ED"/>
<path opacity="0.6" d="M427.451 405.411C427.544 404.006 426.194 402.947 424.851 403.373L391.659 413.909C390.127 414.395 389.765 416.398 391.03 417.389L421.921 441.601C423.186 442.593 425.044 441.763 425.15 440.159L427.451 405.411Z" fill="#C0E5ED"/>
<g opacity="0.3">
<path d="M1735.6 366.936C1734.27 367.17 1733.55 368.619 1734.17 369.817L1741.75 384.628C1742.5 386.089 1744.59 386.077 1745.32 384.607L1754.12 366.906C1754.85 365.437 1753.6 363.761 1751.99 364.046L1735.6 366.936Z" fill="#74D7EC"/>
<path d="M1622.68 184.955C1623.83 185.658 1625.33 185.052 1625.66 183.748L1628.87 171.279C1629.28 169.689 1627.71 168.311 1626.19 168.926L1612 174.661C1610.48 175.276 1610.31 177.361 1611.71 178.22L1622.68 184.955Z" fill="#74D7EC"/>
<path d="M1576.52 292.82C1575.73 291.725 1574.12 291.7 1573.3 292.769L1562.06 307.504C1561.06 308.809 1561.98 310.691 1563.62 310.717L1585.64 311.06C1587.28 311.086 1588.25 309.233 1587.29 307.897L1576.52 292.82Z" fill="#74D7EC"/>
<circle r="4" transform="matrix(0.58708 0.809529 0.809529 -0.58708 1763.33 201.604)" fill="#74D7EC"/>
<circle r="4" transform="matrix(0.58708 0.809529 0.809529 -0.58708 1485.48 241.439)" fill="#74D7EC"/>
<circle r="4" transform="matrix(0.58708 0.809529 0.809529 -0.58708 1558.81 491.546)" fill="#74D7EC"/>
<circle r="4" transform="matrix(0.58708 0.809529 0.809529 -0.58708 1907.34 140.528)" fill="#74D7EC"/>
</g>
<g opacity="0.3">
<path d="M260.424 366.936C259.099 367.17 258.378 368.619 258.991 369.817L266.572 384.628C267.32 386.089 269.412 386.077 270.143 384.607L278.948 366.907C279.679 365.437 278.426 363.761 276.809 364.046L260.424 366.936Z" fill="#74D7EC"/>
<path d="M144.27 184.957C145.069 186.039 146.688 186.039 147.487 184.957L155.137 174.6C156.112 173.279 155.169 171.411 153.528 171.411H138.229C136.587 171.411 135.645 173.279 136.62 174.6L144.27 184.957Z" fill="#74D7EC"/>
<path d="M294.442 241.261C293.1 241.164 292.047 242.393 292.35 243.704L296.511 261.764C296.879 263.363 298.911 263.863 299.979 262.616L314.302 245.891C315.37 244.644 314.564 242.713 312.927 242.595L294.442 241.261Z" fill="#74D7EC"/>
<circle r="5.87853" transform="matrix(0.58708 0.809529 0.809529 -0.58708 433.843 309.877)" fill="#74D7EC"/>
<circle r="4" transform="matrix(0.58708 0.809529 0.809529 -0.58708 165.336 306.034)" fill="#74D7EC"/>
<rect width="13.8601" height="13.8601" rx="3" transform="matrix(0.58708 0.809529 0.809529 -0.58708 9.96875 276.716)" fill="#74D7EC"/>
</g>
<path d="M100.771 398.776C101.088 395.976 104.124 394.373 106.615 395.69L172.431 430.485C175.272 431.988 175.271 436.058 172.429 437.559L98.2318 476.737C95.3896 478.238 92.0276 475.944 92.3895 472.75L100.771 398.776Z" fill="#FFB958"/>
<path d="M1682.07 414.881C1683.47 415.084 1684.22 416.627 1683.52 417.851L1662.02 455.553C1661.22 456.949 1659.19 456.883 1658.48 455.439L1637.04 411.474C1636.33 410.03 1637.53 408.387 1639.12 408.618L1682.07 414.881Z" fill="#FFB958"/>
<path d="M1433.09 165.636C1432.82 164.253 1434.03 163.031 1435.41 163.283L1464.15 168.509C1465.73 168.796 1466.35 170.737 1465.22 171.881L1442.1 195.319C1440.97 196.463 1439.02 195.876 1438.71 194.299L1433.09 165.636Z" fill="#FFB958"/>
<path d="M407.351 180.407C407.102 181.793 405.535 182.495 404.335 181.757L379.453 166.458C378.084 165.616 378.217 163.585 379.683 162.928L409.731 149.479C411.198 148.822 412.801 150.076 412.516 151.658L407.351 180.407Z" fill="#FFB958"/>
</svg>
