<?xml version="1.0" encoding="UTF-8" standalone="no"?>
<svg width="1920" height="520" viewBox="0 0 1920 520" fill="none" xmlns="http://www.w3.org/2000/svg">
<g opacity="0.3">
<path d="M1735.6 366.936C1734.27 367.17 1733.55 368.619 1734.17 369.817L1741.75 384.628C1742.5 386.089 1744.59 386.077 1745.32 384.607L1754.12 366.906C1754.85 365.437 1753.6 363.761 1751.99 364.046L1735.6 366.936Z" fill="#74D7EC"/>
<path d="M1622.68 184.955C1623.83 185.658 1625.33 185.052 1625.66 183.748L1628.87 171.279C1629.28 169.689 1627.71 168.311 1626.19 168.926L1612 174.661C1610.48 175.276 1610.31 177.361 1611.71 178.22L1622.68 184.955Z" fill="#74D7EC"/>
<path d="M1576.52 292.82C1575.73 291.725 1574.12 291.7 1573.3 292.769L1562.06 307.504C1561.06 308.809 1561.98 310.691 1563.62 310.717L1585.64 311.06C1587.28 311.086 1588.25 309.233 1587.29 307.897L1576.52 292.82Z" fill="#74D7EC"/>
<circle r="4" transform="matrix(0.58708 0.809529 0.809529 -0.58708 1763.33 201.604)" fill="#74D7EC"/>
<circle r="4" transform="matrix(0.58708 0.809529 0.809529 -0.58708 1485.48 241.439)" fill="#74D7EC"/>
<circle r="4" transform="matrix(0.58708 0.809529 0.809529 -0.58708 1558.81 491.546)" fill="#74D7EC"/>
<circle r="4" transform="matrix(0.58708 0.809529 0.809529 -0.58708 1907.34 140.528)" fill="#74D7EC"/>
</g>
<g opacity="0.3">
<path d="M260.424 366.936C259.099 367.17 258.378 368.619 258.991 369.817L266.572 384.628C267.32 386.089 269.412 386.077 270.143 384.607L278.948 366.907C279.679 365.437 278.426 363.761 276.809 364.046L260.424 366.936Z" fill="#74D7EC"/>
<path d="M144.27 184.957C145.069 186.039 146.688 186.039 147.487 184.957L155.137 174.6C156.112 173.279 155.169 171.411 153.528 171.411H138.229C136.587 171.411 135.645 173.279 136.62 174.6L144.27 184.957Z" fill="#74D7EC"/>
<path d="M294.442 241.261C293.1 241.164 292.047 242.393 292.35 243.704L296.511 261.764C296.879 263.363 298.911 263.863 299.979 262.616L314.302 245.891C315.37 244.644 314.564 242.713 312.927 242.595L294.442 241.261Z" fill="#74D7EC"/>
<circle r="5.87853" transform="matrix(0.58708 0.809529 0.809529 -0.58708 433.843 309.877)" fill="#74D7EC"/>
<circle r="4" transform="matrix(0.58708 0.809529 0.809529 -0.58708 165.336 306.034)" fill="#74D7EC"/>
<rect width="13.8601" height="13.8601" rx="3" transform="matrix(0.58708 0.809529 0.809529 -0.58708 9.96875 276.716)" fill="#74D7EC"/>
</g>
</svg>
