<?xml version="1.0" encoding="UTF-8" standalone="no"?>
<svg width="353" height="77" viewBox="0 0 353 77" fill="none" xmlns="http://www.w3.org/2000/svg">
<g clip-path="url(#clip0_676_69)">
<path d="M11.4651 7.24703H7.27918V47.507H11.4651V54.6016H0.144043V0.0952148H11.4651V7.24703Z" fill="white"/>
<path d="M30.3345 7.41846H18.1191V46.9728H30.3345V7.41846Z" fill="white"/>
<path d="M77.9484 47.6398C77.1532 47.636 76.3635 47.5073 75.6081 47.2584C74.6389 46.8598 73.7639 46.2621 73.0394 45.5038L48.8751 23.7432V46.9914H37.8204V14.1693C37.7998 13.0199 37.9867 11.8763 38.3722 10.7936C38.7028 9.93567 39.2083 9.15624 39.8563 8.50503C40.4461 7.92319 41.1532 7.47451 41.9302 7.1891C42.741 6.92334 43.5887 6.78817 44.4418 6.7886C45.2126 6.78642 45.9782 6.91539 46.706 7.17003C47.6922 7.55898 48.5866 8.1501 49.3317 8.90554L73.5151 30.6661V7.43703H84.6649V40.1828C84.6855 41.3322 84.4986 42.4758 84.1131 43.5585C83.778 44.4254 83.2734 45.2165 82.629 45.8852C82.0283 46.495 81.2912 46.9526 80.479 47.2202C79.6626 47.4923 78.8086 47.6339 77.9484 47.6398Z" fill="white"/>
<path d="M92.1536 22.8092C92.11 22.0024 92.26 21.1969 92.5911 20.4602C92.9221 19.7236 93.4246 19.0772 94.0563 18.5753C95.443 17.5786 97.1066 17.0425 98.813 17.0425C100.519 17.0425 102.183 17.5786 103.57 18.5753C104.161 19.1117 104.634 19.7665 104.958 20.4974C105.282 21.2283 105.449 22.0191 105.449 22.8187C105.449 23.6184 105.282 24.4092 104.958 25.1401C104.634 25.871 104.161 26.5257 103.57 27.0621C102.173 28.035 100.514 28.5565 98.813 28.5565C97.1125 28.5565 95.4526 28.035 94.0563 27.0621C93.4194 26.5605 92.9135 25.9114 92.5821 25.1706C92.2507 24.4299 92.1036 23.6195 92.1536 22.8092ZM92.1536 41.8807C92.1054 41.0651 92.2531 40.2498 92.5842 39.5032C92.9152 38.7566 93.42 38.1004 94.0563 37.5896C95.443 36.5929 97.1066 36.0568 98.813 36.0568C100.519 36.0568 102.183 36.5929 103.57 37.5896C104.204 38.1025 104.707 38.759 105.038 39.5051C105.368 40.2512 105.517 41.0655 105.472 41.8807C105.518 42.6822 105.368 43.4828 105.037 44.2136C104.706 44.9444 104.202 45.5837 103.57 46.0764C102.179 47.0624 100.517 47.5919 98.813 47.5919C97.1092 47.5919 95.4474 47.0624 94.0563 46.0764C93.4215 45.5859 92.9162 44.9471 92.5845 44.2157C92.2528 43.4843 92.1049 42.6826 92.1536 41.8807Z" fill="white"/>
<path d="M157.807 7.41846L149.891 17.7171H125.841V22.8664H155.562L148.141 32.4975H125.841V46.9728H113.569V7.41846H157.807Z" fill="white"/>
<path d="M204.685 36.8077L196.789 46.9728H161.931V7.41846H174.147V36.8077H204.685Z" fill="white"/>
<path d="M234.839 6.78857C244.429 6.78857 251.634 8.42237 256.454 11.69C261.268 14.9703 263.665 20.1196 263.665 27.176C263.665 34.2325 261.268 39.4581 256.473 42.7193C251.678 45.9805 244.467 47.6398 234.839 47.6398C225.211 47.6398 217.924 45.9996 213.148 42.7193C208.373 39.439 205.994 34.2706 205.994 27.176C205.994 20.0814 208.392 14.9703 213.186 11.69C217.981 8.40965 225.192 6.78857 234.839 6.78857ZM234.839 37.303C237.438 37.3332 240.037 37.2058 242.621 36.9216C244.422 36.7628 246.174 36.2509 247.777 35.4149C249.046 34.7236 250.049 33.6304 250.632 32.3063C251.831 28.9656 251.831 25.3101 250.632 21.9695C250.047 20.6564 249.043 19.5759 247.777 18.899C246.169 18.0786 244.419 17.5737 242.621 17.4114C237.439 16.9026 232.22 16.9026 227.038 17.4114C225.24 17.5737 223.49 18.0786 221.882 18.899C220.616 19.5759 219.612 20.6564 219.028 21.9695C217.828 25.3101 217.828 28.9656 219.028 32.3063C219.61 33.6304 220.614 34.7236 221.882 35.4149C223.485 36.2509 225.237 36.7628 227.038 36.9216C229.628 37.2061 232.233 37.3335 234.839 37.303Z" fill="white"/>
<path d="M307.082 32.268C306.206 30.7232 305.464 29.3691 304.836 28.2057L303.124 25.078C302.61 24.1435 302.173 23.3234 301.792 22.5606C301.412 21.7977 301.069 21.0921 300.708 20.3864C300.39 21.0857 300.048 21.8104 299.68 22.5606C299.3 23.3234 298.881 24.1435 298.386 25.078C297.892 26.0125 297.321 26.9852 296.693 28.1867C296.065 29.3882 295.323 30.666 294.448 32.2108L288.15 43.4248C287.496 44.6265 286.579 45.6634 285.467 46.4572C284.27 47.26 282.853 47.6668 281.414 47.6205C279.925 47.6263 278.473 47.1589 277.266 46.2855C275.934 45.2551 274.988 43.8033 274.583 42.1661L264.556 7.41778H276.752L280.558 21.1874C281.186 23.4379 281.699 25.4022 282.118 27.0996C282.537 28.7969 282.898 30.4562 283.203 32.0582C283.824 30.685 284.566 29.1593 285.429 27.481C286.266 25.8027 287.332 23.6667 288.759 21.1302L294.067 11.1939C294.48 10.3604 294.991 9.57929 295.589 8.86722C296.054 8.33099 296.607 7.87934 297.226 7.53221C297.78 7.2188 298.386 7.00575 299.014 6.90284C299.644 6.81282 300.28 6.76821 300.917 6.76934C301.61 6.76194 302.304 6.80657 302.991 6.90284C303.657 6.99855 304.301 7.21162 304.893 7.53221C305.505 7.88933 306.057 8.33973 306.53 8.86722C307.154 9.56744 307.679 10.3503 308.09 11.1939L313.341 21.1874C314.103 22.5606 314.749 23.7811 315.244 24.8301C315.739 25.879 316.272 26.7372 316.709 27.6717C317.147 28.6062 317.527 29.2928 317.87 29.9985C318.212 30.7041 318.517 31.3907 318.84 32.0582C319.145 30.4943 319.525 28.8351 319.982 27.0996C320.439 25.3641 320.952 23.3997 321.542 21.1874L325.348 7.41778H337.258L327.022 42.1852C326.618 43.8275 325.664 45.2814 324.32 46.3046C323.114 47.1804 321.661 47.648 320.172 47.6396C318.763 47.6838 317.374 47.2908 316.196 46.5144C315.039 45.7135 314.082 44.6563 313.399 43.4248L307.082 32.268Z" fill="white"/>
<path d="M352.145 54.6016H340.881V47.507H345.067V7.24703H340.881V0.0952148H352.145V54.6016Z" fill="white"/>
</g>
<defs>
<clipPath id="clip0_676_69">
<rect width="352" height="76" fill="white" transform="translate(0.144043 0.0952148)"/>
</clipPath>
</defs>
</svg>
