<?xml version="1.0" encoding="UTF-8" standalone="no"?>
<!DOCTYPE svg PUBLIC "-//W3C//DTD SVG 1.1//EN" "http://www.w3.org/Graphics/SVG/1.1/DTD/svg11.dtd">
<svg width="352" height="55" viewBox="0 0 352 55" fill="none" xmlns="http://www.w3.org/2000/svg">
<g clip-path="url(#clip0_676_1139)">
<path d="M11.3211 7.15182H7.13514V47.4118H11.3211V54.5064H0V0H11.3211V7.15182Z" fill="#262727"/>
<path d="M30.19 7.32324H17.9746V46.8776H30.19V7.32324Z" fill="#262727"/>
<path d="M77.8043 47.5446C77.0091 47.5408 76.2194 47.4121 75.464 47.1632C74.4949 46.7646 73.6199 46.1669 72.8954 45.4086L48.731 23.648V46.8962H37.6763V14.0741C37.6558 12.9247 37.8427 11.7811 38.2281 10.6984C38.5588 9.84046 39.0642 9.06102 39.7122 8.40982C40.302 7.82797 41.0092 7.3793 41.7862 7.09389C42.597 6.82813 43.4447 6.69295 44.2977 6.69339C45.0686 6.6912 45.8342 6.82018 46.562 7.07482C47.5482 7.46376 48.4426 8.05488 49.1877 8.81033L73.371 30.5709V7.34182H84.5209V40.0876C84.5414 41.237 84.3545 42.3806 83.9691 43.4633C83.6339 44.3302 83.1293 45.1212 82.485 45.79C81.8842 46.3998 81.1472 46.8574 80.3349 47.125C79.5186 47.397 78.6646 47.5386 77.8043 47.5446Z" fill="#262727"/>
<path d="M92.0095 22.714C91.9659 21.9072 92.116 21.1017 92.447 20.365C92.7781 19.6284 93.2805 18.982 93.9122 18.4801C95.299 17.4833 96.9625 16.9473 98.669 16.9473C100.375 16.9473 102.039 17.4833 103.426 18.4801C104.017 19.0165 104.49 19.6713 104.814 20.4022C105.138 21.133 105.305 21.9238 105.305 22.7235C105.305 23.5232 105.138 24.314 104.814 25.0449C104.49 25.7758 104.017 26.4305 103.426 26.9669C102.029 27.9398 100.37 28.4613 98.669 28.4613C96.9684 28.4613 95.3086 27.9398 93.9122 26.9669C93.2754 26.4653 92.7695 25.8162 92.4381 25.0754C92.1067 24.3346 91.9596 23.5243 92.0095 22.714ZM92.0095 41.7855C91.9614 40.9699 92.1091 40.1546 92.4401 39.408C92.7712 38.6613 93.276 38.0052 93.9122 37.4944C95.299 36.4976 96.9625 35.9616 98.669 35.9616C100.375 35.9616 102.039 36.4976 103.426 37.4944C104.06 38.0072 104.563 38.6638 104.894 39.4099C105.224 40.156 105.373 40.9703 105.328 41.7855C105.374 42.587 105.224 43.3876 104.893 44.1184C104.562 44.8492 104.058 45.4885 103.426 45.9812C102.035 46.9672 100.373 47.4967 98.669 47.4967C96.9652 47.4967 95.3033 46.9672 93.9122 45.9812C93.2774 45.4907 92.7721 44.8518 92.4405 44.1205C92.1088 43.3891 91.9608 42.5874 92.0095 41.7855Z" fill="#262727"/>
<path d="M157.663 7.32324L149.747 17.6219H125.697V22.7712H155.417L147.997 32.4023H125.697V46.8776H113.425V7.32324H157.663Z" fill="#262727"/>
<path d="M204.541 36.7125L196.645 46.8776H161.787V7.32324H174.002V36.7125H204.541Z" fill="#262727"/>
<path d="M234.695 6.69336C244.284 6.69336 251.489 8.32715 256.309 11.5947C261.123 14.875 263.521 20.0243 263.521 27.0808C263.521 34.1373 261.123 39.3629 256.328 42.6241C251.533 45.8853 244.322 47.5446 234.695 47.5446C225.067 47.5446 217.78 45.9044 213.004 42.6241C208.228 39.3438 205.85 34.1754 205.85 27.0808C205.85 19.9862 208.247 14.875 213.042 11.5947C217.837 8.31444 225.048 6.69336 234.695 6.69336ZM234.695 37.2078C237.294 37.238 239.893 37.1106 242.477 36.8264C244.277 36.6676 246.029 36.1557 247.633 35.3197C248.901 34.6284 249.905 33.5351 250.487 32.211C251.687 28.8704 251.687 25.2149 250.487 21.8743C249.903 20.5612 248.898 19.4807 247.633 18.8038C246.024 17.9834 244.274 17.4785 242.477 17.3162C237.295 16.8073 232.075 16.8073 226.893 17.3162C225.096 17.4785 223.346 17.9834 221.737 18.8038C220.472 19.4807 219.467 20.5612 218.883 21.8743C217.683 25.2149 217.683 28.8704 218.883 32.211C219.465 33.5351 220.469 34.6284 221.737 35.3197C223.341 36.1557 225.093 36.6676 226.893 36.8264C229.484 37.1109 232.089 37.2382 234.695 37.2078Z" fill="#262727"/>
<path d="M306.938 32.1728C306.062 30.628 305.32 29.2739 304.692 28.1105L302.98 24.9828C302.466 24.0483 302.029 23.2282 301.648 22.4654C301.267 21.7025 300.925 20.9968 300.563 20.2912C300.246 20.9905 299.904 21.7152 299.536 22.4654C299.155 23.2282 298.737 24.0483 298.242 24.9828C297.747 25.9173 297.177 26.8899 296.549 28.0914C295.921 29.2929 295.179 30.5707 294.304 32.1155L288.006 43.3296C287.352 44.5313 286.435 45.5682 285.323 46.362C284.126 47.1648 282.709 47.5716 281.27 47.5253C279.781 47.5311 278.329 47.0637 277.122 46.1903C275.79 45.1599 274.844 43.7081 274.439 42.0709L264.412 7.32256H276.608L280.414 21.0922C281.042 23.3426 281.555 25.307 281.974 27.0044C282.393 28.7017 282.754 30.361 283.059 31.963C283.68 30.5898 284.422 29.0641 285.285 27.3858C286.122 25.7075 287.187 23.5715 288.614 21.035L293.923 11.0987C294.336 10.2652 294.847 9.48408 295.445 8.772C295.91 8.23578 296.463 7.78412 297.082 7.43699C297.636 7.12358 298.242 6.91054 298.87 6.80763C299.5 6.71761 300.136 6.67299 300.773 6.67413C301.466 6.66673 302.16 6.71135 302.847 6.80763C303.513 6.90333 304.157 7.1164 304.749 7.43699C305.361 7.79411 305.913 8.24452 306.386 8.772C307.01 9.47222 307.535 10.2551 307.946 11.0987L313.197 21.0922C313.958 22.4654 314.605 23.6859 315.1 24.7349C315.595 25.7838 316.128 26.642 316.565 27.5765C317.003 28.511 317.383 29.1976 317.726 29.9032C318.068 30.6089 318.373 31.2955 318.696 31.963C319.001 30.3991 319.381 28.7399 319.838 27.0044C320.295 25.2689 320.808 23.3045 321.398 21.0922L325.203 7.32256H337.114L326.878 42.0899C326.473 43.7323 325.52 45.1862 324.176 46.2094C322.97 47.0852 321.517 47.5528 320.028 47.5444C318.619 47.5886 317.23 47.1956 316.051 46.4192C314.895 45.6183 313.938 44.5611 313.254 43.3296L306.938 32.1728Z" fill="#262727"/>
<path d="M352.001 54.5064H340.737V47.4118H344.923V7.15182H340.737V0H352.001V54.5064Z" fill="#262727"/>
</g>
<defs>
<clipPath id="clip0_676_1139">
<rect width="352" height="55" fill="white"/>
</clipPath>
</defs>
</svg>
