<?xml version="1.0" encoding="UTF-8" standalone="no"?>
<svg width="542" height="372" viewBox="0 0 542 372" fill="none" xmlns="http://www.w3.org/2000/svg">
<line x1="101.855" y1="13.8669" x2="101.855" y2="371.437" stroke="#CCCCCC" stroke-width="2"/>
<line x1="215.244" y1="13.8669" x2="215.244" y2="371.437" stroke="#CCCCCC" stroke-width="2"/>
<line x1="336.573" y1="13.8669" x2="336.573" y2="371.437" stroke="#CCCCCC" stroke-width="2"/>
<line x1="449.791" y1="13.8669" x2="449.791" y2="371.437" stroke="#CCCCCC" stroke-width="2"/>
<line x1="61.4287" y1="315.779" x2="488.42" y2="315.779" stroke="#CCCCCC" stroke-width="2"/>
<line x1="61.4287" y1="210.343" x2="488.42" y2="210.343" stroke="#CCCCCC" stroke-width="2"/>
<line x1="59.4287" y1="84.8313" x2="486.42" y2="84.8313" stroke="#CCCCCC" stroke-width="2"/>
<line x1="61.4287" y1="51.4736" x2="488.42" y2="51.4736" stroke="#CCCCCC" stroke-width="2"/>
<path d="M342.738 214.11C342.738 212.462 343.55 210.92 344.908 209.988L435.986 147.446C439.304 145.167 443.817 147.543 443.817 151.567V310.781C443.817 313.542 441.578 315.781 438.817 315.781H347.738C344.977 315.781 342.738 313.542 342.738 310.781V214.11Z" stroke="#363636" stroke-width="2"/>
<path d="M108.176 214.11C108.176 212.462 108.987 210.92 110.345 209.988L201.424 147.446C204.742 145.167 209.254 147.543 209.254 151.567V310.781C209.254 313.542 207.016 315.781 204.254 315.781H113.176C110.414 315.781 108.176 313.542 108.176 310.781V214.11Z" stroke="#363636" stroke-width="2"/>
<path d="M449.855 114.509C449.87 112.066 447.116 110.631 445.122 112.041L338.33 187.6C337.585 188.127 337.121 188.965 337.068 189.876L336.487 199.939C336.344 202.424 339.114 203.992 341.171 202.591L448.468 129.491C449.283 128.935 449.773 128.015 449.779 127.03L449.855 114.509Z" stroke="#363636" stroke-width="2"/>
<path d="M215.292 114.509C215.307 112.066 212.553 110.631 210.56 112.041L103.768 187.6C103.023 188.127 102.558 188.965 102.506 189.876L101.925 199.939C101.781 202.424 104.552 203.992 106.609 202.591L213.905 129.491C214.72 128.935 215.21 128.015 215.216 127.03L215.292 114.509Z" stroke="#363636" stroke-width="2"/>
<path d="M225.797 152.486C225.797 150.839 226.608 149.297 227.967 148.365L319.045 85.8224C322.363 83.5442 326.875 85.9195 326.875 89.9442V310.779C326.875 313.54 324.637 315.779 321.875 315.779H230.797C228.035 315.779 225.797 313.54 225.797 310.779V152.486Z" stroke="#363636" stroke-width="2"/>
<path d="M332.017 53.9545C332.017 51.5203 329.271 50.0994 327.284 51.5056L221.941 126.059C221.191 126.59 220.726 127.436 220.678 128.354L220.163 138.372C220.036 140.849 222.798 142.402 224.848 141.005L330.706 68.9011C331.526 68.3424 332.017 67.4142 332.017 66.4217L332.017 53.9545Z" stroke="#363636" stroke-width="2"/>
<rect x="449.811" y="309.794" width="79.8908" height="24.8293" fill="#A3DAE4"/>
<path d="M424.217 305.824C424.217 287.726 438.888 273.054 456.986 273.054C475.085 273.054 489.756 287.726 489.756 305.824V328.492C489.756 333.594 485.619 337.731 480.516 337.731H433.456C428.353 337.731 424.217 333.594 424.217 328.491V305.824Z" fill="#50C6DB"/>
<path d="M474.134 306.832C474.134 315.989 466.484 323.461 456.986 323.461C447.489 323.461 439.839 315.989 439.839 306.832C439.839 297.675 447.489 290.203 456.986 290.203C466.484 290.203 474.134 297.675 474.134 306.832Z" fill="white" stroke="#262727" stroke-width="2"/>
<line x1="496.819" y1="310.843" x2="496.819" y2="321.208" stroke="black" stroke-width="2" stroke-linecap="square"/>
<line x1="512.028" y1="310.843" x2="512.028" y2="321.208" stroke="black" stroke-width="2" stroke-linecap="square"/>
<line x1="504.244" y1="310.843" x2="504.244" y2="316.279" stroke="black" stroke-width="2" stroke-linecap="square"/>
<line x1="519.402" y1="310.843" x2="519.402" y2="316.279" stroke="black" stroke-width="2" stroke-linecap="square"/>
<rect x="527.432" y="306.925" width="14.1719" height="30.806" rx="5" fill="#FFB958"/>
<path d="M11.9014 70.6334C11.9014 35.2251 40.6055 6.521 76.0138 6.521C111.422 6.521 140.126 35.2251 140.126 70.6334V72.4691H11.9014V70.6334Z" fill="#50C6DB"/>
<rect x="0.21875" y="68.8469" width="151.589" height="25.0137" rx="4" fill="#A3DAE4"/>
<rect x="64.3857" y="0.255371" width="23.2558" height="52.2775" rx="4" fill="#FFB958"/>
<rect x="93.4287" y="7.521" width="12.2162" height="44.012" rx="3" fill="white" stroke="#363636" stroke-width="2"/>
<rect x="46.9053" y="7.521" width="12.2162" height="44.012" rx="3" fill="white" stroke="#363636" stroke-width="2"/>
</svg>
