<?xml version="1.0" encoding="UTF-8" standalone="no"?>
<svg width="1102" height="767" viewBox="0 0 1102 767" fill="none" xmlns="http://www.w3.org/2000/svg">
<mask id="mask0_676_720" style="mask-type:alpha" maskUnits="userSpaceOnUse" x="350" y="231" width="381" height="396">
<path d="M522.51 242.792C529.771 227.663 551.311 227.663 558.572 242.792L728.858 597.608C735.23 610.885 725.553 626.262 710.827 626.262H370.255C355.529 626.262 345.853 610.885 352.225 597.608L522.51 242.792Z" fill="#C4C4C4"/>
</mask>
<g mask="url(#mask0_676_720)">
<line x1="171.476" y1="469.816" x2="1090.97" y2="-171.616" stroke="#262727" stroke-width="2" stroke-linecap="round"/>
<line x1="182.918" y1="486.219" x2="1102.42" y2="-155.213" stroke="#262727" stroke-width="2" stroke-linecap="round"/>
<line x1="194.361" y1="502.623" x2="1113.86" y2="-138.81" stroke="#262727" stroke-width="2" stroke-linecap="round"/>
<line x1="205.804" y1="519.026" x2="1125.3" y2="-122.406" stroke="#262727" stroke-width="2" stroke-linecap="round"/>
<line x1="217.246" y1="535.429" x2="1136.74" y2="-106.003" stroke="#262727" stroke-width="2" stroke-linecap="round"/>
<line x1="228.689" y1="551.832" x2="1148.19" y2="-89.6" stroke="#262727" stroke-width="2" stroke-linecap="round"/>
<line x1="240.132" y1="568.235" x2="1159.63" y2="-73.1969" stroke="#262727" stroke-width="2" stroke-linecap="round"/>
<line x1="251.574" y1="584.638" x2="1171.07" y2="-56.7937" stroke="#262727" stroke-width="2" stroke-linecap="round"/>
<line x1="263.018" y1="601.042" x2="1182.51" y2="-40.3905" stroke="#262727" stroke-width="2" stroke-linecap="round"/>
<line x1="274.46" y1="617.445" x2="1193.96" y2="-23.9873" stroke="#262727" stroke-width="2" stroke-linecap="round"/>
<line x1="285.902" y1="633.848" x2="1205.4" y2="-7.5841" stroke="#262727" stroke-width="2" stroke-linecap="round"/>
<line x1="297.346" y1="650.251" x2="1216.84" y2="8.8191" stroke="#262727" stroke-width="2" stroke-linecap="round"/>
<line x1="308.788" y1="666.654" x2="1228.29" y2="25.2223" stroke="#262727" stroke-width="2" stroke-linecap="round"/>
<line x1="320.23" y1="683.058" x2="1239.73" y2="41.6255" stroke="#262727" stroke-width="2" stroke-linecap="round"/>
<line x1="331.674" y1="699.461" x2="1251.17" y2="58.0287" stroke="#262727" stroke-width="2" stroke-linecap="round"/>
<line x1="343.116" y1="715.864" x2="1262.61" y2="74.4319" stroke="#262727" stroke-width="2" stroke-linecap="round"/>
<line x1="354.559" y1="732.267" x2="1274.06" y2="90.8351" stroke="#262727" stroke-width="2" stroke-linecap="round"/>
<line x1="366.002" y1="748.67" x2="1285.5" y2="107.238" stroke="#262727" stroke-width="2" stroke-linecap="round"/>
<line x1="377.444" y1="765.074" x2="1296.94" y2="123.641" stroke="#262727" stroke-width="2" stroke-linecap="round"/>
<line x1="388.887" y1="781.477" x2="1308.38" y2="140.045" stroke="#262727" stroke-width="2" stroke-linecap="round"/>
<line x1="400.33" y1="797.88" x2="1319.83" y2="156.448" stroke="#262727" stroke-width="2" stroke-linecap="round"/>
<line x1="411.772" y1="814.283" x2="1331.27" y2="172.851" stroke="#262727" stroke-width="2" stroke-linecap="round"/>
<line x1="423.215" y1="830.686" x2="1342.71" y2="189.254" stroke="#262727" stroke-width="2" stroke-linecap="round"/>
<line x1="434.658" y1="847.09" x2="1354.16" y2="205.657" stroke="#262727" stroke-width="2" stroke-linecap="round"/>
</g>
<path d="M364.205 270.212L392.829 239.025C393.994 237.755 395.987 237.726 397.189 238.961L427.927 270.54" stroke="#262727" stroke-width="2"/>
<path d="M473.159 468.597C473.159 466.62 474.133 464.77 475.763 463.65L630.218 357.588C634.2 354.854 639.615 357.705 639.615 362.534V630.336C639.615 633.65 636.928 636.336 633.615 636.336H479.159C475.845 636.336 473.159 633.65 473.159 630.336V468.597Z" fill="#A3DAE4"/>
<rect x="527.651" y="519.093" width="57.4677" height="105.629" rx="9" fill="white" stroke="#262727" stroke-width="2"/>
<rect x="503.479" y="459.502" width="47.9312" height="45.2535" rx="9" fill="white" stroke="#262727" stroke-width="2"/>
<rect x="561.364" y="459.502" width="47.9312" height="45.2535" rx="9" fill="white" stroke="#262727" stroke-width="2"/>
<rect x="512.682" y="558.656" width="35.7242" height="17.011" rx="6" fill="#FFB958"/>
<path d="M645.104 309.117C645.119 305.863 641.45 303.954 638.794 305.833L462.06 430.886C461.064 431.59 460.445 432.71 460.376 433.927L459.119 456.32C458.934 459.631 462.625 461.717 465.365 459.85L643.236 338.674C644.324 337.933 644.978 336.704 644.984 335.387L645.104 309.117Z" fill="#649FA9"/>
<path d="M938.817 195.525C950.497 157.976 1003.67 158.053 1015.24 195.637L1150.92 636.337H801.692L938.817 195.525Z" fill="#FFF0D1"/>
<path d="M1070.4 636.337V89.5947C1070.4 67.5033 1052.5 49.5947 1030.4 49.5947H1016.89C994.797 49.5947 976.889 67.5033 976.889 89.5947V167.484" stroke="#262727" stroke-width="2"/>
<circle cx="976.709" cy="173.384" r="32.7186" fill="#FFD67E"/>
<path fill-rule="evenodd" clip-rule="evenodd" d="M1020.59 182.502C1020.62 181.807 1020.64 181.107 1020.64 180.404C1020.64 156.141 1000.97 136.473 976.709 136.473C952.446 136.473 932.777 156.141 932.777 180.404C932.777 181.107 932.794 181.807 932.827 182.502H1020.59Z" fill="#FFB958"/>
<path fill-rule="evenodd" clip-rule="evenodd" d="M1030.95 182.722C1027.44 155.856 1004.47 135.11 976.644 135.11C948.822 135.11 925.845 155.856 922.34 182.722H920.323C923.842 154.748 947.716 133.11 976.644 133.11C1005.57 133.11 1029.45 154.748 1032.96 182.722H1030.95Z" fill="#262727"/>
<path d="M985.773 636.336L985.774 546.364" stroke="#262727" stroke-width="2"/>
<path d="M982.64 519.837C984.432 515.98 989.915 515.981 991.708 519.837L1026.26 594.162C1027.8 597.477 1025.38 601.27 1021.73 601.27H952.619C948.964 601.27 946.545 597.477 948.085 594.162L982.64 519.837Z" fill="#649FA9"/>
<path d="M982.644 491.05C984.437 487.194 989.919 487.194 991.712 491.05L1018.79 549.304C1020.34 552.618 1017.92 556.412 1014.26 556.412H960.095C956.44 556.412 954.02 552.618 955.561 549.304L982.644 491.05Z" fill="#50C6DB"/>
<path d="M982.643 463.03C984.436 459.174 989.918 459.174 991.711 463.03L1013.67 510.257C1015.21 513.571 1012.79 517.364 1009.13 517.364H965.221C961.566 517.364 959.146 513.571 960.687 510.257L982.643 463.03Z" fill="#A3DAE4"/>
<path d="M982.634 437.667C984.427 433.81 989.91 433.81 991.702 437.667L1007.6 471.872C1009.15 475.186 1006.73 478.98 1003.07 478.98H971.266C967.611 478.98 965.191 475.186 966.732 471.872L982.634 437.667Z" fill="#50C6DB"/>
<rect x="266.713" y="480.976" width="186.946" height="155.362" rx="6" fill="#50C6DB"/>
<rect x="266.705" y="392.18" width="79.1187" height="79.1187" rx="6" fill="#A3DAE4"/>
<rect x="355.859" y="267.982" width="79.1187" height="79.1187" rx="6" fill="#A3DAE4"/>
<rect x="658.419" y="480.976" width="251.318" height="155.362" rx="6" fill="#50C6DB"/>
<path d="M658.419 178.289C658.419 173.643 663.472 170.76 667.472 173.124L906.79 314.563C908.616 315.643 909.737 317.607 909.737 319.728V465.667C909.737 468.98 907.051 471.667 903.737 471.667H664.419C661.105 471.667 658.419 468.98 658.419 465.667V178.289Z" fill="#4869A7"/>
<path d="M646.98 110.565C646.98 107.472 650.34 105.55 653.007 107.117L925.427 267.197C926.685 267.936 927.44 269.301 927.399 270.759L926.311 308.916C926.224 311.961 922.9 313.796 920.277 312.245L648.945 151.861C647.727 151.141 646.98 149.832 646.98 148.418L646.98 110.565Z" fill="#50C6DB"/>
<rect x="767.734" y="334.39" width="55.6986" height="114.521" rx="9" fill="white" stroke="#262727" stroke-width="2"/>
<path d="M679.221 286.342C679.221 279.415 686.719 275.084 692.719 278.546L730.421 300.3C733.207 301.907 734.923 304.879 734.923 308.095V439.914C734.923 444.884 730.894 448.914 725.923 448.914H688.224C683.254 448.914 679.224 444.884 679.224 439.914L679.221 286.342Z" fill="white" stroke="#262727" stroke-width="2"/>
<rect x="833.393" y="334.39" width="55.6986" height="114.521" rx="9" fill="white" stroke="#262727" stroke-width="2"/>
<rect x="679.509" y="506.161" width="53.4826" height="67.9116" rx="9" fill="white" stroke="#262727" stroke-width="2"/>
<rect x="833.681" y="506.161" width="53.4826" height="67.9116" rx="9" fill="white" stroke="#262727" stroke-width="2"/>
<rect x="742.941" y="506.161" width="80.7828" height="67.9116" rx="9" fill="white" stroke="#262727" stroke-width="2"/>
<rect x="658.419" y="480.976" width="251.318" height="155.362" rx="6" fill="#A3DAE4"/>
<path d="M658.419 178.289C658.419 173.643 663.472 170.76 667.472 173.124L906.79 314.563C908.616 315.643 909.737 317.607 909.737 319.728V465.667C909.737 468.98 907.051 471.667 903.737 471.667H664.419C661.105 471.667 658.419 468.98 658.419 465.667V178.289Z" fill="#50C6DB"/>
<path d="M646.98 110.565C646.98 107.472 650.34 105.55 653.007 107.117L925.427 267.197C926.685 267.936 927.44 269.301 927.399 270.759L926.311 308.916C926.224 311.961 922.9 313.796 920.277 312.245L648.945 151.861C647.727 151.141 646.98 149.832 646.98 148.418L646.98 110.565Z" fill="#649FA9"/>
<rect x="767.734" y="334.39" width="55.6986" height="114.521" rx="9" fill="white" stroke="#262727" stroke-width="2"/>
<path d="M679.221 286.342C679.221 279.415 686.719 275.084 692.719 278.546L730.421 300.3C733.207 301.907 734.923 304.879 734.923 308.095V439.914C734.923 444.884 730.894 448.914 725.923 448.914H688.224C683.254 448.914 679.224 444.884 679.224 439.914L679.221 286.342Z" fill="white" stroke="#262727" stroke-width="2"/>
<rect x="833.393" y="334.39" width="55.6986" height="114.521" rx="9" fill="white" stroke="#262727" stroke-width="2"/>
<rect x="679.509" y="506.161" width="53.4826" height="67.9116" rx="9" fill="white" stroke="#262727" stroke-width="2"/>
<rect x="833.681" y="506.161" width="53.4826" height="67.9116" rx="9" fill="white" stroke="#262727" stroke-width="2"/>
<rect x="742.941" y="506.161" width="80.7828" height="67.9116" rx="9" fill="white" stroke="#262727" stroke-width="2"/>
<path d="M82.9697 636.338L82.9716 587.168" stroke="#262727" stroke-width="2" stroke-linecap="round"/>
<mask id="mask1_676_720" style="mask-type:alpha" maskUnits="userSpaceOnUse" x="46" y="514" width="74" height="74">
<circle cx="83.1449" cy="550.612" r="36.556" fill="#8CE1E7"/>
</mask>
<g mask="url(#mask1_676_720)">
<rect x="45.6582" y="514.429" width="5.41944" height="5.41944" rx="2" fill="#262727"/>
<rect x="55.0781" y="514.429" width="5.41944" height="5.41944" rx="2" fill="#262727"/>
<rect x="64.4971" y="514.429" width="5.41944" height="5.41944" rx="2" fill="#262727"/>
<rect x="73.917" y="514.429" width="5.41944" height="5.41944" rx="2" fill="#262727"/>
<rect x="83.3359" y="514.429" width="5.41944" height="5.41944" rx="2" fill="#262727"/>
<rect x="92.7559" y="514.429" width="5.41944" height="5.41944" rx="2" fill="#262727"/>
<rect x="102.175" y="514.429" width="5.41944" height="5.41944" rx="2" fill="#262727"/>
<rect x="111.595" y="514.429" width="5.41944" height="5.41944" rx="2" fill="#262727"/>
<rect x="45.6582" y="525.849" width="5.41944" height="5.41944" rx="2" fill="#262727"/>
<rect x="55.0781" y="525.849" width="5.41944" height="5.41944" rx="2" fill="#262727"/>
<rect x="64.4971" y="525.849" width="5.41944" height="5.41944" rx="2" fill="#262727"/>
<rect x="73.917" y="525.849" width="5.41944" height="5.41944" rx="2" fill="#262727"/>
<rect x="83.3359" y="525.849" width="5.41944" height="5.41944" rx="2" fill="#262727"/>
<rect x="92.7559" y="525.849" width="5.41944" height="5.41944" rx="2" fill="#262727"/>
<rect x="102.175" y="525.849" width="5.41944" height="5.41944" rx="2" fill="#262727"/>
<rect x="111.595" y="525.849" width="5.41944" height="5.41944" rx="2" fill="#262727"/>
<rect x="45.6582" y="537.268" width="5.41944" height="5.41944" rx="2" fill="#262727"/>
<rect x="55.0781" y="537.268" width="5.41944" height="5.41944" rx="2" fill="#262727"/>
<rect x="64.4971" y="537.268" width="5.41944" height="5.41944" rx="2" fill="#262727"/>
<rect x="73.917" y="537.268" width="5.41944" height="5.41944" rx="2" fill="#262727"/>
<rect x="83.3359" y="537.268" width="5.41944" height="5.41944" rx="2" fill="#262727"/>
<rect x="92.7559" y="537.268" width="5.41944" height="5.41944" rx="2" fill="#262727"/>
<rect x="102.175" y="537.268" width="5.41944" height="5.41944" rx="2" fill="#262727"/>
<rect x="111.595" y="537.268" width="5.41944" height="5.41944" rx="2" fill="#262727"/>
<rect x="45.6582" y="548.688" width="5.41944" height="5.41944" rx="2" fill="#262727"/>
<rect x="55.0781" y="548.688" width="5.41944" height="5.41944" rx="2" fill="#262727"/>
<rect x="64.4971" y="548.688" width="5.41944" height="5.41944" rx="2" fill="#262727"/>
<rect x="73.917" y="548.688" width="5.41944" height="5.41944" rx="2" fill="#262727"/>
<rect x="83.3359" y="548.688" width="5.41944" height="5.41944" rx="2" fill="#262727"/>
<rect x="92.7559" y="548.688" width="5.41944" height="5.41944" rx="2" fill="#262727"/>
<rect x="102.175" y="548.688" width="5.41944" height="5.41944" rx="2" fill="#262727"/>
<rect x="111.595" y="548.688" width="5.41944" height="5.41944" rx="2" fill="#262727"/>
<rect x="45.6582" y="560.107" width="5.41944" height="5.41944" rx="2" fill="#262727"/>
<rect x="55.0781" y="560.107" width="5.41944" height="5.41944" rx="2" fill="#262727"/>
<rect x="64.4971" y="560.107" width="5.41944" height="5.41944" rx="2" fill="#262727"/>
<rect x="73.917" y="560.107" width="5.41944" height="5.41944" rx="2" fill="#262727"/>
<rect x="83.3359" y="560.107" width="5.41944" height="5.41944" rx="2" fill="#262727"/>
<rect x="92.7559" y="560.107" width="5.41944" height="5.41944" rx="2" fill="#262727"/>
<rect x="102.175" y="560.107" width="5.41944" height="5.41944" rx="2" fill="#262727"/>
<rect x="111.595" y="560.107" width="5.41944" height="5.41944" rx="2" fill="#262727"/>
<rect x="45.6582" y="571.526" width="5.41944" height="5.41944" rx="2" fill="#262727"/>
<rect x="55.0781" y="571.526" width="5.41944" height="5.41944" rx="2" fill="#262727"/>
<rect x="64.4971" y="571.526" width="5.41944" height="5.41944" rx="2" fill="#262727"/>
<rect x="73.917" y="571.526" width="5.41944" height="5.41944" rx="2" fill="#262727"/>
<rect x="83.3359" y="571.526" width="5.41944" height="5.41944" rx="2" fill="#262727"/>
<rect x="92.7559" y="571.526" width="5.41944" height="5.41944" rx="2" fill="#262727"/>
<rect x="102.175" y="571.526" width="5.41944" height="5.41944" rx="2" fill="#262727"/>
<rect x="111.595" y="571.526" width="5.41944" height="5.41944" rx="2" fill="#262727"/>
<rect x="45.6582" y="582.946" width="5.41944" height="5.41944" rx="2" fill="#262727"/>
<rect x="55.0781" y="582.946" width="5.41944" height="5.41944" rx="2" fill="#262727"/>
<rect x="64.4971" y="582.946" width="5.41944" height="5.41944" rx="2" fill="#262727"/>
<rect x="73.917" y="582.946" width="5.41944" height="5.41944" rx="2" fill="#262727"/>
<rect x="83.3359" y="582.946" width="5.41944" height="5.41944" rx="2" fill="#262727"/>
<rect x="92.7559" y="582.946" width="5.41944" height="5.41944" rx="2" fill="#262727"/>
<rect x="102.175" y="582.946" width="5.41944" height="5.41944" rx="2" fill="#262727"/>
<rect x="111.595" y="582.946" width="5.41944" height="5.41944" rx="2" fill="#262727"/>
</g>
<path d="M496.375 752.582C471.7 756.079 446.588 754.934 422.333 749.206L50.2277 661.318C43.2953 659.681 44.4855 649.477 51.6086 649.479L1221.46 649.802L496.375 752.582Z" fill="#FFB958"/>
<rect x="387.682" y="100.907" width="13.478" height="82.4508" stroke="#262727" stroke-width="2"/>
<path d="M42.2559 98.2767L187.309 1.75879H217.293L394.204 98.2767" stroke="#262727" stroke-width="2"/>
<rect x="178.667" y="132.24" width="47.3328" height="490.376" stroke="#262727" stroke-width="2"/>
<line y1="-1" x2="73.6553" y2="-1" transform="matrix(0.644505 0.7646 -0.42365 0.905826 178.598 133.168)" stroke="#262727" stroke-width="2"/>
<line y1="-1" x2="73.6553" y2="-1" transform="matrix(-0.644505 0.7646 0.42365 0.905826 226.069 133.168)" stroke="#262727" stroke-width="2"/>
<line x1="178.598" y1="188.485" x2="226.069" y2="188.485" stroke="#262727" stroke-width="2"/>
<line y1="-1" x2="73.6553" y2="-1" transform="matrix(0.644505 0.7646 -0.42365 0.905826 178.598 189.485)" stroke="#262727" stroke-width="2"/>
<line y1="-1" x2="73.6553" y2="-1" transform="matrix(-0.644505 0.7646 0.42365 0.905826 226.069 189.485)" stroke="#262727" stroke-width="2"/>
<line x1="178.598" y1="244.802" x2="226.069" y2="244.802" stroke="#262727" stroke-width="2"/>
<line y1="-1" x2="73.6553" y2="-1" transform="matrix(0.644505 0.7646 -0.42365 0.905826 178.598 245.802)" stroke="#262727" stroke-width="2"/>
<line y1="-1" x2="73.6553" y2="-1" transform="matrix(-0.644505 0.7646 0.42365 0.905826 226.069 245.802)" stroke="#262727" stroke-width="2"/>
<line x1="178.598" y1="301.119" x2="226.069" y2="301.119" stroke="#262727" stroke-width="2"/>
<line y1="-1" x2="73.6553" y2="-1" transform="matrix(0.644505 0.7646 -0.42365 0.905826 178.598 302.119)" stroke="#262727" stroke-width="2"/>
<line y1="-1" x2="73.6553" y2="-1" transform="matrix(-0.644505 0.7646 0.42365 0.905826 226.069 302.119)" stroke="#262727" stroke-width="2"/>
<line x1="178.598" y1="357.436" x2="226.069" y2="357.436" stroke="#262727" stroke-width="2"/>
<line y1="-1" x2="73.6553" y2="-1" transform="matrix(0.644505 0.7646 -0.42365 0.905826 178.598 358.436)" stroke="#262727" stroke-width="2"/>
<line y1="-1" x2="73.6553" y2="-1" transform="matrix(-0.644505 0.7646 0.42365 0.905826 226.069 358.436)" stroke="#262727" stroke-width="2"/>
<line x1="178.598" y1="413.752" x2="226.069" y2="413.752" stroke="#262727" stroke-width="2"/>
<line y1="-1" x2="73.6553" y2="-1" transform="matrix(0.644505 0.7646 -0.42365 0.905826 178.598 414.752)" stroke="#262727" stroke-width="2"/>
<line y1="-1" x2="73.6553" y2="-1" transform="matrix(-0.644505 0.7646 0.42365 0.905826 226.069 414.752)" stroke="#262727" stroke-width="2"/>
<line x1="178.598" y1="470.069" x2="226.069" y2="470.069" stroke="#262727" stroke-width="2"/>
<line y1="-1" x2="73.6553" y2="-1" transform="matrix(0.644505 0.7646 -0.42365 0.905826 178.598 471.069)" stroke="#262727" stroke-width="2"/>
<line y1="-1" x2="73.6553" y2="-1" transform="matrix(-0.644505 0.7646 0.42365 0.905826 226.069 471.069)" stroke="#262727" stroke-width="2"/>
<line x1="178.598" y1="526.386" x2="226.069" y2="526.386" stroke="#262727" stroke-width="2"/>
<line y1="-1" x2="73.6553" y2="-1" transform="matrix(0.644505 0.7646 -0.42365 0.905826 178.598 527.386)" stroke="#262727" stroke-width="2"/>
<line y1="-1" x2="73.6553" y2="-1" transform="matrix(-0.644505 0.7646 0.42365 0.905826 226.069 527.386)" stroke="#262727" stroke-width="2"/>
<line x1="178.598" y1="582.703" x2="226.069" y2="582.703" stroke="#262727" stroke-width="2"/>
<rect x="187.646" y="2.00781" width="28.8135" height="95.5138" stroke="#262727" stroke-width="2"/>
<line y1="-1" x2="44.7496" y2="-1" transform="matrix(0.643479 0.765463 -0.422705 0.906267 187.476 3.00684)" stroke="#262727" stroke-width="2"/>
<line y1="-1" x2="44.7496" y2="-1" transform="matrix(-0.643479 0.765463 0.422705 0.906267 216.271 3.00684)" stroke="#262727" stroke-width="2"/>
<line x1="187.476" y1="36.2607" x2="216.271" y2="36.2607" stroke="#262727" stroke-width="2"/>
<line y1="-1" x2="44.7496" y2="-1" transform="matrix(0.643479 0.765463 -0.422705 0.906267 187.476 37.261)" stroke="#262727" stroke-width="2"/>
<line y1="-1" x2="44.7496" y2="-1" transform="matrix(-0.643479 0.765463 0.422705 0.906267 216.271 37.261)" stroke="#262727" stroke-width="2"/>
<line x1="187.476" y1="70.5154" x2="216.271" y2="70.5154" stroke="#262727" stroke-width="2"/>
<line y1="-1" x2="44.7496" y2="-1" transform="matrix(0.643479 0.765463 -0.422705 0.906267 187.476 71.5154)" stroke="#262727" stroke-width="2"/>
<line y1="-1" x2="44.7496" y2="-1" transform="matrix(-0.643479 0.765463 0.422705 0.906267 216.271 71.5154)" stroke="#262727" stroke-width="2"/>
<line x1="187.476" y1="104.77" x2="216.271" y2="104.77" stroke="#262727" stroke-width="2"/>
<rect x="172.88" y="98.4092" width="58.3464" height="49.3254" rx="6" fill="#50C6DB"/>
<rect x="33.1318" y="96.459" width="367.972" height="6.89589" rx="3.44794" fill="#FFB958"/>
<circle cx="42.9928" cy="99.9068" r="9.08651" fill="white" stroke="#262727" stroke-width="2"/>
<circle cx="394.421" cy="99.9068" r="9.08651" fill="white" stroke="#262727" stroke-width="2"/>
<path d="M384.697 162.875H404.144V199.115C404.144 204.485 399.791 208.839 394.421 208.839C389.051 208.839 384.697 204.485 384.697 199.115V162.875Z" fill="#50C6DB"/>
<path d="M394.422 208.839L394.422 219.363" stroke="#262727" stroke-width="2"/>
<path fill-rule="evenodd" clip-rule="evenodd" d="M396.227 218.523C395.816 218.478 395.398 218.455 394.975 218.455C388.665 218.455 383.549 223.571 383.549 229.882C383.549 236.192 388.665 241.308 394.975 241.308C400.281 241.308 404.741 237.693 406.028 232.791H403.944C402.718 236.573 399.166 239.308 394.975 239.308C389.769 239.308 385.549 235.088 385.549 229.882C385.549 224.675 389.769 220.455 394.975 220.455C395.4 220.455 395.817 220.483 396.227 220.537V218.523Z" fill="#262727"/>
<rect x="153.766" y="581.637" width="95.4804" height="41.9791" rx="6" fill="#50C6DB"/>
<circle cx="227" cy="625.427" r="11.2596" fill="#FFB958"/>
<circle cx="178.598" cy="625.427" r="11.2596" fill="#FFB958"/>
</svg>
