<?xml version="1.0" encoding="UTF-8" standalone="no"?>
<svg width="1920" height="812" viewBox="0 0 1920 812" fill="none" xmlns="http://www.w3.org/2000/svg">
<g opacity="0.3">
<path d="M1730.78 17.2196C1733.05 17.0619 1734.67 19.4023 1733.71 21.4729L1723.41 43.7235C1722.43 45.8318 1719.53 46.0783 1718.21 44.1649L1704.05 23.6093C1702.74 21.696 1704 19.0753 1706.32 18.9147L1730.78 17.2196Z" fill="#A3DAE4"/>
<path d="M913.828 469.331C913.588 470.719 912.028 471.431 910.823 470.703L898.966 463.543C897.59 462.712 897.707 460.679 899.17 460.011L913.383 453.522C914.845 452.855 916.458 454.098 916.184 455.682L913.828 469.331Z" fill="#A3DAE4"/>
<path d="M1359.77 205.958C1360.52 204.843 1362.14 204.774 1362.99 205.822L1373.43 218.777C1374.46 220.056 1373.59 221.961 1371.95 222.031L1352.2 222.863C1350.56 222.933 1349.54 221.106 1350.46 219.746L1359.77 205.958Z" fill="#A3DAE4"/>
<path d="M653.371 716.384C652.382 717.297 650.792 716.992 650.211 715.779L645.363 705.662C644.654 704.181 645.932 702.524 647.543 702.833L660.635 705.342C662.247 705.651 662.821 707.663 661.615 708.776L653.371 716.384Z" fill="#A3DAE4"/>
<path d="M150.485 787.265C150.793 789.26 149.083 790.984 147.086 790.691L132.049 788.491C129.613 788.135 128.62 785.158 130.354 783.41L143.071 770.591C144.805 768.843 147.79 769.813 148.166 772.246L150.485 787.265Z" fill="#A3DAE4"/>
<path d="M84.1348 65.4647C84.4428 67.4595 82.7328 69.1832 80.7356 68.891L65.6986 66.6908C63.2626 66.3344 62.2693 63.3573 64.0032 61.6096L76.7207 48.7907C78.4547 47.0429 81.4395 48.0125 81.8153 50.4457L84.1348 65.4647Z" fill="#A3DAE4"/>
<path d="M568.556 99.4865C568.745 98.1541 570.169 97.3845 571.387 97.9566L586.531 105.071C588.017 105.769 588.076 107.86 586.632 108.64L569.142 118.093C567.698 118.874 565.98 117.679 566.211 116.054L568.556 99.4865Z" fill="#A3DAE4"/>
<path d="M1387.15 39.6357C1387.47 38.3299 1388.97 37.7113 1390.12 38.4059L1406.83 48.478C1408.24 49.3254 1408.08 51.4117 1406.56 52.0391L1385.14 60.8992C1383.62 61.5265 1382.04 60.1606 1382.44 58.5679L1387.15 39.6357Z" fill="#A3DAE4"/>
<path d="M1929.61 306.489C1929.89 304.491 1932.03 303.336 1933.85 304.195L1948.49 311.071C1950.72 312.118 1950.81 315.255 1948.64 316.426L1931.74 325.564C1929.57 326.734 1927 324.942 1927.34 322.504L1929.61 306.489Z" fill="#A3DAE4"/>
<path d="M30.8267 435.776C31.3527 437.015 30.53 438.409 29.1915 438.547L10.9002 440.438C9.26758 440.607 8.1379 438.846 8.97204 437.433L20.0763 418.615C20.9104 417.202 22.9982 417.339 23.6397 418.85L30.8267 435.776Z" fill="#A3DAE4"/>
<circle cx="384.901" cy="49.6709" r="4" fill="#A3DAE4"/>
<circle cx="1563.94" cy="89.1343" r="4" fill="#A3DAE4"/>
<circle cx="746.69" cy="145.225" r="4" fill="#A3DAE4"/>
<circle cx="876.957" cy="784.515" r="5.87853" fill="#A3DAE4"/>
<circle cx="1038.79" cy="243.211" r="5.87853" fill="#A3DAE4"/>
<circle cx="392.308" cy="750.964" r="5.87853" fill="#A3DAE4"/>
<circle cx="49.3418" cy="684.199" r="4" fill="#A3DAE4"/>
<circle r="4" transform="matrix(-1 0 0 1 1307.16 134.882)" fill="#A3DAE4"/>
<circle r="4" transform="matrix(-1 0 0 1 1120.27 34.1436)" fill="#A3DAE4"/>
<circle r="4" transform="matrix(-1 0 0 1 1884.4 50.0044)" fill="#A3DAE4"/>
<rect x="736.322" y="15.4072" width="18.125" height="18.125" rx="3" fill="#A3DAE4"/>
<rect x="518.114" y="797.877" width="16.2698" height="16.2698" rx="3" transform="rotate(-32.177 518.114 797.877)" fill="#A3DAE4"/>
<rect x="1634.06" y="185.518" width="16.2698" height="16.2698" rx="3" transform="rotate(-32.177 1634.06 185.518)" fill="#A3DAE4"/>
<rect x="250.219" y="117.22" width="16.2698" height="16.2698" rx="3" transform="rotate(30.9495 250.219 117.22)" fill="#A3DAE4"/>
</g>
</svg>
