<?xml version="1.0" encoding="UTF-8" standalone="no"?>
<svg width="1901" height="643" viewBox="0 0 1901 643" fill="none" xmlns="http://www.w3.org/2000/svg">
<g opacity="0.3">
<path d="M1677.95 267.6C1680.23 267.443 1681.84 269.783 1680.88 271.854L1670.58 294.104C1669.61 296.213 1666.71 296.459 1665.39 294.546L1651.23 273.99C1649.91 272.077 1651.17 269.456 1653.49 269.296L1677.95 267.6Z" fill="#A3DAE4"/>
<path d="M622.836 463.238C622.597 464.625 621.037 465.337 619.832 464.61L607.975 457.449C606.599 456.618 606.716 454.586 608.178 453.918L622.392 447.429C623.854 446.762 625.467 448.005 625.193 449.589L622.836 463.238Z" fill="#A3DAE4"/>
<path d="M116.817 63.5758C116.577 64.9632 115.017 65.6754 113.812 64.9475L101.956 57.7872C100.579 56.9561 100.696 54.9234 102.159 54.2558L116.372 47.767C117.835 47.0994 119.447 48.3426 119.174 49.9267L116.817 63.5758Z" fill="#A3DAE4"/>
<path d="M800.461 31.4761C799.055 31.3968 798.169 29.9285 798.755 28.6479L804.512 16.0503C805.18 14.5882 807.213 14.472 808.044 15.8485L816.115 29.2267C816.946 30.6032 815.895 32.3473 814.29 32.2567L800.461 31.4761Z" fill="#A3DAE4"/>
<path d="M70.9136 275.795C69.9247 276.708 68.3349 276.403 67.7535 275.189L62.9064 265.072C62.1972 263.592 63.4745 261.935 65.0865 262.244L78.1776 264.753C79.7896 265.062 80.3637 267.074 79.1576 268.187L70.9136 275.795Z" fill="#A3DAE4"/>
<path d="M438.82 358.193C437.831 359.106 436.241 358.801 435.66 357.587L430.813 347.47C430.103 345.99 431.381 344.333 432.993 344.642L446.084 347.151C447.696 347.46 448.27 349.472 447.064 350.585L438.82 358.193Z" fill="#A3DAE4"/>
<path d="M110.27 501.978C108.576 503.076 106.304 502.222 105.752 500.28L101.601 485.661C100.929 483.292 103.238 481.167 105.542 482.033L122.445 488.385C124.75 489.251 125.088 492.371 123.022 493.711L110.27 501.978Z" fill="#A3DAE4"/>
<path d="M236.018 120.764C236.207 119.432 237.631 118.662 238.849 119.234L253.993 126.349C255.479 127.046 255.538 129.138 254.094 129.918L236.604 139.371C235.16 140.152 233.442 138.956 233.672 137.331L236.018 120.764Z" fill="#A3DAE4"/>
<path d="M1371.97 17.6362C1372.3 16.3304 1373.79 15.7118 1374.94 16.4064L1391.65 26.4785C1393.06 27.3259 1392.9 29.4122 1391.38 30.0395L1369.96 38.8997C1368.45 39.527 1366.86 38.1611 1367.26 36.5684L1371.97 17.6362Z" fill="#A3DAE4"/>
<path d="M1698.97 53.0727C1699.3 51.767 1700.79 51.1483 1701.94 51.843L1718.65 61.915C1720.06 62.7624 1719.9 64.8488 1718.38 65.4761L1696.96 74.3362C1695.45 74.9635 1693.86 73.5977 1694.26 72.0049L1698.97 53.0727Z" fill="#A3DAE4"/>
<path d="M1425.43 248.077C1424.22 248.669 1422.79 247.923 1422.58 246.594L1419.53 227.324C1419.27 225.703 1420.97 224.48 1422.43 225.236L1443 235.925C1444.45 236.682 1444.43 238.774 1442.95 239.496L1425.43 248.077Z" fill="#A3DAE4"/>
<path d="M1307.31 532.022C1307.59 530.024 1309.72 528.869 1311.55 529.727L1326.19 536.604C1328.42 537.651 1328.51 540.788 1326.34 541.959L1309.43 551.096C1307.27 552.267 1304.69 550.474 1305.04 548.037L1307.31 532.022Z" fill="#A3DAE4"/>
<circle cx="405.078" cy="16.418" r="4" fill="#A3DAE4"/>
<circle cx="52.8711" cy="168.634" r="4" fill="#A3DAE4"/>
<circle cx="1465.45" cy="126.607" r="4" fill="#A3DAE4"/>
<circle cx="631.07" cy="40.2986" r="4" fill="#A3DAE4"/>
<circle cx="438.636" cy="146.595" r="5.87853" fill="#A3DAE4"/>
<circle cx="266.337" cy="362.513" r="3.57091" fill="#A3DAE4"/>
<circle cx="1609.45" cy="182.269" r="5.87853" fill="#A3DAE4"/>
<circle r="4" transform="matrix(-1 0 0 1 1206.56 56.1611)" fill="#A3DAE4"/>
<circle r="4" transform="matrix(-1 0 0 1 1032.56 4.14453)" fill="#A3DAE4"/>
<circle r="4" transform="matrix(-1 0 0 1 1634.45 523.461)" fill="#A3DAE4"/>
<circle r="4" transform="matrix(-1 0 0 1 1122.59 508.459)" fill="#A3DAE4"/>
<circle r="6.93039" transform="matrix(-1 0 0 1 1860.62 238.029)" fill="#A3DAE4"/>
<circle r="6.93039" transform="matrix(-1 0 0 1 900.511 554.313)" fill="#A3DAE4"/>
<rect x="600.75" y="124.855" width="18.125" height="18.125" rx="3" transform="rotate(28.9397 600.75 124.855)" fill="#A3DAE4"/>
<rect x="281.402" y="242.707" width="16.2698" height="16.2698" rx="3" transform="rotate(-32.177 281.402 242.707)" fill="#A3DAE4"/>
<rect x="1064.4" y="448.625" width="16.2698" height="16.2698" rx="3" transform="rotate(-32.177 1064.4 448.625)" fill="#A3DAE4"/>
<rect x="1542.16" y="411.619" width="16.2698" height="16.2698" rx="3" transform="rotate(-32.177 1542.16 411.619)" fill="#A3DAE4"/>
<rect x="1878.45" y="21.8711" width="16.2698" height="16.2698" rx="3" transform="rotate(-32.177 1878.45 21.8711)" fill="#A3DAE4"/>
<rect x="347.297" y="469.215" width="16.2698" height="16.2698" rx="3" transform="rotate(30.9495 347.297 469.215)" fill="#A3DAE4"/>
<rect x="1776.49" y="429.125" width="24.493" height="24.493" rx="3" transform="rotate(55.3639 1776.49 429.125)" fill="#A3DAE4"/>
</g>
</svg>
