<?xml version="1.0" encoding="UTF-8" standalone="no"?>
<svg width="109" height="71" viewBox="0 0 109 71" fill="none" xmlns="http://www.w3.org/2000/svg">
<path d="M39.6832 39.476C42.2319 37.4741 42.2319 33.6137 39.6832 31.6118L8.55154 7.15967C5.27077 4.58282 0.463101 6.92002 0.463102 11.0918L0.463104 59.996C0.463104 64.1678 5.27078 66.505 8.55155 63.9281L39.6832 39.476Z" fill="#A3DAE4"/>
<path d="M105.287 33.1849C106.817 34.3861 106.817 36.7023 105.287 37.9035L86.1646 52.9232C84.1961 54.4693 81.3115 53.067 81.3115 50.5639L81.3115 20.5245C81.3115 18.0214 84.1961 16.6191 86.1646 18.1652L105.287 33.1849Z" fill="#50C6DB"/>
<path d="M73.6437 38.6878C75.6826 37.0863 75.6826 33.9979 73.6437 32.3964L54.7441 17.5519C52.1195 15.4904 48.2733 17.3602 48.2733 20.6976L48.2733 50.3866C48.2733 53.724 52.1195 55.5938 54.7441 53.5323L73.6437 38.6878Z" fill="white" stroke="#262727" stroke-width="2"/>
</svg>
