<?xml version="1.0" encoding="UTF-8" standalone="no"?>
<svg width="276" height="1367" viewBox="0 0 276 1367" fill="none" xmlns="http://www.w3.org/2000/svg">
<path d="M274.145 1365.21V41.3994C274.145 19.308 256.236 1.39941 234.145 1.39941H142.521C120.43 1.39941 102.521 19.308 102.521 41.3994V114.517" stroke="#262727" stroke-width="2" stroke-linecap="round"/>
<circle cx="102.544" cy="145.675" r="59.8033" fill="#FFD67E"/>
<path fill-rule="evenodd" clip-rule="evenodd" d="M182.747 162.343C182.807 161.072 182.837 159.794 182.837 158.509C182.837 114.161 146.886 78.21 102.539 78.21C58.1911 78.21 22.2402 114.161 22.2402 158.509C22.2402 159.794 22.2704 161.072 22.3302 162.343H182.747Z" fill="#50C6DB"/>
<path fill-rule="evenodd" clip-rule="evenodd" d="M203.365 162.343C196.98 112.585 154.466 74.1318 102.971 74.1318C51.476 74.1318 8.96216 112.585 2.57684 162.343H0.560547C6.95834 111.477 50.3699 72.1318 102.971 72.1318C155.572 72.1318 198.984 111.477 205.381 162.343H203.365Z" fill="#262727"/>
</svg>
