<?xml version="1.0" encoding="UTF-8" standalone="no"?>
<svg width="143" height="74" viewBox="0 0 143 74" fill="none" xmlns="http://www.w3.org/2000/svg">
<path d="M87.0253 5.33395C85.0239 2.84854 81.2381 2.84854 79.2367 5.33395L30.5714 65.7685C27.9372 69.0397 30.2657 73.9045 34.4657 73.9045L131.796 73.9044C135.996 73.9044 138.325 69.0397 135.691 65.7685L87.0253 5.33395Z" fill="#A3DAE4"/>
<path d="M52.3208 30.4338C50.7197 28.4455 47.691 28.4455 46.0899 30.4338L17.1317 66.3952C15.0243 69.0122 16.8872 72.904 20.2471 72.904L78.1635 72.904C81.5235 72.904 83.3863 69.0122 81.279 66.3952L52.3208 30.4338Z" fill="white" stroke="#262727" stroke-width="2"/>
<path d="M19.5886 50.4893C20.7894 48.9981 23.061 48.9981 24.2618 50.4893L39.1851 69.0217C40.7656 70.9844 39.3685 73.9032 36.8485 73.9032L7.0019 73.9032C4.48191 73.9032 3.08478 70.9844 4.66529 69.0217L19.5886 50.4893Z" fill="#50C6DB"/>
</svg>
