<?xml version="1.0" encoding="UTF-8" standalone="no"?>
<svg width="71" height="89" viewBox="0 0 71 89" fill="none" xmlns="http://www.w3.org/2000/svg">
<path d="M39.5522 49.734C37.5503 47.1821 33.6862 47.1821 31.6843 49.734L7.22433 80.9142C4.65029 84.1954 6.98792 89.0002 11.1583 89.0002L60.0782 89.0002C64.2486 89.0002 66.5862 84.1954 64.0122 80.9141L39.5522 49.734Z" fill="#A3DAE4"/>
<path d="M32.47 39.0892C34.0715 41.1307 37.1629 41.1307 38.7644 39.0892L63.4871 7.57409C65.5463 4.94912 63.6762 1.10523 60.3399 1.10523L10.8945 1.10523C7.55816 1.10523 5.68807 4.94912 7.74729 7.5741L32.47 39.0892Z" fill="white" stroke="#262727" stroke-width="2"/>
<path d="M37.982 29.7299C36.7809 31.261 34.4624 31.261 33.2613 29.7299L20.1587 13.0275C18.6143 11.0587 20.0168 8.17582 22.5191 8.17582L48.7243 8.17582C51.2265 8.17582 52.6291 11.0587 51.0846 13.0275L37.982 29.7299Z" fill="#50C6DB"/>
</svg>
