<?xml version="1.0" encoding="UTF-8" standalone="no"?>
<svg width="115" height="51" viewBox="0 0 115 51" fill="none" xmlns="http://www.w3.org/2000/svg">
<path d="M31.554 16.6648C29.9646 14.3529 26.551 14.3529 24.9616 16.6648L6.96679 42.8391C5.14216 45.4931 7.04224 49.1052 10.263 49.1052L46.2527 49.1052C49.4734 49.1052 51.3735 45.4931 49.5488 42.8391L31.554 16.6648Z" fill="white" stroke="#262727" stroke-width="2"/>
<path d="M91.1983 16.0984C89.2116 13.2086 84.9447 13.2086 82.9579 16.0984L64.9631 42.2727C62.6823 45.5902 65.0574 50.1053 69.0833 50.1053L105.073 50.1053C109.099 50.1053 111.474 45.5902 109.193 42.2727L91.1983 16.0984Z" fill="#A3DAE4"/>
<path d="M53.704 34.292C55.6908 37.1818 59.9577 37.1818 61.9444 34.292L79.9393 8.11769C82.2201 4.80018 79.845 0.285051 75.8191 0.285051L39.8294 0.285044C35.8035 0.285043 33.4284 4.80018 35.7092 8.11769L53.704 34.292Z" fill="#50C6DB"/>
</svg>
