<?xml version="1.0" encoding="UTF-8" standalone="no"?><svg width="300" height="215" viewBox="0 0 300 215" fill="none" xmlns="http://www.w3.org/2000/svg">
<g clip-path="url(#clip0_79_9120)">
<path d="M13.2323 138.99C13.2323 143.03 16.4646 146.263 20.505 146.263H83.7374C87.7778 146.263 91.0101 143.03 91.0101 138.99C91.0101 134.949 87.7778 131.717 83.7374 131.717H20.404C16.4646 131.818 13.2323 135.051 13.2323 138.99C13.2323 138.99 13.2323 135.051 13.2323 138.99Z" fill="#A5DBE4"/>
<path d="M0 158.485C0 162.525 3.23232 165.758 7.27273 165.758H96.3636C100.404 165.758 103.636 162.525 103.636 158.485C103.636 154.444 100.404 151.212 96.3636 151.212H7.27273C3.23232 151.212 0 154.545 0 158.485C0 158.485 0 154.545 0 158.485Z" fill="#52C6DC"/>
<path d="M280 206.263C280 210.707 276.364 214.344 271.919 214.344H153.333C148.889 214.344 145.253 210.707 145.253 206.263V85.1516C145.253 80.7072 148.889 77.0708 153.333 77.0708H271.919C276.364 77.0708 280 80.7072 280 85.1516V206.263Z" fill="#52C6DC"/>
<path d="M207.778 119.596C207.778 123.434 204.646 126.667 200.707 126.667H163.131C159.293 126.667 156.061 123.434 156.061 119.596V97.7777C156.061 93.9394 159.293 90.707 163.131 90.707H200.707C204.646 90.707 207.778 93.9394 207.778 97.7777V119.596Z" fill="white"/>
<path d="M207.778 119.596C207.778 123.434 204.646 126.667 200.707 126.667H163.131C159.293 126.667 156.061 123.434 156.061 119.596V97.7777C156.061 93.9394 159.293 90.707 163.131 90.707H200.707C204.646 90.707 207.778 93.9394 207.778 97.7777V119.596Z" stroke="#231F20" stroke-width="2" stroke-miterlimit="10"/>
<path d="M242.222 197.273C242.222 201.212 239.091 204.343 235.151 204.343H197.576C193.737 204.343 190.505 201.212 190.505 197.273V149.293C190.505 145.454 193.737 142.222 197.576 142.222H235.151C239.091 142.222 242.222 145.454 242.222 149.293V197.273Z" fill="white"/>
<path d="M242.222 197.273C242.222 201.212 239.091 204.343 235.151 204.343H197.576C193.737 204.343 190.505 201.212 190.505 197.273V149.293C190.505 145.454 193.737 142.222 197.576 142.222H235.151C239.091 142.222 242.222 145.454 242.222 149.293V197.273Z" stroke="#231F20" stroke-width="2" stroke-miterlimit="10"/>
<path d="M270.505 119.596C270.505 123.434 267.374 126.667 263.434 126.667H225.859C221.919 126.667 218.788 123.434 218.788 119.596V97.7777C218.788 93.9394 221.919 90.707 225.859 90.707H263.434C267.374 90.707 270.505 93.9394 270.505 97.7777V119.596Z" fill="white"/>
<path d="M270.505 119.596C270.505 123.434 267.374 126.667 263.434 126.667H225.859C221.919 126.667 218.788 123.434 218.788 119.596V97.7777C218.788 93.9394 221.919 90.707 225.859 90.707H263.434C267.374 90.707 270.505 93.9394 270.505 97.7777V119.596Z" stroke="#231F20" stroke-width="2" stroke-miterlimit="10"/>
<path d="M299.091 65.3535C301.212 69.1919 299.394 72.4243 294.949 72.4243H94.1414C89.6969 72.4243 86.0605 68.7879 86.0605 64.3435V54.6465C86.0605 50.202 89.6969 46.5657 94.1414 46.5657H280.505C284.949 46.5657 290.404 49.697 292.525 53.6364L299.091 65.3535Z" fill="#649FA9"/>
<path d="M5.55554 13.2323C5.55554 18.7879 10.101 23.3333 15.6566 23.3333H88.6869C94.2424 23.3333 98.7879 18.7879 98.7879 13.2323V10.101C98.7879 4.54545 94.2424 0 88.6869 0H15.6566C10.101 0 5.55554 4.54545 5.55554 10.101V13.2323Z" fill="#FCB859"/>
<path d="M180.505 173.333C180.505 175.657 182.424 177.576 184.747 177.576H195.455C197.778 177.576 199.697 175.657 199.697 173.333C199.697 171.01 197.778 169.091 195.455 169.091H184.747C182.424 169.091 180.505 171.01 180.505 173.333C180.505 173.333 180.505 171.01 180.505 173.333Z" fill="#FCB859"/>
<path d="M5.55554 110.202C5.55554 115.758 10.101 120.303 15.6566 120.303H88.6869C94.2424 120.303 98.7879 115.758 98.7879 110.202V107.071C98.7879 101.515 94.2424 96.9697 88.6869 96.9697H15.6566C10.101 96.9697 5.55554 101.515 5.55554 107.071V110.202Z" fill="#FCB859"/>
<path d="M22.1212 23.3333H16.1616V97.0706H22.1212V23.3333Z" fill="#FCB859"/>
<path d="M89.0909 23.3333H83.1313V97.0706H89.0909V23.3333Z" fill="#FCB859"/>
<path d="M83.1313 23.3333H22.1212V97.0706H83.1313V23.3333Z" fill="white"/>
</g>
<defs>
<clipPath id="clip0_79_9120">
<rect width="300" height="214.343" fill="white"/>
</clipPath>
</defs>
</svg>
