<?xml version="1.0" encoding="UTF-8" standalone="no"?>
<svg width="296" height="324" viewBox="0 0 296 324" fill="none" xmlns="http://www.w3.org/2000/svg">
<path d="M12.2842 182.724L115.556 110.335L116.257 127.309L255.107 29.6761" stroke="#262727" stroke-width="2"/>
<path d="M274.751 13.1687C276.518 12.7168 277.918 14.6719 276.922 16.1993L260.465 41.4206C259.697 42.5965 257.989 42.6365 257.168 41.4978L244.371 23.7583C243.546 22.615 244.132 21 245.497 20.6506L274.751 13.1687Z" fill="#FFB958"/>
<path d="M205.073 122.622C205.073 120.645 206.047 118.795 207.677 117.676L275.662 70.9916C279.644 68.2577 285.059 71.1081 285.059 75.9377V316.45C285.059 319.764 282.373 322.45 279.059 322.45H211.073C207.76 322.45 205.073 319.764 205.073 316.45V122.622Z" fill="#A3DAE4"/>
<rect x="219.483" y="131.194" width="21.993" height="41.8502" rx="5" fill="white" stroke="#262727" stroke-width="2"/>
<rect x="248.652" y="131.194" width="21.993" height="41.8502" rx="5" fill="white" stroke="#262727" stroke-width="2"/>
<rect x="219.483" y="181.982" width="21.993" height="41.8502" rx="5" fill="white" stroke="#262727" stroke-width="2"/>
<rect x="248.652" y="181.982" width="21.993" height="41.8502" rx="5" fill="white" stroke="#262727" stroke-width="2"/>
<rect x="219.483" y="232.771" width="21.993" height="41.8502" rx="5" fill="white" stroke="#262727" stroke-width="2"/>
<rect x="248.652" y="232.771" width="21.993" height="41.8502" rx="5" fill="white" stroke="#262727" stroke-width="2"/>
<path d="M287.696 47.1889C287.696 43.9433 284.035 42.0488 281.385 43.9237L201.411 100.523C200.411 101.231 199.79 102.359 199.727 103.583L199.443 109.119C199.273 112.422 202.956 114.492 205.689 112.63L285.948 57.9629C287.041 57.218 287.696 55.9804 287.696 54.6571L287.696 47.1889Z" fill="#649FA9"/>
<path d="M18.5625 264.24C18.5625 262.263 19.5364 260.413 21.1661 259.294L89.1516 212.61C93.1329 209.876 98.5481 212.726 98.5481 217.556V317.856C98.5481 321.17 95.8618 323.856 92.5481 323.856H24.5625C21.2488 323.856 18.5625 321.17 18.5625 317.856V264.24Z" fill="#A3DAE4"/>
<rect x="32.9717" y="271.676" width="21.993" height="20.9291" rx="5" fill="white" stroke="#262727" stroke-width="2"/>
<rect x="62.1406" y="271.676" width="21.993" height="20.9291" rx="5" fill="white" stroke="#262727" stroke-width="2"/>
<path d="M102.308 189.078C102.403 185.782 98.6937 183.793 96.0013 185.696L10.6693 246.013C9.70161 246.697 9.08702 247.775 8.99126 248.956L8.53297 254.609C8.26127 257.961 11.9951 260.132 14.7733 258.237L100.345 199.892C101.404 199.169 102.053 197.983 102.09 196.701L102.308 189.078Z" fill="#649FA9"/>
<path d="M110.772 196.028C110.772 194.051 111.746 192.201 113.376 191.082L182.017 143.947C185.998 141.213 191.413 144.064 191.413 148.893V317.871C191.413 321.185 188.727 323.871 185.413 323.871H116.772C113.459 323.871 110.772 321.185 110.772 317.871V196.028Z" fill="#50C6DB"/>
<rect x="125.291" y="200.928" width="22.1896" height="21.117" rx="5" fill="white" stroke="#262727" stroke-width="2"/>
<rect x="131.747" y="238.424" width="38.4793" height="74.3779" rx="7" fill="white" stroke="#262727" stroke-width="2"/>
<rect x="154.699" y="200.928" width="22.1896" height="21.117" rx="5" fill="white" stroke="#262727" stroke-width="2"/>
<path d="M195.435 119.939C195.435 116.694 191.774 114.799 189.125 116.674L108.431 173.783C107.43 174.491 106.81 175.619 106.747 176.843L106.455 182.506C106.286 185.809 109.969 187.879 112.702 186.018L193.687 130.855C194.781 130.11 195.435 128.873 195.435 127.549L195.435 119.939Z" fill="#649FA9"/>
<rect x="125.324" y="270.676" width="15.065" height="9.87255" rx="4" fill="#FFB958"/>
</svg>
